<?xml version="1.0" encoding="utf-8"?><svg viewBox="0 0 45 29" xmlns="http://www.w3.org/2000/svg" xmlns:xlink="http://www.w3.org/1999/xlink"><style>:root>svg{display:none}:root>svg:target{display:block}</style><svg fill="none" viewBox="0 0 28 29" id="icon_insta" xmlns="http://www.w3.org/2000/svg"><path d="M19.754 0H8.57C4.025 0 .328 3.856.328 8.596v11.663c0 4.74 3.697 8.596 8.242 8.596h11.184c4.545 0 8.243-3.857 8.243-8.596V8.596c0-4.74-3.698-8.596-8.243-8.596Zm5.46 20.259c0 3.144-2.445 5.693-5.46 5.693H8.57c-3.015 0-5.459-2.55-5.459-5.693V8.596c0-3.144 2.444-5.693 5.46-5.693h11.183c3.015 0 5.46 2.549 5.46 5.693v11.663Z" fill="url(#aa)"/><path d="M14.162 6.964c-3.946 0-7.156 3.348-7.156 7.463s3.21 7.463 7.156 7.463c3.946 0 7.156-3.348 7.156-7.463s-3.21-7.463-7.156-7.463Zm0 12.023c-2.415 0-4.373-2.041-4.373-4.56 0-2.518 1.958-4.56 4.373-4.56s4.373 2.042 4.373 4.56c0 2.519-1.958 4.56-4.373 4.56Z" fill="url(#ab)"/><path d="M21.332 8.809c.947 0 1.715-.8 1.715-1.789 0-.987-.768-1.788-1.715-1.788-.947 0-1.715.8-1.715 1.788s.768 1.789 1.715 1.789Z" fill="url(#ac)"/><defs><linearGradient id="aa" x1="14.162" y1="28.771" x2="14.162" y2=".224" gradientUnits="userSpaceOnUse"><stop stop-color="#E09B3D"/><stop offset=".3" stop-color="#C74C4D"/><stop offset=".6" stop-color="#C21975"/><stop offset="1" stop-color="#7024C4"/></linearGradient><linearGradient id="ab" x1="14.162" y1="28.771" x2="14.162" y2=".224" gradientUnits="userSpaceOnUse"><stop stop-color="#E09B3D"/><stop offset=".3" stop-color="#C74C4D"/><stop offset=".6" stop-color="#C21975"/><stop offset="1" stop-color="#7024C4"/></linearGradient><linearGradient id="ac" x1="21.332" y1="28.771" x2="21.332" y2=".224" gradientUnits="userSpaceOnUse"><stop stop-color="#E09B3D"/><stop offset=".3" stop-color="#C74C4D"/><stop offset=".6" stop-color="#C21975"/><stop offset="1" stop-color="#7024C4"/></linearGradient></defs></svg><svg fill="none" viewBox="0 0 29 29" id="icon_viber" xmlns="http://www.w3.org/2000/svg"><g clip-path="url(#ba)" fill="#8E24AA"><path d="M25.702 16.703c.845-7.246-.406-11.82-2.663-13.89l.001-.001C19.398-.722 7.096-1.245 2.74 2.97.782 5.032.092 8.059.017 11.805c-.076 3.747-.165 10.768 6.257 12.672h.006l-.006 2.908s-.044 1.178.695 1.415c.845.28 1.227-.268 3.856-3.466 4.396.389 7.771-.501 8.155-.631.887-.303 5.91-.98 6.722-8Zm-14.444 6.585s-2.782 3.533-3.647 4.45c-.283.299-.594.271-.589-.32 0-.389.021-4.829.021-4.829C1.598 21 1.92 15.022 1.978 11.895c.06-3.128.621-5.69 2.278-7.416C8.08.83 18.864 1.644 21.612 4.275c3.36 3.033 2.164 11.603 2.17 11.895-.69 5.86-4.76 6.232-5.508 6.485-.32.109-3.288.887-7.016.633Z"/><path d="M12.797 5.166c-.454 0-.454.722 0 .728 3.526.027 6.43 2.53 6.461 7.122 0 .484.697.478.69-.006-.038-4.948-3.208-7.816-7.15-7.844Z"/><path d="M17.435 12.255c-.01.478.684.501.69.017.058-2.728-1.593-4.975-4.696-5.212-.455-.034-.502.694-.049.727 2.691.208 4.109 2.079 4.055 4.468ZM16.691 15.358c-.583-.344-1.177-.13-1.422.208l-.514.677c-.26.344-.748.298-.748.298-3.557-.958-4.509-4.75-4.509-4.75s-.043-.514.282-.789l.642-.54c.321-.26.524-.886.197-1.5C9.747 7.354 9.16 6.8 8.861 6.375c-.314-.4-.786-.491-1.277-.22h-.01c-1.022.608-2.14 1.746-1.782 2.919.61 1.236 1.732 5.175 5.306 8.152 1.68 1.408 4.337 2.85 5.466 3.184l.01.017c1.112.377 2.193-.806 2.77-1.877v-.008c.257-.519.172-1.01-.203-1.33-.663-.659-1.664-1.386-2.45-1.854Z"/><path d="M13.915 9.743c1.134.068 1.684.671 1.743 1.91.022.485.712.451.69-.033-.075-1.618-.903-2.52-2.395-2.604-.455-.028-.497.7-.038.727Z"/></g><defs><clipPath id="ba"><path fill="#fff" d="M0 0h28.328v28.855H0z"/></clipPath></defs></svg><svg fill="none" viewBox="0 0 45 29" id="icon_visa" xmlns="http://www.w3.org/2000/svg"><path d="M42.162 0H2.375A2.38 2.38 0 0 0 0 2.386v23.32a2.38 2.38 0 0 0 2.375 2.387h39.787a2.38 2.38 0 0 0 2.375-2.386V2.386A2.38 2.38 0 0 0 42.162 0Z" fill="#0E4595"/><path d="m16.52 19.935 1.981-11.676h3.169l-1.983 11.676H16.52ZM31.135 8.51a8.152 8.152 0 0 0-2.84-.49c-3.131 0-5.337 1.584-5.355 3.853-.018 1.678 1.574 2.614 2.776 3.173 1.233.572 1.648.937 1.642 1.448-.008.783-.985 1.14-1.896 1.14-1.268 0-1.942-.177-2.982-.613l-.408-.185-.445 2.614c.74.325 2.109.608 3.53.623 3.33 0 5.492-1.566 5.517-3.99.012-1.328-.832-2.339-2.66-3.172-1.108-.54-1.786-.9-1.779-1.448 0-.485.574-1.004 1.815-1.004a5.823 5.823 0 0 1 2.371.447l.284.135.43-2.53ZM39.288 8.259H36.84c-.758 0-1.326.208-1.66.968l-4.705 10.7h3.327s.544-1.438.667-1.754l4.059.005c.094.409.385 1.75.385 1.75h2.94l-2.565-11.67Zm-3.884 7.54c.262-.674 1.262-3.265 1.262-3.265-.018.031.26-.676.42-1.114l.215 1.007.733 3.371h-2.63ZM2.724 8.259l-.04.243c1.252.304 2.37.745 3.35 1.293l2.812 10.121 3.352-.004L17.187 8.26H13.83l-3.102 7.962-.33-1.618a5.25 5.25 0 0 0-.05-.149L9.27 9.244c-.192-.739-.748-.96-1.436-.985h-5.11Z" fill="#fff"/></svg></svg>