<svg width="178" height="160" fill="none" xmlns="http://www.w3.org/2000/svg"><path d="M121.709 128.7c-.757 4.513-4.553 4.513-8.224 4.513h-2.089l1.465-8.427c.089-.509.572-.884 1.14-.884h.957c2.5 0 4.86 0 6.077 1.292.728.774.949 1.921.674 3.506Zm-1.598-11.776h-13.846c-.947 0-1.752.626-1.9 1.475l-5.599 32.242c-.11.636.431 1.211 1.14 1.211h7.104c.662 0 1.227-.438 1.33-1.032l1.588-9.141c.147-.849.953-1.474 1.9-1.474h4.381c9.12 0 14.383-4.009 15.759-11.953.619-3.475.025-6.205-1.766-8.116-1.97-2.101-5.46-3.212-10.091-3.212Z" fill="#459ADB"/><path d="M22.957 128.7c-.757 4.513-4.553 4.513-8.224 4.513h-2.089l1.466-8.427c.088-.509.572-.884 1.14-.884h.957c2.499 0 4.86 0 6.076 1.292.729.774.949 1.921.674 3.506Zm-1.598-11.776H7.513c-.946 0-1.752.626-1.9 1.475L.014 150.641c-.11.636.431 1.211 1.14 1.211h6.611c.947 0 1.753-.625 1.9-1.475l1.511-8.698c.147-.849.954-1.474 1.9-1.474h4.382c9.12 0 14.383-4.009 15.758-11.953.62-3.475.025-6.205-1.766-8.116-1.97-2.101-5.459-3.212-10.09-3.212Zm32.144 23.351c-.64 3.44-3.648 5.749-7.484 5.749-1.922 0-3.462-.561-4.451-1.625-.981-1.054-1.35-2.556-1.04-4.229.598-3.409 3.653-5.793 7.43-5.793 1.883 0 3.412.566 4.42 1.64 1.016 1.081 1.415 2.593 1.125 4.258Zm9.24-11.72h-6.63c-.569 0-1.052.376-1.14.885l-.292 1.684-.464-.61c-1.436-1.893-4.635-2.525-7.83-2.525-7.325 0-13.582 5.041-14.8 12.11-.634 3.528.266 6.898 2.468 9.251 2.023 2.161 4.91 3.061 8.35 3.061 5.904 0 9.179-3.444 9.179-3.444l-.296 1.673c-.111.636.43 1.212 1.14 1.212h5.97c.947 0 1.753-.625 1.9-1.474l3.584-20.612c.111-.636-.43-1.211-1.14-1.211Z" fill="#253B7D"/><path d="M152.254 140.275c-.64 3.44-3.648 5.749-7.483 5.749-1.923 0-3.462-.561-4.452-1.625-.981-1.054-1.35-2.556-1.039-4.229.597-3.409 3.653-5.793 7.43-5.793 1.883 0 3.411.566 4.42 1.64 1.016 1.081 1.414 2.593 1.124 4.258Zm9.24-11.72h-6.63c-.568 0-1.052.376-1.14.885l-.292 1.684-.463-.61c-1.436-1.893-4.636-2.525-7.831-2.525-7.325 0-13.582 5.041-14.8 12.11-.633 3.528.266 6.898 2.469 9.251 2.022 2.161 4.91 3.061 8.349 3.061 5.904 0 9.179-3.444 9.179-3.444l-.296 1.673c-.111.636.431 1.212 1.14 1.212h5.971c.946 0 1.752-.625 1.9-1.474l3.583-20.612c.111-.636-.431-1.211-1.139-1.211Z" fill="#459ADB"/><path d="M98.053 128.555h-6.664c-.637 0-1.234.288-1.591.766l-9.193 12.295-3.895-11.815c-.244-.738-.993-1.246-1.843-1.246h-6.55c-.792 0-1.348.707-1.094 1.387l7.338 19.56-6.902 8.844c-.541.694.006 1.654.942 1.654h6.658c.63 0 1.222-.281 1.58-.752l22.163-29.047c.53-.695-.018-1.646-.949-1.646Z" fill="#253B7D"/><path d="m169.307 117.809-5.682 32.832c-.11.636.431 1.211 1.14 1.211h5.715c.946 0 1.752-.625 1.9-1.475l5.603-32.241c.111-.637-.431-1.212-1.14-1.212h-6.396c-.568 0-1.052.376-1.14.885Zm-37.139-91.306c1.402-8.116-.01-13.638-4.843-18.64-5.322-5.507-14.935-7.866-27.235-7.866H64.385c-2.514 0-4.654 1.661-5.046 3.917L44.472 89.533c-.294 1.689 1.144 3.216 3.027 3.216h22.042l-1.521 8.762c-.257 1.478 1 2.814 2.649 2.814h18.579c2.198 0 4.07-1.453 4.414-3.425l.182-.858 3.5-20.156.226-1.114c.342-1.972 2.214-3.426 4.413-3.426h2.78c17.999 0 32.092-6.641 36.21-25.847 1.721-8.025.831-14.724-3.719-19.433-1.377-1.425-3.089-2.602-5.086-3.563Z" fill="#459ADB"/><path d="M132.168 26.503c1.402-8.116-.01-13.638-4.843-18.64-5.322-5.507-14.935-7.866-27.235-7.866H64.385c-2.514 0-4.654 1.661-5.046 3.916l-14.867 85.62c-.294 1.689 1.144 3.216 3.027 3.216h22.042l5.537-31.885-.172 1c.392-2.255 2.515-3.917 5.028-3.917H90.41c20.575 0 36.685-7.59 41.393-29.545.139-.65.258-1.28.365-1.9Z" fill="#232D62"/><path d="M81.026 26.61c.236-1.356 1.194-2.466 2.485-3.028a4.835 4.835 0 0 1 1.93-.398h27.987c3.315 0 6.407.197 9.233.61.808.12 1.594.255 2.358.409a37.685 37.685 0 0 1 3.28.816c1.388.418 2.68.912 3.869 1.484 1.402-8.116-.01-13.638-4.843-18.64-5.322-5.507-14.935-7.866-27.235-7.866H64.385c-2.514 0-4.654 1.661-5.046 3.916l-14.867 85.62c-.294 1.689 1.144 3.216 3.027 3.216h22.042l5.537-31.885 5.948-34.254Z" fill="#253B7D"/></svg>