<svg width="187" height="187" fill="none" xmlns="http://www.w3.org/2000/svg"><g clip-path="url(#a)"><path d="M147.442 0H39.558C17.71 0 0 17.71 0 39.558v107.884C0 169.289 17.71 187 39.558 187h107.884C169.289 187 187 169.289 187 147.442V39.558C187 17.71 169.289 0 147.442 0Z" fill="#1E1F24"/><path fill-rule="evenodd" clip-rule="evenodd" d="M65.768 106.482V87.741c0-5.32-2.914-7.852-7.596-7.852-3.926 0-7.474 2.405-8.99 4.687-1.012-2.915-3.421-4.687-7.22-4.687-3.798 0-7.473 2.532-8.484 4.053v-3.42H26.64v25.96h6.837V89.007c1.01-1.394 3.038-3.038 5.32-3.038 2.786 0 3.925 1.772 3.925 4.181v16.464h6.836V89.011c1.011-1.393 2.915-3.037 5.32-3.037 2.787 0 3.926 1.771 3.926 4.18v16.465h6.963v-.137Zm18.742.633c-8.613 0-13.677-6.203-13.677-13.676 0-7.474 5.192-13.55 13.677-13.55 8.484 0 13.804 6.203 13.804 13.55 0 7.346-5.192 13.676-13.804 13.676Zm0-6.08c4.304 0 6.713-3.547 6.713-7.596 0-4.05-2.405-7.474-6.713-7.474-4.309 0-6.586 3.548-6.586 7.474 0 4.18 2.405 7.596 6.586 7.596Zm43.184 5.447V88.119c0-5.064-2.787-8.23-8.485-8.23-4.303 0-7.473 2.027-9.117 4.053v-3.42h-6.837v25.96h6.964V89.007c1.139-1.521 3.165-3.038 5.953-3.038 2.787 0 4.814 1.266 4.814 4.814v15.704h6.713l-.005-.005Zm18.869.633c-8.612 0-13.677-6.203-13.677-13.676 0-7.474 5.192-13.55 13.677-13.55s13.804 6.203 13.804 13.55c0 7.346-5.192 13.676-13.804 13.676Zm0-6.08c4.304 0 6.713-3.547 6.713-7.596 0-4.05-2.405-7.474-6.713-7.474s-6.586 3.548-6.586 7.474c0 4.18 2.278 7.596 6.586 7.596Z" fill="#fff"/></g><defs><clipPath id="a"><path fill="#fff" d="M0 0h187v187H0z"/></clipPath></defs></svg>