<svg width="45" height="29" fill="none" xmlns="http://www.w3.org/2000/svg"><path d="M42.162 0H2.375A2.38 2.38 0 0 0 0 2.386v23.32a2.38 2.38 0 0 0 2.375 2.387h39.787a2.38 2.38 0 0 0 2.375-2.386V2.386A2.38 2.38 0 0 0 42.162 0Z" fill="#0E4595"/><path d="m16.52 19.935 1.981-11.676h3.169l-1.983 11.676H16.52ZM31.135 8.51a8.152 8.152 0 0 0-2.84-.49c-3.131 0-5.337 1.584-5.355 3.853-.018 1.678 1.574 2.614 2.776 3.173 1.233.572 1.648.937 1.642 1.448-.008.783-.985 1.14-1.896 1.14-1.268 0-1.942-.177-2.982-.613l-.408-.185-.445 2.614c.74.325 2.109.608 3.53.623 3.33 0 5.492-1.566 5.517-3.99.012-1.328-.832-2.339-2.66-3.172-1.108-.54-1.786-.9-1.779-1.448 0-.485.574-1.004 1.815-1.004a5.823 5.823 0 0 1 2.371.447l.284.135.43-2.53Zm8.153-.251H36.84c-.758 0-1.326.208-1.66.968l-4.705 10.7h3.327s.544-1.438.667-1.754l4.059.005c.094.409.385 1.75.385 1.75h2.94l-2.565-11.67Zm-3.884 7.54c.262-.674 1.262-3.265 1.262-3.265-.018.031.26-.676.42-1.114l.215 1.007.733 3.371h-2.63Zm-32.68-7.54-.04.243c1.252.304 2.37.745 3.35 1.293l2.812 10.121 3.352-.004L17.187 8.26H13.83l-3.102 7.962-.33-1.618a5.25 5.25 0 0 0-.05-.149L9.27 9.244c-.192-.739-.748-.96-1.436-.985h-5.11Z" fill="#fff"/></svg>