<svg width="23" height="23" fill="none" xmlns="http://www.w3.org/2000/svg"><g clip-path="url(#a)" fill="#025FA7"><path d="M17.18 4.015a1.314 1.314 0 1 0 1.314 1.314 1.323 1.323 0 0 0-1.314-1.314Zm-5.885 1.682a5.533 5.533 0 1 0 0 11.066 5.533 5.533 0 0 0 0-11.066Zm0 9.075a3.55 3.55 0 1 1 3.542-3.55 3.552 3.552 0 0 1-3.542 3.558v-.008Z"/><path d="M15.71 22.46H6.733a6.75 6.75 0 0 1-6.75-6.741V6.74a6.758 6.758 0 0 1 6.75-6.75h8.977a6.758 6.758 0 0 1 6.75 6.75v8.978a6.75 6.75 0 0 1-6.75 6.741ZM6.733 2.114A4.644 4.644 0 0 0 2.097 6.75v8.977a4.644 4.644 0 0 0 4.636 4.636h8.977a4.643 4.643 0 0 0 4.636-4.636V6.75a4.644 4.644 0 0 0-4.636-4.636H6.733Z"/></g><defs><clipPath id="a"><path fill="#fff" d="M0 0h22.46v22.46H0z"/></clipPath></defs></svg>