<svg width="70" height="70" fill="none" xmlns="http://www.w3.org/2000/svg"><path d="M69.167 34.584c0 19.096-15.486 34.583-34.584 34.583C15.488 69.167 0 53.681 0 34.583 0 15.488 15.486 0 34.584 0 53.68 0 69.166 15.486 69.166 34.584Z" fill="url(#a)"/><path opacity=".05" d="M39.771 10.375h-1.73a3.462 3.462 0 0 0-3.457 3.458 3.462 3.462 0 0 0-3.459-3.458h-1.729a3.462 3.462 0 0 0-3.458 3.458v1.73h-1.73a3.462 3.462 0 0 0-3.458 3.458v31.125a3.462 3.462 0 0 0 3.459 3.458h1.729v1.73a3.462 3.462 0 0 0 3.458 3.458h1.73a3.462 3.462 0 0 0 3.457-3.459v-1.729 1.73a3.462 3.462 0 0 0 3.459 3.458h1.729a3.462 3.462 0 0 0 3.458-3.459v-2.405c1.93-.5 3.556-1.28 4.846-2.324 2.52-2.044 3.8-5.037 3.8-8.895 0-2.318-.633-4.33-1.878-5.977a8.619 8.619 0 0 0-1.909-1.87 9.103 9.103 0 0 0 1.42-1.651c1.051-1.58 1.582-3.41 1.582-5.442 0-3.664-1.32-6.508-3.923-8.45-1.083-.808-2.38-1.43-3.938-1.885v-2.6a3.462 3.462 0 0 0-3.458-3.459Zm-8.646 13.833h5.532c2.037 0 2.901.428 3.235.682.448.34.676 1.016.676 2.007 0 .912 0 2.437-3.657 2.499h-5.786v-5.188Zm0 13.834h6.917c2.286.033 3.458 1.425 3.458 4.134 0 2.751-3.576 2.782-3.728 2.782h-6.647v-6.916Z" fill="#000"/><path opacity=".07" d="M39.772 11.24h-1.73a2.597 2.597 0 0 0-2.593 2.594v2.593h-1.73v-2.593a2.597 2.597 0 0 0-2.593-2.594h-1.73a2.597 2.597 0 0 0-2.593 2.594v2.593h-2.594a2.597 2.597 0 0 0-2.594 2.594v31.125a2.597 2.597 0 0 0 2.594 2.594h2.594v2.594a2.597 2.597 0 0 0 2.593 2.593h1.73a2.597 2.597 0 0 0 2.593-2.593V52.74h1.73v2.594a2.597 2.597 0 0 0 2.593 2.593h1.73a2.597 2.597 0 0 0 2.593-2.593v-3.089c2.098-.456 3.832-1.232 5.165-2.313 2.31-1.873 3.481-4.64 3.481-8.223 0-2.126-.572-3.961-1.703-5.457a7.816 7.816 0 0 0-2.732-2.298 8.148 8.148 0 0 0 2.215-2.225c.954-1.434 1.437-3.102 1.437-4.96 0-3.377-1.204-5.986-3.576-7.758-1.136-.85-2.544-1.479-4.285-1.918v-3.26a2.6 2.6 0 0 0-2.595-2.593Zm-9.51 12.104h6.395c1.747 0 3.013.289 3.76.858.683.52 1.016 1.402 1.016 2.695 0 1.53-.511 3.296-4.506 3.364h-6.666v-6.917Zm0 13.833h7.78c2.784.04 4.323 1.816 4.323 5 0 3.605-4.406 3.646-4.592 3.646H30.26v-8.646Z" fill="#000"/><path d="M29.396 12.104h1.73a1.73 1.73 0 0 1 1.729 1.73v5.187a1.73 1.73 0 0 1-1.73 1.73h-1.729a1.73 1.73 0 0 1-1.729-1.73v-5.188a1.73 1.73 0 0 1 1.73-1.729Zm8.646 0h1.73a1.73 1.73 0 0 1 1.728 1.73v5.187a1.73 1.73 0 0 1-1.729 1.73h-1.729a1.73 1.73 0 0 1-1.73-1.73v-5.188c0-.954.776-1.729 1.73-1.729Zm-8.646 36.313h1.73a1.73 1.73 0 0 1 1.729 1.73v5.187a1.73 1.73 0 0 1-1.73 1.729h-1.729a1.73 1.73 0 0 1-1.729-1.73v-5.187c0-.954.775-1.73 1.73-1.73Zm8.646 0h1.73a1.73 1.73 0 0 1 1.728 1.73v5.187a1.73 1.73 0 0 1-1.729 1.729h-1.729a1.73 1.73 0 0 1-1.73-1.73v-5.187c0-.954.776-1.73 1.73-1.73Zm-15.563 1.73V19.02c0-.955.775-1.73 1.73-1.73h12.448c4.167 0 7.321.805 9.476 2.413 2.154 1.608 3.228 3.965 3.228 7.065 0 1.695-.432 3.189-1.29 4.479-.864 1.29-2.066 2.236-3.607 2.838 1.757.446 3.14 1.336 4.154 2.688 1.015 1.342 1.528 2.983 1.528 4.935 0 3.324-1.053 5.843-3.16 7.552-2.108 1.708-5.107 2.58-9.005 2.614H24.21a1.73 1.73 0 0 1-1.73-1.729Zm6.917-19.022h7.545c3.567-.06 5.357-1.425 5.357-4.228 0-1.566-.454-2.695-1.358-3.384-.904-.688-2.33-1.034-4.283-1.034h-7.26v8.646Zm0 5.188v10.375h8.376c1.662 0 5.458-.811 5.458-4.512 0-3.7-1.932-5.817-5.188-5.863h-8.646Z" fill="#fff"/><defs><linearGradient id="a" x1="17.29" y1="4.629" x2="51.877" y2="64.538" gradientUnits="userSpaceOnUse"><stop stop-color="#FFDA1C"/><stop offset="1" stop-color="#FEB705"/></linearGradient></defs></svg>