<svg width="100" height="100" fill="none" xmlns="http://www.w3.org/2000/svg"><circle cx="50" cy="50" r="50" fill="#36B98F"/><g clip-path="url(#a)" fill="#fff"><path d="M35.542 37.426H25.85c-2.127 0-3.851 1.745-3.851 3.898v29.928c0 2.153 1.724 3.898 3.85 3.898h9.692c2.127 0 3.85-1.745 3.85-3.898V41.324c0-2.153-1.724-3.898-3.85-3.898Zm39.152 3.61h-11.06l3.617-6.592a6.426 6.426 0 0 0 .667-4.359 6.368 6.368 0 0 0-2.297-3.749 6.229 6.229 0 0 0-4.153-1.333 6.242 6.242 0 0 0-4.011 1.724l-12.12 11.537v34.218h21.656a6.277 6.277 0 0 0 3.485-1.066 6.39 6.39 0 0 0 2.33-2.832l7.753-18.68a6.454 6.454 0 0 0-.569-6.036 6.334 6.334 0 0 0-2.295-2.093 6.244 6.244 0 0 0-3.003-.739Z"/></g><defs><clipPath id="a"><path fill="#fff" transform="translate(22 25)" d="M0 0h59v50.15H0z"/></clipPath></defs></svg>