<svg width="100" height="100" fill="none" xmlns="http://www.w3.org/2000/svg"><path d="M50 0C22.385 0 0 22.386 0 50c0 27.611 22.385 50 49.998 50 27.613 0 50-22.388 50-50 0-27.614-22.386-50-50-50Zm21.042 65.1c0 .981-1.12 1.81-2.443 1.81H25.174c-1.324 0-2.443-.83-2.443-1.81V44.002c0-.98 1.119-1.81 2.443-1.81H68.6c1.323 0 2.443.83 2.443 1.81V65.1Zm8.645-8.647c0 .981-1.12 1.81-2.443 1.81h-1.015V44.002c0-3.858-3.423-6.997-7.63-6.997H31.376v-1.65c0-.98 1.12-1.809 2.444-1.809h43.424c1.324 0 2.443.83 2.443 1.81v21.097Z" fill="#025FA7"/><path d="M46.447 52.734c-2.023-.242-2.985-.512-2.985-1.389 0-1.362 1.994-1.509 2.851-1.509 1.268 0 2.668.61 3.122 1.361l.2.331 2.983-1.38-.195-.397c-1.027-2.1-2.842-2.743-4.253-3.006V44.88h-3.487v1.853c-3.01.478-4.792 2.182-4.792 4.611 0 4.01 3.748 4.428 6.227 4.705 2.19.26 3.254.801 3.254 1.657 0 1.689-2.404 1.82-3.142 1.82-1.658 0-3.255-.82-3.712-1.905l-.169-.4-3.234 1.371.17.399c.894 2.092 2.803 3.413 5.398 3.75v2.007h3.487V62.64c2.499-.318 4.896-1.924 4.896-4.934.001-4.158-3.982-4.648-6.619-4.973Z" fill="#025FA7"/></svg>