<svg width="81" height="81" fill="none" xmlns="http://www.w3.org/2000/svg"><path d="M40.5 74.25 3.375 37.969l13.5-29.532h47.25l13.5 29.532L40.5 74.25Z" fill="#4DB6AC"/><path d="M64.125 37.125c0-2.423-7.95-4.447-18.563-4.943V27h13.5V16.875H21.938V27h13.5v5.182c-10.613.496-18.563 2.52-18.563 4.943 0 2.423 7.95 4.447 18.563 4.943V60.75h10.124V42.068c10.613-.496 18.563-2.52 18.563-4.943ZM40.5 40.5c-11.183 0-20.25-1.7-20.25-3.797 0-1.768 6.458-3.25 15.188-3.672v5.647c1.62.1 3.307.135 5.062.135 1.755 0 3.443-.034 5.063-.136v-5.646c8.729.422 15.187 1.904 15.187 3.672 0 2.098-9.067 3.797-20.25 3.797Z" fill="#fff"/></svg>