<svg width="160" height="160" fill="none" xmlns="http://www.w3.org/2000/svg"><mask id="a" style="mask-type:alpha" maskUnits="userSpaceOnUse" x="0" y="0" width="160" height="160"><path fill="#D9D9D9" d="M0 0h160v160H0z"/></mask><g mask="url(#a)" fill-rule="evenodd" clip-rule="evenodd"><path d="M-21-21h202v202H-21V-21Z" fill="#fff"/><path d="M79.805 159.689c44.141 0 80.079-35.547 80.079-79.69 0-44.14-35.938-79.687-80.079-79.687C36.054.312.117 35.86.117 80c0 44.142 35.937 79.689 79.688 79.689Z" fill="#C82E37"/><path d="M35.274 68.672c-.39-1.172-.781-1.953-1.563-2.344-1.171-.781-1.952-.781-3.125-.781-2.734 0-3.906.781-3.906 1.953 0 5.47 20.704 1.952 20.704 15.235 0 8.592-6.641 12.5-16.798 12.5-9.374 0-15.625-5.469-16.015-12.111H25.9c.39 1.173.782 2.345 1.953 2.734 1.172.782 2.344 1.173 3.516 1.173 2.734 0 4.688-1.173 4.688-2.734 0-5.47-20.704-1.562-20.704-15.626 0-7.812 6.64-11.328 15.626-11.328 10.156 0 14.843 5.079 15.625 11.328h-11.33Zm43.749 15.626 4.299-16.407h9.764l-8.203 26.563H74.336L70.43 78.827l-3.905 15.627H56.368L47.773 67.89H57.93l3.906 16.407h.39l3.908-16.407h8.983l3.906 16.407ZM94.648 67.89h10.546v26.563H94.648V67.89Zm0-10.547h10.546v7.423H94.648v-7.423Zm30.86 10.547v6.25h-4.297v20.313h-10.546V74.14h-3.125v-6.25h3.516c0-9.375 3.516-10.547 10.155-10.547h4.297v6.25c-3.123 0-4.297 0-4.297 4.297h4.297Z" fill="#fff"/><path d="M143.867 94.453c-13.671.782-15.625-.39-15.625-9.374V74.141h-3.515v-6.25h3.906v-8.205h10.155v8.205h5.079v6.25h-5.079v9.374c0 2.343.391 3.516 3.516 3.516h1.562v7.422h.001Z" fill="#fff"/></g></svg>