<svg width="100" height="100" fill="none" xmlns="http://www.w3.org/2000/svg"><circle cx="50" cy="50" r="50" fill="#025FA7"/><g clip-path="url(#a)"><path d="M77.833 26.394c-.413 0-.81.116-1.178.344-.478.296-1.164.46-1.934.46a7.03 7.03 0 0 1-2.025-.321c-.925-.28-2.013-1.275-3.234-2.957a2.265 2.265 0 0 0-1.835-.92c-.72 0-1.395.34-1.805.91-1.216 1.686-2.306 2.684-3.242 2.967-.693.21-1.438.32-2.153.32-.843 0-1.623-.159-2.086-.424a2.816 2.816 0 0 0-1.372-.373c-1.33 0-2.37 1.063-2.37 2.421v6.69l-8.086-1.485a8.813 8.813 0 0 0-1.515-.117 8.81 8.81 0 0 0-1.515.117L22.943 37.8c-.283.052-1.147.211-1.15.95-.004.738.858.905 1.142.96l19.555 3.787c.789.153 1.645.304 1.95.344l1.071.006.046-.006a47.21 47.21 0 0 0 1.948-.344l7.144-1.383c.162 1.446.716 2.897 1.642 4.324l-7.928 1.535a43.49 43.49 0 0 1-2.726.419 8.24 8.24 0 0 1-.639.015c-.465 0-.632-.015-.633-.015a42.643 42.643 0 0 1-2.733-.42l-18.407-3.564a2.069 2.069 0 0 0-.392-.038c-1.045 0-1.833.806-1.833 1.874v25.23c0 1.118.86 2.16 1.957 2.373l20.521 3.974c.412.08.951.123 1.52.123a8.46 8.46 0 0 0 1.52-.123l20.521-3.974c1.097-.213 1.957-1.255 1.957-2.372V54.009c.328-.157.722-.361 1.2-.628.944-.526 2.385-1.4 3.89-2.582C77.957 47.766 80 44.453 80 41.22V28.685c0-1.487-1.116-2.29-2.167-2.29ZM75.766 41.22c0 3.933-6.361 7.898-8.513 8.936-2.053-.947-8.421-4.864-8.421-8.936v-9.907c.508.078 1.042.118 1.595.118 1.125 0 2.293-.173 3.379-.502 1.535-.464 2.813-1.478 3.835-2.56 1.024 1.083 2.301 2.098 3.83 2.56 1.1.333 2.194.502 3.25.502.356 0 .705-.02 1.045-.058v9.847Z" fill="#F3F3F3"/></g><defs><clipPath id="a"><path fill="#fff" transform="translate(20 20)" d="M0 0h59v59H0z"/></clipPath></defs></svg>