<svg width="16" height="22" fill="none" xmlns="http://www.w3.org/2000/svg"><g clip-path="url(#a)" fill="#fff"><path d="M12.04 0H3.53A3.55 3.55 0 0 0 0 3.58v14.78a3.55 3.55 0 0 0 3.53 3.55h8.5a3.55 3.55 0 0 0 3.55-3.55V3.58A3.55 3.55 0 0 0 12.04 0ZM2.3 3.58A1.25 1.25 0 0 1 3.53 2.3h8.5a1.25 1.25 0 0 1 1.26 1.28v14.78a1.25 1.25 0 0 1-1.25 1.22H3.53a1.25 1.25 0 0 1-1.24-1.25L2.3 3.58Z"/><path d="M8.84 18.38H6.75a1.14 1.14 0 0 1-1.15-1.15 1.15 1.15 0 0 1 1.15-1.15h2.09a1.16 1.16 0 0 1 1.15 1.15 1.15 1.15 0 0 1-1.15 1.15Z"/></g><defs><clipPath id="a"><path fill="#fff" d="M0 0h15.59v21.91H0z"/></clipPath></defs></svg>