<svg width="17" height="21" fill="none" xmlns="http://www.w3.org/2000/svg"><g clip-path="url(#a)" fill="#fff"><path d="M8.47 0A8.48 8.48 0 0 0 0 8.47c0 3.11 3.41 7.79 6.28 11.17a2.86 2.86 0 0 0 2.19 1 2.89 2.89 0 0 0 2.19-1c2.86-3.38 6.27-8.06 6.27-11.17A8.47 8.47 0 0 0 8.47 0Zm.46 18.15a.539.539 0 0 1-.43.2.55.55 0 0 1-.44-.2c-3.59-4.23-5.73-7.85-5.73-9.68a6.17 6.17 0 1 1 12.33 0c-.03 1.83-2.17 5.48-5.73 9.68Z"/><path d="M8.47 9.87a1.75 1.75 0 1 0 0-3.5 1.75 1.75 0 0 0 0 3.5Z"/></g><defs><clipPath id="a"><rect width="16.94" height="20.65" rx="8.47" fill="#fff"/></clipPath></defs></svg>