<svg width="187" height="160" fill="none" xmlns="http://www.w3.org/2000/svg"><mask id="a" style="mask-type:alpha" maskUnits="userSpaceOnUse" x="0" y="0" width="187" height="160"><path fill="#D9D9D9" d="M0 0h187v160H0z"/></mask><g mask="url(#a)"><path d="M-.337 138.702h11.765c2.54 0 4.458.569 5.754 1.66 1.295 1.138 1.917 2.704 1.917 4.743 0 2.135-.674 3.795-2.073 4.981-1.4 1.186-3.524 1.803-6.375 1.803H6.764v7.779h-7.1v-20.966Zm7.1 8.965h1.711c1.348 0 2.332-.237 2.85-.664.57-.427.83-.996.83-1.66 0-.665-.26-1.234-.726-1.661-.466-.474-1.399-.664-2.695-.664H6.712v4.649h.052Zm15.706-3.179h5.96v2.467c.57-1.091 1.14-1.803 1.762-2.229.622-.427 1.348-.617 2.28-.617.934 0 1.97.284 3.059.806l-1.97 4.127c-.725-.284-1.347-.427-1.762-.427-.83 0-1.503.332-1.918.949-.673.901-.984 2.561-.984 4.981v5.075H22.52v-15.132h-.052Zm14.355-5.787H43.2v3.985h-6.375v-3.985Zm0 5.788H43.2v15.179h-6.375v-15.179Zm8.553 0h6.634l3.214 9.629 3.317-9.629h6.427l-7.05 15.179H52.27l-6.893-15.179Zm27.211 4.933-6.064-.569c.207-.997.57-1.756.985-2.277.415-.57 1.036-1.044 1.866-1.471.57-.284 1.4-.522 2.384-.664a24.141 24.141 0 0 1 3.317-.237c1.918 0 3.42.095 4.613.284 1.14.19 2.125.617 2.902 1.234.519.427.985 1.043 1.296 1.802.311.807.466 1.518.466 2.23v6.688c0 .712.052 1.281.156 1.66.104.427.311.902.674 1.566h-5.96c-.26-.38-.415-.712-.467-.901-.052-.19-.156-.522-.207-.949-.83.711-1.659 1.281-2.488 1.565-1.14.427-2.436.617-3.94.617-1.969 0-3.472-.427-4.508-1.281-1.037-.854-1.555-1.85-1.555-3.083 0-1.139.362-2.087 1.088-2.846.726-.759 2.125-1.281 4.095-1.661 2.384-.426 3.939-.759 4.664-.901.726-.19 1.451-.427 2.229-.711 0-.712-.156-1.234-.466-1.518-.312-.285-.882-.427-1.71-.427-1.037 0-1.815.142-2.333.474-.415.285-.778.712-1.037 1.376Zm5.546 3.036c-.881.284-1.762.521-2.747.759-1.296.332-2.125.616-2.436.948-.363.332-.518.664-.518 1.091 0 .475.155.854.518 1.139.363.284.881.427 1.555.427.725 0 1.347-.143 1.97-.475.621-.332 1.036-.711 1.295-1.138.26-.474.363-1.044.363-1.755v-.996Zm17.156-13.757v5.788h3.525v4.269H95.29v5.36c0 .664.052 1.091.208 1.281.207.332.57.474 1.088.474.467 0 1.14-.142 1.97-.379l.466 4.032a21.277 21.277 0 0 1-4.405.474c-1.607 0-2.747-.19-3.525-.569a3.702 3.702 0 0 1-1.658-1.708c-.363-.759-.519-1.992-.519-3.7v-5.36h-2.332v-4.269h2.332v-2.704l6.375-2.989Zm6.944 0h13.269c2.229 0 3.887.522 5.079 1.518 1.192.996 1.762 2.23 1.762 3.7 0 1.234-.414 2.325-1.244 3.178-.57.57-1.399 1.044-2.487 1.424 1.658.379 2.85.996 3.628 1.85.777.901 1.14 1.992 1.14 3.32 0 1.091-.259 2.087-.829 2.941-.57.854-1.296 1.565-2.281 2.04-.57.332-1.503.522-2.695.664-1.607.19-2.643.284-3.162.284h-12.231v-20.919h.051Zm7.153 8.254h3.058c1.088 0 1.866-.19 2.28-.522.415-.332.674-.853.674-1.518 0-.616-.207-1.091-.674-1.423-.414-.332-1.192-.521-2.28-.521h-3.11v3.984h.052Zm0 8.207h3.628c1.244 0 2.073-.19 2.592-.617.518-.38.725-.949.725-1.613 0-.617-.259-1.138-.725-1.47-.519-.38-1.348-.57-2.592-.57h-3.576v4.27h-.052Zm23.116-5.74-6.064-.569c.207-.997.57-1.756.985-2.277.415-.57 1.036-1.044 1.866-1.471.57-.284 1.399-.522 2.384-.664a24.146 24.146 0 0 1 3.317-.237c1.918 0 3.421.095 4.613.284 1.14.19 2.125.617 2.902 1.234.519.427.985 1.043 1.296 1.802.311.807.467 1.518.467 2.23v6.688c0 .712.051 1.281.155 1.66.104.427.311.902.674 1.566h-5.961c-.259-.38-.414-.712-.466-.901-.052-.19-.156-.522-.207-.949-.83.711-1.659 1.281-2.488 1.565-1.14.427-2.436.617-3.939.617-1.97 0-3.473-.427-4.509-1.281-1.037-.854-1.555-1.85-1.555-3.083 0-1.139.362-2.087 1.088-2.846.726-.759 2.125-1.281 4.095-1.661 2.384-.426 3.939-.759 4.664-.901.726-.19 1.452-.427 2.229-.711 0-.712-.155-1.234-.466-1.518-.311-.285-.882-.427-1.711-.427-1.036 0-1.814.142-2.332.474-.467.285-.778.712-1.037 1.376Zm5.546 3.036c-.881.284-1.762.521-2.747.759-1.296.332-2.125.616-2.436.948-.363.332-.518.664-.518 1.091 0 .475.155.854.518 1.139.363.284.881.427 1.555.427.726 0 1.347-.143 1.969-.475.622-.332 1.037-.711 1.296-1.138.259-.474.363-1.044.363-1.755v-.996Zm10.002-7.97h5.908v2.467c.881-.996 1.763-1.755 2.696-2.182.881-.427 2.021-.664 3.317-.664 1.762 0 3.161.474 4.146 1.423.985.949 1.503 2.419 1.503 4.459v9.677h-6.375v-8.349c0-.949-.207-1.613-.57-2.04-.363-.379-.933-.616-1.607-.616-.777 0-1.399.284-1.866.806-.466.522-.725 1.471-.725 2.894v7.305h-6.375v-15.18h-.052Zm21.355-5.787h6.531v10.863l4.716-5.075h7.827l-5.961 5.312 6.323 9.867h-7.152l-3.369-6.072-2.384 2.135v3.937h-6.531v-20.967Z" fill="#5FBA46"/><path d="M77.305 77.32H23.09v49.618h54.214V77.32Z" fill="#231F20"/><path d="M23.142 0v61.761H37.5c37.732 0 56.857 17.504 56.857 52.037v13.139h67.483V0H23.142Zm110.035 26.28v74.426h-11.04c-4.768-36.81-30.061-59.959-70.281-64.323V26.232c18.4.047 62.921.047 81.321.047Z" fill="#5FBA46"/></g></svg>