<svg width="24" height="24" fill="none" xmlns="http://www.w3.org/2000/svg"><g clip-path="url(#a)"><path d="M23.071 11.719c0-6.272-5.08-11.353-11.352-11.353S.366 5.447.366 11.72c0 5.666 4.152 10.363 9.579 11.215V15H7.06v-3.28h2.884V9.218c0-2.845 1.694-4.417 4.288-4.417 1.242 0 2.541.222 2.541.222v2.792h-1.432c-1.41 0-1.85.875-1.85 1.773v2.13h3.15l-.505 3.283h-2.644v7.933c5.427-.852 9.578-5.55 9.578-11.215Z" fill="url(#b)"/></g><defs><linearGradient id="b" x1="5" y1="4" x2="17" y2="21" gradientUnits="userSpaceOnUse"><stop stop-color="#2A1EA1"/><stop offset="1" stop-color="#1872EC"/></linearGradient><clipPath id="a"><path fill="#fff" d="M0 0h23.438v23.438H0z"/></clipPath></defs></svg>