<svg width="231" height="64" fill="none" xmlns="http://www.w3.org/2000/svg"><path d="M60.092 19.67a.819.819 0 0 0 .587-.226.869.869 0 0 0 0-1.202.82.82 0 0 0-.25-.16l.407-1.566h-.814l-.532 1.448c-.061.158-.109.287-.143.388a2.16 2.16 0 0 0-.072.262 1.21 1.21 0 0 0-.02.226.804.804 0 0 0 .225.597.827.827 0 0 0 .612.233Zm-1.566-.226a.869.869 0 0 0 0-1.202.82.82 0 0 0-.25-.16l.41-1.566h-.837l-.53 1.448a7.66 7.66 0 0 0-.144.388 2.13 2.13 0 0 0-.07.262c-.014.074-.021.15-.02.226a.794.794 0 0 0 .225.597.886.886 0 0 0 1.187 0l.03.007Zm5.64 3.001a1.224 1.224 0 0 1-.755.622 1.862 1.862 0 0 1-.99-.101l-.337 1.04c.39.171.815.248 1.24.226.41-.027.803-.174 1.129-.422a3.22 3.22 0 0 0 .903-1.097l3.102-5.767h-1.306l-2.166 4.19-2.121-4.19h-1.408l2.811 5.343-.102.156Zm6.487-1.368h1.338l2.092 3.01h1.5l-2.54-3.686 2.447-3.455h-1.407l-2.06 2.999h-1.37v-2.999h-1.295v7.141h1.295v-3.01Zm7.164.95h1.613a3.88 3.88 0 0 0 1.627-.311 2.306 2.306 0 0 0 1.412-2.231 2.481 2.481 0 0 0-.365-1.368 2.353 2.353 0 0 0-1.047-.87 3.997 3.997 0 0 0-1.627-.303h-2.933v7.15h1.326l-.006-2.067Zm0-3.96h1.552c.585 0 1.025.125 1.32.373a1.452 1.452 0 0 1 0 2.091c-.301.249-.74.373-1.32.373h-1.552v-2.836Zm5.999 6.027.71-1.654h3.572l.709 1.654h1.398L86.98 16.95h-1.306l-3.213 7.143h1.356Zm2.5-5.819 1.338 3.111h-2.68l1.342-3.11Zm4.614-2.035a.632.632 0 0 0 .438-.167.627.627 0 0 0 0-.884.618.618 0 0 0-.438-.174.605.605 0 0 0-.566.376.62.62 0 0 0 .137.682c.116.11.27.169.429.167Zm1.988 0a.618.618 0 0 0 .428-.167.62.62 0 0 0 0-.884.605.605 0 0 0-.428-.174.614.614 0 0 0-.452.174.638.638 0 0 0 0 .884.626.626 0 0 0 .452.167Zm-.334.704h-1.327v7.143h1.326v-7.143Zm3.294 4.084h3.695v3.06h1.316v-7.142h-1.316v2.95h-3.695v-2.95H94.55v7.141h1.327v-3.06Zm7.576 2.121a3.58 3.58 0 0 0 1.209.771 4.202 4.202 0 0 0 1.521.269 4.134 4.134 0 0 0 1.613-.305c.474-.2.893-.509 1.223-.902l-.857-.808c-.245.272-.544.49-.878.638a2.535 2.535 0 0 1-1.031.21 2.727 2.727 0 0 1-1.024-.185 2.392 2.392 0 0 1-1.343-1.315 2.721 2.721 0 0 1 0-2.03 2.407 2.407 0 0 1 1.343-1.318 2.771 2.771 0 0 1 1.024-.183c.354-.003.705.068 1.031.207.332.148.63.362.878.628l.857-.806a3.167 3.167 0 0 0-1.223-.902 4.19 4.19 0 0 0-1.604-.3 4.126 4.126 0 0 0-1.518.27 3.571 3.571 0 0 0-2.022 1.934c-.38.94-.38 1.992 0 2.933.183.448.456.854.801 1.194Zm12.005.323c.51-.414.765-1.022.765-1.824 0-.76-.226-1.333-.693-1.714-.467-.382-1.128-.571-1.981-.571h-1.978v-2.419h-1.318v7.15h3.082c.906 0 1.613-.207 2.123-.622Zm-3.887-.404v-2.685h1.703c.42-.026.838.081 1.194.307a1.127 1.127 0 0 1 .419.979 1.291 1.291 0 0 1-.424 1.042 1.803 1.803 0 0 1-1.189.357h-1.703Zm10.724 1.019h1.5l-2.54-3.686 2.45-3.455h-1.41l-2.06 2.999h-1.367v-2.999h-1.296v7.141h1.296v-3.01h1.335l2.092 3.01Zm7.481-5.061v5.061h1.316v-7.14h-1.234l-3.838 5.069v-5.07h-1.316v7.141h1.246l3.826-5.06Zm5.115-2.948c.309.257.772.388 1.383.388.612 0 1.076-.13 1.388-.388a1.363 1.363 0 0 0 .48-1.092h-.918a.727.727 0 0 1-.262.582 1.053 1.053 0 0 1-.677.203 1.034 1.034 0 0 1-.676-.203.743.743 0 0 1-.255-.582h-.919a1.375 1.375 0 0 0 .456 1.092Zm3.272 8.009h1.317v-7.14h-1.236l-3.836 5.069v-5.07h-1.317v7.141h1.245l3.827-5.06v5.06Zm6.132 0h1.318l-.012-6.02h3.542l.01-1.12h-4.858v7.14Zm8.63-2.953-2.121-4.19h-1.408l2.83 5.345-.104.163a1.234 1.234 0 0 1-.756.622 1.864 1.864 0 0 1-.991-.101l-.336 1.04a2.73 2.73 0 0 0 1.241.226 2.08 2.08 0 0 0 1.128-.422c.379-.294.688-.668.903-1.097l3.102-5.767h-1.322l-2.166 4.181Zm5.665-1.699 2.338 3.847h.602l2.338-3.922v4.727h1.274l-.02-7.14h-1.081l-2.8 4.733-2.833-4.734h-1.092v7.141h1.274v-4.652Zm10.857-2.491-3.213 7.15h1.354l.711-1.654h3.571l.709 1.654h1.396l-3.224-7.143-1.304-.007Zm-.699 4.443 1.354-3.125 1.326 3.125h-2.68Zm7.651-.359h3.693v3.06h1.315v-7.142h-1.315v2.95H176.4v-2.95h-1.327v7.141h1.327v-3.06Zm8.334-4.084h-1.315v7.143h1.315v-7.143Zm4.817 7.143v-6.02h2.378v-1.12h-6.042v1.12h2.358v6.02h1.306Zm5.476-7.143-3.222 7.15h1.354l.71-1.654h3.572l.708 1.654h1.397l-3.224-7.143-1.295-.007Zm-.706 4.443 1.353-3.125 1.327 3.125h-2.68Zm10.888-4.141a3.996 3.996 0 0 0-1.627-.302h-2.933v7.15h1.327v-2.06h1.613a3.885 3.885 0 0 0 1.627-.311 2.3 2.3 0 0 0 1.412-2.232 2.476 2.476 0 0 0-.365-1.367 2.35 2.35 0 0 0-1.054-.878Zm-.368 3.286c-.3.248-.741.372-1.322.372h-1.55v-2.836h1.55c.587 0 1.028.124 1.322.372a1.441 1.441 0 0 1 .445 1.046 1.46 1.46 0 0 1-.445 1.046Zm8.057-.637h-3.693v-2.949h-1.327v7.141h1.327v-3.06h3.693v3.06h1.318v-7.14h-1.318v2.948Zm4.644 2.121v-5.07h-1.316v7.141h1.243l3.827-5.06v5.06h1.318v-7.14h-1.237l-3.835 5.069Zm8.871-5.938c.309.257.769.388 1.383.388s1.074-.13 1.388-.388a1.37 1.37 0 0 0 .478-1.092h-.918a.738.738 0 0 1-.26.582 1.064 1.064 0 0 1-.677.203 1.034 1.034 0 0 1-.676-.203.73.73 0 0 1-.255-.582h-.939a1.37 1.37 0 0 0 .476 1.092Zm3.353.868-3.836 5.07v-5.07h-1.317v7.141h1.245l3.827-5.06v5.06H231v-7.14h-1.234ZM63.068 32.568c-.451-.353-1.103-.53-1.954-.532H59v-1.744h4.264v-1.104h-5.58v7.144h3.225c.902 0 1.598-.194 2.087-.58a1.963 1.963 0 0 0 .74-1.634 1.86 1.86 0 0 0-.668-1.55ZM62 35.016c-.347.22-.755.324-1.164.296H59v-2.256h1.837c1.042 0 1.56.365 1.56 1.1a.998.998 0 0 1-.396.86Zm7.906-.336.707 1.652h1.398l-3.224-7.143h-1.306l-3.215 7.143h1.354l.71-1.652h3.576Zm-1.784-4.167 1.338 3.125h-2.68l1.342-3.125Zm7.432 5.821v-6.022h2.376v-1.121h-6.04v1.121h2.357v6.022h1.307Zm6.773-7.145H81.02l-3.213 7.143h1.353l.711-1.652h3.572l.708 1.652h1.397l-3.222-7.143Zm-2.006 4.449 1.343-3.125L83 33.638h-2.68Zm11.119 2.694h1.315v-7.143H87.5l-.094 2.95a14.298 14.298 0 0 1-.154 1.693 2.448 2.448 0 0 1-.363 1.03.796.796 0 0 1-.688.348c-.104 0-.207-.013-.307-.04l-.09 1.162a3.01 3.01 0 0 0 .733.092c.338.012.67-.084.95-.275.275-.215.484-.504.602-.833.166-.436.28-.89.336-1.353a18.78 18.78 0 0 0 .154-1.86l.06-1.784h2.808l-.007 6.013Zm8.6-4.152c-.463-.38-1.122-.571-1.978-.573h-1.979V29.19h-1.318v7.143h3.082c.903 0 1.61-.206 2.124-.616.512-.41.767-1.019.764-1.823 0-.76-.231-1.33-.695-1.713Zm-1.065 2.775a1.805 1.805 0 0 1-1.188.357h-1.704v-2.683h1.701c.42-.026.838.08 1.194.305a1.127 1.127 0 0 1 .42.981 1.287 1.287 0 0 1-.422 1.04Zm6.291-6.94a1.037 1.037 0 0 1-.677-.203.752.752 0 0 1-.262-.582h-.918a1.374 1.374 0 0 0 .474 1.092c.309.26.771.388 1.383.388.611 0 1.074-.129 1.387-.388a1.352 1.352 0 0 0 .481-1.092h-.918a.736.736 0 0 1-.262.582 1.06 1.06 0 0 1-.688.203Zm1.888 3.256v5.063h1.316v-7.143h-1.235l-3.835 5.072V29.19h-1.318v7.143h1.246l3.826-5.063Zm9.382-1.148a3.61 3.61 0 0 0-1.219-.765 4.462 4.462 0 0 0-3.073 0 3.769 3.769 0 0 0-1.223.772c-.345.328-.62.723-.807 1.162a3.89 3.89 0 0 0 0 2.92 3.572 3.572 0 0 0 2.037 1.944 4.44 4.44 0 0 0 3.066 0 3.547 3.547 0 0 0 2.02-1.94 3.65 3.65 0 0 0 .286-1.462 3.712 3.712 0 0 0-.286-1.471 3.521 3.521 0 0 0-.801-1.16Zm-.438 3.648a2.37 2.37 0 0 1-1.318 1.318 2.633 2.633 0 0 1-.995.183 2.718 2.718 0 0 1-1.004-.183 2.323 2.323 0 0 1-.801-.526 2.576 2.576 0 0 1 0-3.61c.228-.23.501-.408.801-.526.32-.123.661-.185 1.004-.182a2.64 2.64 0 0 1 .995.182c.298.12.568.297.797.522.229.225.408.496.525.796.125.322.187.665.183 1.01.006.348-.058.694-.187 1.016Zm4.32-.499h3.696v3.062h1.315v-7.143h-1.315v2.949h-3.696v-2.95h-1.324v7.144h1.324v-3.062Zm7.277-4.582a.81.81 0 0 0-.772.503.789.789 0 0 0-.056.33.779.779 0 0 0 .467.75l-.404 1.58h.817l.541-1.448c.061-.158.108-.285.142-.384a1.332 1.332 0 0 0 .081-.49.814.814 0 0 0-.225-.602.8.8 0 0 0-.591-.24Zm2.224 3.163.54-1.448c.06-.158.11-.285.144-.384.031-.085.053-.174.065-.264a1.55 1.55 0 0 0 .016-.226.814.814 0 0 0-.225-.602.803.803 0 0 0-.596-.226.82.82 0 0 0-.589.226.802.802 0 0 0-.239.607.754.754 0 0 0 .476.751l-.404 1.58.812-.014ZM61.879 42.73l-1.882 3.182-1.906-3.181h-.734v4.8h.858v-3.126l1.57 2.585h.406l1.57-2.637v3.179h.858l-.014-4.801h-.726Zm2.969 0h-.884v4.804h.884V42.73Zm7.685 0h-.941l-1.194 2.018h-.823V42.73h-.871v2.017h-.835l-1.182-2.017h-.945l1.41 2.3-1.514 2.5h1.028l1.212-2.023h.826v2.024h.87v-2.024h.815l1.219 2.024h1.035l-1.516-2.507 1.406-2.294Zm4.101 1.984H74.15V42.73h-.891v4.8h.891v-2.057h2.484v2.058h.887V42.73h-.887v1.983Zm3.777-1.986-2.159 4.803h.903l.478-1.112h2.4l.477 1.113h.938l-2.166-4.804h-.87Zm-.45 2.992.902-2.1.902 2.1H79.96Zm7.311-2.789a2.685 2.685 0 0 0-1.094-.203h-1.976v4.803h.89v-1.385h1.086a2.6 2.6 0 0 0 1.094-.21 1.556 1.556 0 0 0 .95-1.498 1.665 1.665 0 0 0-.248-.92 1.579 1.579 0 0 0-.702-.587Zm-.248 2.209a1.354 1.354 0 0 1-.889.25h-1.042v-1.906h1.042c.317-.024.631.065.89.25a.98.98 0 0 1 0 1.406Zm6.189-1.782a2.404 2.404 0 0 0-.819-.515 2.84 2.84 0 0 0-1.03-.183 2.807 2.807 0 0 0-1.037.185 2.504 2.504 0 0 0-.823.52c-.232.22-.416.486-.541.78a2.48 2.48 0 0 0-.192.986 2.43 2.43 0 0 0 .192.977 2.38 2.38 0 0 0 1.369 1.306c.329.126.679.189 1.031.185.352.005.702-.057 1.031-.18a2.395 2.395 0 0 0 1.546-2.288 2.54 2.54 0 0 0-.192-.988 2.357 2.357 0 0 0-.535-.785Zm-.295 2.452a1.578 1.578 0 0 1-.884.884 1.746 1.746 0 0 1-.678.125 1.805 1.805 0 0 1-.677-.125 1.536 1.536 0 0 1-.539-.354 1.718 1.718 0 0 1-.356-.537 1.74 1.74 0 0 1-.131-.677 1.686 1.686 0 0 1 .487-1.211 1.58 1.58 0 0 1 .54-.354 1.84 1.84 0 0 1 .676-.122 1.645 1.645 0 0 1 1.212.474c.154.15.275.333.354.534.083.216.124.446.122.677.004.235-.039.468-.126.686Zm5.945-3.082h-3.52l-.054 1.516c-.014.368-.036.704-.07 1.013a4.922 4.922 0 0 1-.142.806 1.334 1.334 0 0 1-.266.532.526.526 0 0 1-.43.183h-.157v1.776h.83V47.53h3.678v1.023h.823v-1.776h-.692v-4.05Zm-.878 4.061h-2.437a.9.9 0 0 0 .131-.174c.102-.18.174-.377.212-.582a7.28 7.28 0 0 0 .122-.778c.03-.287.047-.589.056-.903l.037-.85h1.879v3.287Zm5.785-2.075h-2.484V42.73h-.894v4.8h.894v-2.057h2.484v2.058h.884V42.73h-.884v1.983Zm3.12 1.426v-3.41h-.884v4.802h.837l2.572-3.403v3.403h.884V42.73h-.83l-2.579 3.409Zm7.827-3.996a.916.916 0 0 0 .323-.733h-.619a.495.495 0 0 1-.173.39.708.708 0 0 1-.463.138.693.693 0 0 1-.451-.138.5.5 0 0 1-.172-.39h-.618a.925.925 0 0 0 .312.733c.269.193.598.286.929.262.332.023.661-.07.932-.262Zm-2.189 3.996v-3.41h-.884v4.802h.837l2.574-3.403v3.403h.885V42.73h-.83l-2.582 3.409ZM122.796 45a2.086 2.086 0 0 0-1.315-.356h-1.419V43.47h2.861v-.742h-3.746v4.803h2.166a2.23 2.23 0 0 0 1.404-.39 1.327 1.327 0 0 0 .498-1.099 1.246 1.246 0 0 0-.449-1.042Zm-.717 1.647a1.296 1.296 0 0 1-.783.199h-1.234v-1.517h1.234c.7 0 1.049.247 1.049.74a.67.67 0 0 1-.266.587v-.009Zm2.518-1.936c-.013.382-.048.762-.104 1.14a1.634 1.634 0 0 1-.243.692.545.545 0 0 1-.452.226.66.66 0 0 1-.205-.03l-.063.784a2.078 2.078 0 0 0 .483.06c.227.01.451-.055.638-.185.186-.144.326-.338.404-.56a3.89 3.89 0 0 0 .226-.915c.049-.361.083-.776.101-1.248l.041-1.2h1.888v4.047h.885v-4.794h-3.531l-.068 1.983Zm6.502-1.983-2.161 4.803h.902l.477-1.112h2.402l.476 1.113h.939l-2.168-4.804h-.867Zm-.469 2.992.903-2.1.902 2.1h-1.805Zm7.509-2.236.007-.754h-3.265v4.802h.884l-.006-4.048h2.38Zm4.284-.127a2.352 2.352 0 0 0-.819-.514 2.994 2.994 0 0 0-2.066 0 2.488 2.488 0 0 0-.822.519 2.32 2.32 0 0 0-.543.78c-.13.313-.195.648-.192.987-.003.335.062.667.192.977a2.409 2.409 0 0 0 1.369 1.306 3 3 0 0 0 2.062 0 2.402 2.402 0 0 0 1.359-1.304c.129-.312.194-.647.191-.984a2.537 2.537 0 0 0-.191-.988 2.363 2.363 0 0 0-.54-.779Zm-.295 2.453a1.576 1.576 0 0 1-.885.885 1.743 1.743 0 0 1-.677.123 1.8 1.8 0 0 1-.676-.124 1.541 1.541 0 0 1-.54-.354 1.73 1.73 0 0 1-.356-.537 1.746 1.746 0 0 1-.131-.677 1.689 1.689 0 0 1 .487-1.211 1.58 1.58 0 0 1 .54-.355c.216-.082.445-.124.676-.121.232-.004.462.037.677.121.2.082.382.201.535.352.155.152.275.334.354.535.084.216.126.446.124.677.004.235-.04.468-.128.686Zm5.945-3.082h-3.52l-.054 1.516c-.014.368-.036.704-.068 1.013a5.117 5.117 0 0 1-.144.806 1.369 1.369 0 0 1-.264.532.533.533 0 0 1-.429.183h-.158v1.776h.826V47.53h3.682v1.023h.83v-1.776h-.692l-.009-4.05Zm-.878 4.061h-2.437a.77.77 0 0 0 .131-.174c.102-.18.174-.377.212-.582a7.06 7.06 0 0 0 .122-.778c.03-.287.048-.589.059-.903l.034-.85h1.879v3.287Zm3.294-4.059h-.884v4.804h.884V42.73Zm4.425-.586a.925.925 0 0 0 .322-.733h-.618a.498.498 0 0 1-.176.39.84.84 0 0 1-.923 0 .514.514 0 0 1-.171-.39h-.616a.923.923 0 0 0 .329.733c.27.193.599.285.93.262.328.02.654-.072.923-.262Zm-2.189 3.996v-3.41h-.884v4.802h.837l2.572-3.403v3.403h.884V42.73h-.83l-2.579 3.409Zm8.129-1.426h-2.484V42.73h-.891v4.8h.891v-2.057h2.484v2.058h.887V42.73h-.887v1.983Zm3.123 1.426v-3.41h-.884v4.802h.837l2.572-3.403v3.403h.884V42.73h-.83l-2.579 3.409Zm7.827-3.996a.916.916 0 0 0 .322-.733h-.618a.496.496 0 0 1-.173.39.71.71 0 0 1-.465.138.676.676 0 0 1-.451-.138.487.487 0 0 1-.172-.39h-.625a.929.929 0 0 0 .318.733 1.79 1.79 0 0 0 1.864 0Zm-2.189 3.996v-3.41h-.884v4.802h.837l2.572-3.403v3.403h.887V42.73h-.831l-2.581 3.409Zm10.85-2.868a3.917 3.917 0 0 0-1.245-.237v-.492h-.824v.492c-.42.014-.836.094-1.232.237a2.1 2.1 0 0 0-.97.715c-.23.336-.348.736-.336 1.144-.01.402.107.797.336 1.128.246.328.584.575.97.71.397.14.812.216 1.232.226v.52h.824v-.518a3.936 3.936 0 0 0 1.259-.225c.381-.138.711-.388.947-.718a2.138 2.138 0 0 0 0-2.274 2.05 2.05 0 0 0-.961-.708Zm-2.069 3.246a3.059 3.059 0 0 1-.719-.135 1.428 1.428 0 0 1-.704-.472 1.231 1.231 0 0 1-.244-.78c-.012-.28.067-.555.226-.785a1.35 1.35 0 0 1 .692-.467 3.05 3.05 0 0 1 .745-.138l.004 2.777Zm2.268-.62a1.4 1.4 0 0 1-.677.478 2.898 2.898 0 0 1-.765.147v-2.8c.26.014.516.063.763.144.266.087.501.249.677.467.157.225.236.495.225.77a1.29 1.29 0 0 1-.223.787v.007Zm6.105-2.54a2.351 2.351 0 0 0-.819-.515 2.989 2.989 0 0 0-2.064 0 2.49 2.49 0 0 0-.824.519 2.29 2.29 0 0 0-.541.78 2.49 2.49 0 0 0-.194.987c-.003.335.063.668.194.977a2.41 2.41 0 0 0 1.367 1.306 3 3 0 0 0 2.062 0 2.386 2.386 0 0 0 1.354-1.304c.131-.312.196-.646.192-.984a2.5 2.5 0 0 0-.192-.988 2.318 2.318 0 0 0-.535-.779Zm-.293 2.452c-.082.2-.202.381-.354.535a1.557 1.557 0 0 1-.533.35 1.741 1.741 0 0 1-.677.123 1.8 1.8 0 0 1-.676-.124 1.513 1.513 0 0 1-.537-.354 1.733 1.733 0 0 1 0-2.421 1.56 1.56 0 0 1 .537-.354 1.86 1.86 0 0 1 .676-.122 1.78 1.78 0 0 1 .677.122c.201.08.383.2.537.352.154.151.274.334.352.535a1.9 1.9 0 0 1 0 1.353l-.002.005Zm5.388-1.096h-2.482V42.73h-.894v4.8h.894v-2.057h2.482v2.058h.886V42.73h-.886v1.983Zm6.256-1.986h-3.52l-.054 1.516a15.71 15.71 0 0 1-.067 1.013 5.12 5.12 0 0 1-.145.806 1.369 1.369 0 0 1-.264.532.517.517 0 0 1-.428.183h-.158v1.776h.83V47.53h3.682v1.023h.824v-1.776h-.693l-.007-4.05Zm-.878 4.061h-2.441a.833.833 0 0 0 .131-.174 1.95 1.95 0 0 0 .214-.582c.054-.257.094-.517.12-.778.029-.287.05-.589.059-.903l.034-.85h1.879l.004 3.287Z" fill="#000"/><path d="m46.916 38.493-.643-3.975s-2.22 1.203-1.415 7.642l-1.338-4.513c-1.428 1.53-.99 4.919-.508 7.1a8.157 8.157 0 0 0-1.805 1.025l-4.06 2.087c5.414-5.715 3.848-7.714 3.848-7.714l-7.13 7.091a14.598 14.598 0 0 0-4.325 9.544l-.013.289a7.867 7.867 0 0 0 .492 5.71l.307.634 16.098-15.978 1.67-1.654 1.385-11.775s-2.302 1.636-2.563 4.487ZM21.378 57.069c0-.097 0-.194-.016-.29a14.596 14.596 0 0 0-4.323-9.543l-7.136-7.082s-1.58 1.999 3.849 7.714l-5.867-3.066c.488-2.18.944-5.605-.496-7.146L6.051 42.17c.806-6.44-1.414-7.642-1.414-7.642l-.643 3.975c-.262-2.852-2.566-4.487-2.566-4.487L2.814 45.79l1.667 1.654 16.1 15.978.307-.634a7.867 7.867 0 0 0 .492-5.71l-.002-.01Z" fill="#FFD500"/><path d="M48.301 45.83a.103.103 0 0 0 0-.024l1.392-11.785a.209.209 0 0 0-.101-.21.226.226 0 0 0-.226 0 7.113 7.113 0 0 0-2.421 3.453l-.451-2.798a.209.209 0 0 0-.115-.158.208.208 0 0 0-.197 0c-.085.045-1.848 1.067-1.692 5.805l-.756-2.54a.21.21 0 0 0-.266-.142.226.226 0 0 0-.095.056c-1.475 1.58-1.069 4.963-.586 7.181l-4.66 2.44c4.513-5.104 3.107-7.013 3.042-7.094a.199.199 0 0 0-.153-.081.21.21 0 0 0-.165.06l-7.143 7.092a14.773 14.773 0 0 0-4.386 9.683l-.014.271a8.138 8.138 0 0 0 .512 5.835l.31.631a.212.212 0 0 0 .155.118h.038a.211.211 0 0 0 .152-.061l16.093-15.974 1.67-1.656v-.011a.225.225 0 0 0 .038-.064l.025-.027Zm-1.171-7.346c.192-1.98 1.426-3.366 2.076-3.969l-1.144 9.72-.266-1.64-.666-4.11Zm-1.013-3.56.932 5.746.814 5.034-1.338 1.327-.338-1.14-1.128-3.779c-.59-4.81.535-6.62 1.058-7.188Zm-2.84 11.705c-.465.199-1.774.765-3.43 1.58l-2.281-.33 5.302-2.768c.17.706.327 1.247.413 1.52l-.005-.002Zm-9.265.758 6.916-6.861c.185.677.241 2.795-3.935 7.193a.223.223 0 0 0-.023.04.141.141 0 0 0-.018.032l-.807-.115a.214.214 0 0 0-.061.422l3.104.451c-2.204 1.128-4.862 2.642-6.967 4.316a8.746 8.746 0 0 0-2.349 2.816 14.365 14.365 0 0 1 4.145-8.292l-.005-.002Zm-3.628 15.66-.176-.363a7.608 7.608 0 0 1 0-6.753 8.311 8.311 0 0 1 2.277-2.732c4.34-3.452 11.071-6.227 11.139-6.254a.212.212 0 0 0 .122-.264c-.02-.063-1.977-6.103-.314-8.574l1.22 4.111.962 3.229.573 1.924-15.803 15.676Zm-8.808-6.278a14.773 14.773 0 0 0-4.386-9.684l-7.136-7.082a.212.212 0 0 0-.165-.061.199.199 0 0 0-.153.081c-.066.081-1.463 1.99 3.04 7.094L8.13 44.69c.483-2.227.889-5.6-.587-7.181a.226.226 0 0 0-.205-.061.21.21 0 0 0-.156.147l-.755 2.542c.155-4.738-1.607-5.762-1.692-5.807a.208.208 0 0 0-.197 0 .209.209 0 0 0-.115.158l-.451 2.797a7.114 7.114 0 0 0-2.421-3.452.226.226 0 0 0-.226 0 .21.21 0 0 0-.106.188l1.386 11.775a.102.102 0 0 0 0 .025v.027a.225.225 0 0 0 .038.063v.011l1.67 1.656L20.41 63.556a.212.212 0 0 0 .15.06h.062a.212.212 0 0 0 .158-.117l.306-.632a8.138 8.138 0 0 0 .504-5.832l-.014-.266ZM9.972 40.524l6.916 6.866a14.365 14.365 0 0 1 4.153 8.291 8.744 8.744 0 0 0-2.355-2.81c-2.105-1.675-4.763-3.191-6.967-4.317l3.104-.451a.213.213 0 1 0-.06-.422l-.808.115a.141.141 0 0 0-.018-.032.224.224 0 0 0-.023-.04c-4.188-4.407-4.122-6.534-3.942-7.2Zm3.362 7.367-2.28.329a56.875 56.875 0 0 0-3.43-1.58c.085-.272.243-.814.408-1.509l5.302 2.76Zm-8.55-12.967c.527.569 1.65 2.378 1.053 7.19l-1.46 4.92-1.338-1.327 1.16-7.173.584-3.61Zm-3.085-.41c.65.6 1.882 1.983 2.076 3.968l-.932 5.754-1.144-9.722Zm18.993 28.17-.179.364L4.72 47.372l2.755-9.264c1.663 2.482-.294 8.515-.314 8.573a.212.212 0 0 0 .122.264c.068.027 6.798 2.803 11.139 6.255a8.31 8.31 0 0 1 2.272 2.727 7.607 7.607 0 0 1-.002 6.76v-.002Z" fill="#000"/><path d="M25.741 43.36c11.904 0 21.554-9.65 21.554-21.553C47.295 9.902 37.645.253 25.74.253c-11.904 0-21.553 9.65-21.553 21.553 0 11.904 9.65 21.554 21.553 21.554Z" fill="#005BBB"/><path d="M25.739 43.613A21.808 21.808 0 0 1 10.322 6.386a21.807 21.807 0 0 1 37.225 15.42A21.83 21.83 0 0 1 25.74 43.613Zm0-43.108a21.3 21.3 0 1 0 21.3 21.301 21.324 21.324 0 0 0-21.3-21.3Z" fill="#231F20"/><path d="M50.147 18.709c-.312-.752-.964-1.128-1.675-1.428-.791-.328-1.59-.634-2.387-.95a1.806 1.806 0 0 0-1.462-.03c-.45.201-.839.05-1.067-.41a7.249 7.249 0 0 1-.298-.83c-.225-.65-.609-.847-1.189-.488-.825.51-1.64.48-2.502.153a2.42 2.42 0 0 0-1.47-.14c-.578.138-.946-.144-1.043-.73a2.613 2.613 0 0 1-.03-.838c.204-1.256-.16-2.208-1.85-2.066-1.148.097-2.003-1.354-1.353-2.32.379-.56.225-.882-.081-1.308-.181-.25-.305-.54-.479-.797a1.728 1.728 0 0 0-1.868-.816 10.51 10.51 0 0 0-1.58.42 9.075 9.075 0 0 1-2.887.61 4.55 4.55 0 0 0-1.758.377c-1.024.465-1.426 1.338-1.34 2.469a.873.873 0 0 1-.32.695c-.138.085-.497-.066-.677-.208-.37-.273-.731-.424-1.192-.28-.699.226-1.322.143-1.881-.406-.158-.155-.639-.252-.74-.149-.494.503-.957.28-1.465.086a1.223 1.223 0 0 0-.663-.077c-.62.14-1.268.095-1.864-.128-1.3-.474-2.612-.928-3.95-1.286a6.913 6.913 0 0 0-4.025.076 1.875 1.875 0 0 0-.903.695c-.426.646-.516.736-1.293.58-.097-.018-.196-.03-.329-.047-.129.643.11 1.166.381 1.699.279.5.5 1.03.657 1.58.325 1.364.268 1.748-.984 2.375a.227.227 0 0 0-.038.022c-1.37.97-2.597 2.094-2.527 3.92a3.05 3.05 0 0 1-.903 2.452 1.805 1.805 0 0 0-.345 2.103c.372.677.957 1.128 1.82.983a2.29 2.29 0 0 1 1.849.42 1.15 1.15 0 0 0 1.178.147 1.79 1.79 0 0 1 2.07.417c.416.404.585.381.955-.047a1.166 1.166 0 0 1 1.2-.438 1.58 1.58 0 0 0 1.492-.498c.187-.19.372-.382.566-.565a4.014 4.014 0 0 1 4.603-.618 15.06 15.06 0 0 0 2.328 1.067c.83.298 1.25.792 1.311 1.681.039.485.174.956.397 1.388.451.902.995 1.742 1.491 2.615.226.381.528.803.226 1.23-.327.469-.873.376-1.354.257-.38-.095-.737-.294-1.112-.427-.113-.04-.311-.074-.36-.016a.634.634 0 0 0-.091.402c.017.102.055.2.11.287a.962.962 0 0 1-.169 1.17c-.66.747-1.259 1.548-1.897 2.343.634.44 1.232.676 1.933.288.21-.11.43-.199.657-.264a1.076 1.076 0 0 1 1.157.21c.096.073.199.136.307.19-.043-.154-.063-.237-.088-.316-.293-.984-.079-1.496.903-1.749.981-.252 1.425-.819 1.556-1.748.016-.102.059-.199.08-.3a1.792 1.792 0 0 1 1.294-1.383 4.257 4.257 0 0 1 2.448-.131c.354.095.683.264.966.496a.677.677 0 0 1 .077.623c-.045.108-.37.153-.56.13a4.38 4.38 0 0 1-.767-.225c.174.237.413.372.555.575a2.133 2.133 0 0 0 2.134.961c.648-.06 1.3-.06 1.948 0 .225.02.588.249.625.434.045.248-.14.557-.273.814a.722.722 0 0 1-.357.248c-.569.248-1.142.485-1.712.727l-.661.282v.14c.41.14.83.257 1.23.422 1.267.523 1.65 1.306 1.299 2.594 0 .04-.025.084-.034.127-.106.6.205.986.808.886.374-.06.726-.216 1.024-.45.578-.48 1.155-.903 1.913-1.06a1.48 1.48 0 0 0 1.07-.852c.225-.451.478-.557.983-.42.285.077.553.208.833.3a1.15 1.15 0 0 0 1.203-.207c.304-.273.38-.889.144-1.18-.336-.408-.63-.097-.93.068a9.84 9.84 0 0 1-1.238.676c-.957.361-1.519.014-1.659-.986a1.033 1.033 0 0 0-.528-.819c-.15-.09-.347-.166-.426-.304-.138-.242-.316-.548-.264-.779.052-.23.365-.421.602-.478a1.037 1.037 0 0 0 .83-.706 1.736 1.736 0 0 1 .953-.995 1.75 1.75 0 0 0 .654-.505c.492-.706 1.128-.903 1.97-.8a2.08 2.08 0 0 0 1.193-.189c1.056-.59 2.135-1.076 3.342-1.247a.49.49 0 0 0 .438-.569c0-.178-.025-.356-.02-.532.01-.576.274-.923.834-1.038a.835.835 0 0 0 .659-.521.925.925 0 0 1 .92-.569c.341 0 .677.02 1.02 0 .927-.032 1.437-.799 1.128-1.665-.085-.226-.191-.465-.268-.704a1.158 1.158 0 0 1 .32-1.333.923.923 0 0 0 .138-.208c-.612-.553-.641-.875-.048-1.072.594-.196.745-.557.452-1.265Z" fill="#FFD500"/><path d="M50.257 18.771c-.289-.868-.956-1.353-1.76-1.696-.86-.358-1.723-.703-2.59-1.036a1.997 1.997 0 0 0-1.514-.04c-.437.178-.688.07-.873-.37-.12-.285-.18-.596-.302-.88-.226-.558-.693-.75-1.266-.546a2.55 2.55 0 0 0-.519.248 1.745 1.745 0 0 1-1.453.167c-.37-.104-.73-.244-1.105-.318a2.446 2.446 0 0 0-.83-.027c-.678.108-.903-.03-.953-.716-.027-.45.034-.886.027-1.329a1.502 1.502 0 0 0-1.58-1.554h-.45c-.483.03-.934-.025-1.16-.533-.244-.548-.377-1.103.065-1.622a.643.643 0 0 0 .086-.817c-.295-.491-.587-.99-.902-1.466a1.859 1.859 0 0 0-1.844-.83 5.24 5.24 0 0 0-1.378.29c-1.27.487-2.61.762-3.969.813-1.302.068-2.294.864-2.59 2.003-.09.35-.036.734-.074 1.1a1.89 1.89 0 0 1-.165.423 1.452 1.452 0 0 1-.382-.18 1.408 1.408 0 0 0-1.434-.348c-.63.192-1.171.129-1.659-.385-.302-.319-.891-.38-1.096-.14-.368.422-.715.225-1.128.092a1.995 1.995 0 0 0-.898-.097 3.181 3.181 0 0 1-1.647-.128c-1.354-.483-2.708-.955-4.08-1.314a7.139 7.139 0 0 0-4.196.127c-.34.12-.747.354-.903.652-.288.568-.613.77-1.223.557-.34-.117-.595.075-.541.422.054.553.198 1.093.424 1.6.379.684.634 1.43.754 2.204.092.645 0 .866-.562 1.207-.355.212-.698.443-1.029.69-1.302 1.011-2.209 2.268-2.098 3.987a2.107 2.107 0 0 1-.688 1.805 2.28 2.28 0 0 0 .072 3.344 1.64 1.64 0 0 0 1.43.433 2.322 2.322 0 0 1 1.805.406c.452.332.946.31 1.442.131a1.436 1.436 0 0 1 1.624.307c.657.611.925.55 1.58-.072a.903.903 0 0 1 .645-.271 2.281 2.281 0 0 0 2.216-.821c.19-.227.41-.428.654-.598 1.173-.776 2.407-1.009 3.73-.372.864.415 1.719.855 2.61 1.2a1.46 1.46 0 0 1 1.036 1.376c.052.526.2 1.038.435 1.512.505.983 1.103 1.915 1.64 2.883.334.603.127.946-.548.85-.472-.065-.916-.313-1.383-.426-.248-.06-.648-.112-.758.018-.15.177-.106.533-.102.81 0 .138.147.274.147.411a.867.867 0 0 1-.122.521 82.812 82.812 0 0 1-1.9 2.342c-.225.26-.185.451.073.623.627.404 1.277.702 2.03.3.156-.084.325-.144.488-.226.45-.194.841-.212 1.222.16.122.12.35.131.53.192.066-.197.096-.405.089-.613-.244-1.065-.165-1.22.886-1.58l.212-.065a1.615 1.615 0 0 0 1.176-1.212c.088-.33.151-.677.268-.983.082-.25.214-.48.388-.677.73-.72 2.764-.867 3.61-.276.113.11.21.236.285.375l-.106.088a5.732 5.732 0 0 0-.973-.244c-.137-.013-.295.176-.451.273.08.14.17.272.273.395.158.167.368.287.51.463.575.701 1.272 1.065 2.206.972.6-.056 1.204-.07 1.805-.043.199 0 .393.19.59.291-.134.199-.226.476-.41.578-.554.3-1.148.53-1.727.787a5.514 5.514 0 0 0-.677.298.363.363 0 0 0 0 .677c.184.09.375.165.57.226a6.6 6.6 0 0 1 1.047.45c.867.56 1.007.985.732 1.964-.036.112-.06.228-.073.345-.056.677.294 1.074.97 1.094a1.804 1.804 0 0 0 1.336-.498 3.992 3.992 0 0 1 1.907-1.068 1.53 1.53 0 0 0 1.162-.995.452.452 0 0 1 .611-.28c.293.102.575.226.869.33a1.405 1.405 0 0 0 1.457-.253 1.27 1.27 0 0 0 .327-1.308.706.706 0 0 0-1.015-.53c-.203.085-.379.225-.573.331a8.573 8.573 0 0 1-1.097.569c-.737.27-1.128.013-1.222-.765a1.313 1.313 0 0 0-.69-1.07 1.022 1.022 0 0 1-.324-.225c-.101-.131-.248-.33-.21-.451a.599.599 0 0 1 .411-.316 1.228 1.228 0 0 0 1.02-.871c.147-.375.436-.676.803-.84a2.29 2.29 0 0 0 .785-.62 1.52 1.52 0 0 1 1.663-.648c.53.104 1.08 0 1.535-.29a8.305 8.305 0 0 1 3.048-1.156c.59-.097.755-.356.74-.965 0-.118-.02-.226-.02-.355 0-.507.16-.728.658-.839a1.013 1.013 0 0 0 .79-.634.677.677 0 0 1 .7-.451c.356 0 .71.03 1.064 0a1.465 1.465 0 0 0 1.354-2.006 4.81 4.81 0 0 1-.302-.878c-.04-.255.01-.516.14-.74.473-.656.494-.64-.156-1.202.1-.077.206-.147.316-.21.704-.293.857-.634.602-1.397Zm-.726 2.28a.923.923 0 0 1-.138.207 1.157 1.157 0 0 0-.32 1.333c.076.24.182.47.268.704.316.866-.194 1.634-1.128 1.665h-1.02a.925.925 0 0 0-.92.569.836.836 0 0 1-.66.521c-.559.115-.823.462-.834 1.038 0 .176.014.354.02.532a.489.489 0 0 1-.437.569c-1.207.171-2.286.656-3.342 1.247a2.09 2.09 0 0 1-1.193.19c-.833-.102-1.478.093-1.97.799a1.75 1.75 0 0 1-.654.505 1.736 1.736 0 0 0-.952.995 1.038 1.038 0 0 1-.83.706c-.238.057-.556.278-.603.479-.047.2.126.537.264.778.079.138.275.214.426.305a1.033 1.033 0 0 1 .528.819c.14 1 .702 1.353 1.659.986a9.847 9.847 0 0 0 1.238-.677c.3-.165.594-.476.93-.068.237.291.16.903-.145 1.18a1.15 1.15 0 0 1-1.202.208c-.28-.093-.548-.226-.833-.3-.505-.138-.76-.041-.983.42a1.48 1.48 0 0 1-1.07.852c-.758.156-1.336.58-1.913 1.058-.298.235-.65.39-1.024.451-.603.1-.914-.286-.808-.886 0-.043.022-.086.034-.127.352-1.288-.032-2.07-1.3-2.594-.4-.165-.819-.282-1.23-.422v-.14l.662-.282c.57-.242 1.143-.478 1.712-.727a.722.722 0 0 0 .357-.248c.133-.257.318-.566.273-.814-.037-.185-.395-.413-.626-.433-.647-.06-1.299-.06-1.947 0a2.132 2.132 0 0 1-2.134-.962c-.142-.203-.381-.338-.555-.575.248.099.505.174.767.226.19.022.515-.023.56-.131a.677.677 0 0 0-.077-.623 2.574 2.574 0 0 0-.966-.496 4.257 4.257 0 0 0-2.448.13 1.793 1.793 0 0 0-1.295 1.384c-.02.101-.063.198-.079.3-.13.93-.598 1.502-1.556 1.748-.96.246-1.2.765-.903 1.749.025.079.045.162.088.316a1.895 1.895 0 0 1-.307-.19 1.076 1.076 0 0 0-1.157-.21 3.385 3.385 0 0 0-.657.264c-.702.39-1.3.152-1.933-.288.638-.795 1.236-1.596 1.897-2.342a.96.96 0 0 0 .17-1.171.762.762 0 0 1-.111-.287.634.634 0 0 1 .09-.401c.05-.06.248-.025.36.015.375.133.732.332 1.113.427.476.12 1.022.212 1.354-.258.298-.426-.011-.848-.226-1.23-.496-.872-1.035-1.723-1.491-2.614a3.662 3.662 0 0 1-.397-1.388c-.061-.889-.48-1.383-1.311-1.68a15.069 15.069 0 0 1-2.328-1.068 4.013 4.013 0 0 0-4.603.618c-.194.183-.38.375-.566.565a1.579 1.579 0 0 1-1.505.494 1.167 1.167 0 0 0-1.216.45c-.37.43-.54.452-.955.048a1.79 1.79 0 0 0-2.07-.417 1.15 1.15 0 0 1-1.179-.147 2.288 2.288 0 0 0-1.848-.43c-.864.135-1.448-.303-1.82-.984a1.805 1.805 0 0 1 .345-2.103 3.05 3.05 0 0 0 .902-2.453c-.07-1.825 1.158-2.949 2.527-3.919a.227.227 0 0 1 .039-.022c1.252-.628 1.308-1.011.983-2.376a7.464 7.464 0 0 0-.656-1.58c-.27-.532-.51-1.055-.381-1.698.133.018.225.029.329.047.776.156.866.065 1.293-.58.221-.32.537-.562.902-.695a6.913 6.913 0 0 1 4.025-.076c1.338.358 2.651.812 3.951 1.286a3.271 3.271 0 0 0 1.864.128c.224-.036.453-.01.663.077.508.194.97.417 1.464-.086.102-.104.582 0 .74.15.56.547 1.183.624 1.882.405.451-.144.821 0 1.191.28.19.142.549.293.677.207a.872.872 0 0 0 .32-.694c-.085-1.128.316-2.004 1.34-2.469a4.55 4.55 0 0 1 1.758-.376 9.075 9.075 0 0 0 2.888-.612c.515-.18 1.043-.32 1.58-.42a1.728 1.728 0 0 1 1.868.817c.173.257.297.546.478.797.307.426.451.749.081 1.308-.652.968.203 2.417 1.354 2.32 1.69-.143 2.053.81 1.85 2.066-.035.28-.025.562.03.837.096.587.464.869 1.042.731a2.42 2.42 0 0 1 1.47.14c.863.327 1.677.357 2.503-.153.58-.359.961-.163 1.189.487.082.283.182.56.298.83.225.452.605.612 1.067.411a1.804 1.804 0 0 1 1.462.03c.796.315 1.595.622 2.387.95.71.293 1.354.676 1.674 1.427.294.709.188 1.063-.438 1.27-.624.208-.548.517.064 1.07Z" fill="#000"/><path d="M32.634 39.52h-.072a1.103 1.103 0 0 1-.815-.33 1.114 1.114 0 0 1-.225-.855 1.8 1.8 0 0 1 .074-.36c.268-.958.126-1.341-.697-1.871a3.825 3.825 0 0 0-.729-.336c-.101-.039-.203-.077-.305-.12-.101-.043-.14-.052-.21-.075a1.674 1.674 0 0 1-.374-.153.451.451 0 0 1 0-.814c.144-.083.295-.152.451-.208.082-.032.163-.06.242-.095.149-.067.302-.133.451-.198.422-.18.86-.368 1.268-.587a.83.83 0 0 0 .257-.343l.075-.133-.115-.072a.803.803 0 0 0-.364-.167 13.328 13.328 0 0 0-1.805.043c-.902.09-1.649-.226-2.276-1.002a1.779 1.779 0 0 0-.269-.248 2.302 2.302 0 0 1-.239-.21 1.596 1.596 0 0 1-.2-.28l-.08-.124-.047-.07.07-.045c.046-.032.09-.067.133-.104.115-.095.226-.196.361-.183.242.031.48.087.71.165l.238.07.013-.013a.737.737 0 0 1-.043-.07.791.791 0 0 0-.178-.226c-.81-.569-2.806-.415-3.502.269-.166.19-.291.411-.367.652a6.389 6.389 0 0 0-.194.676 6.712 6.712 0 0 1-.072.291 1.703 1.703 0 0 1-1.232 1.27l-.208.064c-1.008.334-1.07.451-.835 1.475a.982.982 0 0 1-.043.452c-.015.065-.033.128-.042.191l-.016.098-.093-.032a1.781 1.781 0 0 0-.171-.045.784.784 0 0 1-.388-.167c-.32-.312-.66-.354-1.128-.145l-.167.07a3.036 3.036 0 0 0-.314.143c-.79.42-1.482.103-2.114-.303a.493.493 0 0 1-.25-.327.539.539 0 0 1 .162-.42 79.22 79.22 0 0 0 1.895-2.34.814.814 0 0 0 .106-.468.429.429 0 0 0-.063-.168.517.517 0 0 1-.083-.24v-.139c0-.259-.02-.555.124-.728.144-.174.677-.082.839-.043.204.053.404.119.6.196.25.104.51.18.776.226.285.04.488 0 .569-.12.081-.12.047-.34-.104-.609-.212-.386-.451-.772-.659-1.146a33.35 33.35 0 0 1-.981-1.742 4.413 4.413 0 0 1-.451-1.539 1.386 1.386 0 0 0-.984-1.308c-.706-.273-1.397-.612-2.067-.937l-.55-.268c-1.207-.578-2.401-.451-3.649.368-.236.174-.45.378-.634.607a2.37 2.37 0 0 1-2.292.848.835.835 0 0 0-.575.248c-.66.636-.977.731-1.681.075a1.368 1.368 0 0 0-1.543-.291c-.603.225-1.1.171-1.517-.143a2.233 2.233 0 0 0-1.746-.39 1.734 1.734 0 0 1-1.5-.451A2.461 2.461 0 0 1 0 22.469a2.375 2.375 0 0 1 .72-1.714 2.03 2.03 0 0 0 .663-1.749c-.1-1.54.596-2.867 2.128-4.061.333-.25.68-.483 1.038-.697.523-.323.611-.515.523-1.128a6.489 6.489 0 0 0-.745-2.177 5.052 5.052 0 0 1-.424-1.58v-.05a.476.476 0 0 1 .142-.45.503.503 0 0 1 .506-.06c.541.188.837.052 1.128-.518.165-.325.596-.569.943-.69a7.184 7.184 0 0 1 4.246-.13c1.422.37 2.798.854 4.084 1.316a3.09 3.09 0 0 0 1.606.124c.324-.042.652-.006.96.104l.132.045c.339.122.605.226.903-.115a.586.586 0 0 1 .451-.174 1.083 1.083 0 0 1 .776.312c.429.45.916.564 1.58.365a1.487 1.487 0 0 1 1.511.363.677.677 0 0 0 .226.115l.056.02c0-.02.018-.04.03-.06a.842.842 0 0 0 .094-.266c.014-.143.02-.286.018-.43a2.758 2.758 0 0 1 .061-.676c.307-1.187 1.354-1.997 2.665-2.064 1.35-.05 2.682-.323 3.944-.806a5.283 5.283 0 0 1 1.4-.298 1.943 1.943 0 0 1 1.919.864c.28.416.541.853.794 1.275l.12.199a.724.724 0 0 1-.095.902c-.427.501-.278 1.036-.055 1.537.2.45.576.514 1.079.485h.451a1.58 1.58 0 0 1 1.66 1.636c0 .194 0 .39-.017.58a6.29 6.29 0 0 0 0 .744c.02.314.079.494.192.584.112.09.318.11.676.054.286-.04.576-.03.858.03.241.052.48.118.715.196.133.043.264.084.397.122a1.652 1.652 0 0 0 1.32-.156c.169-.104.348-.189.535-.255.62-.225 1.128 0 1.371.591.06.148.111.299.154.452.045.142.09.29.147.428.169.402.372.488.767.327a2.06 2.06 0 0 1 1.579.039c.848.323 1.721.677 2.595 1.035.97.407 1.543.962 1.805 1.749.261.787.097 1.182-.657 1.55a1.246 1.246 0 0 0-.187.122l-.032.022c.582.508.571.578.131 1.187l-.04.057a1.056 1.056 0 0 0-.127.676c.036.196.098.385.183.564.04.098.081.197.115.296a1.545 1.545 0 0 1-1.417 2.116c-.246.014-.494 0-.736 0h-.333a.594.594 0 0 0-.623.389 1.102 1.102 0 0 1-.849.676c-.45.1-.595.285-.595.758a1.762 1.762 0 0 0 0 .19v.162c.018.677-.194.948-.808 1.05a8.168 8.168 0 0 0-3.019 1.141 2.193 2.193 0 0 1-1.593.305 1.442 1.442 0 0 0-1.579.613 2.306 2.306 0 0 1-.812.646 1.436 1.436 0 0 0-.763.796 1.31 1.31 0 0 1-1.085.92.536.536 0 0 0-.347.265c-.018.052.05.173.198.365a.809.809 0 0 0 .253.183l.045.025a1.402 1.402 0 0 1 .731 1.128c.043.365.156.607.336.72.18.112.44.101.776-.023.274-.11.538-.242.79-.395.1-.056.196-.115.298-.169.101-.054.146-.086.225-.13.115-.08.237-.147.364-.204a.82.82 0 0 1 .701 0 .847.847 0 0 1 .425.582c.137.584.02 1.051-.35 1.39-.409.374-.928.465-1.539.27a7.06 7.06 0 0 1-.49-.184 7.28 7.28 0 0 0-.38-.147.358.358 0 0 0-.509.226 1.609 1.609 0 0 1-1.22 1.044 3.893 3.893 0 0 0-1.868 1.05c-.352.34-.822.53-1.311.53Zm-1.71-6.893c.205 0 .415 0 .634.014.164.023.32.089.45.191.06.039.118.077.18.108l.08.043-.051.075c-.041.06-.077.129-.113.196a.939.939 0 0 1-.325.409c-.413.225-.853.41-1.28.593l-.45.196a4.77 4.77 0 0 1-.249.1 2.5 2.5 0 0 0-.43.194.343.343 0 0 0-.188.268.337.337 0 0 0 .187.266c.106.06.219.106.336.138.075.025.152.05.226.079l.3.117c.265.092.52.21.76.352.88.569 1.054 1.029.765 2.051a1.8 1.8 0 0 0-.07.332.943.943 0 0 0 .192.733.932.932 0 0 0 .7.273 1.715 1.715 0 0 0 1.276-.476 4.061 4.061 0 0 1 1.945-1.09 1.456 1.456 0 0 0 1.104-.943.519.519 0 0 1 .715-.327c.13.045.26.097.39.149.131.052.316.128.476.178a1.327 1.327 0 0 0 1.379-.226c.322-.295.424-.71.3-1.231a.691.691 0 0 0-.339-.477.676.676 0 0 0-.564 0 2.18 2.18 0 0 0-.336.19c-.077.047-.151.095-.225.138-.075.042-.197.11-.294.167a5.373 5.373 0 0 1-.814.406c-.393.144-.693.146-.919 0-.225-.147-.363-.415-.412-.84a1.232 1.232 0 0 0-.648-1.008l-.045-.023a.989.989 0 0 1-.305-.225c-.133-.174-.273-.373-.225-.52a.677.677 0 0 1 .476-.372 1.148 1.148 0 0 0 .956-.816c.153-.395.456-.712.842-.885a2.19 2.19 0 0 0 .758-.595 1.58 1.58 0 0 1 1.744-.677c.51.1 1.039 0 1.476-.282a8.349 8.349 0 0 1 3.077-1.167c.53-.088.688-.293.677-.882v-.356c0-.553.194-.801.722-.919a.939.939 0 0 0 .733-.586.745.745 0 0 1 .776-.492h.337c.225 0 .482.013.722 0a1.384 1.384 0 0 0 1.272-1.9 4.906 4.906 0 0 0-.113-.284 2.406 2.406 0 0 1-.194-.607 1.205 1.205 0 0 1 .156-.799l.04-.056c.39-.54.39-.54-.184-1.036l-.08-.07.089-.06.115-.082c.065-.051.136-.097.21-.135.676-.334.812-.636.573-1.354-.24-.717-.792-1.263-1.715-1.65a90.79 90.79 0 0 0-2.588-1.033 1.887 1.887 0 0 0-1.453-.04c-.476.194-.779.065-.981-.415a4.685 4.685 0 0 1-.152-.452c-.045-.144-.09-.295-.149-.433a.84.84 0 0 0-1.164-.503 2.583 2.583 0 0 0-.503.24 1.805 1.805 0 0 1-1.516.178c-.136-.039-.269-.082-.402-.122a6.998 6.998 0 0 0-.7-.194 2.309 2.309 0 0 0-.8-.027c-.404.063-.634.038-.794-.088-.16-.127-.226-.334-.253-.704a7.185 7.185 0 0 1 0-.763c0-.187.02-.381.018-.569a1.418 1.418 0 0 0-1.491-1.473h-.438c-.472.03-.988-.016-1.239-.58-.225-.525-.408-1.128.077-1.71a.558.558 0 0 0 .079-.72l-.117-.196c-.253-.422-.513-.857-.79-1.268a1.791 1.791 0 0 0-1.767-.794 5.28 5.28 0 0 0-1.353.286 12.5 12.5 0 0 1-3.996.82c-1.236.063-2.225.825-2.514 1.94-.044.21-.063.426-.054.64 0 .147 0 .298-.018.452a.99.99 0 0 1-.113.318l-.058.126-.032.082-.076-.037c-.039-.018-.082-.031-.122-.047a.813.813 0 0 1-.28-.147 1.326 1.326 0 0 0-1.354-.329c-.72.226-1.272.088-1.742-.408a.916.916 0 0 0-.656-.26.435.435 0 0 0-.32.115c-.364.42-.725.289-1.075.165l-.128-.047a1.933 1.933 0 0 0-.88-.095 3.253 3.253 0 0 1-1.688-.133c-1.283-.452-2.655-.943-4.06-1.311a7.026 7.026 0 0 0-4.15.126c-.305.104-.708.327-.85.61-.325.638-.709.812-1.325.597a.363.363 0 0 0-.384.045.314.314 0 0 0-.083.3v.052c.053.526.19 1.04.406 1.523.384.693.643 1.448.763 2.232.097.677-.023.93-.6 1.288a11.67 11.67 0 0 0-1.023.677c-1.493 1.17-2.17 2.45-2.066 3.932a2.204 2.204 0 0 1-.713 1.875 2.231 2.231 0 0 0-.677 1.598 2.295 2.295 0 0 0 .747 1.64 1.552 1.552 0 0 0 1.354.41 2.38 2.38 0 0 1 1.865.422c.37.278.817.316 1.354.118a1.512 1.512 0 0 1 1.708.327c.598.557.817.546 1.458-.072a.976.976 0 0 1 .715-.294c.853.143 1.534-.11 2.14-.796.2-.231.427-.436.678-.61 1.3-.861 2.547-.985 3.81-.378l.551.266c.677.325 1.354.661 2.053.932a1.544 1.544 0 0 1 1.088 1.446c.051.515.197 1.017.428 1.48.3.589.643 1.171.975 1.735.226.375.451.76.663 1.149.212.388.179.654.093.78-.086.127-.275.253-.724.19a3.894 3.894 0 0 1-.813-.226 5.296 5.296 0 0 0-.58-.192c-.318-.076-.613-.08-.676 0-.104.124-.095.386-.088.619v.137a.4.4 0 0 0 .065.17.541.541 0 0 1 .084.24.965.965 0 0 1-.14.574 79.125 79.125 0 0 1-1.902 2.344.396.396 0 0 0-.124.289.343.343 0 0 0 .176.214c.677.438 1.274.654 1.949.296a3.22 3.22 0 0 1 .327-.15l.165-.07c.532-.225.95-.177 1.313.18.092.066.2.109.314.123l.097.023c0-.02.01-.043.015-.066l-.142-.085c-.05-.032-.095-.054-.133-.077a.75.75 0 0 1-.187-.124c-.282-.27-.623-.332-1.076-.192a3.54 3.54 0 0 0-.643.257c-.779.436-1.43.118-2.03-.29l-.073-.05.054-.068c.187-.226.372-.467.555-.702.431-.548.878-1.114 1.354-1.645a.875.875 0 0 0 .16-1.08l-.036-.07a.603.603 0 0 1-.086-.25.73.73 0 0 1 .11-.452c.113-.126.438-.011.452 0 .149.052.293.115.435.176.219.102.445.185.677.248.451.113.966.201 1.264-.225.225-.341.031-.69-.167-1.027l-.068-.117c-.168-.301-.34-.594-.514-.88-.332-.564-.677-1.146-.982-1.74a3.745 3.745 0 0 1-.406-1.417c-.056-.834-.43-1.315-1.254-1.608a15.293 15.293 0 0 1-2.34-1.074c-1.385-.783-3.323-.521-4.512.604-.167.158-.328.32-.486.486l-.079.079a1.644 1.644 0 0 1-1.565.518 1.09 1.09 0 0 0-1.128.406c-.19.226-.343.357-.524.364a.808.808 0 0 1-.548-.312 1.706 1.706 0 0 0-1.986-.399 1.227 1.227 0 0 1-1.24-.187 2.205 2.205 0 0 0-1.785-.404c-.81.128-1.469-.226-1.907-1.027-.464-.85-.097-1.714.359-2.197a2.958 2.958 0 0 0 .88-2.394c-.072-1.864 1.189-3.017 2.56-3.989l.048-.03c1.212-.604 1.26-.95.943-2.283a7.173 7.173 0 0 0-.632-1.523l-.02-.038c-.289-.57-.516-1.096-.386-1.753l.016-.077.199.027c.076.012.144.02.21.034.728.145.79.09 1.207-.546a1.96 1.96 0 0 1 .954-.726 6.965 6.965 0 0 1 4.075-.08c1.419.38 2.795.865 3.955 1.289a3.174 3.174 0 0 0 1.818.124c.24-.038.486-.01.711.081l.086.032c.462.183.862.338 1.29-.1.095-.094.305-.067.424-.044a.903.903 0 0 1 .431.194c.501.49 1.074.613 1.805.385a1.34 1.34 0 0 1 1.264.294c.205.15.512.257.596.205a.796.796 0 0 0 .282-.62c-.095-1.232.372-2.09 1.387-2.552a4.648 4.648 0 0 1 1.79-.382 9.08 9.08 0 0 0 2.851-.627 10.68 10.68 0 0 1 1.59-.424 1.818 1.818 0 0 1 1.955.853c.079.12.149.248.225.37.076.147.162.289.258.424.3.418.496.788.08 1.401a1.46 1.46 0 0 0 1.278 2.193c.749-.063 1.293.084 1.622.436.33.352.451.943.316 1.726-.035.27-.026.543.027.81a.853.853 0 0 0 .327.595.754.754 0 0 0 .616.068 2.482 2.482 0 0 1 1.52.147c.928.35 1.7.302 2.43-.15a.901.901 0 0 1 .763-.155c.226.084.415.307.548.677.032.092.061.187.09.28.052.186.12.368.202.543.212.427.546.553.96.373a1.885 1.885 0 0 1 1.526.03l.616.24c.582.226 1.184.465 1.771.709.663.273 1.383.661 1.721 1.473.174.422.208.71.104.939a.901.901 0 0 1-.607.453c-.225.075-.345.165-.367.269-.032.146.12.37.45.677l.053.047-.036.059c-.014.018-.025.04-.039.06a.563.563 0 0 1-.115.163 1.078 1.078 0 0 0-.295 1.248c.045.142.101.284.157.42.037.094.075.187.109.281a1.259 1.259 0 0 1-1.194 1.774H47.2a.841.841 0 0 0-.846.521.922.922 0 0 1-.718.569c-.512.103-.758.408-.769.959v.525a.57.57 0 0 1-.508.655c-1.306.184-2.457.758-3.314 1.236a2.162 2.162 0 0 1-1.243.2c-.864-.103-1.449.131-1.893.765-.18.23-.412.413-.677.533a1.636 1.636 0 0 0-.902.948 1.127 1.127 0 0 1-.89.758c-.212.052-.502.252-.539.417-.047.2.127.499.253.718a.743.743 0 0 0 .289.225l.108.061a1.11 1.11 0 0 1 .569.878c.067.476.225.794.485.945.26.151.614.145 1.063-.025.293-.125.575-.276.841-.45.129-.078.257-.157.388-.227.047-.027.097-.056.145-.088.25-.16.561-.356.886.041.264.325.188.988-.153 1.293a1.23 1.23 0 0 1-1.284.226c-.12-.039-.237-.086-.354-.131a4.364 4.364 0 0 0-.474-.167c-.478-.131-.677-.043-.889.377a1.544 1.544 0 0 1-1.128.902c-.758.158-1.354.6-1.877 1.042a2.324 2.324 0 0 1-1.063.474.794.794 0 0 1-.722-.183.903.903 0 0 1-.18-.798c0-.034.015-.066.024-.097l.012-.039c.343-1.245-.034-1.992-1.253-2.497a11.07 11.07 0 0 0-.834-.291l-.39-.127-.052-.018v-.252l.266-.115.451-.192.519-.226c.397-.167.796-.334 1.191-.508.108-.047.273-.12.318-.21l.048-.09c.14-.198.219-.434.225-.677a.765.765 0 0 0-.553-.363 9.994 9.994 0 0 0-1.928 0 2.226 2.226 0 0 1-2.232-1.01 1.64 1.64 0 0 0-.246-.258 1.878 1.878 0 0 1-.307-.318l-.079-.108-.043.036-.08.068.038.06c.051.092.113.177.182.256.07.07.146.136.226.196.107.08.204.17.291.27.598.73 1.275 1.03 2.134.944.396-.04.794-.06 1.192-.06Zm-1.449 2.405.334.108c.28.09.57.183.848.296 1.296.537 1.71 1.365 1.354 2.692v.04c0 .027-.016.054-.02.081a.725.725 0 0 0 .135.655.64.64 0 0 0 .578.137c.36-.061.7-.213.986-.44.548-.45 1.153-.902 1.947-1.076a1.394 1.394 0 0 0 1.004-.796c.226-.49.528-.616 1.078-.465.167.049.331.106.492.171.113.045.226.09.345.129a1.06 1.06 0 0 0 1.129-.19c.27-.243.343-.812.135-1.067-.208-.255-.393-.185-.677 0a2.794 2.794 0 0 1-.153.095c-.129.07-.258.147-.384.226a5.374 5.374 0 0 1-.866.45c-.499.188-.903.193-1.205.012-.302-.18-.49-.537-.562-1.063a.967.967 0 0 0-.49-.76l-.103-.056a.86.86 0 0 1-.355-.278c-.146-.257-.331-.575-.27-.837.06-.261.424-.483.663-.539a.968.968 0 0 0 .772-.654 1.803 1.803 0 0 1 .992-1.04c.244-.108.457-.273.623-.481.476-.677 1.128-.945 2.047-.833.39.055.789-.008 1.143-.18.869-.485 2.031-1.067 3.371-1.257a.407.407 0 0 0 .366-.485v-.171c0-.12-.014-.244 0-.366 0-.62.316-.995.902-1.114a.763.763 0 0 0 .603-.474.995.995 0 0 1 .995-.618h1.017a1.096 1.096 0 0 0 1.047-1.555c-.034-.092-.072-.185-.108-.277a6.524 6.524 0 0 1-.16-.431 1.238 1.238 0 0 1 .343-1.42.507.507 0 0 0 .08-.12c-.351-.326-.489-.568-.45-.775.035-.167.191-.296.478-.39a.759.759 0 0 0 .494-.352c.081-.179.047-.436-.106-.808-.316-.756-1.002-1.128-1.631-1.383-.587-.244-1.19-.479-1.77-.707l-.617-.243a1.709 1.709 0 0 0-1.397-.032c-.496.226-.925.054-1.176-.451a3.834 3.834 0 0 1-.21-.569 9.915 9.915 0 0 0-.09-.273c-.112-.325-.264-.52-.45-.584a.746.746 0 0 0-.624.14c-.778.48-1.595.532-2.574.16a2.31 2.31 0 0 0-1.424-.137.922.922 0 0 1-.744-.09 1.016 1.016 0 0 1-.397-.707 2.58 2.58 0 0 1-.027-.862c.117-.73.025-1.266-.278-1.58-.302-.313-.792-.45-1.487-.385a1.619 1.619 0 0 1-1.426-2.446c.36-.532.21-.814-.079-1.214a4.728 4.728 0 0 1-.268-.45 4.781 4.781 0 0 0-.212-.36 1.642 1.642 0 0 0-1.785-.782c-.533.098-1.057.239-1.568.42-.934.356-1.92.56-2.92.602a4.49 4.49 0 0 0-1.725.37c-.946.428-1.381 1.232-1.293 2.387a.952.952 0 0 1-.359.771c-.2.124-.618-.092-.778-.21-.418-.309-.743-.388-1.128-.27-.779.243-1.422.106-1.961-.424a.819.819 0 0 0-.625-.152c-.503.515-.993.323-1.467.138l-.085-.034a1.169 1.169 0 0 0-.619-.072 3.328 3.328 0 0 1-1.917-.124c-1.155-.422-2.53-.903-3.942-1.284a6.814 6.814 0 0 0-3.98.077c-.35.125-.654.356-.869.66-.45.678-.577.775-1.376.617-.063-.014-.126-.02-.198-.032h-.048c-.088.571.122 1.05.386 1.58l.02.038a7.22 7.22 0 0 1 .643 1.561c.332 1.392.273 1.816-1.026 2.466l-.027.018c-1.334.944-2.561 2.063-2.482 3.836a3.159 3.159 0 0 1-.923 2.513A1.719 1.719 0 0 0 .6 23.26c.406.745.99 1.06 1.735.943a2.363 2.363 0 0 1 1.911.436 1.069 1.069 0 0 0 1.099.135 1.877 1.877 0 0 1 2.157.436c.198.194.318.266.429.266.11 0 .225-.095.406-.31a1.254 1.254 0 0 1 1.295-.45 1.49 1.49 0 0 0 1.417-.474l.079-.08c.16-.164.322-.329.49-.487 1.233-1.175 3.255-1.446 4.699-.631.74.415 1.513.767 2.313 1.05.882.317 1.304.856 1.353 1.754.038.473.17.933.388 1.354.3.589.646 1.168.977 1.73.173.301.345.595.515.882l.067.116c.226.363.452.776.158 1.202-.386.553-1.07.381-1.437.289a4.418 4.418 0 0 1-.695-.255 6.98 6.98 0 0 0-.424-.174.55.55 0 0 0-.277-.034.58.58 0 0 0-.066.343c.01.064.033.125.068.178l.036.075a1.042 1.042 0 0 1-.183 1.259c-.465.526-.889 1.067-1.34 1.638l-.5.634c.6.401 1.127.587 1.775.226a3.48 3.48 0 0 1 .677-.271c.51-.158.916-.084 1.238.225a.52.52 0 0 0 .12.082l-.036-.127c-.165-.557-.165-.954 0-1.25.164-.295.465-.473.963-.6.903-.225 1.354-.751 1.496-1.68.011-.063.027-.124.047-.183 0-.041.025-.082.034-.122.15-.715.591-1.19 1.354-1.447a4.343 4.343 0 0 1 2.482-.13c.365.096.706.271.997.512a.74.74 0 0 1 .101.717c-.074.17-.45.201-.645.18a2.031 2.031 0 0 1-.474-.123l.066.058c.1.084.192.18.27.285a2.052 2.052 0 0 0 2.063.927c.652-.06 1.308-.06 1.96 0 .262.023.655.273.698.499.042.225-.102.53-.226.778l-.045.09a.785.785 0 0 1-.4.285c-.394.173-.794.34-1.193.51l-.519.225-.451.192-.163.07.016.02Zm-3.044-5.19a4.485 4.485 0 0 0-1.437.249c-.7.226-1.105.677-1.24 1.324 0 .046-.025.09-.039.136a.954.954 0 0 0-.04.158c-.14.992-.655 1.579-1.618 1.805-.451.115-.727.282-.862.523-.136.242-.14.611.013 1.128l.05.18.072.265a.865.865 0 0 0 .04-.375c-.254-1.117-.148-1.304.944-1.667l.214-.066a1.53 1.53 0 0 0 1.128-1.153l.073-.288c.053-.238.119-.472.198-.702a1.97 1.97 0 0 1 .406-.713c.752-.74 2.834-.902 3.712-.284a.88.88 0 0 1 .225.273c.025.042.05.082.08.121l.044.061-.196.163h-.04l-.283-.084a3.462 3.462 0 0 0-.676-.158.225.225 0 0 0-.136.061l.104.032c.079.025.156.052.226.081.167.067.34.116.519.145a.74.74 0 0 0 .476-.084.606.606 0 0 0-.055-.526 2.511 2.511 0 0 0-.933-.48 3.952 3.952 0 0 0-.968-.115v-.01Z" fill="#000"/><path d="m23.523 16.836-.298-.596s-.541-1.03-1.518-.977c-.977.055-1.41.977-1.41.977l-1.354.434 1.464.324a1.1 1.1 0 0 1 .677 1.031c-.027.76-.902 1.873-.514 2.934.388 1.06 4.061 1.353 6.292 2.536 2.232 1.182 3.473 4.512 3.473 4.512s-1.792-1.846-4.125-2.116c-2.332-.271-3.743-2.335-3.743-4.26 0-1.925.055-3.836 2.17-5.451 2.117-1.616 6.348-3.689 6.512-5.415 0 0 2.06 6.13-2.062 8.626 0 0-2.03 1.579-5.318 1.193l-.902-.162" fill="#fff"/><path d="M30.323 28.3a.29.29 0 0 1-.207-.086c-.016-.018-1.751-1.776-3.948-2.03-2.257-.262-3.68-2.1-3.951-3.922-1.006-.314-1.737-.648-1.931-1.191-.276-.781.018-1.562.255-2.189.121-.274.204-.565.245-.862a.8.8 0 0 0-.48-.744l-1.437-.32a.287.287 0 0 1-.025-.556l1.245-.4a2.03 2.03 0 0 1 1.593-1.023c1.144-.066 1.765 1.08 1.79 1.128l.25.5c.226-.234.47-.45.729-.647.62-.476 1.4-.98 2.226-1.512 1.91-1.225 4.062-2.617 4.172-3.713a.29.29 0 0 1 .255-.26.293.293 0 0 1 .307.196c.02.064 2.08 6.365-2.173 8.955-.205.156-2.256 1.623-5.512 1.241l-.913-.164-.057-.016c-.011.318-.011.636-.011.952v.183c.27.079.548.155.826.225 1.128.314 2.414.677 3.411 1.203 2.295 1.232 3.553 4.512 3.61 4.654a.286.286 0 0 1-.115.346.275.275 0 0 1-.154.051Zm-7.488-5.855a3.996 3.996 0 0 0 3.398 3.158 7.265 7.265 0 0 1 3.285 1.354c-.553-1.04-1.512-2.511-2.802-3.204-.943-.505-2.191-.85-3.294-1.153l-.587-.155Zm-2.802-5.821.424.094.043.012a1.381 1.381 0 0 1 .862 1.31c-.04.361-.134.714-.282 1.045-.226.596-.451 1.212-.25 1.792.1.286.642.534 1.34.764 0-1.468 0-3.09 1.16-4.58a.292.292 0 0 1-.073-.092l-.298-.596s-.467-.862-1.245-.817c-.779.046-1.15.781-1.167.813a.297.297 0 0 1-.171.15l-.343.105Zm2.845 3.506a.205.205 0 0 1 .052 0l.902.162c3.103.363 5.07-1.128 5.09-1.128l.027-.018c3.006-1.819 2.53-5.756 2.153-7.466-.718 1.09-2.426 2.189-4.09 3.258-.815.526-1.58 1.022-2.187 1.482-1.487 1.144-1.9 2.426-2.012 3.725a.262.262 0 0 1 .065-.015Z" fill="#000"/></svg>