<svg width="257" height="64" fill="none" xmlns="http://www.w3.org/2000/svg"><g clip-path="url(#a)"><path d="M60.9 17.97c.26 0 .49-.09.67-.26.18-.17.27-.4.27-.69 0-.29-.09-.52-.27-.69a.88.88 0 0 0-.29-.18l.47-1.79h-.93l-.61 1.66c-.07.18-.12.33-.16.44a1.7 1.7 0 0 0-.08.3c-.02.08-.02.17-.02.26 0 .28.09.51.27.68.17.18.4.27.68.27Zm-1.81-.25c.18-.17.27-.4.27-.69 0-.29-.09-.52-.27-.69a.88.88 0 0 0-.29-.18l.47-1.79h-.93l-.61 1.66c-.07.18-.12.33-.16.44-.04.12-.07.22-.08.3-.02.08-.02.17-.02.26 0 .28.09.51.27.68.18.17.41.26.69.26.26 0 .48-.08.66-.25Zm6.46 3.43c-.25.4-.54.64-.86.71-.33.07-.7.03-1.13-.12l-.39 1.19c.48.2.95.29 1.42.26.46-.03.89-.19 1.28-.48s.73-.71 1.02-1.25l3.55-6.59h-1.49l-2.48 4.79-2.42-4.79h-1.61l3.23 6.1-.12.18Zm7.42-1.57h1.53l2.39 3.45h1.72l-2.91-4.22 2.8-3.95h-1.61l-2.35 3.43h-1.57v-3.43h-1.48v8.17h1.48v-3.45Zm8.19 1.09H83c.72 0 1.34-.12 1.86-.36s.92-.57 1.2-1c.28-.43.42-.95.42-1.55 0-.61-.14-1.13-.42-1.56-.28-.44-.68-.77-1.2-1-.52-.23-1.14-.34-1.86-.34h-3.36v8.17h1.52v-2.36Zm0-4.53h1.77c.67 0 1.17.14 1.51.43.34.28.51.68.51 1.2 0 .52-.17.91-.51 1.2-.34.28-.84.43-1.51.43h-1.77v-3.26Zm6.87 6.89.81-1.89h4.09l.81 1.89h1.6l-3.69-8.17h-1.49l-3.68 8.17h1.55Zm2.85-6.66 1.53 3.57h-3.06l1.53-3.57Zm5.28-2.32c.19 0 .36-.06.5-.19s.21-.3.21-.51c0-.2-.07-.37-.21-.5a.72.72 0 0 0-.5-.2c-.19 0-.35.07-.49.2s-.21.3-.21.5a.687.687 0 0 0 .7.7Zm2.27 0a.687.687 0 0 0 .7-.7c0-.2-.07-.37-.21-.5a.727.727 0 0 0-1 0c-.14.13-.2.3-.2.5 0 .21.07.38.2.51.14.13.31.19.51.19Zm-.38.81h-1.52v8.17h1.52v-8.17Zm3.77 4.66h4.22v3.51h1.51v-8.17h-1.51v3.37h-4.22v-3.37h-1.52v8.17h1.52v-3.51Zm8.66 2.43c.39.38.85.68 1.38.88.53.21 1.11.31 1.74.31.68 0 1.29-.12 1.84-.35.55-.23 1.02-.58 1.4-1.03l-.98-.92c-.3.33-.64.57-1 .73-.37.16-.76.24-1.18.24-.43 0-.82-.07-1.17-.21-.35-.14-.66-.34-.92-.6-.26-.26-.46-.56-.61-.91-.15-.35-.22-.74-.22-1.16 0-.42.07-.81.22-1.16.15-.35.35-.65.61-.91s.57-.46.92-.6c.35-.14.74-.21 1.17-.21.42 0 .81.08 1.18.24.37.16.7.4 1 .72l.98-.92a3.65 3.65 0 0 0-1.4-1.02c-.55-.23-1.16-.34-1.83-.34-.63 0-1.21.1-1.74.31s-.99.5-1.39.88c-.4.38-.7.82-.92 1.33-.22.51-.33 1.07-.33 1.68 0 .61.11 1.17.33 1.68.22.52.53.96.92 1.34Zm13.73.37c.58-.47.88-1.16.88-2.08 0-.87-.26-1.52-.79-1.96-.53-.44-1.28-.65-2.26-.65h-2.26v-2.77h-1.51v8.17h3.52c1.03 0 1.84-.24 2.42-.71Zm-4.44-.46v-3.07h1.95c.59 0 1.05.12 1.37.35.32.23.48.61.48 1.12 0 .52-.16.92-.48 1.19-.32.27-.78.41-1.36.41h-1.96Zm12.26 1.17h1.72l-2.91-4.22 2.8-3.95h-1.61l-2.36 3.43h-1.56v-3.43h-1.48v8.17h1.48v-3.45h1.53l2.39 3.45Zm8.55-5.79v5.79h1.51v-8.17h-1.41l-4.39 5.8v-5.8h-1.51v8.17h1.43l4.37-5.79Zm5.86-3.38c.35.3.88.44 1.58.44.7 0 1.23-.15 1.59-.44.36-.3.54-.71.55-1.25h-1.05c-.01.29-.11.51-.3.67-.19.16-.45.23-.79.23-.33 0-.6-.08-.78-.23-.19-.16-.28-.38-.29-.67h-1.05c0 .54.18.96.54 1.25Zm3.74 9.17h1.5v-8.17h-1.41l-4.39 5.8v-5.8h-1.5v8.17h1.42l4.38-5.79v5.79Zm7.01 0h1.5l-.01-6.89h4.05l.01-1.28h-5.55v8.17Zm9.87-3.38-2.42-4.79h-1.61l3.23 6.1-.12.19c-.25.4-.54.64-.86.71-.33.07-.7.03-1.13-.12l-.38 1.19c.48.2.95.29 1.42.26.46-.03.89-.19 1.28-.48s.73-.71 1.02-1.25l3.55-6.59h-1.49l-2.49 4.78Zm6.48-1.95 2.67 4.4h.69l2.67-4.48v5.41h1.46l-.03-8.17h-1.23l-3.2 5.41-3.24-5.41h-1.25v8.17h1.46V17.7Zm12.41-2.84-3.68 8.17h1.55l.81-1.89h4.09l.81 1.89h1.6l-3.69-8.17h-1.49Zm-.8 5.08 1.54-3.57 1.53 3.57h-3.07Zm8.75-.42h4.22v3.51h1.51v-8.17h-1.51v3.37h-4.22v-3.37h-1.52v8.17h1.52v-3.51Zm9.54-4.66h-1.51v8.17h1.51v-8.17Zm5.5 8.17v-6.89h2.72v-1.28h-6.91v1.28h2.7v6.89h1.49Zm6.26-8.17-3.68 8.17h1.55l.81-1.89h4.09l.81 1.89h1.6l-3.69-8.17h-1.49Zm-.81 5.08 1.54-3.57 1.53 3.57h-3.07Zm12.46-4.74c-.52-.23-1.14-.34-1.86-.34h-3.36v8.17h1.52v-2.36h1.84c.72 0 1.34-.12 1.86-.36s.92-.57 1.2-1c.28-.43.42-.95.42-1.55 0-.61-.14-1.13-.42-1.56-.29-.44-.69-.77-1.2-1Zm-.42 3.76c-.34.28-.84.43-1.51.43h-1.77v-3.24h1.77c.67 0 1.17.14 1.51.43.34.28.51.68.51 1.2 0 .52-.17.89-.51 1.18Zm9.21-.73h-4.22v-3.37h-1.52v8.17h1.52v-3.51h4.22v3.51h1.51v-8.17h-1.51v3.37Zm5.31 2.43v-5.8h-1.51v8.17h1.43l4.37-5.79v5.79h1.51v-8.17h-1.41l-4.39 5.8Zm10.15-6.8c.35.3.88.44 1.58.44.7 0 1.23-.15 1.59-.44.36-.3.54-.71.55-1.25h-1.05c-.01.29-.11.51-.3.67-.19.16-.45.23-.79.23-.33 0-.6-.08-.78-.23-.19-.16-.28-.38-.29-.67h-1.05c0 .54.18.96.54 1.25Zm3.83 1-4.39 5.8v-5.8h-1.5v8.17h1.42l4.38-5.79v5.79h1.5v-8.17h-1.41ZM64.3 32.72c-.51-.4-1.25-.61-2.23-.61h-2.42v-2h4.87v-1.26h-6.37v8.17h3.69c1.03 0 1.82-.22 2.39-.67.56-.44.85-1.07.85-1.87-.02-.76-.27-1.35-.78-1.76Zm-1.22 2.8c-.3.23-.75.34-1.33.34h-2.1v-2.58h2.1c1.19 0 1.79.42 1.79 1.26-.01.43-.16.76-.46.98Zm9.04-.38.81 1.89h1.6l-3.69-8.17h-1.49l-3.68 8.17h1.55l.81-1.89h4.09Zm-2.04-4.77 1.53 3.57h-3.06l1.53-3.57Zm8.49 6.66v-6.89h2.72v-1.28h-6.91v1.28h2.7v6.89h1.49Zm7.75-8.17h-1.49l-3.68 8.17h1.55l.81-1.89h4.09l.81 1.89h1.6l-3.69-8.17Zm-2.29 5.09 1.54-3.57 1.53 3.57h-3.07Zm12.71 3.08h1.51v-8.17h-6.01l-.12 3.37c-.03.77-.09 1.42-.17 1.94-.09.52-.22.91-.41 1.18-.19.26-.45.4-.79.4-.12 0-.24-.02-.35-.05l-.11 1.33c.16.04.3.07.44.08.14.02.27.02.4.02.44 0 .8-.11 1.09-.32.29-.21.52-.53.69-.95.17-.42.3-.94.39-1.56.09-.61.14-1.32.17-2.12l.07-2.04h3.21v6.89h-.01Zm9.84-4.75c-.53-.44-1.28-.65-2.26-.65h-2.26v-2.77h-1.51v8.17h3.52c1.03 0 1.84-.24 2.43-.71.58-.47.88-1.16.88-2.08-.01-.87-.27-1.53-.8-1.96Zm-1.22 3.17c-.32.27-.78.41-1.36.41h-1.95v-3.07H104c.59 0 1.05.12 1.37.35.32.23.48.61.48 1.12-.01.52-.17.92-.49 1.19Zm7.19-7.93c-.33 0-.6-.08-.78-.23-.19-.16-.28-.38-.29-.67h-1.05c.01.54.19.95.54 1.25.35.3.88.44 1.58.44.7 0 1.23-.15 1.59-.44.36-.3.54-.71.55-1.25h-1.05c-.01.29-.11.51-.3.67-.19.15-.45.23-.79.23Zm2.16 3.72v5.79h1.51v-8.17h-1.41l-4.39 5.8v-5.8h-1.51v8.17h1.43l4.37-5.79Zm10.73-1.31c-.39-.38-.86-.67-1.39-.88-.54-.21-1.12-.31-1.75-.31-.64 0-1.23.11-1.76.32-.54.21-1 .5-1.4.88-.4.38-.7.82-.92 1.33-.22.51-.33 1.07-.33 1.67a4.134 4.134 0 0 0 1.25 3c.4.38.87.68 1.41.89.54.21 1.13.31 1.76.31.63 0 1.21-.1 1.75-.31a4.07 4.07 0 0 0 2.31-2.22c.22-.51.33-1.07.33-1.67 0-.61-.11-1.17-.33-1.68-.23-.51-.53-.95-.93-1.33Zm-.5 4.17a2.731 2.731 0 0 1-1.5 1.51c-.35.14-.73.21-1.14.21-.41 0-.8-.07-1.15-.21-.35-.14-.66-.34-.92-.6a2.898 2.898 0 0 1-.83-2.06c0-.42.07-.8.22-1.15.15-.35.35-.65.61-.91s.56-.46.92-.6c.35-.14.74-.21 1.15-.21.41 0 .79.07 1.14.21.35.14.65.34.91.6.26.26.46.56.6.91.14.35.21.73.21 1.16 0 .4-.07.79-.22 1.14Zm4.94-.57h4.23v3.5h1.5v-8.17h-1.5v3.37h-4.23v-3.37h-1.51v8.17h1.51v-3.5Zm8.32-5.24c-.26 0-.49.09-.67.26-.18.18-.27.41-.27.69 0 .28.09.52.27.69.08.07.17.13.27.17l-.46 1.8h.93l.62-1.66c.07-.18.12-.32.16-.44.04-.11.06-.21.08-.3.01-.09.02-.18.02-.26 0-.28-.09-.51-.26-.69a.968.968 0 0 0-.69-.26Zm2.55 3.62.62-1.66c.07-.18.12-.32.16-.44.04-.11.06-.21.08-.3.01-.09.02-.18.02-.26 0-.28-.09-.51-.26-.69a.912.912 0 0 0-.68-.27c-.26 0-.49.09-.67.26-.18.18-.27.41-.27.69 0 .28.09.52.27.69.08.07.17.13.27.17l-.46 1.8h.92v.01ZM62.94 44.34l-2.15 3.64-2.18-3.64h-.84v5.49h.98v-3.57l1.79 2.96h.47l1.79-3.02v3.63h.98l-.01-5.49h-.83Zm3.39 0h-1.01v5.49h1.01v-5.49Zm8.79 0h-1.07l-1.37 2.31h-.94v-2.31h-1v2.31h-.95l-1.35-2.31h-1.09l1.62 2.63-1.73 2.86h1.17l1.39-2.31h.94v2.31h1v-2.31h.93l1.39 2.31h1.19l-1.74-2.86 1.61-2.63Zm4.69 2.27h-2.84v-2.27h-1.02v5.49h1.02v-2.35h2.84v2.35h1.01v-5.49h-1.01v2.27Zm4.33-2.27-2.47 5.49h1.04l.55-1.27h2.75l.54 1.27h1.07l-2.48-5.49h-1Zm-.54 3.42 1.03-2.4 1.03 2.4H83.6Zm8.38-3.19c-.35-.15-.76-.23-1.25-.23h-2.26v5.49h1.02v-1.58h1.24c.49 0 .9-.08 1.25-.24.35-.16.62-.38.8-.67.19-.29.28-.64.28-1.04 0-.41-.09-.76-.28-1.05-.19-.3-.46-.52-.8-.68Zm-.29 2.53c-.23.19-.57.29-1.02.29h-1.19v-2.18h1.19c.45 0 .79.1 1.02.29.23.19.34.46.34.8s-.11.61-.34.8Zm7.08-2.04c-.26-.25-.58-.45-.94-.59-.36-.14-.75-.21-1.18-.21-.43 0-.82.07-1.18.21-.36.14-.67.34-.94.59-.27.25-.47.55-.62.89-.15.34-.22.72-.22 1.13a2.764 2.764 0 0 0 .84 2.02c.27.26.58.46.95.6.36.14.76.21 1.18.21.42 0 .82-.07 1.18-.21.36-.14.67-.34.94-.59.26-.26.47-.56.62-.9.15-.34.22-.72.22-1.13 0-.41-.07-.78-.22-1.13-.16-.34-.36-.64-.63-.89Zm-.34 2.81a1.796 1.796 0 0 1-1.01 1.01 2.15 2.15 0 0 1-1.53 0c-.24-.09-.44-.23-.62-.4a1.958 1.958 0 0 1-.56-1.39 1.923 1.923 0 0 1 .56-1.38c.17-.18.38-.31.62-.4.24-.09.5-.14.77-.14.28 0 .53.05.76.14.23.09.44.23.61.4.18.17.31.38.4.61.09.24.14.49.14.78 0 .29-.04.53-.14.77Zm6.8-3.53h-4.02l-.06 1.73c-.02.42-.04.8-.08 1.16-.04.35-.09.66-.16.92s-.17.46-.3.61c-.13.14-.29.21-.49.21h-.18L99.92 51h.95v-1.17h4.21V51h.94v-2.03h-.79v-4.63Zm-1 4.63h-2.79c.05-.05.11-.12.15-.2.1-.18.19-.4.24-.67.06-.27.1-.56.14-.89.03-.33.06-.67.07-1.04l.04-.97h2.15v3.77Zm6.61-2.36H108v-2.27h-1.02v5.49H108v-2.35h2.84v2.35h1.01v-5.49h-1.01v2.27Zm3.57 1.63v-3.9h-1.01v5.49h.96l2.94-3.89v3.89h1.01v-5.49h-.95l-2.95 3.9Zm8.95-4.56c.24-.2.36-.48.37-.84h-.71c-.01.19-.07.34-.2.45-.13.1-.3.16-.53.16-.22 0-.4-.05-.53-.16-.13-.1-.19-.25-.2-.45h-.71c.01.36.13.64.36.84.24.2.59.3 1.06.3.5-.01.85-.11 1.09-.3Zm-2.5 4.56v-3.9h-1.01v5.49h.96l2.94-3.89v3.89h1.01v-5.49h-.95l-2.95 3.9Zm11.74-1.3c-.34-.27-.84-.41-1.5-.41h-1.62v-1.34h3.27v-.85h-4.28v5.49h2.48c.69 0 1.23-.15 1.6-.45.37-.3.57-.72.57-1.26 0-.51-.18-.91-.52-1.18Zm-.82 1.88c-.2.15-.5.23-.89.23h-1.41v-1.73h1.41c.8 0 1.2.28 1.2.85 0 .28-.1.5-.31.65Zm2.88-2.21c-.02.52-.06.95-.12 1.3-.06.35-.15.61-.28.79-.13.18-.3.27-.53.27-.08 0-.16-.01-.24-.03l-.07.89c.1.03.2.04.29.05.09.01.18.02.27.02.29 0 .54-.07.73-.21.19-.14.35-.35.46-.64.11-.28.2-.63.26-1.05.06-.41.1-.89.12-1.43l.05-1.37h2.16v4.63h1.01v-5.49h-4.04l-.07 2.27Zm7.44-2.27-2.47 5.49h1.04l.55-1.27h2.75l.54 1.27h1.07l-2.48-5.49h-1Zm-.54 3.42 1.03-2.4 1.03 2.4h-2.06Zm8.59-2.55.01-.87h-3.74v5.49h1.01v-4.62h2.72Zm4.9-.15c-.26-.25-.58-.45-.94-.59-.36-.14-.75-.21-1.18-.21-.43 0-.82.07-1.18.21-.36.14-.67.34-.94.59-.27.25-.47.55-.62.89-.15.34-.22.72-.22 1.13a2.764 2.764 0 0 0 .84 2.02c.27.26.58.46.95.6.36.14.76.21 1.18.21.42 0 .82-.07 1.18-.21.36-.14.67-.34.94-.59.26-.26.47-.56.62-.9.15-.34.22-.72.22-1.13 0-.41-.07-.78-.22-1.13a2.99 2.99 0 0 0-.63-.89Zm-.34 2.81a1.796 1.796 0 0 1-1.01 1.01c-.23.09-.49.14-.76.14s-.53-.05-.77-.14c-.24-.09-.44-.23-.62-.4a1.958 1.958 0 0 1-.56-1.39 1.923 1.923 0 0 1 .56-1.38c.17-.18.38-.31.62-.4.24-.09.5-.14.77-.14s.53.05.76.14c.23.09.44.23.61.4.18.17.31.38.4.61.09.24.14.49.14.78 0 .29-.04.53-.14.77Zm6.8-3.53h-4.02l-.06 1.73c-.02.42-.04.8-.08 1.16a6.2 6.2 0 0 1-.16.92c-.07.26-.17.46-.3.61-.13.14-.29.21-.49.21h-.18L156.2 51h.95v-1.17h4.21V51h.94v-2.03h-.79v-4.63Zm-1.01 4.63h-2.79c.05-.05.11-.12.15-.2.1-.18.19-.4.24-.67.06-.27.1-.56.14-.89.03-.33.06-.67.07-1.04l.04-.97h2.15v3.77Zm3.77-4.63h-1.01v5.49h1.01v-5.49Zm5.06-.66c.24-.2.36-.48.37-.84h-.71c-.01.19-.07.34-.2.45-.13.1-.3.16-.53.16-.22 0-.4-.05-.53-.16-.13-.1-.19-.25-.2-.45h-.71c.01.36.13.64.36.84.24.2.59.3 1.06.3.49-.01.85-.11 1.09-.3Zm-2.5 4.56v-3.9h-1.02v5.49h.96l2.94-3.89v3.89h1.02v-5.49h-.95l-2.95 3.9Zm9.29-1.63h-2.84v-2.27h-1.02v5.49h1.02v-2.35h2.84v2.35h1.02v-5.49h-1.02v2.27Zm3.57 1.63v-3.9h-1.01v5.49h.96l2.94-3.89v3.89h1.01v-5.49h-.95l-2.95 3.9Zm8.96-4.56c.24-.2.36-.48.37-.84h-.71c-.01.19-.07.34-.2.45-.13.1-.3.16-.53.16-.22 0-.4-.05-.53-.16-.13-.1-.19-.25-.2-.45h-.71c.01.36.13.64.36.84.24.2.59.3 1.06.3.49-.01.85-.11 1.09-.3Zm-2.51 4.56v-3.9h-1.01v5.49h.96l2.94-3.89v3.89h1.01v-5.49h-.95l-2.95 3.9Zm12.41-3.28c-.4-.16-.88-.24-1.42-.27v-.56h-.94v.56c-.54.03-1.01.11-1.41.27-.48.19-.85.46-1.11.82-.26.36-.38.79-.38 1.31s.13.95.38 1.3c.26.36.63.63 1.11.81.4.15.87.24 1.41.27v.59h.94v-.59c.55-.02 1.04-.11 1.44-.27.47-.19.83-.46 1.08-.82.25-.36.37-.79.37-1.29 0-.51-.13-.95-.38-1.31-.25-.36-.61-.64-1.09-.82Zm-2.36 3.71c-.31-.03-.59-.08-.82-.16-.35-.12-.62-.3-.8-.54-.19-.24-.28-.54-.28-.89 0-.36.09-.66.26-.9.18-.24.44-.42.79-.53.24-.08.53-.13.85-.16v3.18Zm2.59-.71c-.18.24-.43.42-.78.55-.25.09-.54.14-.87.17v-3.19c.33.02.62.08.87.17.34.12.6.3.78.53.18.24.27.53.27.88-.01.35-.1.65-.27.89Zm6.98-2.9c-.26-.25-.58-.45-.94-.59-.36-.14-.75-.21-1.18-.21-.43 0-.82.07-1.18.21-.36.14-.67.34-.94.59-.27.25-.47.55-.62.89-.15.34-.22.72-.22 1.13a2.764 2.764 0 0 0 .84 2.02c.27.26.58.46.95.6.36.14.76.21 1.18.21.42 0 .82-.07 1.18-.21.36-.14.67-.34.94-.59.26-.26.47-.56.62-.9.15-.34.22-.72.22-1.13 0-.41-.07-.78-.22-1.13a2.99 2.99 0 0 0-.63-.89Zm-.34 2.81a1.796 1.796 0 0 1-1.01 1.01c-.23.09-.49.14-.76.14s-.53-.05-.77-.14c-.24-.09-.44-.23-.62-.4a1.958 1.958 0 0 1-.56-1.39 1.923 1.923 0 0 1 .56-1.38c.17-.18.38-.31.62-.4.24-.09.5-.14.77-.14s.53.05.76.14c.23.09.44.23.61.4.18.17.31.38.4.61.09.24.14.49.14.78 0 .29-.04.53-.14.77Zm6.17-1.26h-2.84v-2.27h-1.02v5.49h1.02v-2.35h2.84v2.35h1.01v-5.49h-1.01v2.27Zm7.15-2.27h-4.02l-.06 1.73c-.02.42-.04.8-.08 1.16-.04.35-.09.66-.16.92s-.17.46-.3.61c-.13.14-.29.21-.49.21h-.18l-.02 2.03h.95v-1.17h4.21V51h.94v-2.03h-.79v-4.63Zm-1 4.63h-2.79c.05-.05.11-.12.15-.2.1-.18.19-.4.24-.67.06-.27.1-.56.14-.89.03-.33.06-.67.07-1.04l.04-.97h2.15v3.77Z" fill="#010101"/><path d="m47.09 38.56-.64-3.96s-2.21 1.2-1.41 7.62l-1.34-4.49c-1.42 1.53-.99 4.9-.5 7.08-.42.15-1 .47-1.79 1.02l-4.05 2.08c5.41-5.7 3.84-7.69 3.84-7.69l-7.11 7.06c-2.55 2.54-4.11 5.92-4.31 9.51-.01.09-.01.19-.01.29-.56 1.87-.38 3.91.49 5.69l.31.63 16.05-15.93 1.66-1.65 1.38-11.74c-.01.01-2.3 1.64-2.57 4.48ZM21.63 57.08c0-.1-.01-.19-.01-.29-.2-3.59-1.76-6.98-4.31-9.51l-7.11-7.06s-1.57 1.99 3.84 7.69l-5.85-3.06c.48-2.17.94-5.59-.5-7.12l-1.34 4.49c.8-6.42-1.41-7.62-1.41-7.62l-.64 3.96c-.26-2.84-2.56-4.47-2.56-4.47l1.38 11.74 1.66 1.65 16.05 15.93.31-.63c.87-1.79 1.06-3.83.49-5.7Z" fill="#FED500"/><path d="M30.56 63.62h-.04a.199.199 0 0 1-.16-.12l-.31-.63c-1.11-2.27-1.11-4.93 0-7.11.55-1.08 1.35-2.04 2.38-2.86 3.97-3.16 9.92-5.75 11.03-6.22-.35-1.14-1.98-6.88.08-9.09.05-.06.13-.08.2-.06.07.02.13.07.16.15l2.9 9.75c.02.08 0 .16-.05.21L30.71 63.56c-.04.04-.09.06-.15.06Zm-.12-.94.18.36 15.75-15.63-2.75-9.23c-1.66 2.47.29 8.49.31 8.55.03.11-.02.22-.12.26-.07.03-6.78 2.79-11.11 6.24-.98.78-1.74 1.69-2.26 2.72-1.05 2.06-1.05 4.58 0 6.73Z" fill="#010101"/><path d="M46.61 47.69c-.02 0-.04 0-.05-.01a.207.207 0 0 1-.15-.15l-1.56-5.26c0-.01-.01-.02-.01-.03-.81-6.49 1.42-7.78 1.52-7.83.06-.03.13-.03.2 0 .06.03.11.09.12.16L48.5 45.8c.01.07-.01.14-.06.19l-1.66 1.65c-.06.03-.12.05-.17.05Zm-1.36-5.51 1.46 4.9 1.33-1.32-1.74-10.75c-.52.56-1.64 2.37-1.05 7.17Z" fill="#010101"/><path d="M48.27 46.04c-.1 0-.19-.08-.21-.18l-1.18-7.26v-.05c.27-2.91 2.55-4.56 2.65-4.63a.21.21 0 0 1 .33.2l-1.38 11.74c-.01.1-.1.18-.21.18Zm-.96-7.48.93 5.73 1.14-9.69c-.65.6-1.88 1.98-2.07 3.96ZM29.76 57.3c-.13 0-.22-.1-.21-.22 0-.1.01-.19.01-.29.2-3.62 1.75-7.05 4.37-9.65l7.11-7.06c.04-.04.1-.07.16-.06.06 0 .12.03.15.08.07.09 1.62 2.2-3.85 7.97-.08.09-.22.09-.3.01a.209.209 0 0 1-.01-.3c4.16-4.38 4.11-6.5 3.92-7.17l-6.89 6.84c-2.55 2.53-4.06 5.86-4.25 9.37-.01.09-.01.19-.01.28.01.11-.08.2-.2.2Z" fill="#010101"/><path d="M40.08 48.69h-.03l-3.76-.54c-.12-.02-.2-.12-.18-.24.02-.12.12-.2.24-.18l3.76.54c.12.02.2.12.18.24-.01.11-.1.18-.21.18Z" fill="#010101"/><path d="M37.36 48.12c-.08 0-.15-.04-.19-.11-.05-.1-.01-.23.09-.29l5.85-3.06c.1-.05.23-.01.29.09.05.1.01.23-.09.29l-5.85 3.06c-.03.02-.06.02-.1.02Zm-16.52 15.5c-.06 0-.11-.02-.15-.06L4.64 47.63c-.06-.06-.08-.14-.05-.21l2.9-9.75c.02-.07.08-.13.16-.15.07-.02.15.01.2.06 2.07 2.21.43 7.96.08 9.09 1.11.47 7.05 3.06 11.03 6.22 1.03.82 1.83 1.78 2.38 2.86 1.11 2.18 1.11 4.84 0 7.11l-.31.63a.22.22 0 0 1-.16.12c-.01.01-.02.01-.03.01ZM5.03 47.42l15.75 15.63.18-.36c1.05-2.15 1.05-4.67 0-6.73-.52-1.02-1.28-1.94-2.26-2.72C14.36 49.79 7.65 47.03 7.58 47c-.1-.04-.16-.16-.12-.26.02-.06 1.97-6.08.31-8.55l-2.74 9.23Z" fill="#010101"/><path d="M4.79 47.69c-.06 0-.11-.02-.15-.06l-1.66-1.65a.221.221 0 0 1-.06-.19l1.82-11.23c.01-.07.05-.13.12-.16.06-.03.13-.03.2 0 .1.05 2.33 1.34 1.52 7.83 0 .01 0 .02-.01.03l-1.56 5.26c-.02.07-.08.13-.15.15-.04.02-.05.02-.07.02Zm-1.44-1.93 1.33 1.32 1.46-4.9c.6-4.8-.52-6.6-1.05-7.17L3.35 45.76Z" fill="#010101"/><path d="M3.13 46.04c-.01 0-.01 0 0 0-.11 0-.2-.08-.21-.19L1.53 34.12c-.01-.08.03-.17.1-.21.07-.04.16-.04.23.01.1.07 2.38 1.72 2.65 4.63v.05l-1.18 7.26c-.01.11-.1.18-.2.18ZM2.02 34.6l1.14 9.69.93-5.73c-.19-1.98-1.42-3.36-2.07-3.96Zm19.61 22.7c-.11 0-.21-.09-.21-.2 0-.1-.01-.19-.01-.28-.19-3.52-1.7-6.84-4.25-9.37l-6.89-6.84c-.18.66-.25 2.78 3.92 7.17.08.09.08.22-.01.3-.09.08-.22.08-.3-.01-5.47-5.76-3.92-7.88-3.85-7.97a.19.19 0 0 1 .15-.08c.06 0 .12.02.16.06l7.11 7.06c2.62 2.6 4.18 6.03 4.37 9.65.01.1.01.19.01.29.02.11-.07.21-.2.22.01 0 .01 0 0 0Z" fill="#010101"/><path d="M11.31 48.69c-.1 0-.2-.08-.21-.18-.02-.12.06-.22.18-.24l3.76-.54c.12-.02.22.06.24.18.02.12-.06.22-.18.24l-3.76.54h-.03Z" fill="#010101"/><path d="M14.03 48.12c-.03 0-.07-.01-.1-.02l-5.85-3.06c-.1-.05-.14-.18-.09-.29.05-.1.18-.14.29-.09l5.85 3.06c.1.05.14.18.09.29-.04.07-.11.11-.19.11Z" fill="#010101"/><path d="M25.98 43.42c11.869 0 21.49-9.622 21.49-21.49C47.47 10.06 37.849.44 25.98.44 14.111.44 4.49 10.06 4.49 21.93c0 11.868 9.621 21.49 21.49 21.49Z" fill="#255EAC"/><path d="M25.98 43.67C14 43.67 4.25 33.92 4.25 21.93 4.25 9.94 14 .19 25.98.19s21.74 9.75 21.74 21.74c0 11.99-9.75 21.74-21.74 21.74Zm0-42.97C14.27.7 4.75 10.23 4.75 21.93c0 11.7 9.53 21.23 21.23 21.23 11.7 0 21.23-9.53 21.23-21.23C47.21 10.23 37.69.7 25.98.7Z" fill="#231F20"/><path d="M50.32 18.84c-.31-.75-.96-1.13-1.67-1.42-.79-.33-1.59-.63-2.38-.95-.48-.19-.95-.25-1.46-.03-.46.2-.84.05-1.07-.41-.13-.26-.2-.55-.29-.83-.23-.65-.61-.84-1.19-.49-.82.51-1.64.48-2.49.15-.47-.18-.95-.27-1.47-.14-.57.14-.94-.14-1.04-.73-.05-.27-.07-.56-.03-.83.2-1.25-.16-2.2-1.85-2.06-1.14.1-2-1.35-1.35-2.31.38-.56.23-.88-.08-1.3-.18-.25-.3-.54-.48-.79-.44-.67-1.07-.96-1.86-.81-.53.1-1.06.24-1.57.42-.94.33-1.87.59-2.88.61-.59.01-1.22.13-1.75.37-1.02.46-1.42 1.34-1.34 2.46.02.23-.13.58-.32.69-.14.09-.49-.07-.68-.21-.37-.27-.73-.42-1.19-.28-.7.22-1.32.14-1.88-.4-.14-.15-.62-.25-.72-.15-.49.5-.95.28-1.46.09-.2-.08-.45-.12-.66-.08-.64.13-1.23.1-1.86-.13-1.3-.47-2.61-.92-3.94-1.28s-2.69-.36-4.01.08c-.35.11-.71.39-.91.69-.43.64-.52.73-1.29.58-.1-.02-.2-.03-.33-.05-.13.64.11 1.16.38 1.7.26.51.53 1.03.66 1.58.32 1.36.27 1.74-.98 2.37-.01.01-.03.02-.04.02-1.37.97-2.59 2.09-2.52 3.91.04 1.01-.21 1.71-.9 2.45-.49.52-.75 1.35-.34 2.1.37.68.95 1.12 1.82.98.66-.1 1.29-.01 1.84.42.36.28.77.3 1.17.15.78-.3 1.45-.18 2.06.42.41.4.58.38.95-.05.33-.39.71-.53 1.21-.43.58.11 1.08-.08 1.49-.5.19-.19.37-.38.56-.56 1.23-1.17 3.19-1.4 4.59-.62.74.42 1.52.78 2.32 1.06.83.3 1.25.79 1.31 1.68.03.47.18.96.4 1.38.46.89.99 1.74 1.49 2.61.22.38.53.8.23 1.23-.33.47-.87.37-1.34.26-.38-.1-.74-.29-1.11-.42-.11-.04-.31-.07-.36-.02-.08.09-.09.26-.09.4 0 .1.07.19.11.29.2.43.17.78-.17 1.17-.66.74-1.25 1.54-1.89 2.34.63.44 1.23.67 1.93.29.2-.11.43-.19.66-.26.42-.13.81-.12 1.15.21.07.06.16.1.3.19-.04-.15-.06-.23-.09-.32-.29-.98-.08-1.49.91-1.74.95-.24 1.42-.82 1.55-1.74.01-.1.06-.2.08-.3.15-.72.61-1.15 1.29-1.38.8-.27 1.62-.34 2.44-.13.34.09.69.27.96.49.12.1.15.45.08.62-.05.11-.37.15-.56.13-.26-.03-.51-.15-.77-.23.17.24.41.37.55.57.53.75 1.21 1.06 2.13.96.64-.07 1.3-.06 1.94 0 .23.02.59.25.62.43.05.25-.14.56-.27.81-.06.11-.22.19-.36.25-.57.25-1.14.48-1.71.72-.22.09-.44.19-.66.28 0 .05 0 .09.01.14.41.14.83.25 1.23.42 1.26.52 1.65 1.3 1.3 2.59-.01.04-.03.08-.03.13-.11.6.2.98.8.88.36-.06.74-.22 1.02-.46.58-.48 1.15-.9 1.91-1.05.48-.1.84-.38 1.07-.85.22-.46.48-.56.98-.42.28.08.55.21.83.3.43.14.85.11 1.2-.21.3-.27.38-.89.14-1.18-.33-.41-.63-.1-.93.07-.41.23-.8.51-1.24.67-.95.36-1.51.01-1.65-.98-.05-.37-.21-.63-.53-.82-.15-.09-.35-.17-.43-.3-.14-.24-.31-.55-.26-.78.05-.2.36-.42.6-.48.42-.1.69-.31.83-.7.17-.48.51-.77.95-.99.24-.12.5-.29.65-.5.49-.7 1.14-.9 1.96-.8.39.05.86 0 1.19-.19 1.05-.59 2.13-1.07 3.33-1.24.31-.04.45-.26.44-.57-.01-.18-.02-.35-.02-.53.01-.57.27-.92.83-1.03.32-.07.53-.22.66-.52.17-.4.5-.57.92-.57.34 0 .68.02 1.02.01.92-.03 1.43-.8 1.12-1.66-.09-.23-.19-.46-.27-.7-.16-.5-.1-.96.32-1.33.06-.05.09-.14.14-.21-.61-.55-.64-.87-.05-1.07.62-.24.73-.59.44-1.3Z" fill="#FED500"/><path d="M50.65 18.91c-.29-.87-.95-1.36-1.76-1.69-.86-.36-1.72-.7-2.58-1.03-.49-.19-.99-.25-1.51-.04-.44.18-.69.07-.87-.37-.12-.28-.18-.59-.3-.88-.24-.56-.69-.75-1.26-.55-.18.06-.36.15-.52.25-.46.29-.94.31-1.45.17-.37-.1-.73-.24-1.1-.32-.27-.05-.56-.07-.83-.03-.68.11-.91-.03-.95-.71-.03-.44.03-.88.03-1.32-.01-.92-.65-1.55-1.57-1.55-.15 0-.3 0-.44.01-.48.03-.93-.03-1.16-.53-.24-.55-.37-1.1.07-1.62.22-.26.26-.53.09-.81-.3-.49-.59-.99-.91-1.46-.44-.65-1.08-.91-1.84-.83-.46.05-.94.12-1.38.29-1.28.5-2.59.74-3.96.81-1.3.07-2.29.86-2.58 2-.09.35-.04.73-.08 1.09-.02.15-.11.28-.16.42-.13-.06-.28-.09-.38-.18-.42-.38-.89-.51-1.43-.35-.63.19-1.17.13-1.65-.38-.3-.32-.89-.38-1.09-.14-.37.42-.71.23-1.11.09-.29-.1-.62-.15-.92-.1-.57.09-1.08.07-1.64-.13-1.34-.48-2.69-.95-4.07-1.31-1.38-.36-2.8-.35-4.17.13-.34.12-.75.35-.9.65-.29.56-.61.76-1.22.55-.34-.11-.59.08-.54.42.09.54.17 1.12.42 1.59.37.7.64 1.42.75 2.2.09.64-.01.86-.56 1.2-.35.22-.7.44-1.03.69-1.3 1.01-2.2 2.26-2.09 3.97.05.76-.15 1.27-.69 1.81-.98.98-.9 2.41.07 3.33.41.39.89.51 1.43.43.65-.09 1.25-.01 1.8.4.44.33.94.31 1.44.13.61-.22 1.12-.16 1.62.31.65.61.92.55 1.56-.07.16-.15.45-.3.64-.27.91.15 1.62-.15 2.21-.82.19-.22.41-.43.65-.6 1.17-.77 2.4-1 3.72-.37.86.41 1.71.85 2.6 1.2.67.26.96.67 1.03 1.37.05.51.2 1.05.43 1.51.5.98 1.1 1.91 1.63 2.88.33.6.13.94-.55.85-.47-.06-.91-.31-1.38-.43-.25-.06-.65-.11-.75.02-.15.18-.11.53-.1.81 0 .14.15.27.15.41 0 .17-.02.39-.12.52-.62.79-1.25 1.57-1.89 2.33-.22.26-.19.46.07.62.63.4 1.27.7 2.02.3.16-.08.32-.14.49-.21.44-.19.84-.21 1.22.16.12.12.35.13.53.19.03-.21.13-.43.09-.61-.24-1.06-.16-1.22.89-1.56.07-.02.14-.04.21-.07.62-.18 1.01-.59 1.17-1.21.09-.33.15-.66.27-.98.09-.24.21-.5.39-.68.73-.72 2.76-.86 3.6-.28.12.09.19.25.28.38-.03.03-.07.06-.1.09-.32-.09-.64-.21-.97-.24-.14-.01-.29.18-.44.27.09.13.16.28.27.39.16.16.37.28.51.46.57.7 1.27 1.06 2.2.97.6-.06 1.21-.07 1.81-.04.2.01.39.19.59.29-.13.2-.22.47-.41.57-.55.3-1.14.53-1.72.79-.23.1-.48.17-.69.3-.3.19-.3.48 0 .67.17.11.38.14.57.22.35.15.73.26 1.04.46.86.56 1 .98.73 1.95-.03.11-.06.23-.07.34-.06.67.29 1.07.97 1.09.51.02.96-.15 1.33-.5.55-.51 1.15-.9 1.9-1.06.54-.12.95-.44 1.16-.99.1-.28.33-.38.61-.28.29.1.57.24.87.33.52.17 1.04.13 1.45-.25.38-.35.44-.82.32-1.31-.12-.5-.54-.72-1.01-.53-.2.08-.38.23-.57.33-.36.2-.71.43-1.09.57-.73.27-1.13.01-1.22-.76-.06-.48-.27-.83-.69-1.07-.12-.06-.25-.13-.32-.23-.1-.13-.25-.33-.21-.44.05-.14.25-.29.41-.32.53-.09.85-.38 1.02-.87.14-.4.43-.64.8-.84.29-.15.59-.36.78-.62.43-.59.96-.78 1.66-.64.54.11 1.07 0 1.53-.29.94-.58 1.94-.97 3.04-1.15.59-.1.75-.35.74-.96 0-.12-.02-.24-.02-.35 0-.51.16-.73.66-.84.38-.08.64-.27.79-.63.13-.31.37-.44.7-.44.35 0 .71.03 1.06.01 1.06-.06 1.69-1 1.34-2-.1-.29-.26-.57-.3-.87-.03-.24.01-.55.14-.74.47-.65.49-.64-.16-1.2.13-.09.21-.16.31-.21.7-.34.85-.68.6-1.43Zm-.72 2.27c-.04.07-.08.15-.14.21-.42.37-.48.83-.32 1.33.08.24.18.47.27.7.32.86-.19 1.63-1.12 1.66-.34.01-.68-.01-1.02-.01-.42 0-.74.17-.92.57-.13.3-.34.45-.66.52-.56.11-.82.46-.83 1.03 0 .18.01.35.02.53.01.31-.12.52-.44.57-1.2.17-2.28.66-3.33 1.24-.33.19-.8.24-1.19.19-.83-.1-1.47.09-1.96.8-.15.22-.41.38-.65.5-.44.22-.78.52-.95.99-.14.39-.41.6-.83.7-.23.06-.55.28-.6.48-.05.23.12.54.26.78.08.14.27.22.43.3.31.19.48.45.53.82.14 1 .7 1.34 1.65.98.43-.16.82-.45 1.24-.67.3-.16.59-.48.93-.07.24.29.16.9-.14 1.18-.35.32-.77.35-1.2.21-.28-.09-.55-.22-.83-.3-.5-.14-.76-.04-.98.42-.23.47-.59.75-1.07.85-.75.16-1.33.58-1.91 1.05-.28.23-.66.4-1.02.46-.6.1-.91-.29-.8-.88l.03-.13c.35-1.28-.03-2.06-1.3-2.59-.4-.16-.82-.28-1.23-.42 0-.05 0-.09-.01-.14.22-.09.44-.19.66-.28l1.71-.72c.13-.06.3-.13.36-.25.13-.26.32-.57.27-.81-.03-.18-.39-.41-.62-.43-.64-.05-1.3-.06-1.94 0-.92.1-1.6-.21-2.13-.96-.14-.2-.38-.34-.55-.57.25.08.5.2.77.23.19.02.51-.02.56-.13.07-.17.05-.52-.08-.62-.27-.23-.62-.41-.96-.49-.82-.21-1.64-.14-2.44.13-.68.23-1.14.66-1.29 1.38-.02.1-.06.2-.08.3-.13.93-.6 1.5-1.55 1.74-.98.25-1.2.76-.91 1.74.02.08.04.16.09.32-.14-.09-.24-.12-.3-.19-.34-.33-.74-.34-1.15-.21-.22.07-.45.15-.66.26-.7.39-1.3.15-1.93-.29.64-.79 1.23-1.59 1.89-2.34.34-.38.37-.74.17-1.17-.04-.09-.11-.19-.11-.29 0-.14.01-.31.09-.4.05-.06.25-.02.36.02.37.13.73.33 1.11.42.47.12 1.02.21 1.34-.26.3-.42-.01-.85-.23-1.23-.5-.87-1.03-1.72-1.49-2.61-.22-.42-.36-.91-.4-1.38-.06-.89-.48-1.38-1.31-1.68a16.2 16.2 0 0 1-2.32-1.06c-1.4-.79-3.36-.56-4.59.62-.19.18-.38.37-.56.56-.41.42-.91.61-1.49.5-.51-.1-.88.04-1.21.43-.37.43-.54.45-.95.05-.61-.6-1.28-.72-2.06-.42-.41.16-.82.13-1.17-.15-.55-.43-1.18-.52-1.84-.42-.86.14-1.44-.3-1.82-.98-.41-.75-.15-1.57.34-2.1.69-.73.94-1.44.9-2.45-.07-1.82 1.15-2.94 2.52-3.91.01-.01.02-.02.04-.02 1.25-.62 1.3-1.01.98-2.37-.13-.53-.4-1.05-.66-1.55-.27-.54-.51-1.06-.38-1.7.13.02.23.03.33.05.77.15.86.06 1.29-.58.2-.3.56-.58.91-.69 1.32-.44 2.68-.43 4.01-.08 1.33.36 2.64.81 3.94 1.28.63.23 1.22.26 1.86.13.21-.04.46 0 .66.08.51.2.97.42 1.46-.09.1-.1.58-.01.74.15.56.55 1.18.62 1.88.4.46-.14.82.01 1.19.28.19.14.55.29.68.21.18-.11.34-.46.32-.69-.09-1.13.31-2 1.34-2.46.53-.24 1.16-.36 1.75-.37 1.01-.02 1.94-.28 2.88-.61.51-.18 1.04-.32 1.57-.42.79-.15 1.42.15 1.86.81.17.26.3.55.48.79.31.42.46.74.08 1.3-.65.96.2 2.41 1.35 2.31 1.68-.14 2.05.81 1.85 2.06-.04.27-.02.56.03.83.1.58.46.86 1.04.73.52-.12 1-.04 1.47.14.86.33 1.67.35 2.49-.15.58-.36.96-.16 1.19.49.1.28.16.57.29.83.23.46.6.61 1.07.41.5-.22.98-.16 1.46.03.79.31 1.59.62 2.38.95.71.29 1.36.67 1.67 1.42.29.7.19 1.06-.44 1.26-.61.2-.58.53.03 1.08Z" fill="#010101"/><path d="M33.08 39.59h-.07c-.35-.01-.63-.12-.81-.33-.18-.2-.26-.5-.23-.85.01-.12.04-.24.08-.36.27-.95.13-1.34-.69-1.86-.22-.14-.48-.24-.73-.33l-.3-.12c-.07-.03-.14-.05-.21-.07a1.51 1.51 0 0 1-.37-.15c-.17-.11-.26-.25-.26-.41 0-.15.09-.3.26-.4.14-.09.3-.15.46-.21.08-.03.16-.06.24-.1.15-.07.3-.13.45-.2.42-.18.86-.37 1.26-.59.11-.06.18-.19.26-.34.02-.05.05-.09.07-.13-.04-.02-.08-.05-.11-.07-.13-.08-.25-.16-.36-.17-.65-.03-1.24-.01-1.8.04-.9.09-1.65-.24-2.27-1-.07-.09-.17-.17-.27-.25-.08-.06-.16-.13-.24-.21-.08-.08-.14-.18-.2-.28-.03-.04-.05-.08-.08-.12l-.05-.07.07-.05.13-.1c.11-.1.23-.2.36-.18.24.02.48.09.71.16.08.02.16.05.24.07l.01-.01c-.01-.02-.03-.05-.04-.07a.666.666 0 0 0-.18-.22c-.81-.57-2.8-.41-3.49.27-.17.17-.28.42-.37.65-.08.22-.14.45-.19.68-.02.1-.05.19-.07.29-.17.65-.58 1.07-1.23 1.27l-.21.06c-1 .33-1.07.44-.83 1.47.03.15-.01.3-.04.45-.02.06-.03.13-.04.19l-.02.1-.1-.04c-.05-.02-.11-.03-.17-.05-.14-.03-.29-.07-.39-.16-.32-.31-.66-.35-1.13-.14-.06.02-.11.05-.17.07-.1.04-.21.09-.31.14-.79.42-1.48.1-2.11-.3-.15-.1-.23-.2-.25-.33-.02-.13.03-.27.16-.42.66-.78 1.29-1.56 1.89-2.33.1-.12.11-.35.11-.47 0-.05-.03-.11-.06-.17-.04-.08-.08-.15-.08-.24v-.14c-.01-.26-.02-.55.13-.73.16-.19.68-.08.84-.04.2.05.4.12.6.2.26.1.51.19.77.23.29.04.49 0 .57-.12.08-.12.05-.34-.1-.61-.21-.38-.44-.77-.66-1.14-.33-.56-.67-1.15-.98-1.74-.23-.46-.39-1-.44-1.53-.07-.68-.35-1.06-.98-1.3-.7-.27-1.39-.61-2.06-.93-.18-.09-.37-.18-.55-.27-1.2-.58-2.39-.46-3.64.37-.25.17-.47.4-.64.58-.64.72-1.39 1-2.28.85-.17-.03-.43.11-.57.25-.66.63-.97.73-1.68.07-.45-.42-.93-.51-1.54-.29-.6.22-1.1.17-1.51-.14-.48-.36-1.04-.49-1.74-.39-.59.08-1.09-.07-1.49-.45-.5-.48-.78-1.09-.79-1.74-.01-.63.25-1.24.72-1.71.52-.53.71-1.02.66-1.74-.1-1.54.59-2.86 2.12-4.04.32-.25.66-.46 1.03-.69.52-.32.61-.51.52-1.12-.1-.71-.34-1.4-.74-2.17-.25-.47-.34-1.03-.42-1.57l-.03-.07c-.03-.19.02-.36.14-.46.13-.1.31-.12.51-.05.54.18.83.05 1.12-.52.16-.32.59-.57.94-.69 1.34-.47 2.77-.51 4.23-.13 1.42.37 2.79.85 4.07 1.31.5.18 1 .22 1.6.12.29-.05.63-.01.96.1.04.02.09.03.13.05.34.12.6.22.89-.12.09-.11.25-.17.44-.17.28-.01.59.12.78.31.43.45.91.56 1.57.36.55-.17 1.06-.04 1.51.36.06.05.14.08.23.11.02.01.04.01.05.02l.03-.06c.04-.09.09-.18.1-.27.02-.14.02-.29.02-.43 0-.23 0-.46.06-.68.31-1.18 1.35-1.99 2.66-2.06 1.46-.08 2.75-.34 3.93-.8.46-.18.96-.25 1.4-.3.81-.08 1.47.21 1.91.86.28.41.54.85.79 1.27l.12.2c.19.31.15.62-.09.91-.43.5-.28 1.03-.05 1.53.2.44.57.51 1.08.48.15-.01.3-.01.44-.01.98 0 1.64.66 1.65 1.63 0 .19-.01.39-.02.58-.01.24-.03.5-.01.74.02.31.08.49.19.58.12.09.32.11.66.05.26-.04.55-.03.86.03.24.05.48.12.71.2l.39.12c.53.15.98.09 1.38-.16.16-.1.34-.19.53-.25.62-.22 1.11 0 1.37.59.06.15.11.3.15.45.04.14.09.29.15.43.17.4.37.49.76.33.48-.19.99-.18 1.57.04.85.32 1.72.67 2.58 1.03.97.4 1.54.96 1.8 1.74.26.79.1 1.18-.65 1.55-.06.03-.12.07-.19.12-.01.01-.02.02-.03.02.58.51.57.58.13 1.18l-.04.06c-.12.17-.15.47-.13.68.02.19.1.37.18.56.04.1.08.2.12.29.17.5.12 1.02-.16 1.43-.27.4-.73.65-1.26.68-.24.01-.49.01-.73 0-.11 0-.22-.01-.33-.01-.31 0-.51.12-.62.39-.15.36-.42.59-.85.68-.45.1-.59.28-.59.76 0 .06.01.13.01.19 0 .05.01.11.01.16.02.67-.19.94-.81 1.04-1.07.18-2.06.55-3.01 1.14-.49.3-1.04.41-1.59.3-.68-.13-1.18.06-1.58.61-.17.23-.44.45-.81.64-.41.22-.64.46-.76.79-.19.53-.54.83-1.08.92-.13.02-.31.16-.35.26-.02.05.05.17.2.37.06.07.16.13.25.18l.04.02c.43.24.67.61.73 1.13.04.37.16.61.34.72.18.11.44.1.77-.02.27-.1.53-.25.79-.39.1-.06.2-.11.3-.17.07-.04.15-.09.22-.13.11-.07.23-.15.36-.2.25-.1.5-.1.7 0 .21.11.36.31.42.58.14.58.02 1.05-.35 1.39-.41.37-.92.46-1.53.27-.17-.05-.33-.12-.49-.18-.13-.05-.25-.1-.38-.15-.24-.08-.42 0-.51.23-.21.55-.63.91-1.22 1.04-.67.15-1.26.48-1.86 1.04-.35.39-.79.57-1.3.57Zm-1.7-6.87c.2 0 .42 0 .63.01.16.01.3.1.44.19.06.04.12.08.18.11l.08.04-.05.08c-.04.06-.08.13-.11.19-.09.16-.18.33-.32.41-.41.22-.85.41-1.28.59-.15.06-.3.13-.45.2-.08.04-.16.07-.25.1-.15.06-.3.11-.43.19-.12.07-.19.17-.19.27s.07.19.19.27c.1.06.21.1.33.14.08.02.15.05.22.08l.3.12c.26.1.52.2.76.35.88.57 1.05 1.03.76 2.05-.03.11-.06.22-.07.33-.03.31.04.56.19.73.15.17.39.26.7.27.49.02.92-.14 1.27-.48.63-.59 1.24-.93 1.94-1.09.53-.12.91-.44 1.1-.94.12-.32.39-.44.71-.33l.39.15c.16.06.32.13.48.18.55.17 1.01.1 1.37-.23.32-.29.42-.71.3-1.23-.05-.22-.17-.39-.34-.47a.682.682 0 0 0-.56 0c-.12.05-.22.12-.34.19-.08.05-.15.1-.23.14-.1.05-.2.11-.29.17-.26.15-.53.3-.81.41-.39.14-.69.15-.92.01-.23-.14-.36-.41-.41-.84-.06-.47-.26-.79-.65-1.01l-.04-.02c-.11-.06-.23-.12-.3-.22-.13-.17-.27-.37-.22-.52.06-.18.3-.34.47-.37.48-.08.79-.34.95-.81.13-.37.39-.65.84-.88.35-.18.6-.38.75-.59.44-.61.99-.82 1.74-.68.52.1 1.01 0 1.47-.28.97-.6 1.97-.98 3.07-1.16.53-.09.69-.29.67-.88 0-.05-.01-.1-.01-.15-.01-.07-.01-.13-.01-.2 0-.55.19-.8.72-.92.37-.08.6-.27.73-.58.13-.33.39-.5.77-.49.11 0 .22 0 .34.01.24.01.48.01.72 0 .48-.03.89-.25 1.13-.61.24-.36.29-.83.14-1.28-.03-.1-.07-.19-.11-.28-.08-.19-.17-.39-.19-.6-.03-.23-.01-.57.15-.8l.04-.06c.39-.54.39-.54-.18-1.03l-.08-.07.09-.06c.04-.03.08-.06.11-.08.07-.05.14-.1.21-.13.68-.33.81-.63.57-1.35-.25-.74-.79-1.26-1.71-1.64-.87-.36-1.74-.71-2.58-1.03-.55-.21-1.01-.22-1.45-.04-.47.19-.77.07-.98-.41-.06-.14-.11-.3-.15-.44-.04-.14-.09-.29-.15-.43-.22-.51-.63-.69-1.16-.5a2.1 2.1 0 0 0-.5.24c-.45.28-.94.33-1.51.18l-.4-.12c-.23-.07-.46-.15-.7-.19-.28-.06-.56-.07-.8-.03-.4.06-.63.04-.79-.09-.15-.12-.23-.33-.25-.7-.02-.25 0-.51.01-.76.01-.19.02-.38.02-.57-.01-.87-.61-1.46-1.49-1.47-.15 0-.29 0-.44.01-.47.03-.98-.02-1.24-.58-.23-.52-.41-1.13.08-1.7.2-.24.23-.47.08-.72l-.12-.2c-.25-.42-.51-.85-.79-1.26-.4-.6-1.01-.87-1.76-.79-.42.04-.91.11-1.35.29-1.2.47-2.5.74-3.98.82-1.23.06-2.22.82-2.51 1.94-.05.2-.05.41-.06.64 0 .15 0 .3-.02.44-.01.11-.06.22-.11.32-.02.04-.04.08-.06.13l-.03.08-.08-.04c-.04-.02-.08-.03-.12-.05-.1-.04-.2-.07-.28-.15-.41-.37-.85-.48-1.35-.33-.72.22-1.27.09-1.74-.41-.15-.16-.41-.26-.65-.26-.14 0-.26.05-.32.12-.36.42-.72.29-1.07.16-.04-.02-.09-.03-.13-.05-.3-.1-.62-.14-.88-.1-.63.1-1.15.06-1.68-.13-1.28-.46-2.65-.94-4.06-1.31-1.4-.43-2.8-.39-4.11.06-.3.11-.71.33-.85.61-.32.64-.71.81-1.32.6-.13-.05-.26-.04-.34.03-.07.06-.1.17-.08.3v.05c.08.53.17 1.07.41 1.52.42.79.66 1.49.76 2.23.1.67-.02.93-.6 1.28-.37.23-.71.44-1.02.68-1.48 1.15-2.16 2.43-2.06 3.9.05.77-.16 1.31-.71 1.87-.44.44-.68 1.01-.67 1.59.01.6.27 1.18.74 1.63.37.35.81.49 1.36.41.75-.1 1.34.03 1.86.42.37.28.81.32 1.36.12.68-.24 1.2-.14 1.7.32.6.56.81.54 1.45-.07.18-.17.48-.33.71-.29.85.14 1.53-.11 2.14-.79.17-.19.4-.43.67-.61 1.3-.86 2.54-.98 3.8-.38.18.09.37.18.55.27.66.32 1.35.66 2.05.93.69.27 1.01.7 1.08 1.44.05.51.2 1.04.43 1.48.3.59.64 1.17.97 1.73.22.37.45.76.66 1.14.23.42.18.65.09.78-.08.12-.28.25-.72.19-.28-.04-.55-.14-.81-.24-.19-.07-.38-.14-.58-.19-.32-.08-.61-.08-.67-.01-.1.12-.1.39-.09.62v.14c0 .05.03.11.06.17.04.08.08.15.08.24 0 .17-.02.42-.14.57-.6.77-1.24 1.56-1.89 2.34-.09.11-.14.21-.12.29.01.07.07.14.18.21.68.44 1.27.65 1.94.29.11-.06.22-.1.33-.15.05-.02.11-.05.16-.07.53-.23.95-.18 1.31.18.07.07.19.09.31.12.03.01.07.02.1.02 0-.02.01-.04.02-.07l-.14-.09c-.05-.03-.09-.05-.13-.07a.69.69 0 0 1-.19-.12c-.28-.27-.62-.33-1.07-.19-.2.06-.44.14-.64.26-.78.43-1.43.12-2.01-.29l-.07-.05.05-.07c.19-.23.37-.47.55-.7.43-.55.88-1.11 1.34-1.64.31-.35.35-.66.16-1.08a.488.488 0 0 1-.03-.07.75.75 0 0 1-.09-.25c0-.14.01-.34.11-.45.11-.13.44-.01.45-.01.15.05.29.12.43.18.22.09.44.19.67.25.45.11.96.2 1.26-.22.24-.34.03-.69-.16-1.02l-.07-.12c-.17-.29-.34-.59-.51-.88-.33-.56-.68-1.14-.98-1.73-.23-.45-.37-.95-.4-1.41-.06-.83-.43-1.31-1.25-1.6-.79-.28-1.57-.64-2.33-1.07-1.38-.78-3.31-.52-4.49.6-.17.16-.32.32-.48.48l-.08.08c-.45.46-.98.63-1.56.52-.47-.09-.82.03-1.14.4-.19.22-.34.36-.52.36-.18.01-.35-.12-.55-.31-.58-.57-1.21-.69-1.98-.4-.46.18-.89.12-1.25-.16-.49-.38-1.07-.51-1.78-.4-.82.12-1.48-.23-1.92-1.03-.46-.85-.1-1.71.36-2.19.67-.71.92-1.38.88-2.39-.07-1.86 1.19-3.01 2.55-3.98.02-.01.03-.02.05-.03 1.21-.6 1.25-.95.94-2.28-.12-.52-.38-1.03-.63-1.52l-.02-.04c-.29-.57-.52-1.09-.39-1.75l.02-.08.2.03c.07.03.14.04.21.05.73.14.79.09 1.2-.54.21-.32.58-.61.95-.73 1.28-.43 2.65-.46 4.06-.08 1.41.38 2.79.86 3.94 1.28.6.22 1.17.26 1.81.12.2-.04.47-.01.71.08l.09.03c.46.18.86.34 1.29-.1.09-.09.3-.07.42-.04.18.04.35.11.43.19.5.49 1.07.61 1.79.38.54-.17.94.05 1.26.29.2.15.51.25.59.2.15-.09.3-.41.28-.62-.09-1.23.37-2.08 1.38-2.54.51-.23 1.15-.37 1.78-.38 1.07-.02 2.05-.32 2.85-.6.5-.18 1.03-.32 1.59-.42.8-.15 1.48.14 1.95.85.08.12.15.25.22.37.08.14.16.29.26.42.3.42.5.78.08 1.4-.28.42-.28.98 0 1.47.28.48.77.76 1.27.72.75-.06 1.29.08 1.62.44.34.36.44.94.32 1.72-.04.22-.03.48.03.81.05.28.16.48.32.59.16.1.37.13.62.07.48-.12.95-.07 1.52.14.92.35 1.69.3 2.42-.15.29-.18.54-.23.76-.15.23.08.41.31.55.68.03.09.06.19.09.28.06.18.12.37.2.54.21.42.54.55.96.37.47-.2.95-.2 1.52.03l.61.24c.58.23 1.18.46 1.77.71.66.27 1.38.66 1.71 1.47.17.42.21.71.1.94-.09.2-.28.33-.59.44-.22.07-.35.16-.37.27-.03.15.12.37.44.66l.05.05-.02.05a.21.21 0 0 1-.04.06c-.03.05-.06.12-.12.16-.36.32-.46.73-.29 1.24.05.14.1.28.16.42.04.09.07.19.11.28.16.44.12.88-.1 1.22-.23.34-.62.54-1.09.55-.21.01-.42 0-.62 0-.13 0-.27 0-.4-.01-.42 0-.69.17-.84.52-.14.31-.36.49-.72.57-.51.11-.75.41-.77.96 0 .12 0 .24.01.35 0 .06.01.12.01.17.01.37-.17.6-.51.65-1.3.19-2.45.76-3.3 1.23-.38.21-.89.24-1.24.2-.86-.1-1.44.13-1.89.76-.14.2-.37.37-.68.53-.48.24-.76.53-.91.95-.14.41-.42.65-.89.76-.21.05-.5.25-.54.41-.05.2.13.5.25.72.05.09.17.15.29.22.04.02.07.04.11.06.33.19.51.47.57.88.07.47.23.79.48.94.26.15.61.14 1.06-.03.29-.11.57-.28.84-.44.13-.08.26-.16.39-.23.05-.03.1-.06.14-.09.25-.16.56-.36.88.04.26.32.19.99-.15 1.29-.35.31-.78.39-1.28.22-.12-.04-.24-.09-.35-.13-.15-.06-.31-.12-.47-.17-.48-.13-.68-.04-.89.38-.24.49-.61.79-1.12.89-.76.16-1.34.6-1.87 1.04-.28.23-.68.41-1.06.47-.3.05-.55-.01-.72-.18-.18-.18-.24-.46-.18-.8.01-.03.02-.07.02-.1l.01-.04c.34-1.24-.03-1.99-1.25-2.49-.27-.11-.56-.2-.83-.29a5.94 5.94 0 0 1-.39-.13l-.05-.02-.01-.25.27-.11c.15-.06.3-.13.45-.19l.52-.22c.4-.17.79-.33 1.19-.51.11-.05.27-.12.32-.21l.05-.09c.12-.22.25-.48.22-.67-.03-.14-.34-.35-.55-.36-.69-.06-1.34-.06-1.92 0-.94.1-1.66-.23-2.2-.99-.06-.09-.15-.17-.25-.25-.1-.09-.21-.19-.31-.32l-.08-.11c-.01.01-.03.02-.04.03-.03.02-.05.05-.08.07.01.02.03.04.04.06.06.09.11.18.18.25a2 2 0 0 0 .22.19c.1.08.21.17.29.27.59.73 1.27 1.03 2.13.94.36 0 .75-.02 1.17-.02Zm-1.45 2.4c.11.04.22.07.33.11.28.09.57.18.84.3 1.29.53 1.71 1.36 1.34 2.68l-.01.04c-.01.03-.02.05-.02.08-.05.28 0 .51.14.65.13.13.33.18.58.14.35-.06.72-.22.98-.44.55-.45 1.15-.91 1.94-1.07.46-.09.8-.37 1.01-.8.24-.49.53-.61 1.08-.46.17.05.33.11.49.17.11.05.23.09.35.13.45.15.81.09 1.12-.19.27-.24.34-.81.13-1.06-.22-.27-.39-.18-.67-.01l-.15.09c-.13.07-.26.15-.38.22-.28.17-.56.34-.86.45-.5.19-.9.19-1.2.01-.3-.18-.49-.54-.56-1.06-.05-.35-.2-.59-.49-.76-.03-.02-.07-.04-.1-.06-.14-.07-.28-.15-.35-.28-.15-.26-.33-.57-.27-.83.06-.25.42-.48.66-.54.41-.1.65-.3.77-.65.16-.45.47-.78.99-1.04.29-.14.5-.31.62-.48.47-.68 1.12-.94 2.04-.83.41.05.85-.02 1.14-.18.87-.48 2.03-1.06 3.36-1.25.25-.04.38-.2.37-.48 0-.06-.01-.11-.01-.17-.01-.12-.01-.24-.01-.36.01-.62.31-.99.9-1.11.3-.06.48-.2.6-.47.18-.41.51-.62.99-.62.14 0 .27 0 .4.01.2 0 .41.01.61 0 .42-.01.76-.19.96-.48.2-.3.23-.68.09-1.07-.03-.09-.07-.18-.11-.28-.06-.14-.11-.28-.16-.43-.19-.58-.07-1.05.34-1.42a.36.36 0 0 0 .08-.12s0-.01.01-.01c-.35-.33-.49-.57-.45-.77.04-.17.19-.29.48-.39.27-.09.42-.2.49-.35.08-.18.05-.43-.11-.81-.31-.75-1-1.12-1.63-1.38-.58-.24-1.18-.48-1.76-.7l-.61-.24c-.53-.21-.96-.22-1.39-.03-.49.22-.92.05-1.17-.45-.09-.18-.15-.38-.21-.57l-.09-.27c-.11-.32-.26-.52-.45-.58-.17-.06-.37-.01-.62.14-.78.48-1.59.53-2.57.16-.53-.2-.97-.25-1.42-.14-.3.07-.55.04-.74-.09-.2-.14-.34-.38-.4-.7-.06-.35-.07-.62-.03-.86.12-.73.02-1.26-.27-1.58-.29-.31-.79-.44-1.48-.38-.56.05-1.11-.26-1.42-.8-.32-.54-.32-1.17 0-1.64.36-.53.21-.81-.08-1.21-.1-.14-.18-.29-.27-.44l-.21-.36c-.44-.66-1.04-.92-1.78-.78-.55.1-1.07.24-1.56.42-.82.29-1.81.59-2.9.61-.62.01-1.23.14-1.72.37-.94.43-1.38 1.23-1.29 2.38.02.27-.15.64-.36.77-.2.12-.62-.09-.78-.21-.42-.31-.74-.39-1.12-.27-.78.24-1.42.1-1.96-.42-.15-.15-.57-.2-.62-.15-.5.51-.99.32-1.46.14l-.08-.03c-.21-.08-.44-.11-.62-.07-.67.14-1.28.1-1.9-.13-1.15-.42-2.52-.9-3.93-1.28-1.39-.39-2.73-.36-3.98.06-.33.11-.68.37-.86.66-.45.67-.58.77-1.38.61-.06-.01-.12-.02-.19-.03l-.05-.01c-.09.57.12 1.05.38 1.57l.02.04c.25.5.51 1.01.64 1.55.33 1.39.27 1.81-1.02 2.46-.01 0-.02.01-.03.02-1.33.94-2.55 2.06-2.48 3.84.04 1.04-.23 1.77-.92 2.5-.42.44-.75 1.23-.33 2 .41.74.99 1.06 1.73.94.75-.12 1.38.02 1.9.43.31.24.69.29 1.1.13.82-.32 1.52-.18 2.15.43.2.19.32.27.43.27.1 0 .22-.09.41-.31.36-.42.77-.56 1.29-.46.53.11 1-.05 1.41-.47l.08-.08c.16-.16.32-.33.49-.49 1.23-1.17 3.25-1.44 4.69-.63.75.43 1.53.78 2.31 1.06.88.31 1.3.85 1.36 1.75.03.44.17.92.39 1.35.3.59.64 1.17.97 1.72.17.29.35.58.51.88l.07.11c.21.36.46.77.16 1.2-.38.55-1.07.38-1.43.29-.24-.06-.47-.16-.69-.26-.14-.06-.28-.12-.42-.17a.686.686 0 0 0-.28-.04c-.04.05-.07.17-.07.34 0 .05.03.12.07.18.01.03.03.05.04.07.22.47.17.86-.18 1.26-.46.52-.89 1.06-1.34 1.63-.16.21-.33.42-.5.63.6.4 1.13.59 1.77.23.22-.12.46-.2.67-.27.51-.16.91-.08 1.23.23.03.03.07.05.12.08a.337.337 0 0 0-.04-.12c-.17-.56-.17-.95 0-1.25.16-.28.46-.47.96-.6.9-.23 1.36-.75 1.49-1.67.01-.06.03-.12.05-.18.01-.04.03-.08.03-.12.15-.71.59-1.18 1.34-1.44.85-.29 1.69-.33 2.49-.13.35.09.7.27 1 .51.16.13.19.51.1.72-.07.17-.46.2-.64.18-.16-.02-.32-.07-.47-.12.02.02.04.04.07.06.1.09.2.18.27.28.51.73 1.16 1.02 2.05.93.6-.06 1.26-.06 1.95 0 .26.02.65.27.7.5.05.25-.1.53-.23.78l-.05.09c-.07.14-.26.22-.4.28-.4.17-.79.34-1.19.51l-.52.22c-.15.06-.3.13-.44.19l-.16.07-.02.03Zm-3.03-5.17c-.47 0-.95.08-1.43.25-.7.24-1.1.67-1.24 1.32-.01.05-.02.09-.04.14-.02.05-.03.11-.04.16-.14.99-.65 1.56-1.61 1.81-.45.12-.72.28-.86.52-.14.25-.14.61.01 1.12.02.05.03.11.05.18l.07.26c.03-.14.07-.27.04-.37-.25-1.11-.15-1.3.94-1.66.07-.02.14-.05.21-.07.59-.18.96-.55 1.12-1.15.03-.1.05-.19.07-.29.06-.23.11-.47.2-.7.09-.24.21-.52.4-.71.75-.74 2.82-.9 3.7-.28.1.07.16.17.22.27.03.04.05.08.08.12l.05.06-.2.16-.04-.01c-.09-.03-.19-.05-.28-.08a3.26 3.26 0 0 0-.67-.16c-.04-.01-.08.02-.13.06l.1.03c.08.02.15.05.23.08.18.06.35.13.52.14.2.02.45-.04.47-.08.06-.15.03-.45-.05-.52-.27-.22-.61-.4-.93-.48-.31-.08-.64-.12-.96-.12Z" fill="#010101"/><path d="m24 16.98-.3-.59s-.54-1.03-1.51-.97c-.97.06-1.41.97-1.41.97l-1.35.43 1.46.32s.7.27.68 1.03c-.03.76-.89 1.87-.51 2.93.38 1.07 4.06 1.34 6.27 2.53 2.22 1.19 3.46 4.49 3.46 4.49s-1.78-1.84-4.11-2.11c-2.33-.27-3.73-2.33-3.73-4.25s.05-3.81 2.16-5.43c2.11-1.62 6.33-3.68 6.49-5.41 0 0 2.06 6.11-2.06 8.6 0 0-2.02 1.57-5.3 1.19l-.89-.16" fill="#fff"/><path d="M30.79 28.4c-.08 0-.15-.03-.21-.09-.02-.02-1.74-1.77-3.94-2.02-2.24-.26-3.67-2.09-3.94-3.91-1-.31-1.73-.64-1.92-1.19-.28-.78.02-1.56.25-2.18.12-.32.24-.63.25-.86.02-.49-.39-.7-.48-.74l-1.43-.32a.277.277 0 0 1-.22-.27c-.01-.13.08-.25.2-.29l1.24-.4c.17-.28.67-.97 1.59-1.02 1.14-.06 1.76 1.08 1.78 1.13l.25.5c.21-.22.45-.44.73-.65.62-.47 1.4-.98 2.22-1.51 1.9-1.22 4.06-2.61 4.16-3.7.01-.14.12-.24.25-.26.13-.01.26.07.31.19.02.06 2.07 6.35-2.17 8.93-.21.15-2.25 1.62-5.5 1.24l-.91-.16c-.02 0-.04-.01-.06-.02-.01.32-.01.63-.01.95v.18c.27.08.55.16.82.23 1.13.31 2.4.66 3.4 1.2 2.29 1.23 3.54 4.5 3.59 4.64.05.13 0 .27-.11.34-.04.05-.09.06-.14.06Zm-7.47-5.83c.33 1.5 1.54 2.94 3.39 3.16 1.34.16 2.5.8 3.27 1.35-.55-1.04-1.51-2.5-2.79-3.19-.94-.5-2.18-.85-3.28-1.15-.2-.07-.4-.12-.59-.17Zm-2.79-5.81.42.09c.01 0 .03.01.04.01.04.01.89.36.86 1.31-.01.32-.14.67-.28 1.04-.22.59-.45 1.21-.25 1.79.1.28.64.53 1.33.76 0-1.46 0-3.08 1.16-4.57-.03-.02-.05-.06-.07-.09l-.3-.59s-.47-.86-1.24-.82c-.78.04-1.15.78-1.16.81a.28.28 0 0 1-.17.15l-.34.11Zm2.82 3.5h.05l.89.16c3.09.36 5.05-1.12 5.07-1.13.01-.01.02-.01.03-.02 3-1.81 2.52-5.74 2.15-7.44-.72 1.09-2.42 2.18-4.08 3.25-.81.52-1.58 1.02-2.18 1.48-1.48 1.14-1.89 2.42-2.01 3.71.03-.01.06-.01.08-.01Z" fill="#010101"/></g><defs><clipPath id="a"><path fill="#fff" d="M0 0h256.34v63.62H0z"/></clipPath></defs></svg>