<svg width="224" height="224" fill="none" xmlns="http://www.w3.org/2000/svg"><path d="m166.909 128.3-1.617-9.982s-5.575 3.022-3.548 19.19l-3.361-11.311c-3.589 3.846-2.482 12.348-1.274 17.831-1.056.374-2.512 1.173-4.513 2.573l-10.2 5.241c13.626-14.349 9.669-19.368 9.669-19.368l-17.922 17.786c-6.434 6.388-10.366 14.91-10.856 23.967-.016.237-.026.48-.036.723-1.42 4.705-.955 9.85 1.238 14.343l.774 1.587 40.428-40.125 4.19-4.159 3.482-29.572s-5.787 4.114-6.444 11.271h-.01v.005Zm-64.142 46.649c-.01-.242-.02-.485-.036-.722-.495-9.052-4.422-17.579-10.856-23.967l-17.922-17.786s-3.957 5.024 9.669 19.368l-14.743-7.698c1.218-5.473 2.365-14.075-1.249-17.947l-3.36 11.311c2.026-16.173-3.549-19.19-3.549-19.19l-1.617 9.982c-.657-7.157-6.444-11.271-6.444-11.271l3.482 29.572 4.19 4.159 40.428 40.125.774-1.587c2.193-4.493 2.653-9.638 1.238-14.349h-.005Z" fill="#FFD500"/><path d="M125.253 191.421c-.031 0-.061 0-.091-.005a.541.541 0 0 1-.395-.293l-.773-1.587c-2.795-5.727-2.79-12.429.01-17.922 1.385-2.72 3.402-5.141 5.989-7.198 10.013-7.96 24.988-14.485 27.783-15.667-.884-2.861-4.998-17.331.207-22.911a.536.536 0 0 1 .905.212l7.303 24.558a.55.55 0 0 1-.136.536l-40.428 40.125a.537.537 0 0 1-.379.157h.005v-.005Zm-.293-2.366.444.915 39.67-39.372-6.919-23.264c-4.175 6.217.738 21.379.789 21.541a.535.535 0 0 1-.309.662c-.166.071-17.073 7.04-27.974 15.708-2.467 1.961-4.387 4.266-5.701 6.849-2.649 5.195-2.649 11.533 0 16.961Z" fill="#000"/><path d="M165.681 151.301a.531.531 0 0 1-.511-.384l-3.937-13.252a.534.534 0 0 1-.02-.086c-2.047-16.345 3.588-19.6 3.826-19.731a.533.533 0 0 1 .783.384l4.579 28.283a.542.542 0 0 1-.151.465l-4.19 4.159a.537.537 0 0 1-.379.157v.005Zm-3.412-13.894 3.67 12.347 3.356-3.33-4.382-27.07c-1.325 1.42-4.15 5.969-2.644 18.053Z" fill="#000"/><path d="M169.871 147.141a.542.542 0 0 1-.531-.449l-2.962-18.302a.414.414 0 0 1 0-.136c.673-7.318 6.424-11.483 6.667-11.66a.534.534 0 0 1 .844.5l-3.482 29.572a.534.534 0 0 1-.521.475h-.015Zm-2.421-18.857 2.34 14.445 2.876-24.411c-1.633 1.511-4.731 4.993-5.211 9.966h-.005Zm-44.209 47.206h-.02a.537.537 0 0 1-.516-.556c.011-.247.021-.49.036-.733.495-9.122 4.407-17.76 11.018-24.315l17.922-17.786a.564.564 0 0 1 .409-.156c.152.01.293.081.389.202.172.217 4.089 5.554-9.699 20.07a.54.54 0 0 1-.758.02.54.54 0 0 1-.02-.758c10.488-11.043 10.346-16.386 9.881-18.069l-17.366 17.235c-6.419 6.368-10.22 14.753-10.7 23.613-.015.238-.025.475-.035.718a.535.535 0 0 1-.536.515h-.005Z" fill="#000"/><path d="M149.245 153.823s-.051 0-.076-.005l-9.467-1.369a.536.536 0 0 1-.454-.607.53.53 0 0 1 .606-.455l9.466 1.37a.535.535 0 0 1-.075 1.066Z" fill="#000"/><path d="M142.391 152.383a.536.536 0 0 1-.247-1.011l14.743-7.698a.535.535 0 1 1 .495.951l-14.743 7.697a.553.553 0 0 1-.248.061Zm-41.631 39.038a.537.537 0 0 1-.379-.157l-40.428-40.125a.537.537 0 0 1-.136-.535l7.303-24.559a.53.53 0 0 1 .389-.368.532.532 0 0 1 .516.156c5.205 5.58 1.091 20.045.207 22.911 2.795 1.182 17.77 7.707 27.782 15.668 2.588 2.057 4.605 4.483 5.99 7.197 2.8 5.493 2.805 12.19.01 17.922l-.774 1.587a.538.538 0 0 1-.394.293c-.03 0-.06.005-.091.005h.005v.005Zm-39.821-40.807 39.67 39.372.444-.915c2.649-5.428 2.649-11.766 0-16.962-1.314-2.583-3.234-4.882-5.7-6.848-10.902-8.668-27.809-15.638-27.975-15.709a.536.536 0 0 1-.309-.662c.05-.162 4.963-15.324.789-21.541l-6.92 23.265Z" fill="#000"/><path d="M60.327 151.301a.535.535 0 0 1-.379-.156l-4.19-4.16a.543.543 0 0 1-.151-.465l4.579-28.283a.525.525 0 0 1 .293-.394.525.525 0 0 1 .49.01c.243.131 5.873 3.386 3.826 19.731 0 .031-.01.061-.02.086l-3.942 13.252a.545.545 0 0 1-.38.369.589.589 0 0 1-.13.015h.004v-.005Zm-3.614-4.887 3.356 3.331 3.67-12.348c1.506-12.079-1.32-16.628-2.649-18.053l-4.382 27.07h.005Z" fill="#000"/><path d="M56.137 147.142h-.01a.534.534 0 0 1-.52-.475l-3.483-29.572a.538.538 0 0 1 .258-.526.538.538 0 0 1 .586.025c.243.172 6 4.342 6.667 11.66v.137l-2.962 18.301a.538.538 0 0 1-.53.45h-.006Zm-2.79-28.829 2.876 24.416 2.34-14.444c-.48-4.989-3.578-8.466-5.21-9.972h-.006Zm49.42 57.177a.535.535 0 0 1-.536-.515c-.01-.243-.02-.48-.035-.718-.48-8.855-4.281-17.245-10.7-23.613l-17.371-17.24c-.465 1.673-.617 7.016 9.88 18.069a.536.536 0 1 1-.778.738c-13.787-14.521-9.87-19.853-9.698-20.07a.54.54 0 0 1 .389-.202.52.52 0 0 1 .41.156l17.921 17.786c6.606 6.555 10.518 15.193 11.018 24.315.015.243.026.486.036.733a.534.534 0 0 1-.516.556h-.02v.005Z" fill="#000"/><path d="M76.768 153.823a.536.536 0 0 1-.076-1.066l9.467-1.37a.537.537 0 0 1 .152 1.062l-9.467 1.369s-.05.005-.076.005Z" fill="#000"/><path d="M83.622 152.383a.536.536 0 0 1-.248-.061l-14.743-7.697a.536.536 0 0 1 .495-.951l14.743 7.698a.536.536 0 0 1-.247 1.011ZM12.626 88.064l-6.004-1.648 5.787-1.653.212-.778-4.236-4.402 6.106 1.673.45-1.648-9.224-2.497-.384 1.395 5.12 5.282-7.112 1.986-.384 1.41 9.214 2.522.455-1.642ZM7.51 72.365l-.608 1.656 8.971 3.297.609-1.656-8.971-3.297Zm9.245 1.915.875-1.849-2.603-3.907.702-1.486 3.64 1.729.742-1.567-3.639-1.728.698-1.461 4.675-.465.884-1.86-5.802.586-2.926-4.488-.804 1.693 2.608 3.867-.702 1.48-3.624-1.723-.743 1.567 3.624 1.723-.708 1.496-4.64.41-.803 1.698 5.337-.571 3.21 4.857Zm7.531-14.864-3.467-2.183 2.638-4.18 3.462 2.184.94-1.491-8.081-5.1-.94 1.491 3.335 2.108-2.633 4.18-3.34-2.108-.946 1.5 8.082 5.1.95-1.5Zm5.373-8.136-1.153-2.113 2.957-3.756 2.325.627 1.157-1.47-10.179-2.523-1.081 1.375 4.847 9.295 1.122-1.426v-.01h.005Zm-1.87-3.448-2.174-3.997 4.392 1.182-2.219 2.815Zm9.259-5.428-1.992-1.91 1.491-1.557c.587-.611.991-1.233 1.208-1.86.218-.631.258-1.238.122-1.824-.137-.587-.46-1.122-.966-1.608-.51-.49-1.066-.793-1.663-.91-.596-.115-1.197-.05-1.809.203-.611.253-1.213.682-1.8 1.294l-2.718 2.84 6.899 6.616 1.228-1.279v-.005Zm-4.377-7.08c.54-.567 1.071-.875 1.582-.93.51-.056.985.126 1.42.54.435.415.637.885.601 1.395-.035.516-.323 1.056-.864 1.623l-1.435 1.496-2.74-2.629 1.436-1.496Zm6.196-1.678c.455.535.97.945 1.552 1.233a4.675 4.675 0 0 0 1.834.49c.642.04 1.284-.05 1.926-.273a5.566 5.566 0 0 0 1.804-1.051 5.716 5.716 0 0 0 1.325-1.602 4.734 4.734 0 0 0 .379-3.725 4.954 4.954 0 0 0-.981-1.739c-.46-.54-.98-.955-1.567-1.248a4.618 4.618 0 0 0-1.83-.495 4.786 4.786 0 0 0-1.905.278 5.574 5.574 0 0 0-1.794 1.05 5.644 5.644 0 0 0-1.334 1.618 5.035 5.035 0 0 0-.582 1.845 4.684 4.684 0 0 0 .188 1.885 4.91 4.91 0 0 0 .98 1.739l.005-.005Zm.53-3.62a3.09 3.09 0 0 1 .36-1.227 3.49 3.49 0 0 1 .864-1.057 3.594 3.594 0 0 1 1.172-.677 3.146 3.146 0 0 1 2.492.192c.39.208.743.496 1.061.87.319.374.546.773.683 1.192a3.185 3.185 0 0 1-.202 2.487 3.56 3.56 0 0 1-.855 1.051 3.602 3.602 0 0 1-1.182.683c-.42.141-.844.197-1.274.156a3.359 3.359 0 0 1-1.233-.359 3.418 3.418 0 0 1-1.066-.854 3.406 3.406 0 0 1-.673-1.192 3.315 3.315 0 0 1-.146-1.274v.01Zm9.74-4.467c.293.546.516 1.041.667 1.486.152.445.207.839.162 1.167a1.06 1.06 0 0 1-.5.779l-.258.177 1.981 2.926 1.365-.93-1.148-1.678 6.055-4.134 1.148 1.678 1.354-.925-1.996-2.922-1.137.779-4.544-6.651-5.782 3.952 1.612 2.552c.39.617.728 1.198 1.021 1.739v.005Zm2.553-6.015 3.7 5.413-4.009 2.735c.025-.132.035-.273.025-.43-.025-.359-.126-.758-.303-1.198-.177-.44-.404-.91-.677-1.415-.273-.5-.581-1.02-.925-1.556l-.9-1.436 3.089-2.113Zm9.93 3.351-1.94-3.608 4.357-2.34 1.935 3.608 1.552-.834-4.523-8.42-1.552.834 1.87 3.478-4.357 2.34-1.865-3.478-1.561.84 4.518 8.42 1.567-.84Zm9.67-4.841 2.198-8.203 2.547 6.277 1.633-.662-3.594-8.86-1.531.622-2.204 8.218-2.552-6.288-1.633.662 3.594 8.855 1.542-.621ZM79.336 3.71c.495.217 1.132.217 1.92-.01.789-.223 1.335-.561 1.643-1.006.308-.445.379-.976.217-1.582l-1.183.338c.086.329.046.607-.12.844-.168.238-.435.41-.814.516-.38.106-.698.106-.956-.01-.258-.116-.44-.334-.54-.657l-1.183.338c.182.602.52 1.011 1.01 1.234h.006V3.71Zm2.218 10.512 3.068-7.92 1.855 6.515 1.698-.48-2.623-9.193-1.587.45-3.078 7.934-1.86-6.525-1.693.48 2.618 9.194 1.602-.455Zm20.242-7.166c-.126-.9-.515-1.547-1.172-1.931-.657-.384-1.552-.5-2.689-.344l-2.8.39-.323-2.315 5.64-.789-.202-1.46-7.384 1.03 1.319 9.467 4.27-.596c1.193-.167 2.078-.551 2.659-1.158.581-.606.809-1.37.677-2.3h.005v.006Zm-2.132 1.516c-.314.308-.81.51-1.486.606l-2.436.339-.42-2.987 2.436-.339c1.38-.192 2.138.197 2.275 1.173.07.495-.056.9-.37 1.208Zm4.75-8.294.026 3.947c0 .9-.036 1.658-.112 2.275-.075.611-.217 1.081-.429 1.4a1.075 1.075 0 0 1-.905.5 1.341 1.341 0 0 1-.409-.04l-.061 1.561c.182.04.354.061.516.076.161.01.318.015.47.01.51-.02.925-.162 1.253-.42.329-.257.581-.641.758-1.147.182-.505.304-1.117.374-1.84.071-.722.106-1.55.101-2.491l-.015-2.39 3.755-.152.329 8.051 1.759-.07L111.435 0l-7.026.288v-.01h.005Zm16.32 7.46.824 2.259 1.865.101-3.781-9.78-1.743-.096-4.822 9.305 1.815.1 1.071-2.157 4.771.263v.005Zm-2.072-5.696 1.557 4.275-3.579-.197 2.027-4.078h-.005Zm8.921.626 4.685.703.237-1.486-6.428-.96-1.416 9.451 1.744.258 1.178-7.966Zm4.033 5.848c.111.637.344 1.228.692 1.77.349.54.804 1 1.365 1.389a5.6 5.6 0 0 0 1.915.829 5.717 5.717 0 0 0 2.078.116 4.772 4.772 0 0 0 1.824-.627 4.74 4.74 0 0 0 1.4-1.273 5 5 0 0 0 .824-1.82 4.9 4.9 0 0 0 .081-2.001 4.752 4.752 0 0 0-.682-1.77 4.79 4.79 0 0 0-1.355-1.369 5.722 5.722 0 0 0-1.91-.824 5.7 5.7 0 0 0-2.093-.116 4.976 4.976 0 0 0-1.829.627 4.609 4.609 0 0 0-1.405 1.268 4.982 4.982 0 0 0-.824 1.82 4.883 4.883 0 0 0-.076 1.981h-.005Zm1.804-1.572c.111-.48.298-.894.561-1.248.263-.354.571-.647.935-.874a3.106 3.106 0 0 1 1.203-.44c.44-.066.895-.04 1.365.07.47.112.884.294 1.238.546.359.253.647.561.879.925.228.364.374.764.44 1.198a3.6 3.6 0 0 1-.071 1.37c-.111.48-.298.9-.556 1.258a3.178 3.178 0 0 1-2.117 1.31 3.536 3.536 0 0 1-1.355-.066 3.65 3.65 0 0 1-1.253-.546 3.089 3.089 0 0 1-.88-.93 3.394 3.394 0 0 1-.389-2.568v-.005Zm8.001 5.266-1.188 3.332 1.557.545.677-1.92 6.914 2.43-.672 1.921 1.547.546 1.172-3.335-1.299-.46 2.674-7.602-6.606-2.325-1.107 2.81a29.36 29.36 0 0 1-.798 1.855 9.948 9.948 0 0 1-.804 1.42c-.273.39-.551.663-.844.824a1.06 1.06 0 0 1-.925.061l-.298-.106v.005Zm2.845.643a3.97 3.97 0 0 0 .784-.955c.247-.405.495-.865.738-1.385.242-.52.48-1.072.707-1.668l.627-1.577 3.528 1.243-2.174 6.182-4.574-1.608c.122-.06.243-.136.364-.237v.005Zm11.835-3.775-3.841 8.752 1.616.709 3.84-8.752-1.615-.709Zm8.64 3.456c.723.384 1.349.521 1.885.415.531-.111.95-.44 1.253-.99l-1.086-.577c-.167.293-.389.465-.672.526-.283.055-.597-.01-.94-.192-.344-.182-.572-.41-.678-.673-.106-.262-.086-.545.066-.849l-1.087-.576c-.288.561-.328 1.087-.126 1.587s.667.94 1.39 1.33h-.005Zm-7.081 7.784 7.702-3.573-3.179 5.979 1.552.829 4.493-8.436-1.46-.778-7.718 3.578 3.184-5.989-1.552-.829-4.493 8.44 1.471.779Zm9.633 5.489 2.3-3.387 4.088 2.775-2.299 3.391 1.455.991 5.368-7.91-1.456-.985-2.218 3.26-4.089-2.775 2.219-3.265-1.466-.996-5.373 7.905 1.471.996Zm8.764 6.327 8.284-1.855-4.377 5.166 1.339 1.142 6.186-7.288-1.258-1.072-8.309 1.855 4.392-5.175-1.344-1.137-6.182 7.288 1.269 1.076Zm19.004 3.174c.54.066 1.041-.116 1.501-.54l-.844-.89c-.253.227-.521.318-.804.283-.288-.035-.561-.197-.834-.48-.268-.283-.414-.566-.435-.85-.02-.282.091-.545.329-.783l-.849-.89c-.45.44-.657.93-.622 1.466.036.536.334 1.102.9 1.699.566.59 1.117.925 1.658.99v-.005Zm-10.837 4.16 8.436-.955-4.908 4.665 1.213 1.278 6.929-6.585-1.142-1.198-8.45.955 4.917-4.675-1.218-1.279-6.924 6.586 1.147 1.208Zm10.65 8.122c-.253.723-.268 1.516-.051 2.395.177.718.526 1.481 1.026 2.275l-.844.591.94 1.345.844-.592c.586.769 1.188 1.37 1.82 1.79.737.49 1.485.732 2.249.727.763-.005 1.501-.258 2.218-.758.733-.51 1.229-1.122 1.486-1.84.263-.717.288-1.506.081-2.38-.172-.728-.525-1.496-1.031-2.3l.799-.56-.94-1.345-.804.56c-.576-.737-1.173-1.323-1.789-1.738-.753-.505-1.511-.758-2.274-.768-.769-.01-1.517.243-2.25.753-.732.51-1.223 1.127-1.475 1.845h-.005Zm8.213 3.457c.166.606.171 1.152.015 1.637-.157.49-.486.905-.986 1.259-.505.354-1.021.526-1.536.515-.516-.01-1.036-.197-1.552-.566-.374-.263-.748-.626-1.112-1.076l4.549-3.18c.298.496.51.966.632 1.41h-.01Zm-5.742-3.882c.516-.359 1.031-.535 1.542-.52.515.01 1.031.212 1.551.596.359.268.718.622 1.072 1.056l-4.534 3.17a5.897 5.897 0 0 1-.596-1.33c-.182-.617-.192-1.178-.036-1.683.157-.505.491-.935 1.001-1.289Zm4.898 10.705a4.676 4.676 0 0 0-.865 1.693 4.884 4.884 0 0 0-.131 1.941c.086.672.298 1.334.652 1.981a5.62 5.62 0 0 0 1.289 1.633c.51.44 1.071.753 1.683.95a4.744 4.744 0 0 0 1.885.202 4.989 4.989 0 0 0 1.905-.591 4.99 4.99 0 0 0 1.552-1.269c.409-.51.697-1.071.869-1.683a4.778 4.778 0 0 0 .127-1.92 5.737 5.737 0 0 0-.652-1.977 5.659 5.659 0 0 0-1.304-1.642 5.107 5.107 0 0 0-1.683-.955 4.728 4.728 0 0 0-1.88-.213 5 5 0 0 0-1.906.592 4.934 4.934 0 0 0-1.531 1.258h-.01Zm2.375.303a3.424 3.424 0 0 1 1.309-.409c.44-.04.864 0 1.274.121.409.122.788.324 1.127.612.338.288.626.642.854 1.066.227.425.369.854.414 1.29.046.434.01.853-.106 1.268a2.997 2.997 0 0 1-.606 1.122 3.714 3.714 0 0 1-1.072.859 3.532 3.532 0 0 1-1.309.42 3.13 3.13 0 0 1-1.268-.117 3.15 3.15 0 0 1-1.117-.601 3.525 3.525 0 0 1-.849-1.057 3.62 3.62 0 0 1-.42-1.298 3.11 3.11 0 0 1 .111-1.28 3.382 3.382 0 0 1 1.663-1.996h-.005Zm1.183 12.989 3.795-1.541 1.855 4.584-3.795 1.536.662 1.633 8.86-3.588-.662-1.633-3.66 1.48-1.855-4.578 3.655-1.486-.663-1.643-8.859 3.589.667 1.647Zm7.869 8.006a10.13 10.13 0 0 1-1.622.167c-.47 0-.86-.07-1.163-.212a1.044 1.044 0 0 1-.581-.723l-.086-.303-3.401.96.455 1.587 1.955-.56 2.017 7.05-1.956.56.45 1.578 3.401-.97-.379-1.325 7.743-2.214-1.925-6.732-2.932.723c-.707.172-1.364.313-1.976.424v-.01Zm3.877.723 1.031 3.599-6.303 1.804-1.334-4.665c.116.066.247.121.399.157.349.09.758.121 1.233.086.475-.03.991-.096 1.557-.197a25.778 25.778 0 0 0 1.769-.385l1.648-.399ZM6.258 102.023a2.73 2.73 0 1 0 0-5.459 2.73 2.73 0 0 0 0 5.459Zm210.647 0a2.73 2.73 0 1 0 0-5.459 2.73 2.73 0 0 0 0 5.459ZM7.082 115.275c.338-.005.601-.116.798-.333.091-.101.162-.218.207-.339l2.103.516-.02-1.092-1.951-.677a7.314 7.314 0 0 0-.52-.182 2.873 2.873 0 0 0-.35-.091 1.52 1.52 0 0 0-.308-.021c-.328 0-.591.117-.793.329-.202.212-.299.485-.293.809 0 .308.11.571.313.778.202.212.475.313.809.308l.005-.005Zm-.046-2.896c.339-.005.601-.116.799-.333.09-.101.161-.218.207-.339l2.102.516-.02-1.092-1.95-.677a7.31 7.31 0 0 0-.521-.182 4.247 4.247 0 0 0-.35-.091 1.52 1.52 0 0 0-.307-.021c-.329.006-.592.117-.794.329-.202.212-.298.485-.293.809 0 .308.111.571.313.778.202.212.475.313.809.308l.005-.005Zm3.28 12.651-.141-1.744-5.823-2.426 5.353-3.29-.157-1.881-6.808 4.362-.227-.121c-.496-.253-.799-.566-.915-.94-.111-.374-.106-.819.025-1.329l-1.425-.334c-.187.581-.243 1.142-.162 1.678a2.78 2.78 0 0 0 .687 1.451c.38.429.9.788 1.562 1.071l8.031 3.503Zm1.572 8.971-.323-1.855-4.428-2.027-.313-1.804 3.957-.688-.298-1.708-9.416 1.637.298 1.709 3.968-.693.303 1.764-3.487 3.447.343 1.976 4.281-4.195 5.115 2.437Zm-5.281 6.54c.222.818.54 1.481.965 1.996.424.511.925.859 1.496 1.046.571.187 1.198.187 1.875 0 .687-.182 1.233-.5 1.638-.95.409-.45.662-1.001.763-1.653.1-.652.045-1.389-.177-2.208l-1.021-3.796-9.229 2.482.46 1.713 2.663-.718.561 2.083h.006v.005Zm5.074.389c-.217.47-.617.778-1.198.935-.581.157-1.082.086-1.506-.212-.425-.299-.738-.824-.94-1.577l-.541-2.007 3.664-.985.541 2.006c.202.758.197 1.37-.02 1.835v.005Zm3.901 5.494-10.457-.723.627 1.703 2.406.127 1.658 4.483-1.749 1.653.647 1.753 7.47-7.359-.607-1.637h.005Zm-5.908 1.183 4.544.237-3.306 3.129-1.243-3.366h.005Zm10.801 7.571c.202.086.42.081.642-.02a.774.774 0 0 0 .434-.465.813.813 0 0 0-.025-.617.804.804 0 0 0-.455-.445.764.764 0 0 0-.631.026c-.223.101-.374.252-.445.459a.82.82 0 0 0 .04.632.833.833 0 0 0 .44.43Zm-2.192-2.087-8.709 3.938.73 1.616 8.71-3.937-.731-1.617Zm2.177-.809a.855.855 0 0 0-.03-.632.81.81 0 0 0-.45-.425.76.76 0 0 0-.637.021.772.772 0 0 0-.44.47.814.814 0 0 0 .03.616.87.87 0 0 0 .445.445c.202.086.42.081.642-.02a.774.774 0 0 0 .435-.465v-.01h.005Zm2.679 10.517-3.468 1.885-2.36-4.341 3.467-1.885-.849-1.557-8.395 4.564.844 1.562 3.599-1.962 2.365 4.347-3.598 1.956.839 1.547 8.394-4.564-.838-1.552Zm-1.118 12.792a3.33 3.33 0 0 1-1.005-.985 3.647 3.647 0 0 1-.566-1.274 3.238 3.238 0 0 1-.03-1.284 3.24 3.24 0 0 1 .48-1.192c.242-.374.566-.698.97-.976s.829-.46 1.263-.546a3.227 3.227 0 0 1 1.284-.005c.42.086.814.253 1.183.501.369.252.692.581.975.995.278.405.455.839.546 1.299.086.46.076.94-.035 1.446l1.536.343a4.224 4.224 0 0 0 .066-2.026c-.142-.688-.43-1.35-.87-2.002a5.541 5.541 0 0 0-1.445-1.481 4.89 4.89 0 0 0-1.764-.763 4.707 4.707 0 0 0-1.895-.015 4.885 4.885 0 0 0-1.84.788c-.591.405-1.066.88-1.41 1.421a4.75 4.75 0 0 0-.687 1.758 4.811 4.811 0 0 0 .055 1.916 5.53 5.53 0 0 0 .844 1.885c.445.652.96 1.173 1.552 1.552a4.328 4.328 0 0 0 1.915.677l.248-1.557a3.57 3.57 0 0 1-1.364-.49v.015h-.006Zm10.039 6.525c0-.804-.365-1.642-1.093-2.532l-1.683-2.042 2.497-2.057-1.122-1.36-7.374 6.076 2.623 3.184c.768.935 1.582 1.491 2.441 1.668.86.176 1.704-.076 2.532-.759.789-.646 1.178-1.374 1.178-2.173v-.005Zm-2.34.809c-.47.389-.951.536-1.436.45-.485-.086-.945-.4-1.38-.925l-1.45-1.759 2.77-2.285 1.45 1.759c.44.536.672 1.031.697 1.496.025.46-.192.885-.657 1.264h.005Zm12.806 4.255-1.324-1.339-4.791.869-1.289-1.298 2.85-2.826-1.223-1.233-6.787 6.727 1.223 1.233 2.86-2.835 1.259 1.269-.89 4.826 1.416 1.426 1.106-5.889 5.59-.93Zm6.04 5.065-8.284 1.935 4.342-5.216-1.355-1.127-6.115 7.349 1.278 1.062 8.27-1.931-4.332 5.206 1.354 1.127 6.116-7.349-1.274-1.056Zm.804 9.052 3.765-5.646-1.46-.975-5.308 7.945 1.385.925 8.016-2.79-3.76 5.635 1.466.976 5.306-7.945-1.374-.92-8.036 2.795Zm5.236-7.819c-.344.526-.435 1.051-.283 1.567.151.515.57 1.006 1.248 1.46.682.455 1.294.657 1.835.602.54-.056.99-.339 1.344-.859l-1.02-.683c-.193.273-.435.425-.723.455-.289.026-.592-.065-.92-.283-.324-.217-.531-.46-.612-.733-.08-.273-.03-.551.147-.839l-1.021-.682.005-.005Zm14.541 13.1.682-1.339-5.812-2.901-4.266 8.552 1.577.788 3.578-7.217 4.24 2.117Zm7.768 1.522-4.766 4.134-.561-6.257-1.75-.698.875 8.036-.207.152c-.445.334-.86.465-1.248.399-.384-.065-.779-.273-1.178-.616l-.935 1.127c.435.429.915.728 1.43.894a2.804 2.804 0 0 0 1.608.031c.555-.147 1.101-.455 1.652-.92l6.712-5.631-1.622-.646h-.01v-.005Zm11.078 3.366-5.312 5.089-1.945-7.121-1.41-.394-2.573 9.203 1.642.46 1.678-5.994 1.623 5.797.778.217 4.423-4.21-1.704 6.09 1.643.46 2.552-9.208-1.395-.389Zm6.697 1.304-5.772 8.748 1.795.288L92 219.775l4.721.763.581 2.335 1.845.298-2.734-10.123-1.724-.278Zm-1.875 5.726 2.441-3.841 1.102 4.417-3.538-.571h-.005v-.005Zm15.435-.359-4.937-.288.232-3.937-1.774-.101-.556 9.537 1.774.106.238-4.088 4.932.283-.237 4.093 1.759.102.556-9.543-1.759-.101-.228 3.937Zm6.141-3.938-1.759.029.155 9.556 1.759-.029-.155-9.556Zm9.356-.55-8.057.596.106 1.496 3.149-.232.591 8.036 1.744-.131-.591-8.032 3.169-.237-.111-1.496Zm3.785-.576-2.734 10.118 1.794-.288.586-2.335 4.721-.758 1.284 2.037 1.844-.298-5.771-8.754-1.724.278Zm.015 6.024 1.112-4.412 2.431 3.846-3.543.566Zm14.698-7.667c-.445-.409-.996-.667-1.648-.773-.652-.106-1.39-.056-2.209.162l-3.805.995 2.415 9.25 1.719-.45-.698-2.669 2.088-.546c.818-.212 1.486-.53 2.001-.955.516-.419.869-.92 1.056-1.491.193-.571.198-1.198.021-1.875-.182-.687-.491-1.233-.94-1.648Zm-1.011 3.604c-.298.419-.829.733-1.587.93l-2.007.526-.96-3.675 2.006-.525c.759-.198 1.37-.187 1.835.035.465.222.778.622.93 1.203.152.581.081 1.081-.222 1.506h.005Zm8.658-7.985 1.369 3.699-4.634 1.719-1.37-3.705-1.663.617 3.311 8.966 1.668-.617-1.421-3.841 4.635-1.714 1.42 3.842 1.653-.612-3.316-8.966-1.652.612Zm9.946-4.585-1.587 8.365-3.012-6.08-1.582.778 4.245 8.567 1.497-.743 1.576-8.339 3.008 6.065 1.577-.779-4.241-8.567-1.481.733Zm9.295-5.554-.693 8.481-3.639-5.727-1.486.946 5.125 8.066 1.405-.895.693-8.46 3.629 5.716 1.486-.945-5.125-8.067-1.395.885Zm-3.063.086c-.328.212-.637.298-.92.257-.283-.035-.515-.192-.707-.475l-1.037.657c.344.526.784.824 1.32.895.535.071 1.147-.116 1.839-.556.693-.44 1.122-.915 1.289-1.435.167-.516.086-1.042-.242-1.577l-1.037.657c.172.288.213.571.127.844-.091.273-.303.515-.632.723v.01Zm17.649-5.721c-.758.025-1.577.404-2.456 1.142l-2.158 1.824-1.506-1.784 4.351-3.674-.95-1.127-5.696 4.811 6.166 7.304 3.295-2.785c.92-.774 1.461-1.572 1.633-2.396.172-.824-.046-1.592-.652-2.31-.586-.697-1.264-1.031-2.022-1.011h-.005v.006Zm1.026 3.431c-.101.43-.414.865-.935 1.304l-1.875 1.587-1.946-2.304 1.88-1.587c1.067-.9 1.916-.971 2.548-.223.323.384.434.789.333 1.218l-.005.005Zm.035-10.76 3.837 9.754 1.268-1.299-.92-2.224 3.341-3.421 2.244.869 1.304-1.339-9.855-3.589-1.224 1.254.005-.005Zm3.609 4.821-1.739-4.205 4.246 1.638-2.507 2.567Zm6.57-14.131-1.157-.955-5.135 6.242 1.157.955 2.007-2.436 6.222 5.114 1.106-1.349-6.221-5.115 2.021-2.456Zm1.031-4.089 5.429 8.966 1.031-1.496-1.284-2.036 2.714-3.938 2.36.475 1.062-1.541-10.321-1.87-.991 1.44Zm4.372 4.15-2.426-3.851 4.458.899-2.037 2.952h.005Zm.147-11.104 3.391 2.016c.774.465 1.4.89 1.891 1.269.485.379.813.743.975 1.087.162.343.152.687-.035 1.031a1.68 1.68 0 0 1-.243.333l1.304.859c.126-.136.238-.272.329-.404.091-.131.176-.263.252-.399.248-.445.344-.88.288-1.289-.055-.409-.247-.829-.586-1.243-.339-.415-.798-.839-1.38-1.274a23.697 23.697 0 0 0-2.082-1.375l-2.057-1.223 1.809-3.29 7.061 3.877.849-1.542-8.38-4.599-3.386 6.166Zm13.318-13.136c-.935-.399-1.764-.419-2.477-.051-.712.369-1.294 1.082-1.744 2.133l-1.041 2.436-2.977-1.273-.692 1.617 8.784 3.76 1.622-3.79c.476-1.112.597-2.093.359-2.937-.237-.844-.849-1.475-1.834-1.9v.005Zm.192 4.382-.9 2.097-3.3-1.415.899-2.097c.273-.637.607-1.072 1.006-1.309.399-.238.875-.233 1.425 0 .561.237.915.596 1.057 1.071.146.475.081 1.021-.187 1.653Zm-6.242-11.963c-.238.152-.521.187-.844.091l-.369 1.173c.601.182 1.132.126 1.582-.167.455-.293.804-.829 1.051-1.607.248-.784.268-1.426.061-1.926-.202-.505-.607-.854-1.203-1.051l-.369 1.172c.318.111.531.298.637.566.106.268.101.587-.015.961-.117.374-.294.636-.536.788h.005Zm2.825-2.83 4.933 6.929-6.474-2.037-.526 1.683 9.118 2.866.5-1.587-4.928-6.919 6.464 2.036.526-1.683-9.118-2.865-.495 1.577Zm10.801-10.129a4.772 4.772 0 0 0-1.324-1.355 4.892 4.892 0 0 0-1.845-.758 5.057 5.057 0 0 0-2.002-.01 4.705 4.705 0 0 0-1.743.743 4.732 4.732 0 0 0-1.324 1.4 5.576 5.576 0 0 0-.753 1.936 5.52 5.52 0 0 0-.041 2.092c.116.662.349 1.269.693 1.81.343.541.778.995 1.314 1.364.535.369 1.152.617 1.844.758.688.137 1.35.142 1.982.006a4.645 4.645 0 0 0 1.743-.754 4.963 4.963 0 0 0 1.34-1.41 5.578 5.578 0 0 0 .763-1.94 5.79 5.79 0 0 0 .045-2.078 4.736 4.736 0 0 0-.692-1.804Zm-.88 3.578a3.606 3.606 0 0 1-.505 1.269 3.117 3.117 0 0 1-.9.915 3.374 3.374 0 0 1-1.187.485c-.435.091-.89.086-1.365-.005a3.423 3.423 0 0 1-1.269-.516 3.352 3.352 0 0 1-.904-.904 3.095 3.095 0 0 1-.48-1.188 3.68 3.68 0 0 1 .02-1.37c.096-.475.263-.889.5-1.258.238-.364.536-.667.89-.91a3.044 3.044 0 0 1 1.182-.48 3.61 3.61 0 0 1 1.375.025c.485.096.91.268 1.279.511.369.242.672.545.905.899.237.354.394.743.475 1.173.08.429.075.879-.021 1.354h.005Zm3.321-14.025.157-1.754-9.522-.859-.157 1.754 3.932.354-.445 4.922-3.932-.354-.157 1.769 9.517.86.162-1.769-4.079-.369.44-4.923 4.084.369Zm-5.741-8.299-1.926-.753c-.207-.086-.379-.151-.511-.202a1.988 1.988 0 0 0-.353-.096 2.204 2.204 0 0 0-.309-.025c-.328 0-.596.091-.808.293-.213.202-.324.465-.329.793 0 .309.091.571.293.789.203.217.47.328.809.333.339.005.606-.096.809-.308.091-.091.156-.197.207-.313l2.097.576.016-1.092h.005v.005Zm-2.836 1.845a2.19 2.19 0 0 0-.308-.025c-.329 0-.597.091-.809.293-.212.202-.323.465-.328.793 0 .309.091.571.293.789.202.217.47.328.808.333.339.005.607-.096.809-.308a.987.987 0 0 0 .207-.313l2.098.576.02-1.092-1.926-.753a9.9 9.9 0 0 0-.51-.197 2.02 2.02 0 0 0-.354-.096Z" fill="#000"/><path d="M113.729 140.526c29.895 0 54.13-24.235 54.13-54.13 0-29.896-24.235-54.13-54.13-54.13-29.895 0-54.13 24.234-54.13 54.13 0 29.895 24.235 54.13 54.13 54.13Z" fill="#005BBB"/><path d="M113.729 141.162c-30.198 0-54.767-24.568-54.767-54.766 0-30.199 24.569-54.767 54.767-54.767 30.199 0 54.767 24.568 54.767 54.767 0 30.198-24.568 54.766-54.767 54.766Zm0-108.26c-29.496 0-53.493 23.998-53.493 53.494s23.997 53.493 53.493 53.493c29.496 0 53.493-23.997 53.493-53.493 0-29.496-23.997-53.493-53.493-53.493Z" fill="#231F20"/><path d="M175.021 78.617c-.783-1.89-2.421-2.85-4.205-3.588-1.986-.819-3.993-1.592-5.994-2.386-1.213-.48-2.406-.631-3.67-.075-1.157.505-2.107.126-2.683-1.031-.329-.658-.496-1.39-.743-2.088-.577-1.632-1.532-2.117-2.987-1.223-2.078 1.284-4.125 1.208-6.288.39-1.187-.45-2.385-.673-3.694-.355-1.446.35-2.371-.358-2.618-1.83-.117-.686-.177-1.42-.071-2.102.51-3.164-.404-5.55-4.65-5.19-2.881.242-5.034-3.397-3.391-5.823.95-1.41.566-2.213-.202-3.285-.455-.627-.769-1.354-1.198-2.001-1.122-1.678-2.704-2.426-4.696-2.052a26.86 26.86 0 0 0-3.967 1.056c-2.355.834-4.711 1.48-7.253 1.531-1.486.03-3.068.334-4.412.946-2.573 1.167-3.583 3.366-3.366 6.201.045.586-.334 1.46-.799 1.749-.348.212-1.248-.167-1.723-.52-.93-.688-1.84-1.067-2.992-.708-1.754.55-3.316.358-4.726-1.021-.4-.39-1.602-.637-1.855-.374-1.243 1.268-2.405.707-3.68.217-.51-.197-1.141-.303-1.667-.192-1.607.334-3.098.258-4.68-.319-3.265-1.192-6.566-2.334-9.916-3.23-3.346-.894-6.788-.919-10.114.193-.874.293-1.789.98-2.29 1.744-1.066 1.622-1.293 1.844-3.239 1.455-.243-.05-.495-.07-.829-.121-.323 1.617.273 2.926.95 4.266.647 1.278 1.325 2.592 1.653 3.972.814 3.432.672 4.392-2.472 5.964-.035.015-.065.04-.096.06-3.441 2.432-6.52 5.257-6.347 9.841.096 2.542-.526 4.316-2.265 6.161-1.238 1.314-1.895 3.402-.87 5.277.936 1.713 2.402 2.815 4.575 2.471 1.673-.263 3.255-.025 4.64 1.056.904.703 1.935.764 2.961.37 1.977-.764 3.654-.46 5.201 1.046 1.041 1.016 1.466.96 2.396-.117.839-.97 1.784-1.339 3.058-1.081 1.45.288 2.709-.192 3.745-1.248.47-.476.935-.96 1.42-1.42 3.103-2.952 8.041-3.539 11.564-1.552a37.728 37.728 0 0 0 5.847 2.683c2.083.743 3.139 1.987 3.29 4.22.081 1.183.456 2.421.996 3.483 1.148 2.244 2.502 4.377 3.75 6.565.551.961 1.325 2.022.577 3.093-.824 1.178-2.194.946-3.387.647-.96-.242-1.855-.733-2.795-1.071-.288-.101-.783-.187-.91-.041-.201.233-.232.663-.227 1.011 0 .243.172.485.283.718.506 1.076.425 1.971-.43 2.941-1.657 1.876-3.163 3.887-4.765 5.883 1.592 1.102 3.098 1.699 4.857.718.515-.288 1.086-.485 1.652-.662 1.052-.328 2.052-.298 2.906.531.167.162.405.252.769.47-.106-.384-.157-.592-.218-.794-.738-2.466-.197-3.755 2.28-4.387 2.406-.616 3.578-2.057 3.912-4.387.035-.252.141-.5.197-.753.384-1.819 1.546-2.896 3.255-3.477 2.021-.687 4.089-.849 6.146-.329.869.218 1.738.678 2.426 1.244.313.258.379 1.127.192 1.562-.117.272-.93.384-1.405.333-.657-.076-1.289-.374-1.931-.576.435.596 1.036.935 1.39 1.445 1.324 1.886 3.047 2.664 5.362 2.421 1.613-.172 3.265-.151 4.883-.01.581.051 1.48.622 1.566 1.082.122.621-.348 1.4-.682 2.047-.147.288-.566.475-.9.621-1.425.627-2.865 1.218-4.296 1.825-.556.232-1.107.475-1.662.713l.015.353c1.031.349 2.082.642 3.088 1.057 3.184 1.314 4.154 3.28 3.265 6.514-.031.107-.066.213-.086.324-.268 1.501.515 2.471 2.027 2.224.904-.147 1.87-.566 2.572-1.148 1.451-1.197 2.906-2.264 4.802-2.658 1.202-.248 2.117-.965 2.688-2.138.561-1.162 1.203-1.405 2.472-1.056.712.192 1.385.525 2.092.753 1.092.359 2.128.278 3.023-.521.763-.687.96-2.234.358-2.967-.838-1.025-1.581-.247-2.329.172-1.037.571-2.017 1.284-3.114 1.693-2.406.905-3.816.036-4.164-2.476-.127-.93-.536-1.587-1.33-2.057-.384-.228-.869-.42-1.071-.768-.349-.602-.794-1.375-.657-1.956.116-.506.92-1.057 1.511-1.198 1.066-.253 1.739-.778 2.082-1.774.42-1.203 1.274-1.941 2.391-2.497.611-.303 1.258-.728 1.637-1.268 1.239-1.774 2.861-2.26 4.948-2.007.976.121 2.159-.01 2.998-.475 2.653-1.481 5.362-2.699 8.395-3.134.788-.111 1.127-.647 1.096-1.43-.015-.445-.06-.889-.05-1.334.03-1.446.687-2.315 2.097-2.603.814-.167 1.329-.561 1.658-1.31.435-.995 1.253-1.43 2.315-1.43.854 0 1.708.056 2.562.026 2.325-.081 3.609-2.007 2.815-4.18-.217-.591-.48-1.167-.672-1.769-.409-1.269-.258-2.416.804-3.35.151-.137.237-.35.349-.521-1.537-1.39-1.608-2.199-.122-2.694 1.567-.52 1.84-1.41 1.102-3.184l-.01-.016Z" fill="#FFD500"/><path d="M175.865 78.779c-.728-2.183-2.406-3.422-4.423-4.266-2.153-.9-4.326-1.769-6.504-2.598-1.239-.47-2.502-.631-3.801-.1-1.097.45-1.729.176-2.194-.93-.303-.713-.449-1.492-.753-2.21-.596-1.4-1.743-1.885-3.184-1.374a7.02 7.02 0 0 0-1.304.622c-1.157.717-2.375.773-3.644.42-.93-.259-1.839-.607-2.78-.794-.672-.137-1.405-.177-2.082-.071-1.703.273-2.284-.076-2.395-1.794-.071-1.107.085-2.224.07-3.336-.03-2.325-1.642-3.892-3.952-3.902-.374 0-.743 0-1.117.02-1.213.076-2.345-.065-2.911-1.339-.612-1.375-.945-2.77.167-4.074.556-.652.646-1.324.217-2.047-.743-1.238-1.476-2.491-2.285-3.684-1.101-1.628-2.719-2.285-4.629-2.082-1.173.12-2.381.308-3.467.732-3.215 1.269-6.525 1.865-9.967 2.042-3.27.167-5.762 2.169-6.505 5.03-.227.874-.091 1.839-.192 2.754-.04.364-.268.712-.414 1.066-.324-.146-.708-.222-.956-.45-1.051-.955-2.233-1.288-3.603-.874-1.577.48-2.947.318-4.165-.97-.758-.799-2.239-.95-2.754-.354-.92 1.061-1.794.576-2.8.232-.723-.242-1.567-.369-2.31-.247-1.425.227-2.734.182-4.134-.319-3.376-1.213-6.778-2.4-10.245-3.3-3.498-.91-7.081-.885-10.543.323-.854.298-1.875.89-2.254 1.633-.728 1.43-1.547 1.93-3.073 1.4-.854-.293-1.496.187-1.36 1.061.218 1.365.435 2.82 1.067 4.013.935 1.774 1.617 3.568 1.895 5.54.227 1.622-.03 2.173-1.415 3.032-.88.546-1.764 1.102-2.583 1.734-3.27 2.532-5.55 5.69-5.266 10.007.126 1.92-.39 3.2-1.729 4.549-2.456 2.471-2.259 6.08.177 8.4 1.026.975 2.244 1.273 3.594 1.091 1.647-.227 3.158-.015 4.533 1.016 1.112.834 2.37.778 3.619.329 1.526-.551 2.81-.41 4.084.773 1.647 1.536 2.32 1.38 3.942-.182.4-.39 1.122-.763 1.617-.677 2.29.379 4.069-.38 5.57-2.067.49-.551 1.031-1.097 1.643-1.502 2.946-1.95 6.044-2.532 9.365-.934 2.168 1.04 4.316 2.148 6.555 3.017 1.683.652 2.426 1.678 2.603 3.457a10.836 10.836 0 0 0 1.097 3.796c1.263 2.471 2.769 4.816 4.119 7.242.839 1.511.318 2.37-1.38 2.138-1.183-.162-2.294-.788-3.472-1.071-.622-.152-1.628-.284-1.9.045-.374.445-.268 1.339-.258 2.037.005.344.369.682.374 1.031.005.44-.056.98-.308 1.309a206.138 206.138 0 0 1-4.767 5.883c-.55.652-.47 1.152.177 1.567 1.577 1.011 3.21 1.759 5.1.748.394-.207.814-.359 1.223-.536 1.107-.49 2.118-.531 3.073.404.308.299.879.329 1.329.48.081-.515.329-1.071.218-1.546-.612-2.669-.415-3.063 2.228-3.942.177-.061.354-.112.531-.167 1.557-.46 2.537-1.476 2.952-3.043.217-.824.379-1.673.677-2.466.227-.612.521-1.269.97-1.713 1.835-1.805 6.94-2.174 9.057-.693.309.212.476.627.708.945l-.263.218c-.813-.218-1.617-.536-2.441-.612-.349-.03-.738.445-1.112.687.228.334.41.703.688.991.399.414.924.718 1.283 1.157 1.441 1.759 3.195 2.674 5.54 2.442 1.506-.152 3.037-.167 4.553-.107.501.021.986.475 1.481.733-.333.496-.561 1.198-1.026 1.446-1.395.753-2.886 1.334-4.341 1.981-.576.253-1.203.419-1.729.748-.758.475-.758 1.218 0 1.693.43.268.961.359 1.441.561.884.369 1.829.647 2.628 1.163 2.178 1.405 2.527 2.466 1.835 4.922a4.625 4.625 0 0 0-.182.87c-.142 1.688.737 2.699 2.436 2.749 1.278.041 2.421-.374 3.356-1.253 1.374-1.294 2.891-2.27 4.786-2.684 1.354-.298 2.401-1.112 2.921-2.497.258-.692.819-.95 1.537-.702.733.257 1.44.591 2.183.828 1.319.42 2.608.329 3.659-.631.966-.88 1.107-2.067.819-3.291-.298-1.263-1.365-1.819-2.547-1.329-.506.213-.95.571-1.441.834-.909.495-1.789 1.072-2.754 1.425-1.85.678-2.841.036-3.073-1.92-.142-1.198-.677-2.098-1.729-2.689-.288-.162-.616-.323-.813-.571-.258-.329-.627-.829-.531-1.112.116-.354.637-.728 1.031-.799 1.324-.227 2.128-.96 2.562-2.183.359-1.006 1.077-1.617 2.017-2.113.733-.389 1.496-.899 1.971-1.556 1.082-1.486 2.426-1.961 4.175-1.623 1.37.263 2.689-.01 3.856-.732 2.371-1.466 4.898-2.442 7.652-2.897 1.486-.247 1.901-.894 1.86-2.42-.01-.299-.05-.592-.05-.89 0-1.274.404-1.83 1.657-2.108.946-.212 1.623-.687 1.987-1.592.318-.788.93-1.117 1.753-1.107.89.01 1.785.071 2.674.02 2.669-.146 4.246-2.521 3.376-5.043-.252-.738-.662-1.446-.758-2.199-.081-.601.015-1.39.354-1.86 1.188-1.647 1.238-1.607-.394-3.017.323-.217.54-.41.793-.53 1.799-.88 2.179-1.734 1.542-3.645v-.02h.005Zm-1.82 5.721c-.111.172-.192.384-.348.52-1.057.936-1.208 2.083-.804 3.352.192.601.455 1.177.672 1.769.799 2.178-.49 4.099-2.815 4.18-.854.03-1.708-.026-2.562-.026-1.062 0-1.876.435-2.315 1.43-.324.744-.844 1.138-1.658 1.31-1.405.288-2.062 1.162-2.098 2.602-.01.445.031.89.051 1.335.03.778-.308 1.314-1.097 1.43-3.032.43-5.741 1.653-8.395 3.134-.839.47-2.021.596-2.997.475-2.087-.253-3.704.232-4.948 2.006-.379.546-1.026.966-1.637 1.269-1.122.556-1.971 1.299-2.391 2.497-.349.995-1.021 1.521-2.082 1.774-.592.141-1.395.697-1.511 1.197-.132.582.313 1.355.657 1.956.202.349.687.541 1.071.769.794.465 1.198 1.127 1.329 2.057.349 2.512 1.759 3.381 4.165 2.476 1.097-.414 2.077-1.122 3.113-1.693.753-.414 1.491-1.198 2.33-.172.597.733.405 2.28-.359 2.967-.894.799-1.93.879-3.022.521-.703-.233-1.38-.561-2.092-.754-1.269-.348-1.911-.101-2.472 1.057-.566 1.177-1.481 1.89-2.689 2.138-1.9.394-3.351 1.46-4.801 2.658-.703.581-1.668 1.001-2.573 1.147-1.511.243-2.294-.722-2.026-2.223.02-.112.055-.218.086-.324.884-3.229-.081-5.201-3.265-6.515-1.001-.414-2.058-.707-3.089-1.056l-.015-.354c.556-.237 1.107-.48 1.663-.712 1.435-.607 2.871-1.198 4.296-1.825.334-.146.753-.333.9-.622.333-.647.798-1.425.682-2.047-.086-.459-.991-1.036-1.567-1.081-1.617-.137-3.27-.157-4.882.01-2.315.243-4.038-.536-5.362-2.421-.359-.51-.956-.849-1.39-1.445.642.202 1.273.5 1.93.576.475.055 1.289-.061 1.405-.334.187-.434.117-1.304-.192-1.562-.687-.566-1.556-1.026-2.426-1.243-2.057-.52-4.124-.359-6.146.329-1.708.581-2.87 1.657-3.254 3.477-.056.253-.162.5-.198.753-.328 2.335-1.506 3.77-3.911 4.387-2.482.637-3.018 1.926-2.28 4.387.061.202.111.409.217.793-.363-.217-.601-.308-.768-.47-.854-.828-1.855-.859-2.906-.53-.566.177-1.137.374-1.653.662-1.758.98-3.265.384-4.857-.718 1.603-2.001 3.109-4.008 4.766-5.883.855-.97.935-1.865.43-2.941-.111-.238-.283-.481-.283-.718 0-.344.025-.778.227-1.011.127-.146.622-.061.91.041.94.333 1.835.828 2.795 1.071 1.193.298 2.568.531 3.386-.647.748-1.071-.025-2.128-.576-3.093-1.248-2.189-2.603-4.326-3.75-6.565-.541-1.062-.915-2.3-.996-3.483-.151-2.234-1.203-3.477-3.29-4.22a37.947 37.947 0 0 1-5.847-2.684c-3.523-1.986-8.461-1.4-11.564 1.552-.486.46-.95.94-1.42 1.42-1.037 1.056-2.295 1.537-3.746 1.249-1.273-.253-2.219.11-3.058 1.081-.93 1.077-1.354 1.132-2.395.116-1.547-1.506-3.225-1.814-5.2-1.046-1.022.394-2.058.334-2.963-.369-1.385-1.076-2.966-1.319-4.64-1.056-2.168.344-3.633-.758-4.573-2.472-1.026-1.88-.374-3.962.869-5.276 1.744-1.845 2.36-3.619 2.264-6.161-.177-4.584 2.906-7.404 6.348-9.84.03-.02.06-.041.096-.061 3.144-1.572 3.285-2.537 2.472-5.964-.329-1.38-1.006-2.694-1.653-3.973-.677-1.339-1.274-2.653-.95-4.265.333.045.581.07.829.12 1.946.39 2.173.168 3.24-1.455.505-.763 1.42-1.45 2.289-1.743 3.326-1.112 6.767-1.087 10.113-.192 3.356.9 6.652 2.036 9.917 3.23 1.582.575 3.073.651 4.68.318.525-.112 1.157 0 1.668.192 1.273.49 2.436 1.05 3.679-.218.253-.257 1.46-.015 1.855.374 1.405 1.38 2.967 1.567 4.726 1.021 1.157-.359 2.062.02 2.992.708.48.354 1.374.738 1.723.52.465-.283.844-1.162.799-1.748-.218-2.836.793-5.034 3.366-6.202 1.344-.611 2.931-.915 4.412-.945 2.542-.05 4.897-.697 7.253-1.531a26.815 26.815 0 0 1 3.967-1.057c1.986-.374 3.573.374 4.695 2.052.43.647.748 1.375 1.198 2.002.774 1.071 1.153 1.875.202 3.285-1.637 2.431.511 6.07 3.392 5.822 4.245-.358 5.155 2.032 4.65 5.191-.112.682-.046 1.415.07 2.102.248 1.476 1.173 2.179 2.618 1.83 1.314-.313 2.507-.096 3.695.354 2.163.819 4.21.894 6.287-.39 1.456-.899 2.411-.409 2.987 1.224.248.697.415 1.435.743 2.087.577 1.153 1.522 1.537 2.684 1.031 1.264-.55 2.456-.404 3.669.076 2.002.788 4.008 1.562 5.995 2.386 1.784.738 3.421 1.698 4.205 3.588.738 1.774.465 2.669-1.102 3.184-1.491.49-1.42 1.304.121 2.694l.01.015Z" fill="#000"/><path d="M131.606 130.882h-.177c-.885-.03-1.592-.313-2.047-.823-.46-.516-.662-1.259-.586-2.148.025-.309.106-.617.187-.905.677-2.401.313-3.366-1.749-4.695-.551-.354-1.203-.602-1.83-.845a20.403 20.403 0 0 1-.768-.303c-.172-.071-.349-.126-.531-.187-.318-.101-.647-.207-.94-.389-.429-.268-.662-.632-.662-1.021 0-.389.238-.753.667-1.021.359-.227.763-.379 1.153-.525.202-.076.404-.152.601-.238.379-.167.763-.334 1.142-.495 1.062-.455 2.158-.925 3.179-1.476.268-.142.45-.49.647-.859.061-.112.122-.228.187-.334a3.397 3.397 0 0 1-.283-.182c-.323-.207-.626-.404-.915-.419-1.647-.066-3.128-.036-4.528.106-2.274.222-4.144-.597-5.716-2.517-.187-.228-.425-.42-.678-.622a5.892 5.892 0 0 1-.596-.525c-.207-.213-.359-.465-.51-.708-.066-.106-.127-.207-.198-.308l-.116-.172.172-.116c.111-.071.222-.167.334-.258.288-.243.591-.485.909-.46.612.055 1.208.237 1.785.414.197.061.394.122.591.177l.035-.03c-.035-.056-.071-.116-.111-.177-.136-.227-.268-.44-.445-.561-2.042-1.43-7.055-1.046-8.794.672-.435.425-.708 1.067-.925 1.638-.207.551-.349 1.142-.485 1.713l-.182.738c-.43 1.632-1.471 2.709-3.093 3.189-.177.051-.354.106-.526.162-2.527.839-2.684 1.117-2.092 3.7.086.374-.015.763-.111 1.142a5.856 5.856 0 0 0-.107.48l-.04.243-.232-.076c-.137-.046-.283-.081-.43-.117-.359-.085-.728-.171-.981-.414-.798-.783-1.652-.89-2.845-.364a9.982 9.982 0 0 1-.42.177c-.262.106-.54.222-.788.354-1.981 1.056-3.725.258-5.307-.758-.374-.243-.581-.511-.627-.819-.05-.329.081-.672.405-1.051a192.485 192.485 0 0 0 4.76-5.873c.178-.228.274-.657.269-1.178 0-.121-.081-.268-.162-.419-.101-.192-.207-.39-.212-.612 0-.111-.005-.222-.01-.339-.02-.652-.051-1.395.313-1.829.404-.48 1.713-.207 2.108-.111.515.126 1.015.313 1.506.495.667.248 1.293.485 1.951.571.717.101 1.223-.01 1.425-.303.212-.309.121-.849-.253-1.532a130.81 130.81 0 0 0-1.658-2.87c-.834-1.421-1.698-2.886-2.461-4.377a11.076 11.076 0 0 1-1.117-3.867c-.167-1.718-.885-2.668-2.472-3.285-1.773-.687-3.517-1.536-5.2-2.36-.455-.223-.915-.445-1.37-.667-3.032-1.456-6.03-1.153-9.163.92-.642.424-1.193 1.005-1.602 1.465-1.608 1.81-3.493 2.507-5.757 2.133-.42-.066-1.076.268-1.445.627-1.658 1.597-2.457 1.83-4.226.182-1.137-1.062-2.335-1.284-3.871-.733-1.516.546-2.765.43-3.811-.359-1.213-.91-2.608-1.223-4.382-.98-1.486.202-2.755-.182-3.765-1.143-1.259-1.197-1.966-2.76-1.987-4.387-.02-1.582.622-3.113 1.81-4.306 1.319-1.33 1.789-2.557 1.668-4.392-.253-3.871 1.496-7.202 5.342-10.184.803-.627 1.653-1.163 2.603-1.749 1.314-.813 1.536-1.294 1.319-2.83-.253-1.79-.85-3.528-1.875-5.474-.627-1.187-.85-2.593-1.067-3.952l-.02-.126c-.076-.47.056-.885.354-1.138.318-.267.778-.318 1.274-.146 1.36.47 2.097.131 2.825-1.3.414-.813 1.496-1.43 2.365-1.733 3.382-1.177 6.97-1.288 10.665-.328 3.563.925 7.025 2.143 10.26 3.305 1.268.455 2.511.551 4.033.314.722-.112 1.577-.02 2.405.257.112.04.223.081.334.117.85.308 1.521.546 2.25-.293.232-.268.626-.425 1.106-.435.738-.026 1.486.293 1.95.783 1.077 1.137 2.295 1.42 3.958.915 1.385-.42 2.664-.111 3.801.915.142.126.349.202.571.283.046.015.091.035.137.05l.075-.156c.112-.233.218-.45.243-.668.04-.348.04-.717.04-1.076 0-.566.011-1.157.152-1.708.773-2.982 3.401-5.014 6.692-5.18 3.684-.193 6.924-.855 9.906-2.027 1.152-.455 2.426-.632 3.518-.748 2.052-.213 3.714.535 4.821 2.173.708 1.046 1.37 2.153 2.007 3.22l.283.48c.47.783.389 1.551-.238 2.284-1.071 1.258-.697 2.598-.136 3.856.5 1.117 1.445 1.294 2.714 1.218.369-.025.743-.02 1.107-.02 2.471.01 4.139 1.663 4.174 4.104.005.485-.02.98-.045 1.456-.03.616-.066 1.253-.025 1.87.05.788.197 1.243.485 1.47.293.238.793.278 1.673.137.652-.106 1.395-.081 2.153.07.611.122 1.218.314 1.804.501.329.106.657.207.991.303 1.324.37 2.461.238 3.482-.394a7.13 7.13 0 0 1 1.345-.642c1.551-.55 2.805-.005 3.441 1.486.157.369.273.758.39 1.132.111.359.222.728.363 1.077.425 1.01.93 1.228 1.926.819 1.198-.49 2.492-.455 3.952.1a210.1 210.1 0 0 1 6.51 2.604c2.436 1.015 3.877 2.41 4.539 4.392.662 1.986.247 2.971-1.648 3.896a3.493 3.493 0 0 0-.465.303c-.025.02-.055.04-.086.061 1.461 1.279 1.436 1.45.329 2.982l-.101.142c-.314.44-.384 1.192-.314 1.713.061.475.253.935.46 1.42.101.248.207.49.293.743.44 1.269.294 2.578-.389 3.599-.682 1.016-1.839 1.642-3.169 1.713-.616.035-1.243.015-1.844 0a47.87 47.87 0 0 0-.845-.02h-.035c-.763 0-1.263.318-1.531.98-.369.92-1.067 1.481-2.133 1.719-1.132.253-1.496.718-1.496 1.905 0 .157.015.319.025.475.01.137.02.273.025.41.046 1.688-.485 2.375-2.031 2.633-2.704.445-5.181 1.385-7.577 2.871-1.233.763-2.618 1.031-4.002.763-1.704-.329-2.967.162-3.968 1.541-.419.582-1.107 1.127-2.042 1.618-1.026.546-1.617 1.157-1.915 2.001-.475 1.324-1.365 2.082-2.725 2.315-.333.055-.783.394-.869.662-.045.126.121.44.495.92.147.187.395.323.637.46l.111.06c1.082.607 1.678 1.537 1.835 2.841.111.92.394 1.531.849 1.809.445.273 1.102.258 1.951-.055.682-.253 1.344-.627 1.981-.996.248-.142.496-.283.748-.42.187-.101.369-.217.546-.333.288-.182.586-.374.91-.511.622-.257 1.248-.257 1.764.006.525.267.899.788 1.061 1.465.349 1.466.051 2.638-.879 3.493-1.026.935-2.325 1.162-3.862.677-.419-.132-.828-.298-1.228-.46-.318-.126-.637-.258-.955-.369-.612-.212-1.051-.01-1.274.581-.52 1.395-1.582 2.3-3.068 2.628-1.677.369-3.168 1.203-4.69 2.634a4.719 4.719 0 0 1-3.325 1.314v-.031h.005Zm-4.296-17.31c.515 0 1.046.01 1.597.035.399.015.768.253 1.122.485.146.096.293.193.445.268l.207.106-.132.193a5.572 5.572 0 0 0-.283.49c-.217.404-.439.824-.813 1.026-1.042.561-2.143 1.036-3.215 1.496a77.9 77.9 0 0 0-1.137.495c-.202.091-.414.167-.622.248-.389.146-.753.283-1.081.49-.304.192-.475.43-.475.672 0 .243.166.48.47.672.247.157.535.248.844.344.192.061.379.121.566.197.247.106.5.202.753.298.647.248 1.314.501 1.905.88 2.214 1.425 2.649 2.582 1.921 5.155a4.555 4.555 0 0 0-.177.829c-.066.788.096 1.41.485 1.845.384.429.976.662 1.754.687 1.238.03 2.32-.364 3.209-1.198 1.577-1.481 3.129-2.35 4.883-2.734 1.344-.293 2.304-1.112 2.774-2.37.299-.804.971-1.112 1.795-.824.328.116.652.242.975.374.389.156.794.323 1.198.45 1.385.439 2.547.242 3.457-.587.814-.743 1.066-1.779.758-3.093-.131-.556-.435-.98-.849-1.193-.404-.207-.91-.202-1.42.01-.293.122-.561.294-.849.476a9.381 9.381 0 0 1-.572.348c-.247.137-.495.273-.737.415-.652.374-1.33.758-2.042 1.021-.986.359-1.739.369-2.305.02-.571-.354-.915-1.041-1.041-2.108-.142-1.182-.657-1.986-1.628-2.532l-.106-.06c-.268-.147-.571-.314-.763-.567-.339-.434-.687-.93-.561-1.304.152-.444.753-.859 1.193-.935 1.218-.207 1.981-.859 2.406-2.046.333-.946.985-1.628 2.112-2.224.875-.465 1.517-.966 1.901-1.496 1.107-1.527 2.501-2.067 4.382-1.704 1.299.248 2.547.011 3.709-.707 2.441-1.511 4.974-2.472 7.728-2.927 1.334-.222 1.729-.737 1.688-2.213 0-.132-.015-.258-.025-.389a5.713 5.713 0 0 1-.025-.506c0-1.39.49-2.011 1.814-2.31.935-.207 1.521-.677 1.84-1.47.333-.834 1.006-1.249 1.951-1.239.283 0 .566.01.849.02.596.016 1.213.036 1.809 0 1.203-.065 2.239-.626 2.851-1.53.611-.916.738-2.093.343-3.235a8.886 8.886 0 0 0-.283-.718c-.202-.49-.414-.996-.485-1.521-.076-.572-.02-1.44.389-2.007l.101-.141c.652-.905.501-1.77-.465-2.603l-.202-.177.223-.152c.106-.07.202-.141.293-.207.187-.132.344-.248.525-.339 1.714-.839 2.037-1.597 1.436-3.396-.622-1.855-1.986-3.174-4.306-4.14a232.26 232.26 0 0 0-6.5-2.597c-1.375-.526-2.532-.556-3.649-.101-1.193.485-1.951.166-2.461-1.041a11.469 11.469 0 0 1-.379-1.117c-.112-.364-.228-.743-.374-1.092-.546-1.289-1.587-1.739-2.927-1.264a6.608 6.608 0 0 0-1.263.602c-1.122.697-2.371.844-3.811.444a32.833 32.833 0 0 1-1.006-.303c-.576-.182-1.167-.369-1.759-.485-.707-.141-1.405-.167-2.011-.07-1.016.161-1.592.1-1.997-.223-.389-.308-.576-.84-.637-1.764-.04-.642-.005-1.289.026-1.915.025-.47.05-.956.045-1.43-.03-2.204-1.536-3.69-3.745-3.7-.379 0-.743 0-1.102.02-1.182.07-2.481-.04-3.113-1.46-.586-1.32-1.026-2.857.197-4.292.516-.601.576-1.178.197-1.81l-.288-.48c-.637-1.06-1.289-2.163-1.991-3.199-1.016-1.5-2.548-2.188-4.438-1.996-1.066.111-2.299.283-3.411.723-3.023 1.187-6.303 1.86-10.033 2.052-3.108.161-5.585 2.072-6.313 4.877-.131.505-.136 1.041-.136 1.607 0 .37 0 .748-.045 1.117-.031.288-.157.551-.284.804-.05.106-.101.212-.146.318l-.081.197-.197-.09a2.7 2.7 0 0 0-.303-.117c-.248-.091-.506-.187-.708-.369-1.036-.94-2.148-1.208-3.406-.829-1.8.546-3.195.223-4.377-1.026a2.213 2.213 0 0 0-1.643-.652c-.359.01-.652.116-.803.293-.91 1.052-1.82.728-2.7.41-.105-.04-.217-.076-.323-.116-.758-.258-1.562-.344-2.209-.243-1.592.253-2.9.151-4.235-.329-3.23-1.162-6.676-2.37-10.225-3.295-3.613-.94-7.12-.834-10.421.319-.758.267-1.774.823-2.138 1.53-.814 1.603-1.78 2.038-3.326 1.502-.353-.126-.672-.096-.874.076-.187.156-.263.424-.212.758l.02.126c.212 1.324.425 2.694 1.02 3.826 1.047 1.986 1.659 3.766 1.916 5.605.243 1.698-.055 2.335-1.51 3.235-.936.581-1.775 1.112-2.568 1.723-3.735 2.896-5.429 6.11-5.186 9.836.127 1.94-.389 3.305-1.789 4.705-1.107 1.117-1.708 2.537-1.688 4.013.02 1.516.682 2.972 1.86 4.094.93.885 2.052 1.223 3.427 1.036 1.885-.258 3.38.076 4.685 1.056.93.698 2.047.794 3.426.299 1.704-.612 3.028-.36 4.291.818 1.502 1.4 2.047 1.375 3.66-.176.444-.425 1.218-.83 1.794-.733 2.143.353 3.851-.283 5.383-2.002.424-.48 1-1.086 1.682-1.536 3.265-2.163 6.394-2.472 9.568-.95.46.222.915.444 1.37.667 1.678.819 3.411 1.663 5.17 2.345 1.734.672 2.547 1.759 2.734 3.629a10.66 10.66 0 0 0 1.072 3.72c.758 1.48 1.617 2.941 2.451 4.356.551.94 1.127 1.911 1.663 2.881.586 1.051.45 1.648.238 1.961-.208.303-.693.637-1.825.48-.703-.096-1.38-.348-2.037-.596-.475-.177-.97-.364-1.456-.48-.798-.192-1.541-.207-1.693-.025-.262.313-.237.97-.217 1.551 0 .121.01.238.01.349 0 .121.081.268.162.419.101.192.207.384.212.607.005.44-.05 1.046-.354 1.44a208.556 208.556 0 0 1-4.77 5.888c-.238.283-.344.526-.314.728.03.187.172.364.445.536 1.713 1.102 3.199 1.648 4.892.743.268-.142.551-.258.829-.374.136-.056.273-.111.41-.172.838-.369 2.097-.728 3.3.445.172.167.47.237.783.308l.243.061c.01-.056.025-.111.04-.167l-.359-.217a6.058 6.058 0 0 0-.333-.187c-.192-.106-.344-.187-.47-.314-.708-.682-1.567-.839-2.704-.485-.506.157-1.097.359-1.612.647-1.962 1.092-3.6.293-5.075-.733l-.182-.126.137-.172c.47-.586.935-1.178 1.395-1.764 1.081-1.375 2.203-2.8 3.376-4.129.773-.88.89-1.663.399-2.714-.025-.056-.056-.111-.086-.172-.101-.192-.212-.404-.217-.632 0-.354.02-.854.278-1.147.278-.319 1.096-.03 1.132-.02.369.131.738.288 1.092.444.545.238 1.111.481 1.683.622 1.197.298 2.426.5 3.169-.561.596-.854.08-1.734-.415-2.578l-.172-.293c-.419-.738-.854-1.47-1.289-2.203-.839-1.415-1.703-2.881-2.466-4.372-.576-1.127-.94-2.396-1.02-3.558-.142-2.093-1.088-3.306-3.155-4.044a37.782 37.782 0 0 1-5.878-2.698c-3.477-1.962-8.344-1.305-11.321 1.52-.42.4-.824.814-1.228 1.229l-.182.187c-1.137 1.157-2.462 1.602-3.932 1.304-1.173-.233-2.052.08-2.86 1.016-.476.55-.86.894-1.315.915-.44.02-.88-.299-1.38-.784-1.465-1.43-3.052-1.754-4.983-1-1.157.444-2.25.308-3.159-.4-1.238-.96-2.704-1.294-4.483-1.01-2.032.318-3.69-.572-4.786-2.578-1.168-2.133-.243-4.306.9-5.52 1.687-1.783 2.304-3.472 2.208-6.014-.177-4.68 2.987-7.576 6.434-10.017.035-.025.076-.056.121-.076 3.043-1.521 3.16-2.385 2.366-5.731-.314-1.32-.96-2.593-1.587-3.831l-.05-.096c-.729-1.43-1.3-2.75-.971-4.403l.04-.192.5.066c.192.025.364.046.531.08 1.83.365 1.981.228 3.033-1.364.525-.798 1.465-1.516 2.395-1.824 3.235-1.082 6.677-1.148 10.23-.197 3.563.955 7.02 2.168 9.936 3.234 1.501.551 2.952.647 4.57.314.51-.106 1.177-.03 1.783.202l.218.086c1.162.455 2.168.844 3.245-.253.379-.39 1.733-.03 2.148.374 1.258 1.233 2.693 1.541 4.518.97 1.349-.42 2.36.137 3.179.738.516.38 1.284.642 1.496.51.389-.237.743-1.025.703-1.556-.238-3.093.935-5.246 3.487-6.403 1.294-.587 2.891-.93 4.493-.96 2.709-.056 5.15-.8 7.187-1.522a26.585 26.585 0 0 1 3.998-1.066c2.022-.385 3.715.358 4.902 2.142.203.304.379.622.551.93.203.36.405.733.647 1.067.753 1.051 1.249 1.976.207 3.517-.712 1.057-.707 2.472.011 3.7.717 1.218 1.935 1.906 3.194 1.805 1.875-.157 3.25.212 4.073 1.096.845.91 1.112 2.37.799 4.332-.091.56-.071 1.208.071 2.037.116.702.399 1.218.819 1.495.399.263.919.324 1.551.172 1.213-.293 2.386-.177 3.816.364 2.325.885 4.266.763 6.105-.369.728-.45 1.37-.58 1.916-.389.591.207 1.041.768 1.375 1.719.081.232.156.465.227.702.142.46.293.94.506 1.365.535 1.066 1.369 1.39 2.415.93 1.178-.516 2.396-.49 3.826.075l1.572.617a308.08 308.08 0 0 1 4.423 1.764c1.663.687 3.472 1.663 4.316 3.7.44 1.061.521 1.789.263 2.355-.223.49-.698.844-1.486 1.102-.561.187-.869.409-.925.672-.076.369.298.93 1.117 1.668l.131.116-.096.147c-.03.05-.06.1-.091.156a1.461 1.461 0 0 1-.293.404c-.915.81-1.157 1.835-.743 3.134.111.354.258.708.394 1.051.096.233.187.47.273.708.405 1.102.309 2.219-.257 3.063-.566.844-1.567 1.354-2.74 1.395-.525.02-1.056.005-1.567-.005-.333-.01-.682 0-1-.016-1.046 0-1.739.43-2.123 1.31-.344.788-.92 1.243-1.804 1.425-1.289.263-1.901 1.03-1.931 2.406-.005.288.01.586.025.879.01.147.015.298.02.445.036.935-.414 1.516-1.273 1.642-3.28.465-6.171 1.906-8.324 3.109-.956.535-2.239.606-3.124.5-2.178-.268-3.639.329-4.756 1.921-.344.495-.925.945-1.718 1.339-1.218.606-1.926 1.339-2.29 2.38-.359 1.026-1.066 1.628-2.234 1.906-.53.126-1.263.632-1.354 1.046-.116.506.318 1.259.637 1.804.126.218.429.385.722.541.091.051.187.101.273.152.834.49 1.289 1.193 1.431 2.203.166 1.193.576 1.992 1.218 2.376.647.384 1.541.359 2.668-.066.733-.273 1.431-.697 2.108-1.107.323-.197.647-.389.975-.571.122-.065.243-.146.364-.222.627-.399 1.41-.895 2.224.101.667.814.47 2.482-.384 3.25-.88.788-1.961.975-3.225.561-.303-.101-.596-.218-.894-.334-.389-.151-.789-.308-1.188-.419-1.203-.329-1.723-.106-2.234.95-.591 1.228-1.546 1.986-2.83 2.249-1.906.394-3.371 1.506-4.716 2.613-.717.591-1.713 1.036-2.673 1.193-.764.126-1.39-.036-1.81-.46-.445-.45-.601-1.163-.455-2.002.016-.086.041-.166.066-.247l.025-.091c.86-3.129-.086-5.004-3.148-6.267-.678-.278-1.4-.511-2.093-.733a228.77 228.77 0 0 1-.98-.319l-.132-.045-.03-.632.606-.263c.395-.172.789-.338 1.188-.51l1.264-.531c1.011-.424 2.026-.849 3.032-1.289.273-.121.682-.298.799-.525l.116-.228c.298-.566.637-1.208.546-1.688-.066-.344-.869-.874-1.385-.92-1.739-.146-3.366-.146-4.847.01-2.375.248-4.195-.571-5.554-2.506-.162-.228-.385-.43-.617-.642-.263-.238-.536-.48-.768-.804l-.197-.268c-.036.03-.071.061-.107.086-.07.056-.136.116-.207.167.031.05.066.106.096.157.147.237.283.459.46.641.167.172.359.329.561.491.258.207.521.419.738.682 1.496 1.83 3.199 2.583 5.358 2.37a29.6 29.6 0 0 1 2.987-.141h.01Zm-3.634 6.04c.278.091.561.182.844.273.702.222 1.43.454 2.122.742 3.255 1.345 4.302 3.427 3.387 6.758l-.031.101c-.02.066-.04.136-.05.202-.126.708-.005 1.294.339 1.643.318.328.818.444 1.45.343a5.394 5.394 0 0 0 2.477-1.101c1.379-1.143 2.896-2.29 4.892-2.699 1.152-.238 2.007-.92 2.542-2.027.592-1.228 1.329-1.547 2.709-1.168.42.117.834.278 1.228.435.289.111.577.228.87.324 1.127.369 2.047.212 2.82-.481.682-.611.864-2.041.339-2.678-.561-.683-.986-.46-1.688-.015-.127.08-.258.161-.385.232-.323.177-.641.374-.96.566-.692.42-1.41.854-2.178 1.142-1.254.47-2.27.481-3.023.031-.758-.45-1.233-1.35-1.415-2.674-.121-.889-.5-1.481-1.228-1.905-.081-.051-.172-.096-.258-.142-.343-.187-.702-.379-.884-.697-.369-.642-.834-1.441-.682-2.103.141-.627 1.066-1.208 1.662-1.354 1.031-.243 1.628-.748 1.936-1.643.394-1.137 1.188-1.966 2.497-2.618.733-.364 1.258-.768 1.562-1.203 1.192-1.708 2.825-2.375 5.14-2.092 1.046.126 2.143-.046 2.87-.45 2.184-1.218 5.12-2.679 8.466-3.159.637-.091.95-.5.92-1.218-.005-.147-.015-.293-.02-.44-.015-.298-.036-.601-.031-.91.036-1.556.794-2.501 2.26-2.8.763-.156 1.213-.51 1.511-1.187.45-1.031 1.294-1.552 2.502-1.552.358.01.677.01 1.01.015.506.01 1.031.026 1.542.005 1.056-.035 1.91-.47 2.411-1.213.5-.743.576-1.703.217-2.694a20.084 20.084 0 0 0-.273-.697 17.201 17.201 0 0 1-.404-1.082c-.465-1.45-.177-2.653.859-3.568.081-.07.142-.182.207-.298l.015-.03c-.884-.824-1.233-1.426-1.122-1.946.091-.42.481-.743 1.198-.98.672-.223 1.067-.506 1.244-.885.207-.45.121-1.097-.268-2.027-.789-1.9-2.512-2.825-4.094-3.477-1.466-.607-2.967-1.193-4.417-1.764l-1.577-.622c-1.345-.53-2.426-.556-3.513-.08-1.243.54-2.32.13-2.952-1.128-.227-.455-.379-.95-.53-1.425a15.75 15.75 0 0 0-.223-.687c-.288-.814-.662-1.304-1.122-1.466-.419-.147-.945-.03-1.561.354-1.956 1.208-4.013 1.34-6.465.404-1.349-.51-2.451-.617-3.578-.349-.743.177-1.375.102-1.875-.227-.516-.344-.859-.955-.996-1.769-.146-.87-.167-1.562-.071-2.168.294-1.835.061-3.174-.692-3.988-.733-.788-1.986-1.117-3.735-.965-1.41.121-2.79-.647-3.583-2.007-.799-1.364-.799-2.946 0-4.134.899-1.334.525-2.042-.203-3.048-.252-.354-.465-.738-.672-1.107-.167-.303-.338-.616-.53-.904-1.102-1.653-2.613-2.315-4.489-1.966a25.957 25.957 0 0 0-3.937 1.05c-2.067.734-4.548 1.487-7.318 1.547-1.552.03-3.088.36-4.332.925-2.375 1.077-3.467 3.099-3.244 6 .05.682-.384 1.622-.9 1.935-.505.309-1.557-.237-1.956-.53-1.051-.773-1.865-.97-2.81-.678-1.956.612-3.568.263-4.928-1.066-.374-.369-1.425-.505-1.567-.379-1.263 1.294-2.496.814-3.684.344l-.212-.081c-.536-.207-1.112-.273-1.552-.182-1.693.354-3.214.248-4.791-.329-2.907-1.061-6.353-2.274-9.901-3.224-3.478-.93-6.839-.864-9.992.192-.834.278-1.714.95-2.184 1.663-1.122 1.698-1.45 1.94-3.452 1.541-.157-.03-.318-.05-.505-.076l-.116-.015c-.223 1.436.308 2.639.97 3.942l.05.096c.637 1.254 1.294 2.553 1.618 3.922.829 3.498.682 4.564-2.583 6.197a.466.466 0 0 0-.066.04c-3.35 2.37-6.434 5.18-6.262 9.664.101 2.633-.57 4.458-2.32 6.313-1.05 1.111-1.9 3.098-.839 5.038 1.021 1.87 2.492 2.664 4.362 2.37 1.9-.297 3.467.061 4.802 1.098.788.616 1.743.733 2.76.338 2.071-.798 3.84-.444 5.417 1.092.5.485.804.672 1.072.667.262-.01.556-.237 1.02-.773.905-1.046 1.936-1.41 3.255-1.153 1.33.263 2.528-.136 3.559-1.192l.182-.187c.409-.42.818-.834 1.243-1.239 3.103-2.946 8.178-3.629 11.806-1.581a37.615 37.615 0 0 0 5.813 2.668c2.213.788 3.27 2.148 3.426 4.402.076 1.112.425 2.32.976 3.402.758 1.481 1.617 2.936 2.456 4.346.435.733.87 1.471 1.294 2.209l.167.288c.536.915 1.147 1.951.399 3.022-.97 1.385-2.684.956-3.609.728-.601-.151-1.182-.399-1.748-.642a19.79 19.79 0 0 0-1.067-.434c-.298-.106-.626-.127-.697-.086-.111.131-.172.424-.167.864 0 .131.086.293.167.445.035.06.066.126.096.187.56 1.193.414 2.168-.46 3.164-1.162 1.319-2.234 2.673-3.361 4.114-.415.53-.834 1.061-1.259 1.592 1.507 1.011 2.856 1.476 4.458.586.551-.303 1.163-.515 1.688-.677 1.279-.399 2.295-.207 3.109.581.07.071.171.126.298.197-.031-.121-.061-.217-.086-.313-.42-1.4-.415-2.396 0-3.139.399-.707 1.172-1.188 2.421-1.511 2.269-.581 3.427-1.885 3.755-4.22.02-.162.071-.314.116-.46.031-.101.061-.202.086-.308.379-1.795 1.486-2.982 3.392-3.629 2.148-.728 4.255-.839 6.262-.329a6.577 6.577 0 0 1 2.506 1.284c.39.323.476 1.289.253 1.804-.182.425-1.157.506-1.617.455-.41-.045-.804-.172-1.188-.313l.162.146c.253.228.49.44.682.708 1.284 1.829 2.932 2.567 5.176 2.335 1.506-.157 3.164-.162 4.922-.01.657.055 1.648.682 1.754 1.248.121.622-.253 1.334-.581 1.956l-.116.222c-.182.359-.657.567-1.001.718-1.006.44-2.022.87-3.038 1.294l-1.263.531c-.394.167-.789.338-1.183.505l-.343.152v.065l.015.011Zm-7.642-13.01c-1.183 0-2.391.207-3.609.622-1.754.596-2.775 1.683-3.118 3.325-.026.117-.061.228-.096.344-.041.137-.081.268-.101.394-.354 2.492-1.643 3.938-4.064 4.559-1.137.293-1.824.708-2.168 1.314-.359.637-.349 1.537.03 2.821.041.131.076.267.127.449l.181.662c.086-.343.167-.667.107-.94-.642-2.805-.374-3.275 2.365-4.184.177-.061.359-.112.536-.167 1.496-.445 2.416-1.39 2.81-2.896.066-.243.121-.485.182-.728.141-.581.288-1.188.5-1.759.228-.611.531-1.304 1.021-1.789 1.885-1.86 7.116-2.259 9.32-.718.243.172.404.43.556.683.066.106.126.212.202.308l.116.157-.495.409-.101-.025c-.238-.061-.47-.137-.708-.208-.556-.171-1.132-.343-1.703-.399-.091-.01-.212.056-.339.152l.258.081c.192.06.389.131.581.202.45.162.87.318 1.309.364.506.055 1.133-.096 1.193-.213.162-.374.081-1.142-.136-1.324a6.19 6.19 0 0 0-2.345-1.203 9.753 9.753 0 0 0-2.421-.298h.01v.005Z" fill="#000"/><path d="m108.731 73.917-.748-1.5s-1.365-2.588-3.816-2.452c-2.452.136-3.543 2.451-3.543 2.451l-3.407 1.092 3.68.819s1.769.682 1.703 2.588c-.066 1.905-2.249 4.705-1.294 7.394.955 2.689 10.22 3.37 15.804 6.368 5.585 2.997 8.719 11.306 8.719 11.306s-4.498-4.635-10.356-5.312c-5.858-.682-9.401-5.863-9.401-10.7 0-4.836.137-9.602 5.449-13.691 5.311-4.089 15.94-9.264 16.35-13.626 0 0 5.175 15.395-5.176 21.662 0 0-5.099 3.962-13.353 2.997l-2.249-.41" fill="#fff"/><path d="M125.829 102.706a.736.736 0 0 1-.521-.218c-.045-.045-4.397-4.457-9.921-5.1-5.635-.656-9.239-5.266-9.921-9.845-2.527-.788-4.362-1.627-4.847-2.992-.693-1.956.04-3.917.637-5.494.308-.819.596-1.587.616-2.168.046-1.228-.975-1.769-1.203-1.87l-3.613-.804a.726.726 0 0 1-.566-.672.73.73 0 0 1 .5-.723l3.133-1c.42-.708 1.684-2.446 3.998-2.573 2.876-.162 4.433 2.714 4.493 2.835l.627 1.254a16.816 16.816 0 0 1 1.835-1.627c1.557-1.198 3.518-2.457 5.59-3.791 4.791-3.083 10.219-6.57 10.477-9.325a.725.725 0 0 1 .637-.652.728.728 0 0 1 .768.49c.056.157 5.226 15.987-5.453 22.491-.516.39-5.661 4.084-13.844 3.119l-2.294-.415a.658.658 0 0 1-.142-.04c-.03.798-.03 1.597-.03 2.39 0 .152 0 .309.01.46.677.197 1.38.39 2.077.587 2.841.783 6.06 1.672 8.567 3.022 5.762 3.088 8.926 11.341 9.057 11.69a.721.721 0 0 1-.677.976h.01v-.005Zm-18.807-14.713c.824 3.776 3.887 7.41 8.537 7.95 3.386.394 6.302 2.017 8.248 3.407-1.385-2.608-3.795-6.303-7.035-8.041-2.365-1.27-5.504-2.138-8.269-2.902-.505-.141-1-.278-1.476-.409h-.005v-.005Zm-7.035-14.622 1.066.238.102.03c.091.036 2.254.895 2.168 3.29-.031.814-.359 1.694-.708 2.624-.561 1.496-1.142 3.042-.627 4.503.253.718 1.613 1.34 3.361 1.915v-.01c0-3.684 0-7.763 2.912-11.503a.728.728 0 0 1-.182-.227l-.748-1.501s-1.178-2.144-3.129-2.053c-1.996.112-2.916 2.017-2.926 2.037a.72.72 0 0 1-.435.38l-.859.272.005.005Zm7.106 8.81a.61.61 0 0 1 .132.01l2.249.41c7.788.909 12.731-2.821 12.777-2.856a.303.303 0 0 1 .07-.046c7.536-4.559 6.348-14.45 5.408-18.746-1.804 2.735-6.09 5.494-10.27 8.183-2.052 1.32-3.988 2.562-5.494 3.72-3.73 2.87-4.766 6.09-5.054 9.355a.764.764 0 0 1 .187-.025h-.005v-.005Z" fill="#000"/></svg>