<svg width="100" height="100" viewBox="0 0 100 100" fill="none" xmlns="http://www.w3.org/2000/svg">
<circle cx="50" cy="50" r="50" fill="#025FA7"/>
<g clip-path="url(#clip0_109_1146)">
<path d="M77.8332 26.3944C77.4195 26.3944 77.0236 26.5095 76.6553 26.7377C76.1775 27.0342 75.4906 27.1975 74.7214 27.1975C74.081 27.1975 73.3999 27.0896 72.6964 26.877C71.7712 26.5972 70.6826 25.6017 69.4622 23.9201C69.045 23.3441 68.3589 23 67.6269 23C66.9068 23 66.2319 23.3404 65.8218 23.9097C64.6065 25.5955 63.5158 26.5938 62.5798 26.8769C61.8868 27.0866 61.1422 27.1974 60.4272 27.1974C59.5843 27.1974 58.8041 27.0385 58.3407 26.7726C58.0981 26.6333 57.5973 26.3995 56.9691 26.3995C55.6396 26.3995 54.5982 27.4632 54.5982 28.8211V35.5117L46.5133 34.0261C46.1034 33.9509 45.5651 33.9094 44.9978 33.9094C44.4305 33.9094 43.8923 33.9509 43.4825 34.0261L22.9437 37.8001C22.6597 37.8523 21.7958 38.0111 21.7924 38.7497C21.7889 39.4882 22.6511 39.6553 22.9346 39.7103L42.4902 43.4972C43.2788 43.6499 44.1349 43.8009 44.4391 43.8412L45.5112 43.8473L45.5572 43.8412C45.8612 43.801 46.7171 43.65 47.5055 43.4972L54.6491 42.1139C54.8114 43.5597 55.3653 45.0114 56.2911 46.4377L48.3634 47.973C47.6134 48.1182 46.3872 48.3063 45.6374 48.3915C45.6357 48.3917 45.4716 48.4068 44.998 48.4068C44.5334 48.4068 44.3664 48.3922 44.3653 48.3922C44.3653 48.3922 44.3653 48.3922 44.3655 48.3922C43.6085 48.3062 42.3821 48.1182 41.6322 47.9728L23.2253 44.4084C23.0945 44.3831 22.9627 44.3703 22.8333 44.3703C21.7882 44.3704 21 45.1759 21 46.2441V71.4745C21 72.5922 21.8596 73.6342 22.9569 73.8469L43.4782 77.8208C43.8896 77.9003 44.4292 77.9443 44.9978 77.9443C45.5664 77.9443 46.1061 77.9003 46.5176 77.8208L67.039 73.8469C68.1362 73.6342 68.9958 72.5922 68.9958 71.4745V54.0092C69.3239 53.8521 69.7178 53.6477 70.1967 53.3809C71.1401 52.8551 72.5805 51.9804 74.0869 50.7992C77.9553 47.7659 80 44.4533 80 41.2198V28.6838C80 27.1967 78.8836 26.3944 77.8332 26.3944ZM75.7664 41.2199C75.7664 45.1527 69.405 49.1185 67.2528 50.1563C65.1999 49.2088 58.8318 45.2915 58.8318 41.2199V31.3128C59.3397 31.3911 59.8736 31.431 60.4272 31.431C61.5522 31.431 62.7204 31.2576 63.8055 30.929C65.3412 30.4646 66.6185 29.4514 67.6407 28.3699C68.6649 29.4518 69.942 30.4666 71.4708 30.929C72.5718 31.2621 73.6655 31.431 74.7214 31.431C75.077 31.431 75.426 31.4115 75.7664 31.3732V41.2199Z" fill="#F3F3F3"/>
</g>
<defs>
<clipPath id="clip0_109_1146">
<rect width="59" height="59" fill="white" transform="translate(20 20)"/>
</clipPath>
</defs>
</svg>
