<svg width="17" height="21" viewBox="0 0 17 21" fill="none" xmlns="http://www.w3.org/2000/svg">
<g clip-path="url(#clip0_109_1156)">
<path d="M8.46997 0C6.2244 0.00264652 4.07156 0.895871 2.4837 2.48373C0.895844 4.07159 0.00264652 6.22443 0 8.47C0 11.58 3.40997 16.26 6.27997 19.64C6.55037 19.9559 6.88642 20.209 7.26465 20.3817C7.64288 20.5544 8.05419 20.6425 8.46997 20.64C8.88544 20.6405 9.29614 20.5515 9.67407 20.3789C10.052 20.2063 10.3883 19.9543 10.66 19.64C13.52 16.26 16.93 11.58 16.93 8.47C16.93 6.22535 16.039 4.07249 14.4527 2.48434C12.8664 0.896195 10.7146 0.00265012 8.46997 0ZM8.92999 18.15C8.87826 18.2139 8.81262 18.2651 8.7381 18.2997C8.66358 18.3344 8.58217 18.3516 8.5 18.35C8.41627 18.3524 8.33309 18.3356 8.25684 18.3009C8.18058 18.2663 8.11327 18.2146 8.06 18.15C4.47 13.92 2.33002 10.3 2.33002 8.47C2.29656 7.63951 2.43121 6.81083 2.72595 6.03368C3.0207 5.25653 3.46946 4.54695 4.04523 3.94751C4.621 3.34808 5.31194 2.87116 6.0766 2.54537C6.84125 2.21959 7.66383 2.05165 8.495 2.05165C9.32616 2.05165 10.1487 2.21959 10.9134 2.54537C11.678 2.87116 12.369 3.34808 12.9448 3.94751C13.5205 4.54695 13.9693 5.25653 14.264 6.03368C14.5588 6.81083 14.6934 7.63951 14.66 8.47C14.63 10.3 12.49 13.95 8.92999 18.15Z" fill="white"/>
<path d="M8.46973 9.87012C9.43623 9.87012 10.2197 9.08662 10.2197 8.12012C10.2197 7.15362 9.43623 6.37012 8.46973 6.37012C7.50323 6.37012 6.71973 7.15362 6.71973 8.12012C6.71973 9.08662 7.50323 9.87012 8.46973 9.87012Z" fill="white"/>
</g>
<defs>
<clipPath id="clip0_109_1156">
<rect width="16.94" height="20.65" rx="8.47" fill="white"/>
</clipPath>
</defs>
</svg>
