<svg width="28" height="29" fill="none" xmlns="http://www.w3.org/2000/svg"><path d="M19.754 0H8.57C4.025 0 .328 3.856.328 8.596v11.663c0 4.74 3.697 8.596 8.242 8.596h11.184c4.545 0 8.243-3.857 8.243-8.596V8.596c0-4.74-3.698-8.596-8.243-8.596Zm5.46 20.259c0 3.144-2.445 5.693-5.46 5.693H8.57c-3.015 0-5.459-2.55-5.459-5.693V8.596c0-3.144 2.444-5.693 5.46-5.693h11.183c3.015 0 5.46 2.549 5.46 5.693v11.663Z" fill="url(#a)"/><path d="M14.162 6.964c-3.946 0-7.156 3.348-7.156 7.463s3.21 7.463 7.156 7.463c3.946 0 7.156-3.348 7.156-7.463s-3.21-7.463-7.156-7.463Zm0 12.023c-2.415 0-4.373-2.041-4.373-4.56 0-2.518 1.958-4.56 4.373-4.56s4.373 2.042 4.373 4.56c0 2.519-1.958 4.56-4.373 4.56Z" fill="url(#b)"/><path d="M21.332 8.809c.947 0 1.715-.8 1.715-1.789 0-.987-.768-1.788-1.715-1.788-.947 0-1.715.8-1.715 1.788s.768 1.789 1.715 1.789Z" fill="url(#c)"/><defs><linearGradient id="a" x1="14.162" y1="28.771" x2="14.162" y2=".224" gradientUnits="userSpaceOnUse"><stop stop-color="#E09B3D"/><stop offset=".3" stop-color="#C74C4D"/><stop offset=".6" stop-color="#C21975"/><stop offset="1" stop-color="#7024C4"/></linearGradient><linearGradient id="b" x1="14.162" y1="28.771" x2="14.162" y2=".224" gradientUnits="userSpaceOnUse"><stop stop-color="#E09B3D"/><stop offset=".3" stop-color="#C74C4D"/><stop offset=".6" stop-color="#C21975"/><stop offset="1" stop-color="#7024C4"/></linearGradient><linearGradient id="c" x1="21.332" y1="28.771" x2="21.332" y2=".224" gradientUnits="userSpaceOnUse"><stop stop-color="#E09B3D"/><stop offset=".3" stop-color="#C74C4D"/><stop offset=".6" stop-color="#C21975"/><stop offset="1" stop-color="#7024C4"/></linearGradient></defs></svg>