<svg width="29" height="29" fill="none" xmlns="http://www.w3.org/2000/svg"><g clip-path="url(#a)" fill="#8E24AA"><path d="M25.702 16.703c.845-7.246-.406-11.82-2.663-13.89l.001-.001C19.398-.722 7.096-1.245 2.74 2.97.782 5.032.092 8.059.017 11.805c-.076 3.747-.165 10.768 6.257 12.672h.006l-.006 2.908s-.044 1.178.695 1.415c.845.28 1.227-.268 3.856-3.466 4.396.389 7.771-.501 8.155-.631.887-.303 5.91-.98 6.722-8Zm-14.444 6.585s-2.782 3.533-3.647 4.45c-.283.299-.594.271-.589-.32 0-.389.021-4.829.021-4.829C1.598 21 1.92 15.022 1.978 11.895c.06-3.128.621-5.69 2.278-7.416C8.08.83 18.864 1.644 21.612 4.275c3.36 3.033 2.164 11.603 2.17 11.895-.69 5.86-4.76 6.232-5.508 6.485-.32.109-3.288.887-7.016.633Z"/><path d="M12.797 5.166c-.454 0-.454.722 0 .728 3.526.027 6.43 2.53 6.461 7.122 0 .484.697.478.69-.006-.038-4.948-3.208-7.816-7.15-7.844Z"/><path d="M17.435 12.255c-.01.478.684.501.69.017.058-2.728-1.593-4.975-4.696-5.212-.455-.034-.502.694-.049.727 2.691.208 4.109 2.079 4.055 4.468Zm-.744 3.103c-.583-.344-1.177-.13-1.422.208l-.514.677c-.26.344-.748.298-.748.298-3.557-.958-4.509-4.75-4.509-4.75s-.043-.514.282-.789l.642-.54c.321-.26.524-.886.197-1.5C9.747 7.354 9.16 6.8 8.861 6.375c-.314-.4-.786-.491-1.277-.22h-.01c-1.022.608-2.14 1.746-1.782 2.919.61 1.236 1.732 5.175 5.306 8.152 1.68 1.408 4.337 2.85 5.466 3.184l.01.017c1.112.377 2.193-.806 2.77-1.877v-.008c.257-.519.172-1.01-.203-1.33-.663-.659-1.664-1.386-2.45-1.854Z"/><path d="M13.915 9.743c1.134.068 1.684.671 1.743 1.91.022.485.712.451.69-.033-.075-1.618-.903-2.52-2.395-2.604-.455-.028-.497.7-.038.727Z"/></g><defs><clipPath id="a"><path fill="#fff" d="M0 0h28.328v28.855H0z"/></clipPath></defs></svg>