<svg width="257" height="64" viewBox="0 0 257 64" fill="none" xmlns="http://www.w3.org/2000/svg">
<g clip-path="url(#clip0_381_2102)">
<path d="M60.9 17.9699C61.16 17.9699 61.39 17.8799 61.57 17.7099C61.75 17.5399 61.84 17.3099 61.84 17.0199C61.84 16.7299 61.75 16.4999 61.57 16.3299C61.48 16.2499 61.3899 16.1899 61.2799 16.1499L61.75 14.3599H60.82L60.2099 16.0199C60.1399 16.1999 60.0899 16.3499 60.0499 16.4599C60.0099 16.5799 59.98 16.6799 59.97 16.7599C59.95 16.8399 59.95 16.9299 59.95 17.0199C59.95 17.2999 60.04 17.5299 60.22 17.6999C60.39 17.8799 60.62 17.9699 60.9 17.9699Z" fill="#010101"/>
<path d="M59.09 17.7196C59.27 17.5496 59.36 17.3196 59.36 17.0296C59.36 16.7396 59.27 16.5096 59.09 16.3396C59 16.2596 58.91 16.1996 58.8 16.1596L59.27 14.3696H58.34L57.73 16.0296C57.66 16.2096 57.61 16.3596 57.57 16.4696C57.53 16.5896 57.5 16.6896 57.49 16.7696C57.47 16.8496 57.47 16.9396 57.47 17.0296C57.47 17.3096 57.56 17.5396 57.74 17.7096C57.92 17.8796 58.15 17.9696 58.43 17.9696C58.69 17.9696 58.91 17.8896 59.09 17.7196Z" fill="#010101"/>
<path d="M65.5499 21.1496C65.2999 21.5496 65.0099 21.7896 64.6899 21.8596C64.3599 21.9296 63.9899 21.8896 63.5599 21.7396L63.1699 22.9296C63.6499 23.1296 64.1199 23.2196 64.5899 23.1896C65.0499 23.1596 65.4799 22.9996 65.8699 22.7096C66.2599 22.4196 66.5999 21.9996 66.8899 21.4596L70.4399 14.8696H68.9499L66.4699 19.6596L64.0499 14.8696H62.4399L65.6699 20.9696L65.5499 21.1496Z" fill="#010101"/>
<path d="M72.97 19.5799H74.5L76.89 23.0299H78.61L75.7 18.8099L78.5 14.8599H76.89L74.54 18.2899H72.97V14.8599H71.49V23.0299H72.97V19.5799Z" fill="#010101"/>
<path d="M81.16 20.6699H83C83.72 20.6699 84.34 20.5499 84.86 20.3099C85.38 20.0699 85.78 19.7399 86.06 19.3099C86.34 18.8799 86.48 18.3599 86.48 17.7599C86.48 17.1499 86.34 16.6299 86.06 16.1999C85.78 15.7599 85.38 15.4299 84.86 15.1999C84.34 14.9699 83.72 14.8599 83 14.8599H79.64V23.0299H81.16V20.6699ZM81.16 16.1399H82.93C83.6 16.1399 84.1 16.2799 84.44 16.5699C84.78 16.8499 84.95 17.2499 84.95 17.7699C84.95 18.2899 84.78 18.6799 84.44 18.9699C84.1 19.2499 83.6 19.3999 82.93 19.3999H81.16V16.1399Z" fill="#010101"/>
<path d="M88.03 23.0299L88.84 21.1399H92.93L93.74 23.0299H95.34L91.65 14.8599H90.16L86.48 23.0299H88.03ZM90.88 16.3699L92.41 19.9399H89.35L90.88 16.3699Z" fill="#010101"/>
<path d="M96.16 14.0499C96.35 14.0499 96.52 13.9899 96.66 13.8599C96.8 13.7299 96.87 13.5599 96.87 13.3499C96.87 13.1499 96.8 12.9799 96.66 12.8499C96.52 12.7199 96.35 12.6499 96.16 12.6499C95.97 12.6499 95.81 12.7199 95.67 12.8499C95.53 12.9799 95.46 13.1499 95.46 13.3499C95.46 13.5599 95.53 13.7299 95.67 13.8599C95.81 13.9899 95.97 14.0499 96.16 14.0499Z" fill="#010101"/>
<path d="M98.43 14.0499C98.62 14.0499 98.78 13.9899 98.92 13.8599C99.06 13.7299 99.13 13.5599 99.13 13.3499C99.13 13.1499 99.06 12.9799 98.92 12.8499C98.78 12.7199 98.62 12.6499 98.43 12.6499C98.23 12.6499 98.06 12.7199 97.92 12.8499C97.78 12.9799 97.72 13.1499 97.72 13.3499C97.72 13.5599 97.79 13.7299 97.92 13.8599C98.06 13.9899 98.23 14.0499 98.43 14.0499Z" fill="#010101"/>
<path d="M98.05 14.8599H96.53V23.0299H98.05V14.8599Z" fill="#010101"/>
<path d="M101.82 19.5199H106.04V23.0299H107.55V14.8599H106.04V18.2299H101.82V14.8599H100.3V23.0299H101.82V19.5199Z" fill="#010101"/>
<path d="M110.48 21.95C110.87 22.33 111.33 22.63 111.86 22.83C112.39 23.04 112.97 23.14 113.6 23.14C114.28 23.14 114.89 23.02 115.44 22.79C115.99 22.56 116.46 22.21 116.84 21.76L115.86 20.84C115.56 21.17 115.22 21.41 114.86 21.57C114.49 21.73 114.1 21.81 113.68 21.81C113.25 21.81 112.86 21.74 112.51 21.6C112.16 21.46 111.85 21.26 111.59 21C111.33 20.74 111.13 20.44 110.98 20.09C110.83 19.74 110.76 19.35 110.76 18.93C110.76 18.51 110.83 18.12 110.98 17.77C111.13 17.42 111.33 17.12 111.59 16.86C111.85 16.6 112.16 16.4 112.51 16.26C112.86 16.12 113.25 16.05 113.68 16.05C114.1 16.05 114.49 16.13 114.86 16.29C115.23 16.45 115.56 16.69 115.86 17.01L116.84 16.09C116.46 15.64 115.99 15.3 115.44 15.07C114.89 14.84 114.28 14.73 113.61 14.73C112.98 14.73 112.4 14.83 111.87 15.04C111.34 15.25 110.88 15.54 110.48 15.92C110.08 16.3 109.78 16.74 109.56 17.25C109.34 17.76 109.23 18.32 109.23 18.93C109.23 19.54 109.34 20.1 109.56 20.61C109.78 21.13 110.09 21.57 110.48 21.95Z" fill="#010101"/>
<path d="M124.21 22.3199C124.79 21.8499 125.09 21.1599 125.09 20.2399C125.09 19.3699 124.83 18.7199 124.3 18.2799C123.77 17.8399 123.02 17.6299 122.04 17.6299H119.78V14.8599H118.27V23.0299H121.79C122.82 23.0299 123.63 22.7899 124.21 22.3199ZM119.77 21.8599V18.7899H121.72C122.31 18.7899 122.77 18.9099 123.09 19.1399C123.41 19.3699 123.57 19.7499 123.57 20.2599C123.57 20.7799 123.41 21.1799 123.09 21.4499C122.77 21.7199 122.31 21.8599 121.73 21.8599H119.77Z" fill="#010101"/>
<path d="M132.03 23.0299H133.75L130.84 18.8099L133.64 14.8599H132.03L129.67 18.2899H128.11V14.8599H126.63V23.0299H128.11V19.5799H129.64L132.03 23.0299Z" fill="#010101"/>
<path d="M140.58 17.2399V23.0299H142.09V14.8599H140.68L136.29 20.6599V14.8599H134.78V23.0299H136.21L140.58 17.2399Z" fill="#010101"/>
<path d="M146.44 13.8599C146.79 14.1599 147.32 14.2999 148.02 14.2999C148.72 14.2999 149.25 14.1499 149.61 13.8599C149.97 13.5599 150.15 13.1499 150.16 12.6099H149.11C149.1 12.8999 149 13.1199 148.81 13.2799C148.62 13.4399 148.36 13.5099 148.02 13.5099C147.69 13.5099 147.42 13.4299 147.24 13.2799C147.05 13.1199 146.96 12.8999 146.95 12.6099H145.9C145.9 13.1499 146.08 13.5699 146.44 13.8599Z" fill="#010101"/>
<path d="M150.18 23.0299H151.68V14.8599H150.27L145.88 20.6599V14.8599H144.38V23.0299H145.8L150.18 17.2399V23.0299Z" fill="#010101"/>
<path d="M157.19 23.0299H158.69L158.68 16.1399H162.73L162.74 14.8599H157.19V23.0299Z" fill="#010101"/>
<path d="M167.06 19.6499L164.64 14.8599H163.03L166.26 20.9599L166.14 21.1499C165.89 21.5499 165.6 21.7899 165.28 21.8599C164.95 21.9299 164.58 21.8899 164.15 21.7399L163.77 22.9299C164.25 23.1299 164.72 23.2199 165.19 23.1899C165.65 23.1599 166.08 22.9999 166.47 22.7099C166.86 22.4199 167.2 21.9999 167.49 21.4599L171.04 14.8699H169.55L167.06 19.6499Z" fill="#010101"/>
<path d="M173.54 17.6999L176.21 22.0999H176.9L179.57 17.6199V23.0299H181.03L181 14.8599H179.77L176.57 20.2699L173.33 14.8599H172.08V23.0299H173.54V17.6999Z" fill="#010101"/>
<path d="M185.95 14.8599L182.27 23.0299H183.82L184.63 21.1399H188.72L189.53 23.0299H191.13L187.44 14.8599H185.95ZM185.15 19.9399L186.69 16.3699L188.22 19.9399H185.15Z" fill="#010101"/>
<path d="M193.9 19.5199H198.12V23.0299H199.63V14.8599H198.12V18.2299H193.9V14.8599H192.38V23.0299H193.9V19.5199Z" fill="#010101"/>
<path d="M203.44 14.8599H201.93V23.0299H203.44V14.8599Z" fill="#010101"/>
<path d="M208.94 23.0299V16.1399H211.66V14.8599H204.75V16.1399H207.45V23.0299H208.94Z" fill="#010101"/>
<path d="M215.2 14.8599L211.52 23.0299H213.07L213.88 21.1399H217.97L218.78 23.0299H220.38L216.69 14.8599H215.2ZM214.39 19.9399L215.93 16.3699L217.46 19.9399H214.39Z" fill="#010101"/>
<path d="M226.85 15.1999C226.33 14.9699 225.71 14.8599 224.99 14.8599H221.63V23.0299H223.15V20.6699H224.99C225.71 20.6699 226.33 20.5499 226.85 20.3099C227.37 20.0699 227.77 19.7399 228.05 19.3099C228.33 18.8799 228.47 18.3599 228.47 17.7599C228.47 17.1499 228.33 16.6299 228.05 16.1999C227.76 15.7599 227.36 15.4299 226.85 15.1999ZM226.43 18.9599C226.09 19.2399 225.59 19.3899 224.92 19.3899H223.15V16.1499H224.92C225.59 16.1499 226.09 16.2899 226.43 16.5799C226.77 16.8599 226.94 17.2599 226.94 17.7799C226.94 18.2999 226.77 18.6699 226.43 18.9599Z" fill="#010101"/>
<path d="M235.64 18.2299H231.42V14.8599H229.9V23.0299H231.42V19.5199H235.64V23.0299H237.15V14.8599H235.64V18.2299Z" fill="#010101"/>
<path d="M240.95 20.6599V14.8599H239.44V23.0299H240.87L245.24 17.2399V23.0299H246.75V14.8599H245.34L240.95 20.6599Z" fill="#010101"/>
<path d="M251.1 13.8599C251.45 14.1599 251.98 14.2999 252.68 14.2999C253.38 14.2999 253.91 14.1499 254.27 13.8599C254.63 13.5599 254.81 13.1499 254.82 12.6099H253.77C253.76 12.8999 253.66 13.1199 253.47 13.2799C253.28 13.4399 253.02 13.5099 252.68 13.5099C252.35 13.5099 252.08 13.4299 251.9 13.2799C251.71 13.1199 251.62 12.8999 251.61 12.6099H250.56C250.56 13.1499 250.74 13.5699 251.1 13.8599Z" fill="#010101"/>
<path d="M254.93 14.8599L250.54 20.6599V14.8599H249.04V23.0299H250.46L254.84 17.2399V23.0299H256.34V14.8599H254.93Z" fill="#010101"/>
<path d="M64.3 32.7201C63.79 32.3201 63.05 32.1101 62.07 32.1101H59.65V30.1101H64.52V28.8501H58.15V37.0201H61.84C62.87 37.0201 63.66 36.8001 64.23 36.3501C64.79 35.9101 65.08 35.2801 65.08 34.4801C65.06 33.7201 64.81 33.1301 64.3 32.7201ZM63.08 35.5201C62.78 35.7501 62.33 35.8601 61.75 35.8601H59.65V33.2801H61.75C62.94 33.2801 63.54 33.7001 63.54 34.5401C63.53 34.9701 63.38 35.3001 63.08 35.5201Z" fill="#010101"/>
<path d="M72.1199 35.1399L72.9299 37.0299H74.5299L70.8399 28.8599H69.3499L65.6699 37.0299H67.2199L68.0299 35.1399H72.1199ZM70.0799 30.3699L71.6099 33.9399H68.5499L70.0799 30.3699Z" fill="#010101"/>
<path d="M78.57 37.0299V30.1399H81.29V28.8599H74.38V30.1399H77.08V37.0299H78.57Z" fill="#010101"/>
<path d="M86.32 28.8599H84.83L81.15 37.0299H82.7L83.51 35.1399H87.6L88.41 37.0299H90.01L86.32 28.8599ZM84.03 33.9499L85.57 30.3799L87.1 33.9499H84.03Z" fill="#010101"/>
<path d="M96.7399 37.0299H98.2499V28.8599H92.2399L92.1199 32.2299C92.0899 32.9999 92.0299 33.6499 91.9499 34.1699C91.8599 34.6899 91.7299 35.0799 91.5399 35.3499C91.3499 35.6099 91.0899 35.7499 90.7499 35.7499C90.6299 35.7499 90.5099 35.7299 90.3999 35.6999L90.2899 37.0299C90.4499 37.0699 90.5899 37.0999 90.7299 37.1099C90.8699 37.1299 90.9999 37.1299 91.1299 37.1299C91.5699 37.1299 91.9299 37.0199 92.2199 36.8099C92.5099 36.5999 92.7399 36.2799 92.9099 35.8599C93.0799 35.4399 93.2099 34.9199 93.2999 34.2999C93.3899 33.6899 93.4399 32.9799 93.4699 32.1799L93.5399 30.1399H96.7499V37.0299H96.7399Z" fill="#010101"/>
<path d="M106.58 32.2799C106.05 31.8399 105.3 31.6299 104.32 31.6299H102.06V28.8599H100.55V37.0299H104.07C105.1 37.0299 105.91 36.7899 106.5 36.3199C107.08 35.8499 107.38 35.1599 107.38 34.2399C107.37 33.3699 107.11 32.7099 106.58 32.2799ZM105.36 35.4499C105.04 35.7199 104.58 35.8599 104 35.8599H102.05V32.7899H104C104.59 32.7899 105.05 32.9099 105.37 33.1399C105.69 33.3699 105.85 33.7499 105.85 34.2599C105.84 34.7799 105.68 35.1799 105.36 35.4499Z" fill="#010101"/>
<path d="M112.55 27.5196C112.22 27.5196 111.95 27.4396 111.77 27.2896C111.58 27.1296 111.49 26.9096 111.48 26.6196H110.43C110.44 27.1596 110.62 27.5696 110.97 27.8696C111.32 28.1696 111.85 28.3096 112.55 28.3096C113.25 28.3096 113.78 28.1596 114.14 27.8696C114.5 27.5696 114.68 27.1596 114.69 26.6196H113.64C113.63 26.9096 113.53 27.1296 113.34 27.2896C113.15 27.4396 112.89 27.5196 112.55 27.5196Z" fill="#010101"/>
<path d="M114.71 31.2399V37.0299H116.22V28.8599H114.81L110.42 34.6599V28.8599H108.91V37.0299H110.34L114.71 31.2399Z" fill="#010101"/>
<path d="M125.44 29.9297C125.05 29.5497 124.58 29.2597 124.05 29.0497C123.51 28.8397 122.93 28.7397 122.3 28.7397C121.66 28.7397 121.07 28.8497 120.54 29.0597C120 29.2697 119.54 29.5597 119.14 29.9397C118.74 30.3197 118.44 30.7597 118.22 31.2697C118 31.7797 117.89 32.3397 117.89 32.9397C117.89 33.5397 118 34.0897 118.22 34.5997C118.44 35.1097 118.75 35.5597 119.14 35.9397C119.54 36.3197 120.01 36.6197 120.55 36.8297C121.09 37.0397 121.68 37.1397 122.31 37.1397C122.94 37.1397 123.52 37.0397 124.06 36.8297C124.6 36.6197 125.06 36.3297 125.45 35.9497C125.84 35.5697 126.15 35.1197 126.37 34.6097C126.59 34.0997 126.7 33.5397 126.7 32.9397C126.7 32.3297 126.59 31.7697 126.37 31.2597C126.14 30.7497 125.84 30.3097 125.44 29.9297ZM124.94 34.0997C124.8 34.4497 124.6 34.7497 124.34 35.0097C124.08 35.2697 123.78 35.4697 123.44 35.6097C123.09 35.7497 122.71 35.8197 122.3 35.8197C121.89 35.8197 121.5 35.7497 121.15 35.6097C120.8 35.4697 120.49 35.2697 120.23 35.0097C119.97 34.7497 119.77 34.4397 119.62 34.0897C119.47 33.7397 119.4 33.3597 119.4 32.9497C119.4 32.5297 119.47 32.1497 119.62 31.7997C119.77 31.4497 119.97 31.1497 120.23 30.8897C120.49 30.6297 120.79 30.4297 121.15 30.2897C121.5 30.1497 121.89 30.0797 122.3 30.0797C122.71 30.0797 123.09 30.1497 123.44 30.2897C123.79 30.4297 124.09 30.6297 124.35 30.8897C124.61 31.1497 124.81 31.4497 124.95 31.7997C125.09 32.1497 125.16 32.5297 125.16 32.9597C125.16 33.3597 125.09 33.7497 124.94 34.0997Z" fill="#010101"/>
<path d="M129.88 33.5299H134.11V37.0299H135.61V28.8599H134.11V32.2299H129.88V28.8599H128.37V37.0299H129.88V33.5299Z" fill="#010101"/>
<path d="M138.2 28.29C137.94 28.29 137.71 28.38 137.53 28.55C137.35 28.73 137.26 28.96 137.26 29.24C137.26 29.52 137.35 29.76 137.53 29.93C137.61 30 137.7 30.06 137.8 30.1L137.34 31.9H138.27L138.89 30.24C138.96 30.06 139.01 29.92 139.05 29.8C139.09 29.69 139.11 29.59 139.13 29.5C139.14 29.41 139.15 29.32 139.15 29.24C139.15 28.96 139.06 28.73 138.89 28.55C138.71 28.38 138.48 28.29 138.2 28.29Z" fill="#010101"/>
<path d="M140.75 31.91L141.37 30.25C141.44 30.07 141.49 29.93 141.53 29.81C141.57 29.7 141.59 29.6 141.61 29.51C141.62 29.42 141.63 29.33 141.63 29.25C141.63 28.97 141.54 28.74 141.37 28.56C141.19 28.38 140.97 28.29 140.69 28.29C140.43 28.29 140.2 28.38 140.02 28.55C139.84 28.73 139.75 28.96 139.75 29.24C139.75 29.52 139.84 29.76 140.02 29.93C140.1 30 140.19 30.06 140.29 30.1L139.83 31.9H140.75V31.91Z" fill="#010101"/>
<path d="M62.94 44.3398L60.79 47.9798L58.61 44.3398H57.77V49.8298H58.75V46.2598L60.54 49.2198H61.01L62.8 46.1998V49.8298H63.78L63.77 44.3398H62.94Z" fill="#010101"/>
<path d="M66.3299 44.3398H65.3199V49.8298H66.3299V44.3398Z" fill="#010101"/>
<path d="M75.12 44.3398H74.05L72.68 46.6498H71.74V44.3398H70.74V46.6498H69.79L68.44 44.3398H67.35L68.97 46.9698L67.24 49.8298H68.41L69.8 47.5198H70.74V49.8298H71.74V47.5198H72.67L74.06 49.8298H75.25L73.51 46.9698L75.12 44.3398Z" fill="#010101"/>
<path d="M79.81 46.6098H76.97V44.3398H75.95V49.8298H76.97V47.4798H79.81V49.8298H80.82V44.3398H79.81V46.6098Z" fill="#010101"/>
<path d="M84.1399 44.3398L81.6699 49.8298H82.7099L83.2599 48.5598H86.0099L86.5499 49.8298H87.6199L85.1399 44.3398H84.1399ZM83.5999 47.7598L84.6299 45.3598L85.6599 47.7598H83.5999Z" fill="#010101"/>
<path d="M91.98 44.5698C91.63 44.4198 91.22 44.3398 90.73 44.3398H88.47V49.8298H89.49V48.2498H90.73C91.22 48.2498 91.63 48.1698 91.98 48.0098C92.33 47.8498 92.6 47.6298 92.78 47.3398C92.97 47.0498 93.06 46.6998 93.06 46.2998C93.06 45.8898 92.97 45.5398 92.78 45.2498C92.59 44.9498 92.32 44.7298 91.98 44.5698ZM91.69 47.0998C91.46 47.2898 91.12 47.3898 90.67 47.3898H89.48V45.2098H90.67C91.12 45.2098 91.46 45.3098 91.69 45.4998C91.92 45.6898 92.03 45.9598 92.03 46.2998C92.03 46.6398 91.92 46.9098 91.69 47.0998Z" fill="#010101"/>
<path d="M98.7699 45.0598C98.5099 44.8098 98.1899 44.6098 97.8299 44.4698C97.4699 44.3298 97.0799 44.2598 96.6499 44.2598C96.2199 44.2598 95.8299 44.3298 95.4699 44.4698C95.1099 44.6098 94.7999 44.8098 94.5299 45.0598C94.2599 45.3098 94.0599 45.6098 93.9099 45.9498C93.7599 46.2898 93.6899 46.6698 93.6899 47.0798C93.6899 47.4798 93.7599 47.8598 93.9099 48.1998C94.0599 48.5398 94.2599 48.8398 94.5299 49.0998C94.7999 49.3598 95.1099 49.5598 95.4799 49.6998C95.8399 49.8398 96.2399 49.9098 96.6599 49.9098C97.0799 49.9098 97.4799 49.8398 97.8399 49.6998C98.1999 49.5598 98.5099 49.3598 98.7799 49.1098C99.0399 48.8498 99.2499 48.5498 99.3999 48.2098C99.5499 47.8698 99.6199 47.4898 99.6199 47.0798C99.6199 46.6698 99.5499 46.2998 99.3999 45.9498C99.2399 45.6098 99.0399 45.3098 98.7699 45.0598ZM98.4299 47.8698C98.3299 48.1098 98.1999 48.3098 98.0299 48.4798C97.8599 48.6498 97.6499 48.7898 97.4199 48.8798C97.1899 48.9698 96.9299 49.0198 96.6599 49.0198C96.3799 49.0198 96.1299 48.9698 95.8899 48.8798C95.6499 48.7898 95.4499 48.6498 95.2699 48.4798C95.0999 48.2998 94.9599 48.0998 94.8599 47.8598C94.7599 47.6198 94.7099 47.3698 94.7099 47.0898C94.7099 46.8098 94.7599 46.5498 94.8599 46.3198C94.9599 46.0898 95.0999 45.8798 95.2699 45.7098C95.4399 45.5298 95.6499 45.3998 95.8899 45.3098C96.1299 45.2198 96.3899 45.1698 96.6599 45.1698C96.9399 45.1698 97.1899 45.2198 97.4199 45.3098C97.6499 45.3998 97.8599 45.5398 98.0299 45.7098C98.2099 45.8798 98.3399 46.0898 98.4299 46.3198C98.5199 46.5598 98.5699 46.8098 98.5699 47.0998C98.5699 47.3898 98.5299 47.6298 98.4299 47.8698Z" fill="#010101"/>
<path d="M105.23 44.3398H101.21L101.15 46.0698C101.13 46.4898 101.11 46.8698 101.07 47.2298C101.03 47.5798 100.98 47.8898 100.91 48.1498C100.84 48.4098 100.74 48.6098 100.61 48.7598C100.48 48.8998 100.32 48.9698 100.12 48.9698H99.9399L99.9199 50.9998H100.87V49.8298H105.08V50.9998H106.02V48.9698H105.23V44.3398ZM104.23 48.9698H101.44C101.49 48.9198 101.55 48.8498 101.59 48.7698C101.69 48.5898 101.78 48.3698 101.83 48.0998C101.89 47.8298 101.93 47.5398 101.97 47.2098C102 46.8798 102.03 46.5398 102.04 46.1698L102.08 45.1998H104.23V48.9698Z" fill="#010101"/>
<path d="M110.84 46.6098H108V44.3398H106.98V49.8298H108V47.4798H110.84V49.8298H111.85V44.3398H110.84V46.6098Z" fill="#010101"/>
<path d="M114.41 48.2398V44.3398H113.4V49.8298H114.36L117.3 45.9398V49.8298H118.31V44.3398H117.36L114.41 48.2398Z" fill="#010101"/>
<path d="M123.36 43.6798C123.6 43.4798 123.72 43.1998 123.73 42.8398H123.02C123.01 43.0298 122.95 43.1798 122.82 43.2898C122.69 43.3898 122.52 43.4498 122.29 43.4498C122.07 43.4498 121.89 43.3998 121.76 43.2898C121.63 43.1898 121.57 43.0398 121.56 42.8398H120.85C120.86 43.1998 120.98 43.4798 121.21 43.6798C121.45 43.8798 121.8 43.9798 122.27 43.9798C122.77 43.9698 123.12 43.8698 123.36 43.6798Z" fill="#010101"/>
<path d="M120.86 48.2398V44.3398H119.85V49.8298H120.81L123.75 45.9398V49.8298H124.76V44.3398H123.81L120.86 48.2398Z" fill="#010101"/>
<path d="M132.6 46.9398C132.26 46.6698 131.76 46.5298 131.1 46.5298H129.48V45.1898H132.75V44.3398H128.47V49.8298H130.95C131.64 49.8298 132.18 49.6798 132.55 49.3798C132.92 49.0798 133.12 48.6598 133.12 48.1198C133.12 47.6098 132.94 47.2098 132.6 46.9398ZM131.78 48.8198C131.58 48.9698 131.28 49.0498 130.89 49.0498H129.48V47.3198H130.89C131.69 47.3198 132.09 47.5998 132.09 48.1698C132.09 48.4498 131.99 48.6698 131.78 48.8198Z" fill="#010101"/>
<path d="M134.66 46.6098C134.64 47.1298 134.6 47.5598 134.54 47.9098C134.48 48.2598 134.39 48.5198 134.26 48.6998C134.13 48.8798 133.96 48.9698 133.73 48.9698C133.65 48.9698 133.57 48.9598 133.49 48.9398L133.42 49.8298C133.52 49.8598 133.62 49.8698 133.71 49.8798C133.8 49.8898 133.89 49.8998 133.98 49.8998C134.27 49.8998 134.52 49.8298 134.71 49.6898C134.9 49.5498 135.06 49.3398 135.17 49.0498C135.28 48.7698 135.37 48.4198 135.43 47.9998C135.49 47.5898 135.53 47.1098 135.55 46.5698L135.6 45.1998H137.76V49.8298H138.77V44.3398H134.73L134.66 46.6098Z" fill="#010101"/>
<path d="M142.1 44.3398L139.63 49.8298H140.67L141.22 48.5598H143.97L144.51 49.8298H145.58L143.1 44.3398H142.1ZM141.56 47.7598L142.59 45.3598L143.62 47.7598H141.56Z" fill="#010101"/>
<path d="M150.15 45.2098L150.16 44.3398H146.42V49.8298H147.43V45.2098H150.15Z" fill="#010101"/>
<path d="M155.05 45.0598C154.79 44.8098 154.47 44.6098 154.11 44.4698C153.75 44.3298 153.36 44.2598 152.93 44.2598C152.5 44.2598 152.11 44.3298 151.75 44.4698C151.39 44.6098 151.08 44.8098 150.81 45.0598C150.54 45.3098 150.34 45.6098 150.19 45.9498C150.04 46.2898 149.97 46.6698 149.97 47.0798C149.97 47.4798 150.04 47.8598 150.19 48.1998C150.34 48.5398 150.54 48.8398 150.81 49.0998C151.08 49.3598 151.39 49.5598 151.76 49.6998C152.12 49.8398 152.52 49.9098 152.94 49.9098C153.36 49.9098 153.76 49.8398 154.12 49.6998C154.48 49.5598 154.79 49.3598 155.06 49.1098C155.32 48.8498 155.53 48.5498 155.68 48.2098C155.83 47.8698 155.9 47.4898 155.9 47.0798C155.9 46.6698 155.83 46.2998 155.68 45.9498C155.52 45.6098 155.31 45.3098 155.05 45.0598ZM154.71 47.8698C154.61 48.1098 154.48 48.3098 154.31 48.4798C154.14 48.6498 153.93 48.7898 153.7 48.8798C153.47 48.9698 153.21 49.0198 152.94 49.0198C152.67 49.0198 152.41 48.9698 152.17 48.8798C151.93 48.7898 151.73 48.6498 151.55 48.4798C151.38 48.2998 151.24 48.0998 151.14 47.8598C151.04 47.6198 150.99 47.3698 150.99 47.0898C150.99 46.8098 151.04 46.5498 151.14 46.3198C151.24 46.0898 151.38 45.8798 151.55 45.7098C151.72 45.5298 151.93 45.3998 152.17 45.3098C152.41 45.2198 152.67 45.1698 152.94 45.1698C153.21 45.1698 153.47 45.2198 153.7 45.3098C153.93 45.3998 154.14 45.5398 154.31 45.7098C154.49 45.8798 154.62 46.0898 154.71 46.3198C154.8 46.5598 154.85 46.8098 154.85 47.0998C154.85 47.3898 154.81 47.6298 154.71 47.8698Z" fill="#010101"/>
<path d="M161.51 44.3398H157.49L157.43 46.0698C157.41 46.4898 157.39 46.8698 157.35 47.2298C157.31 47.5898 157.26 47.8898 157.19 48.1498C157.12 48.4098 157.02 48.6098 156.89 48.7598C156.76 48.8998 156.6 48.9698 156.4 48.9698H156.22L156.2 50.9998H157.15V49.8298H161.36V50.9998H162.3V48.9698H161.51V44.3398ZM160.5 48.9698H157.71C157.76 48.9198 157.82 48.8498 157.86 48.7698C157.96 48.5898 158.05 48.3698 158.1 48.0998C158.16 47.8298 158.2 47.5398 158.24 47.2098C158.27 46.8798 158.3 46.5398 158.31 46.1698L158.35 45.1998H160.5V48.9698Z" fill="#010101"/>
<path d="M164.27 44.3398H163.26V49.8298H164.27V44.3398Z" fill="#010101"/>
<path d="M169.33 43.6798C169.57 43.4798 169.69 43.1998 169.7 42.8398H168.99C168.98 43.0298 168.92 43.1798 168.79 43.2898C168.66 43.3898 168.49 43.4498 168.26 43.4498C168.04 43.4498 167.86 43.3998 167.73 43.2898C167.6 43.1898 167.54 43.0398 167.53 42.8398H166.82C166.83 43.1998 166.95 43.4798 167.18 43.6798C167.42 43.8798 167.77 43.9798 168.24 43.9798C168.73 43.9698 169.09 43.8698 169.33 43.6798Z" fill="#010101"/>
<path d="M166.83 48.2398V44.3398H165.81V49.8298H166.77L169.71 45.9398V49.8298H170.73V44.3398H169.78L166.83 48.2398Z" fill="#010101"/>
<path d="M176.12 46.6098H173.28V44.3398H172.26V49.8298H173.28V47.4798H176.12V49.8298H177.14V44.3398H176.12V46.6098Z" fill="#010101"/>
<path d="M179.69 48.2398V44.3398H178.68V49.8298H179.64L182.58 45.9398V49.8298H183.59V44.3398H182.64L179.69 48.2398Z" fill="#010101"/>
<path d="M188.65 43.6798C188.89 43.4798 189.01 43.1998 189.02 42.8398H188.31C188.3 43.0298 188.24 43.1798 188.11 43.2898C187.98 43.3898 187.81 43.4498 187.58 43.4498C187.36 43.4498 187.18 43.3998 187.05 43.2898C186.92 43.1898 186.86 43.0398 186.85 42.8398H186.14C186.15 43.1998 186.27 43.4798 186.5 43.6798C186.74 43.8798 187.09 43.9798 187.56 43.9798C188.05 43.9698 188.41 43.8698 188.65 43.6798Z" fill="#010101"/>
<path d="M186.14 48.2398V44.3398H185.13V49.8298H186.09L189.03 45.9398V49.8298H190.04V44.3398H189.09L186.14 48.2398Z" fill="#010101"/>
<path d="M198.55 44.9599C198.15 44.7999 197.67 44.7199 197.13 44.6899V44.1299H196.19V44.6899C195.65 44.7199 195.18 44.7999 194.78 44.9599C194.3 45.1499 193.93 45.4199 193.67 45.7799C193.41 46.1399 193.29 46.5699 193.29 47.0899C193.29 47.6099 193.42 48.0399 193.67 48.3899C193.93 48.7499 194.3 49.0199 194.78 49.1999C195.18 49.3499 195.65 49.4399 196.19 49.4699V50.0599H197.13V49.4699C197.68 49.4499 198.17 49.3599 198.57 49.1999C199.04 49.0099 199.4 48.7399 199.65 48.3799C199.9 48.0199 200.02 47.5899 200.02 47.0899C200.02 46.5799 199.89 46.1399 199.64 45.7799C199.39 45.4199 199.03 45.1399 198.55 44.9599ZM196.19 48.6699C195.88 48.6399 195.6 48.5899 195.37 48.5099C195.02 48.3899 194.75 48.2099 194.57 47.9699C194.38 47.7299 194.29 47.4299 194.29 47.0799C194.29 46.7199 194.38 46.4199 194.55 46.1799C194.73 45.9399 194.99 45.7599 195.34 45.6499C195.58 45.5699 195.87 45.5199 196.19 45.4899V48.6699ZM198.78 47.9599C198.6 48.1999 198.35 48.3799 198 48.5099C197.75 48.5999 197.46 48.6499 197.13 48.6799V45.4899C197.46 45.5099 197.75 45.5699 198 45.6599C198.34 45.7799 198.6 45.9599 198.78 46.1899C198.96 46.4299 199.05 46.7199 199.05 47.0699C199.04 47.4199 198.95 47.7199 198.78 47.9599Z" fill="#010101"/>
<path d="M205.76 45.0598C205.5 44.8098 205.18 44.6098 204.82 44.4698C204.46 44.3298 204.07 44.2598 203.64 44.2598C203.21 44.2598 202.82 44.3298 202.46 44.4698C202.1 44.6098 201.79 44.8098 201.52 45.0598C201.25 45.3098 201.05 45.6098 200.9 45.9498C200.75 46.2898 200.68 46.6698 200.68 47.0798C200.68 47.4798 200.75 47.8598 200.9 48.1998C201.05 48.5398 201.25 48.8398 201.52 49.0998C201.79 49.3598 202.1 49.5598 202.47 49.6998C202.83 49.8398 203.23 49.9098 203.65 49.9098C204.07 49.9098 204.47 49.8398 204.83 49.6998C205.19 49.5598 205.5 49.3598 205.77 49.1098C206.03 48.8498 206.24 48.5498 206.39 48.2098C206.54 47.8698 206.61 47.4898 206.61 47.0798C206.61 46.6698 206.54 46.2998 206.39 45.9498C206.23 45.6098 206.02 45.3098 205.76 45.0598ZM205.42 47.8698C205.32 48.1098 205.19 48.3098 205.02 48.4798C204.85 48.6498 204.64 48.7898 204.41 48.8798C204.18 48.9698 203.92 49.0198 203.65 49.0198C203.38 49.0198 203.12 48.9698 202.88 48.8798C202.64 48.7898 202.44 48.6498 202.26 48.4798C202.09 48.2998 201.95 48.0998 201.85 47.8598C201.75 47.6198 201.7 47.3698 201.7 47.0898C201.7 46.8098 201.75 46.5498 201.85 46.3198C201.95 46.0898 202.09 45.8798 202.26 45.7098C202.43 45.5298 202.64 45.3998 202.88 45.3098C203.12 45.2198 203.38 45.1698 203.65 45.1698C203.92 45.1698 204.18 45.2198 204.41 45.3098C204.64 45.3998 204.85 45.5398 205.02 45.7098C205.2 45.8798 205.33 46.0898 205.42 46.3198C205.51 46.5598 205.56 46.8098 205.56 47.0998C205.56 47.3898 205.52 47.6298 205.42 47.8698Z" fill="#010101"/>
<path d="M211.59 46.6098H208.75V44.3398H207.73V49.8298H208.75V47.4798H211.59V49.8298H212.6V44.3398H211.59V46.6098Z" fill="#010101"/>
<path d="M218.74 44.3398H214.72L214.66 46.0698C214.64 46.4898 214.62 46.8698 214.58 47.2298C214.54 47.5798 214.49 47.8898 214.42 48.1498C214.35 48.4098 214.25 48.6098 214.12 48.7598C213.99 48.8998 213.83 48.9698 213.63 48.9698H213.45L213.43 50.9998H214.38V49.8298H218.59V50.9998H219.53V48.9698H218.74V44.3398ZM217.74 48.9698H214.95C215 48.9198 215.06 48.8498 215.1 48.7698C215.2 48.5898 215.29 48.3698 215.34 48.0998C215.4 47.8298 215.44 47.5398 215.48 47.2098C215.51 46.8798 215.54 46.5398 215.55 46.1698L215.59 45.1998H217.74V48.9698Z" fill="#010101"/>
<path d="M47.0899 38.5601L46.4499 34.6001C46.4499 34.6001 44.2399 35.8001 45.0399 42.2201L43.6999 37.7301C42.2799 39.2601 42.7099 42.6301 43.1999 44.8101C42.7799 44.9601 42.1999 45.2801 41.4099 45.8301L37.3599 47.9101C42.7699 42.2101 41.1999 40.2201 41.1999 40.2201L34.0899 47.2801C31.5399 49.8201 29.9799 53.2001 29.7799 56.7901C29.7699 56.8801 29.7699 56.9801 29.7699 57.0801C29.2099 58.9501 29.3899 60.9901 30.2599 62.7701L30.5699 63.4001L46.6199 47.4701L48.2799 45.8201L49.6599 34.0801C49.6499 34.0901 47.3599 35.7201 47.0899 38.5601Z" fill="#FED500"/>
<path d="M21.63 57.0798C21.63 56.9798 21.62 56.8898 21.62 56.7898C21.42 53.1998 19.86 49.8098 17.31 47.2798L10.2 40.2198C10.2 40.2198 8.62999 42.2098 14.04 47.9098L8.18999 44.8498C8.66999 42.6798 9.12999 39.2598 7.68999 37.7298L6.34999 42.2198C7.14999 35.7998 4.93999 34.5998 4.93999 34.5998L4.29999 38.5598C4.03999 35.7198 1.73999 34.0898 1.73999 34.0898L3.11999 45.8298L4.77999 47.4798L20.83 63.4098L21.14 62.7798C22.01 60.9898 22.2 58.9498 21.63 57.0798Z" fill="#FED500"/>
<path d="M30.56 63.62C30.55 63.62 30.54 63.62 30.52 63.62C30.45 63.61 30.39 63.57 30.36 63.5L30.05 62.87C28.94 60.6 28.94 57.94 30.05 55.76C30.6 54.68 31.4 53.72 32.43 52.9C36.4 49.74 42.35 47.15 43.46 46.68C43.11 45.54 41.48 39.8 43.54 37.59C43.59 37.53 43.67 37.51 43.74 37.53C43.81 37.55 43.87 37.6 43.9 37.68L46.8 47.43C46.82 47.51 46.8 47.59 46.75 47.64L30.71 63.56C30.67 63.6 30.62 63.62 30.56 63.62ZM30.44 62.68L30.62 63.04L46.37 47.41L43.62 38.18C41.96 40.65 43.91 46.67 43.93 46.73C43.96 46.84 43.91 46.95 43.81 46.99C43.74 47.02 37.03 49.78 32.7 53.23C31.72 54.01 30.96 54.92 30.44 55.95C29.39 58.01 29.39 60.53 30.44 62.68Z" fill="#010101"/>
<path d="M46.61 47.6902C46.59 47.6902 46.57 47.6902 46.56 47.6802C46.49 47.6602 46.43 47.6102 46.41 47.5302L44.85 42.2702C44.85 42.2602 44.84 42.2502 44.84 42.2402C44.03 35.7502 46.26 34.4602 46.36 34.4102C46.42 34.3802 46.49 34.3802 46.56 34.4102C46.62 34.4402 46.67 34.5002 46.68 34.5702L48.5 45.8002C48.51 45.8702 48.49 45.9402 48.44 45.9902L46.78 47.6402C46.72 47.6702 46.66 47.6902 46.61 47.6902ZM45.25 42.1802L46.71 47.0802L48.04 45.7602L46.3 35.0102C45.78 35.5702 44.66 37.3802 45.25 42.1802Z" fill="#010101"/>
<path d="M48.27 46.0402C48.17 46.0402 48.08 45.9602 48.06 45.8602L46.88 38.6002C46.88 38.5802 46.88 38.5602 46.88 38.5502C47.15 35.6402 49.43 33.9902 49.53 33.9202C49.6 33.8702 49.69 33.8702 49.76 33.9102C49.83 33.9502 49.87 34.0302 49.86 34.1202L48.48 45.8602C48.47 45.9602 48.38 46.0402 48.27 46.0402ZM47.31 38.5602L48.24 44.2902L49.38 34.6002C48.73 35.2002 47.5 36.5802 47.31 38.5602Z" fill="#010101"/>
<path d="M29.76 57.3C29.63 57.3 29.54 57.2 29.55 57.08C29.55 56.98 29.56 56.89 29.56 56.79C29.76 53.17 31.31 49.74 33.93 47.14L41.04 40.08C41.08 40.04 41.14 40.01 41.2 40.02C41.26 40.02 41.32 40.05 41.35 40.1C41.42 40.19 42.97 42.3 37.5 48.07C37.42 48.16 37.28 48.16 37.2 48.08C37.11 48 37.11 47.86 37.19 47.78C41.35 43.4 41.3 41.28 41.11 40.61L34.22 47.45C31.67 49.98 30.16 53.31 29.97 56.82C29.96 56.91 29.96 57.01 29.96 57.1C29.97 57.21 29.88 57.3 29.76 57.3Z" fill="#010101"/>
<path d="M40.08 48.6901C40.07 48.6901 40.06 48.6901 40.05 48.6901L36.29 48.1501C36.17 48.1301 36.09 48.0301 36.11 47.9101C36.13 47.7901 36.23 47.7101 36.35 47.7301L40.11 48.2701C40.23 48.2901 40.31 48.3901 40.29 48.5101C40.28 48.6201 40.19 48.6901 40.08 48.6901Z" fill="#010101"/>
<path d="M37.36 48.1202C37.28 48.1202 37.21 48.0802 37.17 48.0102C37.12 47.9102 37.16 47.7802 37.26 47.7202L43.11 44.6602C43.21 44.6102 43.34 44.6502 43.4 44.7502C43.45 44.8502 43.41 44.9802 43.31 45.0402L37.46 48.1002C37.43 48.1202 37.4 48.1202 37.36 48.1202Z" fill="#010101"/>
<path d="M20.84 63.6199C20.78 63.6199 20.73 63.5999 20.69 63.5599L4.63995 47.6299C4.57995 47.5699 4.55995 47.4899 4.58995 47.4199L7.48995 37.6699C7.50995 37.5999 7.56995 37.5399 7.64995 37.5199C7.71995 37.4999 7.79995 37.5299 7.84995 37.5799C9.91995 39.7899 8.27995 45.5399 7.92995 46.6699C9.03995 47.1399 14.98 49.7299 18.96 52.8899C19.99 53.7099 20.79 54.6699 21.34 55.7499C22.45 57.9299 22.45 60.5899 21.34 62.8599L21.03 63.4899C21 63.5499 20.94 63.5999 20.87 63.6099C20.86 63.6199 20.85 63.6199 20.84 63.6199ZM5.02995 47.4199L20.78 63.0499L20.96 62.6899C22.01 60.5399 22.01 58.0199 20.96 55.9599C20.44 54.9399 19.68 54.0199 18.7 53.2399C14.36 49.7899 7.64995 47.0299 7.57995 46.9999C7.47995 46.9599 7.41995 46.8399 7.45995 46.7399C7.47995 46.6799 9.42995 40.6599 7.76995 38.1899L5.02995 47.4199Z" fill="#010101"/>
<path d="M4.78998 47.6899C4.72998 47.6899 4.67998 47.6699 4.63998 47.6299L2.97998 45.9799C2.92998 45.9299 2.90998 45.8599 2.91998 45.7899L4.73998 34.5599C4.74998 34.4899 4.78998 34.4299 4.85998 34.3999C4.91998 34.3699 4.98998 34.3699 5.05998 34.3999C5.15998 34.4499 7.38998 35.7399 6.57998 42.2299C6.57998 42.2399 6.57998 42.2499 6.56998 42.2599L5.00998 47.5199C4.98998 47.5899 4.92998 47.6499 4.85998 47.6699C4.81998 47.6899 4.80998 47.6899 4.78998 47.6899ZM3.34998 45.7599L4.67998 47.0799L6.13998 42.1799C6.73998 37.3799 5.61998 35.5799 5.08998 35.0099L3.34998 45.7599Z" fill="#010101"/>
<path d="M3.12996 46.0402C3.11996 46.0402 3.11996 46.0402 3.12996 46.0402C3.01996 46.0402 2.92996 45.9602 2.91996 45.8502L1.52996 34.1202C1.51996 34.0402 1.55996 33.9502 1.62996 33.9102C1.69996 33.8702 1.78996 33.8702 1.85996 33.9202C1.95996 33.9902 4.23996 35.6402 4.50996 38.5502C4.50996 38.5702 4.50996 38.5902 4.50996 38.6002L3.32996 45.8602C3.31996 45.9702 3.22996 46.0402 3.12996 46.0402ZM2.01996 34.6002L3.15996 44.2902L4.08996 38.5602C3.89996 36.5802 2.66996 35.2002 2.01996 34.6002Z" fill="#010101"/>
<path d="M21.63 57.3C21.52 57.3 21.42 57.21 21.42 57.1C21.42 57 21.41 56.91 21.41 56.82C21.22 53.3 19.71 49.98 17.16 47.45L10.27 40.61C10.09 41.27 10.02 43.39 14.19 47.78C14.27 47.87 14.27 48 14.18 48.08C14.09 48.16 13.96 48.16 13.88 48.07C8.41001 42.31 9.96001 40.19 10.03 40.1C10.07 40.05 10.12 40.02 10.18 40.02C10.24 40.02 10.3 40.04 10.34 40.08L17.45 47.14C20.07 49.74 21.63 53.17 21.82 56.79C21.83 56.89 21.83 56.98 21.83 57.08C21.85 57.19 21.76 57.29 21.63 57.3C21.64 57.3 21.64 57.3 21.63 57.3Z" fill="#010101"/>
<path d="M11.31 48.6901C11.21 48.6901 11.11 48.6101 11.1 48.5101C11.08 48.3901 11.16 48.2901 11.28 48.2701L15.04 47.7301C15.16 47.7101 15.26 47.7901 15.28 47.9101C15.3 48.0301 15.22 48.1301 15.1 48.1501L11.34 48.6901C11.33 48.6901 11.32 48.6901 11.31 48.6901Z" fill="#010101"/>
<path d="M14.03 48.1202C14 48.1202 13.96 48.1102 13.93 48.1002L8.08003 45.0402C7.98003 44.9902 7.94003 44.8602 7.99003 44.7502C8.04003 44.6502 8.17003 44.6102 8.28003 44.6602L14.13 47.7202C14.23 47.7702 14.27 47.9002 14.22 48.0102C14.18 48.0802 14.11 48.1202 14.03 48.1202Z" fill="#010101"/>
<path d="M25.98 43.4199C37.8486 43.4199 47.47 33.7985 47.47 21.9299C47.47 10.0613 37.8486 0.439941 25.98 0.439941C14.1114 0.439941 4.48999 10.0613 4.48999 21.9299C4.48999 33.7985 14.1114 43.4199 25.98 43.4199Z" fill="#255EAC"/>
<path d="M25.98 43.6699C14 43.6699 4.25 33.9199 4.25 21.9299C4.25 9.93994 14 0.189941 25.98 0.189941C37.96 0.189941 47.72 9.93994 47.72 21.9299C47.72 33.9199 37.97 43.6699 25.98 43.6699ZM25.98 0.699941C14.27 0.699941 4.75 10.2299 4.75 21.9299C4.75 33.6299 14.28 43.1599 25.98 43.1599C37.68 43.1599 47.21 33.6299 47.21 21.9299C47.21 10.2299 37.69 0.699941 25.98 0.699941Z" fill="#231F20"/>
<path d="M50.32 18.8397C50.01 18.0897 49.36 17.7097 48.65 17.4197C47.86 17.0897 47.06 16.7897 46.27 16.4697C45.79 16.2797 45.32 16.2197 44.81 16.4397C44.35 16.6397 43.97 16.4897 43.74 16.0297C43.61 15.7697 43.54 15.4797 43.45 15.1997C43.22 14.5497 42.84 14.3597 42.26 14.7097C41.44 15.2197 40.62 15.1897 39.77 14.8597C39.3 14.6797 38.82 14.5897 38.3 14.7197C37.73 14.8597 37.36 14.5797 37.26 13.9897C37.21 13.7197 37.19 13.4297 37.23 13.1597C37.43 11.9097 37.07 10.9597 35.38 11.0997C34.24 11.1997 33.38 9.74973 34.03 8.78973C34.41 8.22973 34.26 7.90973 33.95 7.48973C33.77 7.23973 33.65 6.94973 33.47 6.69973C33.03 6.02973 32.4 5.73973 31.61 5.88973C31.08 5.98973 30.55 6.12973 30.04 6.30973C29.1 6.63973 28.17 6.89973 27.16 6.91973C26.57 6.92973 25.94 7.04973 25.41 7.28973C24.39 7.74973 23.99 8.62973 24.07 9.74973C24.09 9.97973 23.94 10.3297 23.75 10.4397C23.61 10.5297 23.26 10.3697 23.07 10.2297C22.7 9.95973 22.34 9.80973 21.88 9.94973C21.18 10.1697 20.56 10.0897 20 9.54973C19.86 9.39973 19.38 9.29973 19.28 9.39973C18.79 9.89973 18.33 9.67973 17.82 9.48973C17.62 9.40973 17.37 9.36973 17.16 9.40973C16.52 9.53973 15.93 9.50973 15.3 9.27973C14 8.80973 12.69 8.35973 11.36 7.99973C10.03 7.63973 8.67001 7.63973 7.35001 8.07973C7.00001 8.18973 6.64001 8.46973 6.44001 8.76973C6.01001 9.40973 5.92001 9.49973 5.15001 9.34973C5.05001 9.32973 4.95001 9.31973 4.82001 9.29973C4.69001 9.93973 4.93001 10.4597 5.20001 10.9997C5.46001 11.5097 5.73001 12.0297 5.86001 12.5797C6.18001 13.9397 6.13001 14.3197 4.88001 14.9497C4.87001 14.9597 4.85001 14.9697 4.84001 14.9697C3.47001 15.9397 2.25001 17.0597 2.32001 18.8797C2.36001 19.8897 2.11001 20.5897 1.42001 21.3297C0.930009 21.8497 0.670009 22.6797 1.08001 23.4297C1.45001 24.1097 2.03001 24.5497 2.90001 24.4097C3.56001 24.3097 4.19001 24.3997 4.74001 24.8297C5.10001 25.1097 5.51001 25.1297 5.91001 24.9797C6.69001 24.6797 7.36001 24.7997 7.97001 25.3997C8.38001 25.7997 8.55001 25.7797 8.92001 25.3497C9.25001 24.9597 9.63001 24.8197 10.13 24.9197C10.71 25.0297 11.21 24.8397 11.62 24.4197C11.81 24.2297 11.99 24.0397 12.18 23.8597C13.41 22.6897 15.37 22.4597 16.77 23.2397C17.51 23.6597 18.29 24.0197 19.09 24.2997C19.92 24.5997 20.34 25.0897 20.4 25.9797C20.43 26.4497 20.58 26.9397 20.8 27.3597C21.26 28.2497 21.79 29.0997 22.29 29.9697C22.51 30.3497 22.82 30.7697 22.52 31.1997C22.19 31.6697 21.65 31.5697 21.18 31.4597C20.8 31.3597 20.44 31.1697 20.07 31.0397C19.96 30.9997 19.76 30.9697 19.71 31.0197C19.63 31.1097 19.62 31.2797 19.62 31.4197C19.62 31.5197 19.69 31.6097 19.73 31.7097C19.93 32.1397 19.9 32.4897 19.56 32.8797C18.9 33.6197 18.31 34.4197 17.67 35.2197C18.3 35.6597 18.9 35.8897 19.6 35.5097C19.8 35.3997 20.03 35.3197 20.26 35.2497C20.68 35.1197 21.07 35.1297 21.41 35.4597C21.48 35.5197 21.57 35.5597 21.71 35.6497C21.67 35.4997 21.65 35.4197 21.62 35.3297C21.33 34.3497 21.54 33.8397 22.53 33.5897C23.48 33.3497 23.95 32.7697 24.08 31.8497C24.09 31.7497 24.14 31.6497 24.16 31.5497C24.31 30.8297 24.77 30.3997 25.45 30.1697C26.25 29.8997 27.07 29.8297 27.89 30.0397C28.23 30.1297 28.58 30.3097 28.85 30.5297C28.97 30.6297 29 30.9797 28.93 31.1497C28.88 31.2597 28.56 31.2997 28.37 31.2797C28.11 31.2497 27.86 31.1297 27.6 31.0497C27.77 31.2897 28.01 31.4197 28.15 31.6197C28.68 32.3697 29.36 32.6797 30.28 32.5797C30.92 32.5097 31.58 32.5197 32.22 32.5797C32.45 32.5997 32.81 32.8297 32.84 33.0097C32.89 33.2597 32.7 33.5697 32.57 33.8197C32.51 33.9297 32.35 34.0097 32.21 34.0697C31.64 34.3197 31.07 34.5497 30.5 34.7897C30.28 34.8797 30.06 34.9797 29.84 35.0697C29.84 35.1197 29.84 35.1597 29.85 35.2097C30.26 35.3497 30.68 35.4597 31.08 35.6297C32.34 36.1497 32.73 36.9297 32.38 38.2197C32.37 38.2597 32.35 38.2997 32.35 38.3497C32.24 38.9497 32.55 39.3297 33.15 39.2297C33.51 39.1697 33.89 39.0097 34.17 38.7697C34.75 38.2897 35.32 37.8697 36.08 37.7197C36.56 37.6197 36.92 37.3397 37.15 36.8697C37.37 36.4097 37.63 36.3097 38.13 36.4497C38.41 36.5297 38.68 36.6597 38.96 36.7497C39.39 36.8897 39.81 36.8597 40.16 36.5397C40.46 36.2697 40.54 35.6497 40.3 35.3597C39.97 34.9497 39.67 35.2597 39.37 35.4297C38.96 35.6597 38.57 35.9397 38.13 36.0997C37.18 36.4597 36.62 36.1097 36.48 35.1197C36.43 34.7497 36.27 34.4897 35.95 34.2997C35.8 34.2097 35.6 34.1297 35.52 33.9997C35.38 33.7597 35.21 33.4497 35.26 33.2197C35.31 33.0197 35.62 32.7997 35.86 32.7397C36.28 32.6397 36.55 32.4297 36.69 32.0397C36.86 31.5597 37.2 31.2697 37.64 31.0497C37.88 30.9297 38.14 30.7597 38.29 30.5497C38.78 29.8497 39.43 29.6497 40.25 29.7497C40.64 29.7997 41.11 29.7497 41.44 29.5597C42.49 28.9697 43.57 28.4897 44.77 28.3197C45.08 28.2797 45.22 28.0597 45.21 27.7497C45.2 27.5697 45.19 27.3997 45.19 27.2197C45.2 26.6497 45.46 26.2997 46.02 26.1897C46.34 26.1197 46.55 25.9697 46.68 25.6697C46.85 25.2697 47.18 25.0997 47.6 25.0997C47.94 25.0997 48.28 25.1197 48.62 25.1097C49.54 25.0797 50.05 24.3097 49.74 23.4497C49.65 23.2197 49.55 22.9897 49.47 22.7497C49.31 22.2497 49.37 21.7897 49.79 21.4197C49.85 21.3697 49.88 21.2797 49.93 21.2097C49.32 20.6597 49.29 20.3397 49.88 20.1397C50.5 19.8997 50.61 19.5497 50.32 18.8397Z" fill="#FED500"/>
<path d="M50.65 18.91C50.36 18.04 49.7 17.55 48.89 17.22C48.03 16.86 47.17 16.52 46.31 16.19C45.82 16 45.32 15.94 44.8 16.15C44.36 16.33 44.11 16.22 43.93 15.78C43.81 15.5 43.75 15.19 43.63 14.9C43.39 14.34 42.94 14.15 42.37 14.35C42.19 14.41 42.01 14.5 41.85 14.6C41.39 14.89 40.91 14.91 40.4 14.77C40.03 14.67 39.67 14.53 39.3 14.45C39.03 14.4 38.74 14.38 38.47 14.42C37.79 14.53 37.56 14.39 37.52 13.71C37.49 13.27 37.55 12.83 37.55 12.39C37.54 11.47 36.9 10.84 35.98 10.84C35.83 10.84 35.68 10.84 35.54 10.85C35.06 10.88 34.61 10.82 34.38 10.32C34.14 9.76997 34.01 9.21997 34.45 8.69997C34.67 8.43997 34.71 8.16997 34.54 7.88997C34.24 7.39997 33.95 6.89997 33.63 6.42997C33.19 5.77997 32.55 5.51997 31.79 5.59997C31.33 5.64997 30.85 5.71997 30.41 5.88997C29.13 6.38997 27.82 6.62997 26.45 6.69997C25.15 6.76997 24.16 7.55997 23.87 8.69997C23.78 9.04997 23.83 9.42997 23.79 9.78997C23.77 9.93997 23.68 10.07 23.63 10.21C23.5 10.15 23.35 10.12 23.25 10.03C22.83 9.64997 22.36 9.51997 21.82 9.67998C21.19 9.86998 20.65 9.80998 20.17 9.29998C19.87 8.97998 19.28 8.91997 19.08 9.15997C18.71 9.57997 18.37 9.38998 17.97 9.24997C17.68 9.14998 17.35 9.09997 17.05 9.14997C16.48 9.23997 15.97 9.21998 15.41 9.01998C14.07 8.53998 12.72 8.06997 11.34 7.70998C9.96 7.34997 8.54 7.35998 7.17 7.83998C6.83 7.95998 6.42 8.18997 6.27 8.48997C5.98 9.04997 5.66 9.24997 5.05 9.03997C4.71 8.92998 4.46 9.11998 4.51 9.45998C4.6 9.99998 4.68 10.58 4.93 11.05C5.3 11.75 5.57 12.47 5.68 13.25C5.77 13.89 5.67 14.11 5.12 14.45C4.77 14.67 4.42 14.89 4.09 15.14C2.79 16.15 1.89 17.4 2 19.11C2.05 19.87 1.85 20.38 1.31 20.92C0.330001 21.9 0.410001 23.33 1.38 24.25C1.79 24.64 2.27 24.76 2.81 24.68C3.46 24.59 4.06 24.67 4.61 25.08C5.05 25.41 5.55 25.39 6.05 25.21C6.66 24.99 7.17 25.05 7.67 25.52C8.32 26.13 8.59 26.07 9.23 25.45C9.39 25.3 9.68 25.15 9.87 25.18C10.78 25.33 11.49 25.03 12.08 24.36C12.27 24.14 12.49 23.93 12.73 23.76C13.9 22.99 15.13 22.76 16.45 23.39C17.31 23.8 18.16 24.24 19.05 24.59C19.72 24.85 20.01 25.26 20.08 25.96C20.13 26.47 20.28 27.01 20.51 27.47C21.01 28.45 21.61 29.38 22.14 30.35C22.47 30.95 22.27 31.29 21.59 31.2C21.12 31.14 20.68 30.89 20.21 30.77C19.96 30.71 19.56 30.66 19.46 30.79C19.31 30.97 19.35 31.32 19.36 31.6C19.36 31.74 19.51 31.87 19.51 32.01C19.51 32.18 19.49 32.4 19.39 32.53C18.77 33.32 18.14 34.1 17.5 34.86C17.28 35.12 17.31 35.32 17.57 35.48C18.2 35.88 18.84 36.18 19.59 35.78C19.75 35.7 19.91 35.64 20.08 35.57C20.52 35.38 20.92 35.36 21.3 35.73C21.42 35.85 21.65 35.86 21.83 35.92C21.86 35.71 21.96 35.49 21.92 35.31C21.68 34.25 21.76 34.09 22.81 33.75C22.88 33.73 22.95 33.71 23.02 33.68C23.64 33.5 24.03 33.09 24.19 32.47C24.28 32.14 24.34 31.81 24.46 31.49C24.55 31.25 24.67 30.99 24.85 30.81C25.58 30.09 27.61 29.95 28.45 30.53C28.57 30.62 28.64 30.78 28.73 30.91C28.7 30.94 28.66 30.97 28.63 31C28.31 30.91 27.99 30.79 27.66 30.76C27.52 30.75 27.37 30.94 27.22 31.03C27.31 31.16 27.38 31.31 27.49 31.42C27.65 31.58 27.86 31.7 28 31.88C28.57 32.58 29.27 32.94 30.2 32.85C30.8 32.79 31.41 32.78 32.01 32.81C32.21 32.82 32.4 33 32.6 33.1C32.47 33.3 32.38 33.57 32.19 33.67C31.64 33.97 31.05 34.2 30.47 34.46C30.24 34.56 29.99 34.63 29.78 34.76C29.48 34.95 29.48 35.24 29.78 35.43C29.95 35.54 30.16 35.57 30.35 35.65C30.7 35.8 31.08 35.91 31.39 36.11C32.25 36.67 32.39 37.09 32.12 38.06C32.09 38.17 32.06 38.29 32.05 38.4C31.99 39.07 32.34 39.47 33.02 39.49C33.53 39.51 33.98 39.34 34.35 38.99C34.9 38.48 35.5 38.09 36.25 37.93C36.79 37.81 37.2 37.49 37.41 36.94C37.51 36.66 37.74 36.56 38.02 36.66C38.31 36.76 38.59 36.9 38.89 36.99C39.41 37.16 39.93 37.12 40.34 36.74C40.72 36.39 40.78 35.92 40.66 35.43C40.54 34.93 40.12 34.71 39.65 34.9C39.45 34.98 39.27 35.13 39.08 35.23C38.72 35.43 38.37 35.66 37.99 35.8C37.26 36.07 36.86 35.81 36.77 35.04C36.71 34.56 36.5 34.21 36.08 33.97C35.96 33.91 35.83 33.84 35.76 33.74C35.66 33.61 35.51 33.41 35.55 33.3C35.6 33.16 35.8 33.01 35.96 32.98C36.49 32.89 36.81 32.6 36.98 32.11C37.12 31.71 37.41 31.47 37.78 31.27C38.07 31.12 38.37 30.91 38.56 30.65C38.99 30.06 39.52 29.87 40.22 30.01C40.76 30.12 41.29 30.01 41.75 29.72C42.69 29.14 43.69 28.75 44.79 28.57C45.38 28.47 45.54 28.22 45.53 27.61C45.53 27.49 45.51 27.37 45.51 27.26C45.51 26.75 45.67 26.53 46.17 26.42C46.55 26.34 46.81 26.15 46.96 25.79C47.09 25.48 47.33 25.35 47.66 25.35C48.01 25.35 48.37 25.38 48.72 25.36C49.78 25.3 50.41 24.36 50.06 23.36C49.96 23.07 49.8 22.79 49.76 22.49C49.73 22.25 49.77 21.94 49.9 21.75C50.37 21.1 50.39 21.11 49.74 20.55C49.87 20.46 49.95 20.39 50.05 20.34C50.75 20 50.9 19.66 50.65 18.91ZM49.93 21.18C49.89 21.25 49.85 21.33 49.79 21.39C49.37 21.76 49.31 22.22 49.47 22.72C49.55 22.96 49.65 23.19 49.74 23.42C50.06 24.28 49.55 25.05 48.62 25.08C48.28 25.09 47.94 25.07 47.6 25.07C47.18 25.07 46.86 25.24 46.68 25.64C46.55 25.94 46.34 26.09 46.02 26.16C45.46 26.27 45.2 26.62 45.19 27.19C45.19 27.37 45.2 27.54 45.21 27.72C45.22 28.03 45.09 28.24 44.77 28.29C43.57 28.46 42.49 28.95 41.44 29.53C41.11 29.72 40.64 29.77 40.25 29.72C39.42 29.62 38.78 29.81 38.29 30.52C38.14 30.74 37.88 30.9 37.64 31.02C37.2 31.24 36.86 31.54 36.69 32.01C36.55 32.4 36.28 32.61 35.86 32.71C35.63 32.77 35.31 32.99 35.26 33.19C35.21 33.42 35.38 33.73 35.52 33.97C35.6 34.11 35.79 34.19 35.95 34.27C36.26 34.46 36.43 34.72 36.48 35.09C36.62 36.09 37.18 36.43 38.13 36.07C38.56 35.91 38.95 35.62 39.37 35.4C39.67 35.24 39.96 34.92 40.3 35.33C40.54 35.62 40.46 36.23 40.16 36.51C39.81 36.83 39.39 36.86 38.96 36.72C38.68 36.63 38.41 36.5 38.13 36.42C37.63 36.28 37.37 36.38 37.15 36.84C36.92 37.31 36.56 37.59 36.08 37.69C35.33 37.85 34.75 38.27 34.17 38.74C33.89 38.97 33.51 39.14 33.15 39.2C32.55 39.3 32.24 38.91 32.35 38.32C32.36 38.28 32.37 38.23 32.38 38.19C32.73 36.91 32.35 36.13 31.08 35.6C30.68 35.44 30.26 35.32 29.85 35.18C29.85 35.13 29.85 35.09 29.84 35.04C30.06 34.95 30.28 34.85 30.5 34.76C31.07 34.52 31.64 34.28 32.21 34.04C32.34 33.98 32.51 33.91 32.57 33.79C32.7 33.53 32.89 33.22 32.84 32.98C32.81 32.8 32.45 32.57 32.22 32.55C31.58 32.5 30.92 32.49 30.28 32.55C29.36 32.65 28.68 32.34 28.15 31.59C28.01 31.39 27.77 31.25 27.6 31.02C27.85 31.1 28.1 31.22 28.37 31.25C28.56 31.27 28.88 31.23 28.93 31.12C29 30.95 28.98 30.6 28.85 30.5C28.58 30.27 28.23 30.09 27.89 30.01C27.07 29.8 26.25 29.87 25.45 30.14C24.77 30.37 24.31 30.8 24.16 31.52C24.14 31.62 24.1 31.72 24.08 31.82C23.95 32.75 23.48 33.32 22.53 33.56C21.55 33.81 21.33 34.32 21.62 35.3C21.64 35.38 21.66 35.46 21.71 35.62C21.57 35.53 21.47 35.5 21.41 35.43C21.07 35.1 20.67 35.09 20.26 35.22C20.04 35.29 19.81 35.37 19.6 35.48C18.9 35.87 18.3 35.63 17.67 35.19C18.31 34.4 18.9 33.6 19.56 32.85C19.9 32.47 19.93 32.11 19.73 31.68C19.69 31.59 19.62 31.49 19.62 31.39C19.62 31.25 19.63 31.08 19.71 30.99C19.76 30.93 19.96 30.97 20.07 31.01C20.44 31.14 20.8 31.34 21.18 31.43C21.65 31.55 22.2 31.64 22.52 31.17C22.82 30.75 22.51 30.32 22.29 29.94C21.79 29.07 21.26 28.22 20.8 27.33C20.58 26.91 20.44 26.42 20.4 25.95C20.34 25.06 19.92 24.57 19.09 24.27C18.29 23.98 17.51 23.62 16.77 23.21C15.37 22.42 13.41 22.65 12.18 23.83C11.99 24.01 11.8 24.2 11.62 24.39C11.21 24.81 10.71 25 10.13 24.89C9.62 24.79 9.25 24.93 8.92 25.32C8.55 25.75 8.38 25.77 7.97 25.37C7.36 24.77 6.69 24.65 5.91 24.95C5.5 25.11 5.09 25.08 4.74 24.8C4.19 24.37 3.56 24.28 2.9 24.38C2.04 24.52 1.46 24.08 1.08 23.4C0.670002 22.65 0.930001 21.83 1.42 21.3C2.11 20.57 2.36 19.86 2.32 18.85C2.25 17.03 3.47 15.91 4.84 14.94C4.85 14.93 4.86 14.92 4.88 14.92C6.13 14.3 6.18 13.91 5.86 12.55C5.73 12.02 5.46 11.5 5.2 11C4.93 10.46 4.69 9.93998 4.82 9.29998C4.95 9.31998 5.05 9.32998 5.15 9.34998C5.92 9.49998 6.01 9.40998 6.44 8.76998C6.64 8.46998 7 8.18997 7.35 8.07997C8.67 7.63997 10.03 7.64998 11.36 7.99997C12.69 8.35997 14 8.80997 15.3 9.27997C15.93 9.50997 16.52 9.53997 17.16 9.40997C17.37 9.36997 17.62 9.40997 17.82 9.48997C18.33 9.68997 18.79 9.90997 19.28 9.39997C19.38 9.29997 19.86 9.38998 20.02 9.54998C20.58 10.1 21.2 10.17 21.9 9.94997C22.36 9.80997 22.72 9.95997 23.09 10.23C23.28 10.37 23.64 10.52 23.77 10.44C23.95 10.33 24.11 9.97997 24.09 9.74997C24 8.61997 24.4 7.74997 25.43 7.28997C25.96 7.04997 26.59 6.92997 27.18 6.91997C28.19 6.89997 29.12 6.63997 30.06 6.30997C30.57 6.12997 31.1 5.98997 31.63 5.88997C32.42 5.73997 33.05 6.03997 33.49 6.69997C33.66 6.95997 33.79 7.24997 33.97 7.48997C34.28 7.90997 34.43 8.22997 34.05 8.78997C33.4 9.74997 34.25 11.2 35.4 11.1C37.08 10.96 37.45 11.91 37.25 13.16C37.21 13.43 37.23 13.72 37.28 13.99C37.38 14.57 37.74 14.85 38.32 14.72C38.84 14.6 39.32 14.68 39.79 14.86C40.65 15.19 41.46 15.21 42.28 14.71C42.86 14.35 43.24 14.55 43.47 15.2C43.57 15.48 43.63 15.77 43.76 16.03C43.99 16.49 44.36 16.64 44.83 16.44C45.33 16.22 45.81 16.28 46.29 16.47C47.08 16.78 47.88 17.09 48.67 17.42C49.38 17.71 50.03 18.09 50.34 18.84C50.63 19.54 50.53 19.9 49.9 20.1C49.29 20.3 49.32 20.63 49.93 21.18Z" fill="#010101"/>
<path d="M33.08 39.5898C33.06 39.5898 33.03 39.5898 33.01 39.5898C32.66 39.5798 32.38 39.4698 32.2 39.2598C32.02 39.0598 31.94 38.7598 31.97 38.4098C31.98 38.2898 32.01 38.1698 32.05 38.0498C32.32 37.0998 32.18 36.7098 31.36 36.1898C31.14 36.0498 30.88 35.9498 30.63 35.8598C30.53 35.8198 30.43 35.7798 30.33 35.7398C30.26 35.7098 30.19 35.6898 30.12 35.6698C29.99 35.6298 29.86 35.5898 29.75 35.5198C29.58 35.4098 29.49 35.2698 29.49 35.1098C29.49 34.9598 29.58 34.8098 29.75 34.7098C29.89 34.6198 30.05 34.5598 30.21 34.4998C30.29 34.4698 30.37 34.4398 30.45 34.3998C30.6 34.3298 30.75 34.2698 30.9 34.1998C31.32 34.0198 31.76 33.8298 32.16 33.6098C32.27 33.5498 32.34 33.4198 32.42 33.2698C32.44 33.2198 32.47 33.1798 32.49 33.1398C32.45 33.1198 32.41 33.0898 32.38 33.0698C32.25 32.9898 32.13 32.9098 32.02 32.8998C31.37 32.8698 30.78 32.8898 30.22 32.9398C29.32 33.0298 28.57 32.6998 27.95 31.9398C27.88 31.8498 27.78 31.7698 27.68 31.6898C27.6 31.6298 27.52 31.5598 27.44 31.4798C27.36 31.3998 27.3 31.2998 27.24 31.1998C27.21 31.1598 27.19 31.1198 27.16 31.0798L27.11 31.0098L27.18 30.9598C27.22 30.9298 27.27 30.8898 27.31 30.8598C27.42 30.7598 27.54 30.6598 27.67 30.6798C27.91 30.6998 28.15 30.7698 28.38 30.8398C28.46 30.8598 28.54 30.8898 28.62 30.9098L28.63 30.8998C28.62 30.8798 28.6 30.8498 28.59 30.8298C28.54 30.7398 28.48 30.6598 28.41 30.6098C27.6 30.0398 25.61 30.1998 24.92 30.8798C24.75 31.0498 24.64 31.2998 24.55 31.5298C24.47 31.7498 24.41 31.9798 24.36 32.2098C24.34 32.3098 24.31 32.3998 24.29 32.4998C24.12 33.1498 23.71 33.5698 23.06 33.7698C22.99 33.7898 22.92 33.8098 22.85 33.8298C21.85 34.1598 21.78 34.2698 22.02 35.2998C22.05 35.4498 22.01 35.5998 21.98 35.7498C21.96 35.8098 21.95 35.8798 21.94 35.9398L21.92 36.0398L21.82 35.9998C21.77 35.9798 21.71 35.9698 21.65 35.9498C21.51 35.9198 21.36 35.8798 21.26 35.7898C20.94 35.4798 20.6 35.4398 20.13 35.6498C20.07 35.6698 20.02 35.6998 19.96 35.7198C19.86 35.7598 19.75 35.8098 19.65 35.8598C18.86 36.2798 18.17 35.9598 17.54 35.5598C17.39 35.4598 17.31 35.3598 17.29 35.2298C17.27 35.0998 17.32 34.9598 17.45 34.8098C18.11 34.0298 18.74 33.2498 19.34 32.4798C19.44 32.3598 19.45 32.1298 19.45 32.0098C19.45 31.9598 19.42 31.8998 19.39 31.8398C19.35 31.7598 19.31 31.6898 19.31 31.5998C19.31 31.5598 19.31 31.5098 19.31 31.4598C19.3 31.1998 19.29 30.9098 19.44 30.7298C19.6 30.5398 20.12 30.6498 20.28 30.6898C20.48 30.7398 20.68 30.8098 20.88 30.8898C21.14 30.9898 21.39 31.0798 21.65 31.1198C21.94 31.1598 22.14 31.1198 22.22 30.9998C22.3 30.8798 22.27 30.6598 22.12 30.3898C21.91 30.0098 21.68 29.6198 21.46 29.2498C21.13 28.6898 20.79 28.0998 20.48 27.5098C20.25 27.0498 20.09 26.5098 20.04 25.9798C19.97 25.2998 19.69 24.9198 19.06 24.6798C18.36 24.4098 17.67 24.0698 17 23.7498C16.82 23.6598 16.63 23.5698 16.45 23.4798C15.25 22.8998 14.06 23.0198 12.81 23.8498C12.56 24.0198 12.34 24.2498 12.17 24.4298C11.53 25.1498 10.78 25.4298 9.88998 25.2798C9.71998 25.2498 9.45998 25.3898 9.31998 25.5298C8.65998 26.1598 8.34998 26.2598 7.63998 25.5998C7.18998 25.1798 6.70998 25.0898 6.09998 25.3098C5.49998 25.5298 4.99998 25.4798 4.58998 25.1698C4.10998 24.8098 3.54998 24.6798 2.84998 24.7798C2.25998 24.8598 1.75998 24.7098 1.35998 24.3298C0.85998 23.8498 0.57998 23.2398 0.56998 22.5898C0.55998 21.9598 0.81998 21.3498 1.28998 20.8798C1.80998 20.3498 1.99998 19.8598 1.94998 19.1398C1.84998 17.5998 2.53998 16.2798 4.06998 15.0998C4.38998 14.8498 4.72998 14.6398 5.09998 14.4098C5.61998 14.0898 5.70998 13.8998 5.61998 13.2898C5.51998 12.5798 5.27998 11.8898 4.87998 11.1198C4.62998 10.6498 4.53998 10.0898 4.45998 9.54978L4.42998 9.47978C4.39998 9.28978 4.44998 9.11978 4.56998 9.01978C4.69998 8.91978 4.87998 8.89978 5.07998 8.96978C5.61998 9.14978 5.90998 9.01978 6.19998 8.44978C6.35998 8.12978 6.78998 7.87978 7.13998 7.75978C8.47998 7.28978 9.90998 7.24978 11.37 7.62978C12.79 7.99978 14.16 8.47978 15.44 8.93978C15.94 9.11978 16.44 9.15978 17.04 9.05978C17.33 9.00978 17.67 9.04978 18 9.15978C18.04 9.17978 18.09 9.18978 18.13 9.20978C18.47 9.32978 18.73 9.42978 19.02 9.08978C19.11 8.97978 19.27 8.91978 19.46 8.91978C19.74 8.90978 20.05 9.03978 20.24 9.22978C20.67 9.67978 21.15 9.78978 21.81 9.58978C22.36 9.41978 22.87 9.54978 23.32 9.94978C23.38 9.99978 23.46 10.0298 23.55 10.0598C23.57 10.0698 23.59 10.0698 23.6 10.0798C23.61 10.0598 23.62 10.0398 23.63 10.0198C23.67 9.92978 23.72 9.83978 23.73 9.74978C23.75 9.60978 23.75 9.45978 23.75 9.31978C23.75 9.08978 23.75 8.85978 23.81 8.63978C24.12 7.45978 25.16 6.64978 26.47 6.57978C27.93 6.49978 29.22 6.23978 30.4 5.77978C30.86 5.59978 31.36 5.52978 31.8 5.47978C32.61 5.39978 33.27 5.68978 33.71 6.33978C33.99 6.74978 34.25 7.18978 34.5 7.60978L34.62 7.80978C34.81 8.11978 34.77 8.42978 34.53 8.71978C34.1 9.21978 34.25 9.74978 34.48 10.2498C34.68 10.6898 35.05 10.7598 35.56 10.7298C35.71 10.7198 35.86 10.7198 36 10.7198C36.98 10.7198 37.64 11.3798 37.65 12.3498C37.65 12.5398 37.64 12.7398 37.63 12.9298C37.62 13.1698 37.6 13.4298 37.62 13.6698C37.64 13.9798 37.7 14.1598 37.81 14.2498C37.93 14.3398 38.13 14.3598 38.47 14.2998C38.73 14.2598 39.02 14.2698 39.33 14.3298C39.57 14.3798 39.81 14.4498 40.04 14.5298C40.17 14.5698 40.3 14.6098 40.43 14.6498C40.96 14.7998 41.41 14.7398 41.81 14.4898C41.97 14.3898 42.15 14.2998 42.34 14.2398C42.96 14.0198 43.45 14.2398 43.71 14.8298C43.77 14.9798 43.82 15.1298 43.86 15.2798C43.9 15.4198 43.95 15.5698 44.01 15.7098C44.18 16.1098 44.38 16.1998 44.77 16.0398C45.25 15.8498 45.76 15.8598 46.34 16.0798C47.19 16.3998 48.06 16.7498 48.92 17.1098C49.89 17.5098 50.46 18.0698 50.72 18.8498C50.98 19.6398 50.82 20.0298 50.07 20.3998C50.01 20.4298 49.95 20.4698 49.88 20.5198C49.87 20.5298 49.86 20.5398 49.85 20.5398C50.43 21.0498 50.42 21.1198 49.98 21.7198L49.94 21.7798C49.82 21.9498 49.79 22.2498 49.81 22.4598C49.83 22.6498 49.91 22.8298 49.99 23.0198C50.03 23.1198 50.07 23.2198 50.11 23.3098C50.28 23.8098 50.23 24.3298 49.95 24.7398C49.68 25.1398 49.22 25.3898 48.69 25.4198C48.45 25.4298 48.2 25.4298 47.96 25.4198C47.85 25.4198 47.74 25.4098 47.63 25.4098C47.32 25.4098 47.12 25.5298 47.01 25.7998C46.86 26.1598 46.59 26.3898 46.16 26.4798C45.71 26.5798 45.57 26.7598 45.57 27.2398C45.57 27.2998 45.58 27.3698 45.58 27.4298C45.58 27.4798 45.59 27.5398 45.59 27.5898C45.61 28.2598 45.4 28.5298 44.78 28.6298C43.71 28.8098 42.72 29.1798 41.77 29.7698C41.28 30.0698 40.73 30.1798 40.18 30.0698C39.5 29.9398 39 30.1298 38.6 30.6798C38.43 30.9098 38.16 31.1298 37.79 31.3198C37.38 31.5398 37.15 31.7798 37.03 32.1098C36.84 32.6398 36.49 32.9398 35.95 33.0298C35.82 33.0498 35.64 33.1898 35.6 33.2898C35.58 33.3398 35.65 33.4598 35.8 33.6598C35.86 33.7298 35.96 33.7898 36.05 33.8398L36.09 33.8598C36.52 34.0998 36.76 34.4698 36.82 34.9898C36.86 35.3598 36.98 35.5998 37.16 35.7098C37.34 35.8198 37.6 35.8098 37.93 35.6898C38.2 35.5898 38.46 35.4398 38.72 35.2998C38.82 35.2398 38.92 35.1898 39.02 35.1298C39.09 35.0898 39.17 35.0398 39.24 34.9998C39.35 34.9298 39.47 34.8498 39.6 34.7998C39.85 34.6998 40.1 34.6998 40.3 34.7998C40.51 34.9098 40.66 35.1098 40.72 35.3798C40.86 35.9598 40.74 36.4298 40.37 36.7698C39.96 37.1398 39.45 37.2298 38.84 37.0398C38.67 36.9898 38.51 36.9198 38.35 36.8598C38.22 36.8098 38.1 36.7598 37.97 36.7098C37.73 36.6298 37.55 36.7098 37.46 36.9398C37.25 37.4898 36.83 37.8498 36.24 37.9798C35.57 38.1298 34.98 38.4598 34.38 39.0198C34.03 39.4098 33.59 39.5898 33.08 39.5898ZM31.38 32.7198C31.58 32.7198 31.8 32.7198 32.01 32.7298C32.17 32.7398 32.31 32.8298 32.45 32.9198C32.51 32.9598 32.57 32.9998 32.63 33.0298L32.71 33.0698L32.66 33.1498C32.62 33.2098 32.58 33.2798 32.55 33.3398C32.46 33.4998 32.37 33.6698 32.23 33.7498C31.82 33.9698 31.38 34.1598 30.95 34.3398C30.8 34.3998 30.65 34.4698 30.5 34.5398C30.42 34.5798 30.34 34.6098 30.25 34.6398C30.1 34.6998 29.95 34.7498 29.82 34.8298C29.7 34.8998 29.63 34.9998 29.63 35.0998C29.63 35.1998 29.7 35.2898 29.82 35.3698C29.92 35.4298 30.03 35.4698 30.15 35.5098C30.23 35.5298 30.3 35.5598 30.37 35.5898C30.47 35.6298 30.57 35.6698 30.67 35.7098C30.93 35.8098 31.19 35.9098 31.43 36.0598C32.31 36.6298 32.48 37.0898 32.19 38.1098C32.16 38.2198 32.13 38.3298 32.12 38.4398C32.09 38.7498 32.16 38.9998 32.31 39.1698C32.46 39.3398 32.7 39.4298 33.01 39.4398C33.5 39.4598 33.93 39.2998 34.28 38.9598C34.91 38.3698 35.52 38.0298 36.22 37.8698C36.75 37.7498 37.13 37.4298 37.32 36.9298C37.44 36.6098 37.71 36.4898 38.03 36.5998C38.16 36.6498 38.29 36.6998 38.42 36.7498C38.58 36.8098 38.74 36.8798 38.9 36.9298C39.45 37.0998 39.91 37.0298 40.27 36.6998C40.59 36.4098 40.69 35.9898 40.57 35.4698C40.52 35.2498 40.4 35.0798 40.23 34.9998C40.07 34.9198 39.87 34.9198 39.67 34.9998C39.55 35.0498 39.45 35.1198 39.33 35.1898C39.25 35.2398 39.18 35.2898 39.1 35.3298C39 35.3798 38.9 35.4398 38.81 35.4998C38.55 35.6498 38.28 35.7998 38 35.9098C37.61 36.0498 37.31 36.0598 37.08 35.9198C36.85 35.7798 36.72 35.5098 36.67 35.0798C36.61 34.6098 36.41 34.2898 36.02 34.0698L35.98 34.0498C35.87 33.9898 35.75 33.9298 35.68 33.8298C35.55 33.6598 35.41 33.4598 35.46 33.3098C35.52 33.1298 35.76 32.9698 35.93 32.9398C36.41 32.8598 36.72 32.5998 36.88 32.1298C37.01 31.7598 37.27 31.4798 37.72 31.2498C38.07 31.0698 38.32 30.8698 38.47 30.6598C38.91 30.0498 39.46 29.8398 40.21 29.9798C40.73 30.0798 41.22 29.9798 41.68 29.6998C42.65 29.0998 43.65 28.7198 44.75 28.5398C45.28 28.4498 45.44 28.2498 45.42 27.6598C45.42 27.6098 45.41 27.5598 45.41 27.5098C45.4 27.4398 45.4 27.3798 45.4 27.3098C45.4 26.7598 45.59 26.5098 46.12 26.3898C46.49 26.3098 46.72 26.1198 46.85 25.8098C46.98 25.4798 47.24 25.3098 47.62 25.3198C47.73 25.3198 47.84 25.3198 47.96 25.3298C48.2 25.3398 48.44 25.3398 48.68 25.3298C49.16 25.2998 49.57 25.0798 49.81 24.7198C50.05 24.3598 50.1 23.8898 49.95 23.4398C49.92 23.3398 49.88 23.2498 49.84 23.1598C49.76 22.9698 49.67 22.7698 49.65 22.5598C49.62 22.3298 49.64 21.9898 49.8 21.7598L49.84 21.6998C50.23 21.1598 50.23 21.1598 49.66 20.6698L49.58 20.5998L49.67 20.5398C49.71 20.5098 49.75 20.4798 49.78 20.4598C49.85 20.4098 49.92 20.3598 49.99 20.3298C50.67 19.9998 50.8 19.6998 50.56 18.9798C50.31 18.2398 49.77 17.7198 48.85 17.3398C47.98 16.9798 47.11 16.6298 46.27 16.3098C45.72 16.0998 45.26 16.0898 44.82 16.2698C44.35 16.4598 44.05 16.3398 43.84 15.8598C43.78 15.7198 43.73 15.5598 43.69 15.4198C43.65 15.2798 43.6 15.1298 43.54 14.9898C43.32 14.4798 42.91 14.2998 42.38 14.4898C42.2 14.5498 42.03 14.6298 41.88 14.7298C41.43 15.0098 40.94 15.0598 40.37 14.9098C40.24 14.8698 40.1 14.8298 39.97 14.7898C39.74 14.7198 39.51 14.6398 39.27 14.5998C38.99 14.5398 38.71 14.5298 38.47 14.5698C38.07 14.6298 37.84 14.6098 37.68 14.4798C37.53 14.3598 37.45 14.1498 37.43 13.7798C37.41 13.5298 37.43 13.2698 37.44 13.0198C37.45 12.8298 37.46 12.6398 37.46 12.4498C37.45 11.5798 36.85 10.9898 35.97 10.9798C35.82 10.9798 35.68 10.9798 35.53 10.9898C35.06 11.0198 34.55 10.9698 34.29 10.4098C34.06 9.88978 33.88 9.27978 34.37 8.70978C34.57 8.46978 34.6 8.23978 34.45 7.98978L34.33 7.78978C34.08 7.36978 33.82 6.93978 33.54 6.52978C33.14 5.92978 32.53 5.65978 31.78 5.73978C31.36 5.77978 30.87 5.84978 30.43 6.02978C29.23 6.49978 27.93 6.76978 26.45 6.84978C25.22 6.90978 24.23 7.66978 23.94 8.78978C23.89 8.98978 23.89 9.19978 23.88 9.42978C23.88 9.57978 23.88 9.72978 23.86 9.86978C23.85 9.97978 23.8 10.0898 23.75 10.1898C23.73 10.2298 23.71 10.2698 23.69 10.3198L23.66 10.3998L23.58 10.3598C23.54 10.3398 23.5 10.3298 23.46 10.3098C23.36 10.2698 23.26 10.2398 23.18 10.1598C22.77 9.78978 22.33 9.67978 21.83 9.82978C21.11 10.0498 20.56 9.91978 20.09 9.41978C19.94 9.25978 19.68 9.15978 19.44 9.15978C19.3 9.15978 19.18 9.20978 19.12 9.27978C18.76 9.69978 18.4 9.56978 18.05 9.43978C18.01 9.41978 17.96 9.40978 17.92 9.38978C17.62 9.28978 17.3 9.24978 17.04 9.28978C16.41 9.38978 15.89 9.34978 15.36 9.15978C14.08 8.69978 12.71 8.21978 11.3 7.84978C9.89998 7.41978 8.49998 7.45978 7.18998 7.90978C6.88998 8.01978 6.47998 8.23978 6.33998 8.51978C6.01998 9.15978 5.62998 9.32978 5.01998 9.11978C4.88998 9.06978 4.75998 9.07978 4.67998 9.14978C4.60998 9.20978 4.57998 9.31978 4.59998 9.44978V9.49978C4.67998 10.0298 4.76998 10.5698 5.00998 11.0198C5.42998 11.8098 5.66998 12.5098 5.76998 13.2498C5.86998 13.9198 5.74998 14.1798 5.16998 14.5298C4.79998 14.7598 4.45998 14.9698 4.14998 15.2098C2.66998 16.3598 1.98998 17.6398 2.08998 19.1098C2.13998 19.8798 1.92998 20.4198 1.37998 20.9798C0.93998 21.4198 0.69998 21.9898 0.70998 22.5698C0.71998 23.1698 0.97998 23.7498 1.44998 24.1998C1.81998 24.5498 2.25998 24.6898 2.80998 24.6098C3.55998 24.5098 4.14998 24.6398 4.66998 25.0298C5.03998 25.3098 5.47998 25.3498 6.02998 25.1498C6.70998 24.9098 7.22998 25.0098 7.72998 25.4698C8.32998 26.0298 8.53998 26.0098 9.17998 25.3998C9.35998 25.2298 9.65998 25.0698 9.88998 25.1098C10.74 25.2498 11.42 24.9998 12.03 24.3198C12.2 24.1298 12.43 23.8898 12.7 23.7098C14 22.8498 15.24 22.7298 16.5 23.3298C16.68 23.4198 16.87 23.5098 17.05 23.5998C17.71 23.9198 18.4 24.2598 19.1 24.5298C19.79 24.7998 20.11 25.2298 20.18 25.9698C20.23 26.4798 20.38 27.0098 20.61 27.4498C20.91 28.0398 21.25 28.6198 21.58 29.1798C21.8 29.5498 22.03 29.9398 22.24 30.3198C22.47 30.7398 22.42 30.9698 22.33 31.0998C22.25 31.2198 22.05 31.3498 21.61 31.2898C21.33 31.2498 21.06 31.1498 20.8 31.0498C20.61 30.9798 20.42 30.9098 20.22 30.8598C19.9 30.7798 19.61 30.7798 19.55 30.8498C19.45 30.9698 19.45 31.2398 19.46 31.4698C19.46 31.5198 19.46 31.5598 19.46 31.6098C19.46 31.6598 19.49 31.7198 19.52 31.7798C19.56 31.8598 19.6 31.9298 19.6 32.0198C19.6 32.1898 19.58 32.4398 19.46 32.5898C18.86 33.3598 18.22 34.1498 17.57 34.9298C17.48 35.0398 17.43 35.1398 17.45 35.2198C17.46 35.2898 17.52 35.3598 17.63 35.4298C18.31 35.8698 18.9 36.0798 19.57 35.7198C19.68 35.6598 19.79 35.6198 19.9 35.5698C19.95 35.5498 20.01 35.5198 20.06 35.4998C20.59 35.2698 21.01 35.3198 21.37 35.6798C21.44 35.7498 21.56 35.7698 21.68 35.7998C21.71 35.8098 21.75 35.8198 21.78 35.8198C21.78 35.7998 21.79 35.7798 21.8 35.7498L21.66 35.6598C21.61 35.6298 21.57 35.6098 21.53 35.5898C21.45 35.5498 21.39 35.5198 21.34 35.4698C21.06 35.1998 20.72 35.1398 20.27 35.2798C20.07 35.3398 19.83 35.4198 19.63 35.5398C18.85 35.9698 18.2 35.6598 17.62 35.2498L17.55 35.1998L17.6 35.1298C17.79 34.8998 17.97 34.6598 18.15 34.4298C18.58 33.8798 19.03 33.3198 19.49 32.7898C19.8 32.4398 19.84 32.1298 19.65 31.7098C19.64 31.6898 19.63 31.6698 19.62 31.6398C19.58 31.5598 19.54 31.4798 19.53 31.3898C19.53 31.2498 19.54 31.0498 19.64 30.9398C19.75 30.8098 20.08 30.9298 20.09 30.9298C20.24 30.9798 20.38 31.0498 20.52 31.1098C20.74 31.1998 20.96 31.2998 21.19 31.3598C21.64 31.4698 22.15 31.5598 22.45 31.1398C22.69 30.7998 22.48 30.4498 22.29 30.1198L22.22 29.9998C22.05 29.7098 21.88 29.4098 21.71 29.1198C21.38 28.5598 21.03 27.9798 20.73 27.3898C20.5 26.9398 20.36 26.4398 20.33 25.9798C20.27 25.1498 19.9 24.6698 19.08 24.3798C18.29 24.0998 17.51 23.7398 16.75 23.3098C15.37 22.5298 13.44 22.7898 12.26 23.9098C12.09 24.0698 11.94 24.2298 11.78 24.3898L11.7 24.4698C11.25 24.9298 10.72 25.0998 10.14 24.9898C9.66998 24.8998 9.31998 25.0198 8.99998 25.3898C8.80998 25.6098 8.65998 25.7498 8.47998 25.7498C8.29998 25.7598 8.12998 25.6298 7.92998 25.4398C7.34998 24.8698 6.71998 24.7498 5.94998 25.0398C5.48998 25.2198 5.05998 25.1598 4.69998 24.8798C4.20998 24.4998 3.62998 24.3698 2.91998 24.4798C2.09998 24.5998 1.43998 24.2498 0.99998 23.4498C0.53998 22.5998 0.89998 21.7398 1.35998 21.2598C2.02998 20.5498 2.27998 19.8798 2.23998 18.8698C2.16998 17.0098 3.42998 15.8598 4.78998 14.8898C4.80998 14.8798 4.81998 14.8698 4.83998 14.8598C6.04998 14.2598 6.08998 13.9098 5.77998 12.5798C5.65998 12.0598 5.39998 11.5498 5.14998 11.0598L5.12998 11.0198C4.83998 10.4498 4.60998 9.92978 4.73998 9.26978L4.75998 9.18978L4.95998 9.21978C5.02998 9.24978 5.09998 9.25978 5.16998 9.26978C5.89998 9.40978 5.95998 9.35978 6.36998 8.72978C6.57998 8.40978 6.94998 8.11978 7.31998 7.99978C8.59998 7.56978 9.96998 7.53978 11.38 7.91978C12.79 8.29978 14.17 8.77978 15.32 9.19978C15.92 9.41978 16.49 9.45978 17.13 9.31978C17.33 9.27978 17.6 9.30978 17.84 9.39978L17.93 9.42978C18.39 9.60978 18.79 9.76978 19.22 9.32978C19.31 9.23978 19.52 9.25978 19.64 9.28978C19.82 9.32978 19.99 9.39978 20.07 9.47978C20.57 9.96978 21.14 10.0898 21.86 9.85978C22.4 9.68978 22.8 9.90978 23.12 10.1498C23.32 10.2998 23.63 10.3998 23.71 10.3498C23.86 10.2598 24.01 9.93978 23.99 9.72978C23.9 8.49978 24.36 7.64978 25.37 7.18978C25.88 6.95978 26.52 6.81978 27.15 6.80978C28.22 6.78978 29.2 6.48978 30 6.20978C30.5 6.02978 31.03 5.88978 31.59 5.78978C32.39 5.63978 33.07 5.92978 33.54 6.63978C33.62 6.75978 33.69 6.88978 33.76 7.00978C33.84 7.14978 33.92 7.29978 34.02 7.42978C34.32 7.84978 34.52 8.20978 34.1 8.82978C33.82 9.24978 33.82 9.80978 34.1 10.2998C34.38 10.7798 34.87 11.0598 35.37 11.0198C36.12 10.9598 36.66 11.0998 36.99 11.4598C37.33 11.8198 37.43 12.3998 37.31 13.1798C37.27 13.3998 37.28 13.6598 37.34 13.9898C37.39 14.2698 37.5 14.4698 37.66 14.5798C37.82 14.6798 38.03 14.7098 38.28 14.6498C38.76 14.5298 39.23 14.5798 39.8 14.7898C40.72 15.1398 41.49 15.0898 42.22 14.6398C42.51 14.4598 42.76 14.4098 42.98 14.4898C43.21 14.5698 43.39 14.7998 43.53 15.1698C43.56 15.2598 43.59 15.3598 43.62 15.4498C43.68 15.6298 43.74 15.8198 43.82 15.9898C44.03 16.4098 44.36 16.5398 44.78 16.3598C45.25 16.1598 45.73 16.1598 46.3 16.3898L46.91 16.6298C47.49 16.8598 48.09 17.0898 48.68 17.3398C49.34 17.6098 50.06 17.9998 50.39 18.8098C50.56 19.2298 50.6 19.5198 50.49 19.7498C50.4 19.9498 50.21 20.0798 49.9 20.1898C49.68 20.2598 49.55 20.3498 49.53 20.4598C49.5 20.6098 49.65 20.8298 49.97 21.1198L50.02 21.1698L50 21.2198C49.99 21.2398 49.98 21.2598 49.96 21.2798C49.93 21.3298 49.9 21.3998 49.84 21.4398C49.48 21.7598 49.38 22.1698 49.55 22.6798C49.6 22.8198 49.65 22.9598 49.71 23.0998C49.75 23.1898 49.78 23.2898 49.82 23.3798C49.98 23.8198 49.94 24.2598 49.72 24.5998C49.49 24.9398 49.1 25.1398 48.63 25.1498C48.42 25.1598 48.21 25.1498 48.01 25.1498C47.88 25.1498 47.74 25.1498 47.61 25.1398C47.19 25.1398 46.92 25.3098 46.77 25.6598C46.63 25.9698 46.41 26.1498 46.05 26.2298C45.54 26.3398 45.3 26.6398 45.28 27.1898C45.28 27.3098 45.28 27.4298 45.29 27.5398C45.29 27.5998 45.3 27.6598 45.3 27.7098C45.31 28.0798 45.13 28.3098 44.79 28.3598C43.49 28.5498 42.34 29.1198 41.49 29.5898C41.11 29.7998 40.6 29.8298 40.25 29.7898C39.39 29.6898 38.81 29.9198 38.36 30.5498C38.22 30.7498 37.99 30.9198 37.68 31.0798C37.2 31.3198 36.92 31.6098 36.77 32.0298C36.63 32.4398 36.35 32.6798 35.88 32.7898C35.67 32.8398 35.38 33.0398 35.34 33.1998C35.29 33.3998 35.47 33.6998 35.59 33.9198C35.64 34.0098 35.76 34.0698 35.88 34.1398C35.92 34.1598 35.95 34.1798 35.99 34.1998C36.32 34.3898 36.5 34.6698 36.56 35.0798C36.63 35.5498 36.79 35.8698 37.04 36.0198C37.3 36.1698 37.65 36.1598 38.1 35.9898C38.39 35.8798 38.67 35.7098 38.94 35.5498C39.07 35.4698 39.2 35.3898 39.33 35.3198C39.38 35.2898 39.43 35.2598 39.47 35.2298C39.72 35.0698 40.03 34.8698 40.35 35.2698C40.61 35.5898 40.54 36.2598 40.2 36.5598C39.85 36.8698 39.42 36.9498 38.92 36.7798C38.8 36.7398 38.68 36.6898 38.57 36.6498C38.42 36.5898 38.26 36.5298 38.1 36.4798C37.62 36.3498 37.42 36.4398 37.21 36.8598C36.97 37.3498 36.6 37.6498 36.09 37.7498C35.33 37.9098 34.75 38.3498 34.22 38.7898C33.94 39.0198 33.54 39.1998 33.16 39.2598C32.86 39.3098 32.61 39.2498 32.44 39.0798C32.26 38.8998 32.2 38.6198 32.26 38.2798C32.27 38.2498 32.28 38.2098 32.28 38.1798L32.29 38.1398C32.63 36.8998 32.26 36.1498 31.04 35.6498C30.77 35.5398 30.48 35.4498 30.21 35.3598C30.08 35.3198 29.95 35.2798 29.82 35.2298L29.77 35.2098L29.76 34.9598L30.03 34.8498C30.18 34.7898 30.33 34.7198 30.48 34.6598L31 34.4398C31.4 34.2698 31.79 34.1098 32.19 33.9298C32.3 33.8798 32.46 33.8098 32.51 33.7198L32.56 33.6298C32.68 33.4098 32.81 33.1498 32.78 32.9598C32.75 32.8198 32.44 32.6098 32.23 32.5998C31.54 32.5398 30.89 32.5398 30.31 32.5998C29.37 32.6998 28.65 32.3698 28.11 31.6098C28.05 31.5198 27.96 31.4398 27.86 31.3598C27.76 31.2698 27.65 31.1698 27.55 31.0398L27.47 30.9298C27.46 30.9398 27.44 30.9498 27.43 30.9598C27.4 30.9798 27.38 31.0098 27.35 31.0298C27.36 31.0498 27.38 31.0698 27.39 31.0898C27.45 31.1798 27.5 31.2698 27.57 31.3398C27.64 31.4098 27.71 31.4698 27.79 31.5298C27.89 31.6098 28 31.6998 28.08 31.7998C28.67 32.5298 29.35 32.8298 30.21 32.7398C30.57 32.7398 30.96 32.7198 31.38 32.7198ZM29.93 35.1198C30.04 35.1598 30.15 35.1898 30.26 35.2298C30.54 35.3198 30.83 35.4098 31.1 35.5298C32.39 36.0598 32.81 36.8898 32.44 38.2098L32.43 38.2498C32.42 38.2798 32.41 38.2998 32.41 38.3298C32.36 38.6098 32.41 38.8398 32.55 38.9798C32.68 39.1098 32.88 39.1598 33.13 39.1198C33.48 39.0598 33.85 38.8998 34.11 38.6798C34.66 38.2298 35.26 37.7698 36.05 37.6098C36.51 37.5198 36.85 37.2398 37.06 36.8098C37.3 36.3198 37.59 36.1998 38.14 36.3498C38.31 36.3998 38.47 36.4598 38.63 36.5198C38.74 36.5698 38.86 36.6098 38.98 36.6498C39.43 36.7998 39.79 36.7398 40.1 36.4598C40.37 36.2198 40.44 35.6498 40.23 35.3998C40.01 35.1298 39.84 35.2198 39.56 35.3898C39.51 35.4198 39.46 35.4498 39.41 35.4798C39.28 35.5498 39.15 35.6298 39.03 35.6998C38.75 35.8698 38.47 36.0398 38.17 36.1498C37.67 36.3398 37.27 36.3398 36.97 36.1598C36.67 35.9798 36.48 35.6198 36.41 35.0998C36.36 34.7498 36.21 34.5098 35.92 34.3398C35.89 34.3198 35.85 34.2998 35.82 34.2798C35.68 34.2098 35.54 34.1298 35.47 33.9998C35.32 33.7398 35.14 33.4298 35.2 33.1698C35.26 32.9198 35.62 32.6898 35.86 32.6298C36.27 32.5298 36.51 32.3298 36.63 31.9798C36.79 31.5298 37.1 31.1998 37.62 30.9398C37.91 30.7998 38.12 30.6298 38.24 30.4598C38.71 29.7798 39.36 29.5198 40.28 29.6298C40.69 29.6798 41.13 29.6098 41.42 29.4498C42.29 28.9698 43.45 28.3898 44.78 28.1998C45.03 28.1598 45.16 27.9998 45.15 27.7198C45.15 27.6598 45.14 27.6098 45.14 27.5498C45.13 27.4298 45.13 27.3098 45.13 27.1898C45.14 26.5698 45.44 26.1998 46.03 26.0798C46.33 26.0198 46.51 25.8798 46.63 25.6098C46.81 25.1998 47.14 24.9898 47.62 24.9898C47.76 24.9898 47.89 24.9898 48.02 24.9998C48.22 24.9998 48.43 25.0098 48.63 24.9998C49.05 24.9898 49.39 24.8098 49.59 24.5198C49.79 24.2198 49.82 23.8398 49.68 23.4498C49.65 23.3598 49.61 23.2698 49.57 23.1698C49.51 23.0298 49.46 22.8898 49.41 22.7398C49.22 22.1598 49.34 21.6898 49.75 21.3198C49.78 21.2898 49.81 21.2498 49.83 21.1998C49.83 21.1998 49.83 21.1898 49.84 21.1898C49.49 20.8598 49.35 20.6198 49.39 20.4198C49.43 20.2498 49.58 20.1298 49.87 20.0298C50.14 19.9398 50.29 19.8298 50.36 19.6798C50.44 19.4998 50.41 19.2498 50.25 18.8698C49.94 18.1198 49.25 17.7498 48.62 17.4898C48.04 17.2498 47.44 17.0098 46.86 16.7898L46.25 16.5498C45.72 16.3398 45.29 16.3298 44.86 16.5198C44.37 16.7398 43.94 16.5698 43.69 16.0698C43.6 15.8898 43.54 15.6898 43.48 15.4998C43.45 15.4098 43.42 15.3198 43.39 15.2298C43.28 14.9098 43.13 14.7098 42.94 14.6498C42.77 14.5898 42.57 14.6398 42.32 14.7898C41.54 15.2698 40.73 15.3198 39.75 14.9498C39.22 14.7498 38.78 14.6998 38.33 14.8098C38.03 14.8798 37.78 14.8498 37.59 14.7198C37.39 14.5798 37.25 14.3398 37.19 14.0198C37.13 13.6698 37.12 13.3998 37.16 13.1598C37.28 12.4298 37.18 11.8998 36.89 11.5798C36.6 11.2698 36.1 11.1398 35.41 11.1998C34.85 11.2498 34.3 10.9398 33.99 10.3998C33.67 9.85978 33.67 9.22978 33.99 8.75978C34.35 8.22978 34.2 7.94978 33.91 7.54978C33.81 7.40978 33.73 7.25978 33.64 7.10978C33.57 6.98978 33.5 6.86978 33.43 6.74978C32.99 6.08978 32.39 5.82978 31.65 5.96978C31.1 6.06978 30.58 6.20978 30.09 6.38978C29.27 6.67978 28.28 6.97978 27.19 6.99978C26.57 7.00978 25.96 7.13978 25.47 7.36978C24.53 7.79978 24.09 8.59978 24.18 9.74978C24.2 10.0198 24.03 10.3898 23.82 10.5198C23.62 10.6398 23.2 10.4298 23.04 10.3098C22.62 9.99978 22.3 9.91978 21.92 10.0398C21.14 10.2798 20.5 10.1398 19.96 9.61978C19.81 9.46978 19.39 9.41978 19.34 9.46978C18.84 9.97978 18.35 9.78978 17.88 9.60978L17.8 9.57978C17.59 9.49978 17.36 9.46978 17.18 9.50978C16.51 9.64978 15.9 9.60978 15.28 9.37978C14.13 8.95978 12.76 8.47978 11.35 8.09978C9.95998 7.70978 8.61998 7.73978 7.36998 8.15978C7.03998 8.26978 6.68998 8.52978 6.50998 8.81978C6.05998 9.48978 5.92998 9.58978 5.12998 9.42978C5.06998 9.41978 5.00998 9.40978 4.93998 9.39978L4.88998 9.38978C4.79998 9.95978 5.00998 10.4398 5.26998 10.9598L5.28998 10.9998C5.53998 11.4998 5.79998 12.0098 5.92998 12.5498C6.25998 13.9398 6.19998 14.3598 4.90998 15.0098C4.89998 15.0098 4.88998 15.0198 4.87998 15.0298C3.54998 15.9698 2.32998 17.0898 2.39998 18.8698C2.43998 19.9098 2.16998 20.6398 1.47998 21.3698C1.05998 21.8098 0.72998 22.5998 1.14998 23.3698C1.55998 24.1098 2.13998 24.4298 2.87998 24.3098C3.62998 24.1898 4.25998 24.3298 4.77998 24.7398C5.08998 24.9798 5.46998 25.0298 5.87998 24.8698C6.69998 24.5498 7.39998 24.6898 8.02998 25.2998C8.22998 25.4898 8.34998 25.5698 8.45998 25.5698C8.55998 25.5698 8.67998 25.4798 8.86998 25.2598C9.22998 24.8398 9.63998 24.6998 10.16 24.7998C10.69 24.9098 11.16 24.7498 11.57 24.3298L11.65 24.2498C11.81 24.0898 11.97 23.9198 12.14 23.7598C13.37 22.5898 15.39 22.3198 16.83 23.1298C17.58 23.5598 18.36 23.9098 19.14 24.1898C20.02 24.4998 20.44 25.0398 20.5 25.9398C20.53 26.3798 20.67 26.8598 20.89 27.2898C21.19 27.8798 21.53 28.4598 21.86 29.0098C22.03 29.2998 22.21 29.5898 22.37 29.8898L22.44 29.9998C22.65 30.3598 22.9 30.7698 22.6 31.1998C22.22 31.7498 21.53 31.5798 21.17 31.4898C20.93 31.4298 20.7 31.3298 20.48 31.2298C20.34 31.1698 20.2 31.1098 20.06 31.0598C19.94 31.0198 19.81 31.0098 19.78 31.0198C19.74 31.0698 19.71 31.1898 19.71 31.3598C19.71 31.4098 19.74 31.4798 19.78 31.5398C19.79 31.5698 19.81 31.5898 19.82 31.6098C20.04 32.0798 19.99 32.4698 19.64 32.8698C19.18 33.3898 18.75 33.9298 18.3 34.4998C18.14 34.7098 17.97 34.9198 17.8 35.1298C18.4 35.5298 18.93 35.7198 19.57 35.3598C19.79 35.2398 20.03 35.1598 20.24 35.0898C20.75 34.9298 21.15 35.0098 21.47 35.3198C21.5 35.3498 21.54 35.3698 21.59 35.3998C21.58 35.3498 21.57 35.3098 21.55 35.2798C21.38 34.7198 21.38 34.3298 21.55 34.0298C21.71 33.7498 22.01 33.5598 22.51 33.4298C23.41 33.1998 23.87 32.6798 24 31.7598C24.01 31.6998 24.03 31.6398 24.05 31.5798C24.06 31.5398 24.08 31.4998 24.08 31.4598C24.23 30.7498 24.67 30.2798 25.42 30.0198C26.27 29.7298 27.11 29.6898 27.91 29.8898C28.26 29.9798 28.61 30.1598 28.91 30.3998C29.07 30.5298 29.1 30.9098 29.01 31.1198C28.94 31.2898 28.55 31.3198 28.37 31.2998C28.21 31.2798 28.05 31.2298 27.9 31.1798C27.92 31.1998 27.94 31.2198 27.97 31.2398C28.07 31.3298 28.17 31.4198 28.24 31.5198C28.75 32.2498 29.4 32.5398 30.29 32.4498C30.89 32.3898 31.55 32.3898 32.24 32.4498C32.5 32.4698 32.89 32.7198 32.94 32.9498C32.99 33.1998 32.84 33.4798 32.71 33.7298L32.66 33.8198C32.59 33.9598 32.4 34.0398 32.26 34.0998C31.86 34.2698 31.47 34.4398 31.07 34.6098L30.55 34.8298C30.4 34.8898 30.25 34.9598 30.11 35.0198L29.95 35.0898L29.93 35.1198ZM26.9 29.9498C26.43 29.9498 25.95 30.0298 25.47 30.1998C24.77 30.4398 24.37 30.8698 24.23 31.5198C24.22 31.5698 24.21 31.6098 24.19 31.6598C24.17 31.7098 24.16 31.7698 24.15 31.8198C24.01 32.8098 23.5 33.3798 22.54 33.6298C22.09 33.7498 21.82 33.9098 21.68 34.1498C21.54 34.3998 21.54 34.7598 21.69 35.2698C21.71 35.3198 21.72 35.3798 21.74 35.4498L21.81 35.7098C21.84 35.5698 21.88 35.4398 21.85 35.3398C21.6 34.2298 21.7 34.0398 22.79 33.6798C22.86 33.6598 22.93 33.6298 23 33.6098C23.59 33.4298 23.96 33.0598 24.12 32.4598C24.15 32.3598 24.17 32.2698 24.19 32.1698C24.25 31.9398 24.3 31.6998 24.39 31.4698C24.48 31.2298 24.6 30.9498 24.79 30.7598C25.54 30.0198 27.61 29.8598 28.49 30.4798C28.59 30.5498 28.65 30.6498 28.71 30.7498C28.74 30.7898 28.76 30.8298 28.79 30.8698L28.84 30.9298L28.64 31.0898L28.6 31.0798C28.51 31.0498 28.41 31.0298 28.32 30.9998C28.1 30.9298 27.87 30.8598 27.65 30.8398C27.61 30.8298 27.57 30.8598 27.52 30.8998L27.62 30.9298C27.7 30.9498 27.77 30.9798 27.85 31.0098C28.03 31.0698 28.2 31.1398 28.37 31.1498C28.57 31.1698 28.82 31.1098 28.84 31.0698C28.9 30.9198 28.87 30.6198 28.79 30.5498C28.52 30.3298 28.18 30.1498 27.86 30.0698C27.55 29.9898 27.22 29.9498 26.9 29.9498Z" fill="#010101"/>
<path d="M24.0001 16.9799L23.7001 16.3899C23.7001 16.3899 23.1601 15.3599 22.1901 15.4199C21.2201 15.4799 20.7801 16.3899 20.7801 16.3899L19.4301 16.8199L20.8901 17.1399C20.8901 17.1399 21.5901 17.4099 21.5701 18.1699C21.5401 18.9299 20.6801 20.0399 21.0601 21.0999C21.4401 22.1699 25.1201 22.4399 27.3301 23.6299C29.5501 24.8199 30.7901 28.1199 30.7901 28.1199C30.7901 28.1199 29.0101 26.2799 26.6801 26.0099C24.3501 25.7399 22.9501 23.6799 22.9501 21.7599C22.9501 19.8399 23.0001 17.9499 25.1101 16.3299C27.2201 14.7099 31.4401 12.6499 31.6001 10.9199C31.6001 10.9199 33.6601 17.0299 29.5401 19.5199C29.5401 19.5199 27.5201 21.0899 24.2401 20.7099L23.3501 20.5499" fill="white"/>
<path d="M30.7901 28.4C30.7101 28.4 30.6401 28.37 30.5801 28.31C30.5601 28.29 28.8401 26.54 26.6401 26.29C24.4001 26.03 22.9701 24.2 22.7001 22.38C21.7001 22.07 20.9701 21.74 20.7801 21.19C20.5001 20.41 20.8001 19.63 21.0301 19.01C21.1501 18.69 21.2701 18.38 21.2801 18.15C21.3001 17.66 20.8901 17.45 20.8001 17.41L19.3701 17.09C19.2401 17.06 19.1501 16.95 19.1501 16.82C19.1401 16.69 19.2301 16.57 19.3501 16.53L20.5901 16.13C20.7601 15.85 21.2601 15.16 22.1801 15.11C23.3201 15.05 23.9401 16.19 23.9601 16.24L24.2101 16.74C24.4201 16.52 24.6601 16.3 24.9401 16.09C25.5601 15.62 26.3401 15.11 27.1601 14.58C29.0601 13.36 31.2201 11.97 31.3201 10.88C31.3301 10.74 31.4401 10.64 31.5701 10.62C31.7001 10.61 31.8301 10.69 31.8801 10.81C31.9001 10.87 33.9501 17.16 29.7101 19.74C29.5001 19.89 27.4601 21.36 24.2101 20.98L23.3001 20.82C23.2801 20.82 23.2601 20.81 23.2401 20.8C23.2301 21.12 23.2301 21.43 23.2301 21.75C23.2301 21.81 23.2301 21.87 23.2301 21.93C23.5001 22.01 23.7801 22.09 24.0501 22.16C25.1801 22.47 26.4501 22.82 27.4501 23.36C29.7401 24.59 30.9901 27.86 31.0401 28C31.0901 28.13 31.0401 28.27 30.9301 28.34C30.8901 28.39 30.8401 28.4 30.7901 28.4ZM23.3201 22.57C23.6501 24.07 24.8601 25.51 26.7101 25.73C28.0501 25.89 29.2101 26.53 29.9801 27.08C29.4301 26.04 28.4701 24.58 27.1901 23.89C26.2501 23.39 25.0101 23.04 23.9101 22.74C23.7101 22.67 23.5101 22.62 23.3201 22.57ZM20.5301 16.76L20.9501 16.85C20.9601 16.85 20.9801 16.86 20.9901 16.86C21.0301 16.87 21.8801 17.22 21.8501 18.17C21.8401 18.49 21.7101 18.84 21.5701 19.21C21.3501 19.8 21.1201 20.42 21.3201 21C21.4201 21.28 21.9601 21.53 22.6501 21.76C22.6501 20.3 22.6501 18.68 23.8101 17.19C23.7801 17.17 23.7601 17.13 23.7401 17.1L23.4401 16.51C23.4401 16.51 22.9701 15.65 22.2001 15.69C21.4201 15.73 21.0501 16.47 21.0401 16.5C21.0101 16.57 20.9401 16.63 20.8701 16.65L20.5301 16.76ZM23.3501 20.26C23.3701 20.26 23.3801 20.26 23.4001 20.26L24.2901 20.42C27.3801 20.78 29.3401 19.3 29.3601 19.29C29.3701 19.28 29.3801 19.28 29.3901 19.27C32.3901 17.46 31.9101 13.53 31.5401 11.83C30.8201 12.92 29.1201 14.01 27.4601 15.08C26.6501 15.6 25.8801 16.1 25.2801 16.56C23.8001 17.7 23.3901 18.98 23.2701 20.27C23.3001 20.26 23.3301 20.26 23.3501 20.26Z" fill="#010101"/>
</g>
<defs>
<clipPath id="clip0_381_2102">
<rect width="256.34" height="63.62" fill="white"/>
</clipPath>
</defs>
</svg>
