<svg width="224" height="224" viewBox="0 0 224 224" fill="none" xmlns="http://www.w3.org/2000/svg">
<path d="M166.909 128.3L165.292 118.318C165.292 118.318 159.717 121.34 161.744 137.508L158.383 126.197C154.794 130.043 155.901 138.545 157.109 144.028C156.053 144.402 154.597 145.201 152.596 146.601L142.396 151.842C156.022 137.493 152.065 132.474 152.065 132.474L134.143 150.26C127.709 156.648 123.777 165.17 123.287 174.227C123.271 174.464 123.261 174.707 123.251 174.95C121.831 179.655 122.296 184.8 124.489 189.293L125.263 190.88L165.691 150.755L169.881 146.596L173.363 117.024C173.363 117.024 167.576 121.138 166.919 128.295H166.909V128.3Z" fill="#FFD500"/>
<path d="M102.767 174.949C102.757 174.707 102.747 174.464 102.731 174.227C102.236 165.175 98.309 156.648 91.8751 150.26L73.9531 132.474C73.9531 132.474 69.9956 137.498 83.6216 151.842L68.8787 144.144C70.0967 138.671 71.244 130.069 67.6303 126.197L64.2693 137.508C66.296 121.335 60.7213 118.318 60.7213 118.318L59.104 128.3C58.4469 121.143 52.6599 117.029 52.6599 117.029L56.1422 146.601L60.3321 150.76L100.76 190.885L101.534 189.298C103.727 184.805 104.187 179.66 102.772 174.949H102.767Z" fill="#FFD500"/>
<path d="M125.253 191.421C125.222 191.421 125.192 191.421 125.162 191.416C124.99 191.385 124.843 191.279 124.767 191.123L123.994 189.536C121.199 183.809 121.204 177.107 124.004 171.614C125.389 168.894 127.406 166.473 129.993 164.416C140.006 156.456 154.981 149.931 157.776 148.749C156.892 145.888 152.778 131.418 157.983 125.838C158.115 125.697 158.312 125.636 158.499 125.681C158.686 125.727 158.837 125.868 158.888 126.05L166.191 150.608C166.247 150.801 166.191 151.003 166.055 151.144L125.627 191.269C125.526 191.37 125.389 191.426 125.248 191.426H125.253V191.421ZM124.96 189.055L125.404 189.97L165.074 150.598L158.155 127.334C153.98 133.551 158.893 148.713 158.944 148.875C159.03 149.143 158.898 149.431 158.635 149.537C158.469 149.608 141.562 156.577 130.661 165.245C128.194 167.206 126.274 169.511 124.96 172.094C122.311 177.289 122.311 183.627 124.96 189.055Z" fill="black"/>
<path d="M165.681 151.301C165.635 151.301 165.59 151.296 165.549 151.286C165.368 151.24 165.221 151.099 165.17 150.917L161.233 137.665C161.223 137.635 161.218 137.609 161.213 137.579C159.166 121.234 164.801 117.979 165.039 117.848C165.191 117.767 165.378 117.762 165.529 117.838C165.686 117.913 165.792 118.06 165.822 118.232L170.401 146.515C170.427 146.687 170.371 146.858 170.25 146.98L166.06 151.139C165.959 151.24 165.822 151.296 165.681 151.296V151.301ZM162.269 137.407L165.939 149.754L169.295 146.424L164.913 119.354C163.588 120.774 160.763 125.323 162.269 137.407Z" fill="black"/>
<path d="M169.871 147.141C169.608 147.141 169.386 146.949 169.34 146.692L166.378 128.39C166.373 128.345 166.368 128.299 166.378 128.254C167.051 120.936 172.802 116.771 173.045 116.594C173.217 116.473 173.449 116.463 173.631 116.569C173.813 116.675 173.914 116.882 173.889 117.094L170.407 146.666C170.376 146.934 170.154 147.136 169.886 147.141H169.871ZM167.45 128.284L169.79 142.729L172.666 118.318C171.033 119.829 167.935 123.311 167.455 128.284H167.45Z" fill="black"/>
<path d="M123.241 175.49H123.221C122.923 175.48 122.695 175.227 122.705 174.934C122.716 174.687 122.726 174.444 122.741 174.201C123.236 165.079 127.148 156.441 133.759 149.886L151.681 132.1C151.787 131.994 151.944 131.939 152.09 131.944C152.242 131.954 152.383 132.025 152.479 132.146C152.651 132.363 156.568 137.7 142.78 152.216C142.573 152.428 142.235 152.438 142.022 152.236C141.81 152.034 141.8 151.69 142.002 151.478C152.49 140.435 152.348 135.092 151.883 133.409L134.517 150.644C128.098 157.012 124.297 165.397 123.817 174.257C123.802 174.495 123.792 174.732 123.782 174.975C123.772 175.263 123.534 175.49 123.246 175.49H123.241Z" fill="black"/>
<path d="M149.245 153.823C149.245 153.823 149.194 153.823 149.169 153.818L139.702 152.449C139.409 152.408 139.207 152.135 139.248 151.842C139.288 151.549 139.556 151.342 139.854 151.387L149.32 152.757C149.614 152.797 149.816 153.07 149.775 153.363C149.735 153.631 149.508 153.823 149.245 153.823Z" fill="black"/>
<path d="M142.391 152.383C142.199 152.383 142.012 152.277 141.916 152.095C141.78 151.832 141.881 151.508 142.144 151.372L156.887 143.674C157.149 143.538 157.473 143.639 157.609 143.902C157.746 144.165 157.645 144.488 157.382 144.625L142.639 152.322C142.558 152.363 142.472 152.383 142.391 152.383Z" fill="black"/>
<path d="M100.76 191.421C100.619 191.421 100.482 191.365 100.381 191.264L59.953 151.139C59.8115 150.998 59.761 150.796 59.8166 150.604L67.1198 126.045C67.1754 125.858 67.322 125.722 67.509 125.677C67.696 125.631 67.8931 125.692 68.0245 125.833C73.2303 131.413 69.1162 145.878 68.2317 148.744C71.0267 149.926 86.0021 156.451 96.0144 164.412C98.6021 166.469 100.619 168.895 102.004 171.609C104.804 177.102 104.809 183.799 102.014 189.531L101.24 191.118C101.165 191.274 101.018 191.38 100.846 191.411C100.816 191.411 100.786 191.416 100.755 191.416H100.76V191.421ZM60.9386 150.614L100.609 189.986L101.053 189.071C103.702 183.643 103.702 177.305 101.053 172.109C99.7393 169.526 97.8187 167.227 95.3523 165.261C84.4505 156.593 67.5444 149.623 67.3776 149.552C67.1147 149.446 66.9833 149.153 67.0693 148.89C67.1198 148.728 72.0324 133.566 67.8577 127.349L60.9386 150.614Z" fill="black"/>
<path d="M60.3271 151.301C60.1856 151.301 60.0492 151.246 59.9481 151.145L55.7582 146.985C55.6369 146.864 55.5813 146.692 55.6066 146.52L60.1856 118.237C60.2109 118.065 60.3221 117.919 60.4788 117.843C60.6355 117.767 60.8174 117.767 60.969 117.853C61.2116 117.984 66.8419 121.239 64.795 137.584C64.795 137.615 64.7849 137.645 64.7748 137.67L60.8326 150.922C60.777 151.104 60.6355 151.241 60.4535 151.291C60.408 151.301 60.3676 151.306 60.3221 151.306H60.3271V151.301ZM56.7134 146.414L60.0694 149.745L63.7387 137.397C65.2448 125.318 62.4196 120.769 61.0903 119.344L56.7084 146.414H56.7134Z" fill="black"/>
<path d="M56.1372 147.142H56.1271C55.8592 147.137 55.6368 146.934 55.6065 146.667L52.1242 117.095C52.0989 116.882 52.2 116.68 52.382 116.569C52.5639 116.463 52.7913 116.468 52.9682 116.594C53.2108 116.766 58.9675 120.936 59.6347 128.254V128.391L56.6729 146.692C56.6325 146.95 56.4051 147.142 56.1423 147.142H56.1372ZM53.3473 118.313L56.2231 142.729L58.5632 128.285C58.083 123.296 54.9848 119.819 53.3524 118.313H53.3473Z" fill="black"/>
<path d="M102.767 175.49C102.479 175.49 102.241 175.263 102.231 174.975C102.221 174.732 102.211 174.495 102.196 174.257C101.716 165.402 97.9149 157.012 91.4961 150.644L74.125 133.404C73.66 135.077 73.5084 140.42 84.0059 151.473C84.208 151.69 84.203 152.029 83.9856 152.231C83.7683 152.433 83.4297 152.428 83.2275 152.211C69.4398 137.69 73.3568 132.358 73.5286 132.141C73.6246 132.02 73.7662 131.949 73.9178 131.939C74.0694 131.929 74.221 131.984 74.3272 132.095L92.2492 149.881C98.855 156.436 102.767 165.074 103.267 174.196C103.282 174.439 103.293 174.682 103.303 174.929C103.313 175.227 103.085 175.475 102.787 175.485H102.767V175.49Z" fill="black"/>
<path d="M76.7683 153.823C76.5054 153.823 76.278 153.631 76.2376 153.363C76.1971 153.07 76.3993 152.797 76.6924 152.757L86.1589 151.387C86.4571 151.342 86.7249 151.549 86.7654 151.842C86.8058 152.135 86.6036 152.408 86.3105 152.449L76.8441 153.818C76.8441 153.818 76.7935 153.823 76.7683 153.823Z" fill="black"/>
<path d="M83.6216 152.383C83.5356 152.383 83.4548 152.363 83.3739 152.322L68.6309 144.625C68.3681 144.488 68.267 144.165 68.4035 143.902C68.54 143.639 68.8634 143.538 69.1262 143.674L83.8692 151.372C84.132 151.508 84.2331 151.832 84.0966 152.095C84.0006 152.277 83.8136 152.383 83.6216 152.383Z" fill="black"/>
<path d="M12.6259 88.0637L6.62154 86.416L12.4085 84.7633L12.6208 83.985L8.38543 79.5828L14.4908 81.2557L14.9407 79.6081L5.71684 77.1113L5.33273 78.5063L10.4526 83.7879L3.34139 85.7741L2.95728 87.1842L12.171 89.7063L12.6259 88.0637Z" fill="black"/>
<path d="M7.51084 72.3654L6.90234 74.021L15.873 77.318L16.4815 75.6624L7.51084 72.3654Z" fill="black"/>
<path d="M16.7553 74.2809L17.6297 72.4311L15.0268 68.5243L15.7293 67.0383L19.3683 68.7668L20.1113 67.2001L16.4723 65.4715L17.1698 64.0109L21.8448 63.5459L22.7293 61.686L16.9272 62.2723L14.0008 57.7842L13.1972 59.4773L15.8051 63.3437L15.1026 64.8246L11.4788 63.1011L10.7358 64.6679L14.3596 66.3914L13.6521 67.8874L9.01235 68.2968L8.20874 69.995L13.5459 69.4239L16.7553 74.2809Z" fill="black"/>
<path d="M24.2859 59.4164L20.8188 57.233L23.457 53.0532L26.9191 55.2366L27.8592 53.7456L19.7776 48.646L18.8375 50.137L22.1733 52.2446L19.5401 56.4243L16.1993 54.3168L15.2542 55.8178L23.3357 60.9175L24.2859 59.4164Z" fill="black"/>
<path d="M29.6586 51.2793L28.5062 49.1667L31.4629 45.4115L33.7878 46.0382L34.9452 44.5674L24.7662 42.0454L23.6846 43.4201L28.5315 52.7147L29.6535 51.2895V51.2793H29.6586ZM27.7885 47.8324L25.6153 43.8346L30.0073 45.0172L27.7885 47.8324Z" fill="black"/>
<path d="M37.0477 42.4043L35.0564 40.4938L36.5474 38.9372C37.1336 38.3256 37.538 37.7039 37.7553 37.0772C37.9726 36.4455 38.0131 35.839 37.8766 35.2527C37.7401 34.6664 37.4167 34.1307 36.9113 33.6455C36.4008 33.1552 35.8448 32.852 35.2485 32.7357C34.6521 32.6195 34.0506 32.6852 33.4391 32.9379C32.8275 33.1906 32.2261 33.6202 31.6398 34.2317L28.9207 37.0722L35.8196 43.6881L37.0477 42.4094V42.4043ZM32.6708 35.3234C33.2116 34.7574 33.7423 34.4491 34.2528 34.3935C34.7633 34.3379 35.2383 34.5198 35.673 34.9343C36.1077 35.3487 36.3098 35.8187 36.2744 36.3292C36.2391 36.8447 35.951 37.3855 35.4102 37.9516L33.9748 39.4476L31.2355 36.8195L32.6708 35.3234Z" fill="black"/>
<path d="M38.867 33.6457C39.3219 34.1814 39.8374 34.5908 40.4187 34.8789C40.9999 35.167 41.6114 35.3338 42.2533 35.3692C42.8952 35.4096 43.5371 35.3186 44.179 35.0962C44.8208 34.8738 45.4223 34.5251 45.9833 34.045C46.5443 33.5648 46.984 33.0341 47.3075 32.4428C47.6309 31.8515 47.823 31.2399 47.8836 30.6031C47.9443 29.9663 47.8836 29.3345 47.6865 28.7179C47.4945 28.1013 47.166 27.5201 46.706 26.9793C46.2461 26.4385 45.7255 26.024 45.1392 25.7309C44.553 25.4377 43.9465 25.271 43.3096 25.2356C42.6728 25.1951 42.036 25.2912 41.4042 25.5136C40.7674 25.7359 40.171 26.0847 39.61 26.5648C39.0389 27.05 38.5992 27.5858 38.2757 28.1822C37.9573 28.7735 37.7652 29.3901 37.6945 30.0269C37.6288 30.6637 37.6894 31.2905 37.8815 31.9121C38.0735 32.5338 38.4021 33.1099 38.862 33.6507L38.867 33.6457ZM39.3977 30.0269C39.4281 29.6024 39.5494 29.193 39.7566 28.7988C39.9638 28.4045 40.2519 28.0507 40.6208 27.7424C40.9898 27.4291 41.379 27.2067 41.7934 27.0652C42.2078 26.9287 42.6273 26.8731 43.0569 26.9035C43.4865 26.9338 43.8909 27.0551 44.2851 27.2572C44.6743 27.4645 45.0281 27.7525 45.3465 28.1266C45.6649 28.5006 45.8923 28.8998 46.0288 29.3193C46.1652 29.7388 46.2158 30.1634 46.1804 30.5879C46.145 31.0125 46.0288 31.4168 45.8266 31.806C45.6244 32.1951 45.3364 32.5439 44.9725 32.8572C44.6035 33.1706 44.2093 33.398 43.7898 33.5396C43.3703 33.6811 42.9457 33.7367 42.5161 33.6962C42.0865 33.6558 41.6772 33.5396 41.2829 33.3374C40.8837 33.1352 40.5299 32.8522 40.2165 32.4832C39.8981 32.1092 39.6757 31.7099 39.5443 31.2905C39.4129 30.871 39.3623 30.4464 39.3977 30.0168V30.0269Z" fill="black"/>
<path d="M49.1371 25.5589C49.4303 26.1048 49.6526 26.6001 49.8043 27.0448C49.9559 27.4896 50.0115 27.8838 49.966 28.2124C49.9205 28.5459 49.7537 28.8037 49.4656 28.9907L49.2079 29.1676L51.1891 32.0939L52.5537 31.164L51.4064 29.486L57.4613 25.3517L58.6086 27.0297L59.9631 26.1048L57.9667 23.1835L56.8295 23.9618L52.2859 17.3105L46.5039 21.2629L48.1162 23.8152C48.5053 24.4318 48.844 25.0131 49.1371 25.5539V25.5589ZM51.6895 19.5445L55.3891 24.9575L51.3812 27.6918C51.4064 27.5604 51.4165 27.4188 51.4064 27.2622C51.3812 26.9033 51.2801 26.504 51.1032 26.0643C50.9263 25.6246 50.6988 25.1546 50.4259 24.6492C50.153 24.1488 49.8447 23.6282 49.501 23.0925L48.6014 21.6571L51.6895 19.5445Z" fill="black"/>
<path d="M61.6208 22.8955L59.6801 19.2868L64.0367 16.9468L65.9725 20.5554L67.5241 19.7215L63.0006 11.3013L61.449 12.1352L63.319 15.6125L58.9624 17.9525L57.0974 14.4753L55.5356 15.3143L60.0541 23.7345L61.6208 22.8955Z" fill="black"/>
<path d="M71.2896 18.0536L73.4881 9.85072L76.0354 16.128L77.6679 15.4659L74.0744 6.60596L72.543 7.22762L70.3394 15.4457L67.787 9.1583L66.1545 9.8204L69.748 18.6753L71.2896 18.0536Z" fill="black"/>
<path d="M79.3357 3.70965C79.831 3.92698 80.4678 3.92698 81.2563 3.69954C82.0447 3.47716 82.5906 3.13853 82.8989 2.69377C83.2072 2.249 83.2779 1.71831 83.1162 1.11182L81.9335 1.45044C82.0195 1.77896 81.979 2.05694 81.8122 2.29449C81.6454 2.53203 81.3776 2.70387 80.9985 2.81001C80.6195 2.91615 80.301 2.91615 80.0433 2.7999C79.7855 2.68366 79.6036 2.46633 79.5025 2.14286L78.3198 2.48149C78.5018 3.08294 78.8404 3.49232 79.3307 3.7147H79.3357V3.70965Z" fill="black"/>
<path d="M81.5544 14.2223L84.6223 6.3024L86.4772 12.8172L88.1754 12.3371L85.5523 3.14355L83.9653 3.59337L80.8873 11.5284L79.0274 5.00348L77.3342 5.48363L79.9523 14.6771L81.5544 14.2223Z" fill="black"/>
<path d="M101.796 7.05554C101.67 6.1559 101.281 5.50897 100.624 5.12486C99.9668 4.74074 99.0722 4.6245 97.935 4.78117L95.135 5.17034L94.8116 2.85554L100.452 2.0671L100.25 0.606445L92.8657 1.63749L94.1849 11.1039L98.4556 10.5075C99.6484 10.3407 100.533 9.95662 101.114 9.35013C101.695 8.74363 101.923 7.98045 101.791 7.05049H101.796V7.05554ZM99.6636 8.57179C99.3502 8.88009 98.8549 9.08226 98.1776 9.17829L95.7415 9.51691L95.322 6.52991L97.7581 6.19128C99.1379 5.99923 99.896 6.38839 100.033 7.36385C100.103 7.85915 99.9769 8.26348 99.6636 8.57179Z" fill="black"/>
<path d="M104.414 0.277978L104.44 4.22527C104.44 5.12491 104.404 5.88303 104.328 6.49964C104.253 7.11119 104.111 7.58123 103.899 7.89964C103.687 8.21805 103.388 8.38484 102.994 8.4C102.848 8.40505 102.711 8.39495 102.585 8.35957L102.524 9.9213C102.706 9.96173 102.878 9.98195 103.04 9.99711C103.201 10.0072 103.358 10.0123 103.51 10.0072C104.02 9.987 104.435 9.84549 104.763 9.58772C105.092 9.32996 105.344 8.94585 105.521 8.44043C105.703 7.93502 105.825 7.32347 105.895 6.60072C105.966 5.87798 106.001 5.0491 105.996 4.10903L105.981 1.71841L109.736 1.56679L110.065 9.61805L111.824 9.54729L111.435 0L104.409 0.288087V0.277978H104.414Z" fill="black"/>
<path d="M120.734 7.73769L121.558 9.9969L123.423 10.098L119.642 0.318197L117.899 0.222168L113.077 9.52686L114.892 9.62794L115.963 7.46982L120.734 7.73264V7.73769ZM118.662 2.04166L120.219 6.31747L116.64 6.12036L118.667 2.04166H118.662Z" fill="black"/>
<path d="M127.583 2.66849L132.268 3.37101L132.505 1.88509L126.077 0.924805L124.661 10.3761L126.405 10.6338L127.583 2.66849Z" fill="black"/>
<path d="M131.616 8.51618C131.727 9.153 131.96 9.74434 132.308 10.2851C132.657 10.8259 133.112 11.2859 133.673 11.675C134.234 12.0591 134.871 12.3371 135.588 12.5039C136.306 12.6707 136.999 12.7111 137.666 12.6201C138.333 12.5292 138.939 12.322 139.49 11.9934C140.041 11.6649 140.506 11.2404 140.89 10.7198C141.274 10.1992 141.547 9.59271 141.714 8.90029C141.881 8.20787 141.906 7.54073 141.795 6.89885C141.684 6.25697 141.456 5.66564 141.113 5.1299C140.769 4.59416 140.314 4.13928 139.758 3.76022C139.202 3.38116 138.565 3.10824 137.848 2.93639C137.12 2.76455 136.422 2.72917 135.755 2.82015C135.088 2.91618 134.477 3.1234 133.926 3.44686C133.375 3.77033 132.905 4.18982 132.521 4.71546C132.136 5.23603 131.864 5.84253 131.697 6.53495C131.535 7.21726 131.51 7.87935 131.621 8.51618H131.616ZM133.42 6.94434C133.531 6.46419 133.718 6.04975 133.981 5.69596C134.244 5.34217 134.552 5.04903 134.916 4.82159C135.28 4.59416 135.679 4.44759 136.119 4.38188C136.559 4.31618 137.014 4.34145 137.484 4.45264C137.954 4.56383 138.368 4.74578 138.722 4.99849C139.081 5.2512 139.369 5.5595 139.601 5.9234C139.829 6.2873 139.975 6.68658 140.041 7.12123C140.107 7.55589 140.082 8.01582 139.97 8.49091C139.859 8.97105 139.672 9.39055 139.414 9.74939C139.157 10.1082 138.848 10.4014 138.484 10.6238C138.121 10.8461 137.726 10.9927 137.297 11.0584C136.862 11.1241 136.412 11.1039 135.942 10.9927C135.472 10.8815 135.053 10.6996 134.689 10.4469C134.325 10.1942 134.032 9.8808 133.809 9.5169C133.587 9.153 133.44 8.74867 133.365 8.30896C133.289 7.86925 133.309 7.41437 133.42 6.94939V6.94434Z" fill="black"/>
<path d="M141.421 12.2109L140.233 15.5416L141.79 16.0874L142.467 14.1668L149.381 16.5979L148.709 18.5185L150.256 19.0643L151.428 15.7286L150.129 15.2686L152.803 7.6672L146.197 5.34229L145.09 8.15239C144.822 8.82965 144.56 9.44626 144.292 10.0073C144.024 10.5683 143.761 11.0383 143.488 11.4275C143.215 11.8167 142.937 12.0896 142.644 12.2513C142.351 12.413 142.043 12.4333 141.719 12.312L141.421 12.2058V12.2109ZM144.266 12.8528C144.539 12.6203 144.802 12.3019 145.05 11.8975C145.297 11.4932 145.545 11.0333 145.788 10.5127C146.03 9.9921 146.268 9.4412 146.495 8.84481L147.122 7.26792L150.65 8.51124L148.476 14.6925L143.902 13.0852C144.024 13.0246 144.145 12.9488 144.266 12.8477V12.8528Z" fill="black"/>
<path d="M156.101 9.07806L152.26 17.8301L153.876 18.5388L157.716 9.78678L156.101 9.07806Z" fill="black"/>
<path d="M164.741 12.5344C165.464 12.9185 166.09 13.055 166.626 12.9488C167.157 12.8377 167.576 12.5091 167.879 11.9582L166.793 11.3821C166.626 11.6752 166.404 11.847 166.121 11.9077C165.838 11.9633 165.524 11.8976 165.181 11.7156C164.837 11.5337 164.609 11.3063 164.503 11.0434C164.397 10.7806 164.417 10.4976 164.569 10.1943L163.482 9.61816C163.194 10.1792 163.154 10.7048 163.356 11.2052C163.558 11.7055 164.023 12.1452 164.746 12.5344H164.741Z" fill="black"/>
<path d="M157.66 20.3179L165.362 16.7446L162.183 22.7237L163.735 23.5526L168.228 15.1172L166.768 14.3388L159.05 17.9172L162.234 11.928L160.682 11.0991L156.189 19.5396L157.66 20.3179Z" fill="black"/>
<path d="M167.293 25.8066L169.593 22.4203L173.681 25.1951L171.382 28.5864L172.837 29.577L178.205 21.6673L176.749 20.6817L174.531 23.9416L170.442 21.1669L172.661 17.9019L171.195 16.9062L165.822 24.8109L167.293 25.8066Z" fill="black"/>
<path d="M176.057 32.1342L184.341 30.2793L179.964 35.4446L181.303 36.5869L187.489 29.2988L186.231 28.2273L177.922 30.0822L182.314 24.9067L180.97 23.7695L174.788 31.0576L176.057 32.1342Z" fill="black"/>
<path d="M195.061 35.3081C195.601 35.3739 196.102 35.1919 196.562 34.7674L195.718 33.8778C195.465 34.1053 195.197 34.1962 194.914 34.1609C194.626 34.1255 194.353 33.9637 194.08 33.6807C193.812 33.3977 193.666 33.1146 193.645 32.8316C193.625 32.5486 193.736 32.2858 193.974 32.0482L193.125 31.1587C192.675 31.5984 192.468 32.0887 192.503 32.6244C192.539 33.1601 192.837 33.7262 193.403 34.3226C193.969 34.9139 194.52 35.2475 195.061 35.3132V35.3081Z" fill="black"/>
<path d="M184.224 39.4678L192.66 38.5126L187.752 43.1776L188.965 44.4563L195.894 37.8707L194.752 36.6729L186.302 37.6281L191.219 32.953L190.001 31.6743L183.077 38.2599L184.224 39.4678Z" fill="black"/>
<path d="M194.874 47.5898C194.621 48.3126 194.606 49.1061 194.823 49.9855C195 50.7032 195.349 51.4664 195.849 52.2599L195.005 52.8512L195.945 54.1956L196.789 53.6043C197.375 54.3725 197.977 54.9739 198.609 55.3934C199.346 55.8837 200.094 56.1263 200.858 56.1212C201.621 56.1162 202.359 55.8635 203.076 55.3631C203.809 54.8526 204.305 54.2411 204.562 53.5234C204.825 52.8057 204.85 52.0173 204.643 51.1429C204.471 50.4151 204.118 49.6469 203.612 48.8433L204.411 48.2822L203.471 46.9378L202.667 47.4989C202.091 46.7609 201.494 46.1747 200.878 45.7602C200.125 45.2548 199.367 45.0021 198.604 44.992C197.835 44.9819 197.087 45.2346 196.354 45.7451C195.622 46.2555 195.131 46.8721 194.879 47.5898H194.874ZM203.087 51.0469C203.253 51.6534 203.258 52.1992 203.102 52.6844C202.945 53.1747 202.616 53.5891 202.116 53.9429C201.611 54.2967 201.095 54.4685 200.58 54.4584C200.064 54.4483 199.544 54.2613 199.028 53.8924C198.654 53.6295 198.28 53.2656 197.916 52.8158L202.465 49.6368C202.763 50.1321 202.975 50.6021 203.097 51.0469H203.087ZM197.345 47.1653C197.861 46.8064 198.376 46.6295 198.887 46.6447C199.402 46.6548 199.918 46.857 200.438 47.2411C200.797 47.509 201.156 47.8627 201.51 48.2974L196.976 51.4664C196.703 51.0014 196.501 50.5566 196.38 50.1371C196.198 49.5205 196.188 48.9595 196.344 48.4541C196.501 47.9487 196.835 47.5191 197.345 47.1653Z" fill="black"/>
<path d="M202.243 57.8701C201.838 58.3755 201.55 58.9416 201.378 59.5633C201.206 60.1849 201.161 60.8319 201.247 61.5041C201.333 62.1763 201.545 62.8384 201.899 63.4853C202.248 64.1373 202.677 64.6781 203.188 65.1178C203.698 65.5575 204.259 65.8708 204.871 66.068C205.482 66.26 206.109 66.3308 206.756 66.2701C207.403 66.2095 208.04 66.0124 208.661 65.6788C209.288 65.3402 209.804 64.9207 210.213 64.4102C210.622 63.8997 210.91 63.3387 211.082 62.7272C211.254 62.1156 211.295 61.4737 211.209 60.8066C211.123 60.1394 210.905 59.4824 210.557 58.8304C210.203 58.1734 209.768 57.6275 209.253 57.1878C208.737 56.7532 208.176 56.4347 207.57 56.2326C206.963 56.0355 206.331 55.9647 205.69 56.0203C205.043 56.0809 204.406 56.2781 203.784 56.6116C203.167 56.9452 202.657 57.3647 202.253 57.8701H202.243ZM204.618 58.1734C205.053 57.9409 205.487 57.8044 205.927 57.764C206.367 57.7236 206.791 57.764 207.201 57.8853C207.61 58.0066 207.989 58.2087 208.328 58.4968C208.666 58.7849 208.954 59.1387 209.182 59.5633C209.409 59.9878 209.551 60.4174 209.596 60.8521C209.642 61.2867 209.606 61.7062 209.49 62.1207C209.374 62.5351 209.167 62.9041 208.884 63.2427C208.601 63.5813 208.242 63.8643 207.812 64.1019C207.378 64.3344 206.943 64.4759 206.503 64.5214C206.064 64.5669 205.639 64.5315 205.235 64.4051C204.825 64.2838 204.456 64.0817 204.118 63.8037C203.779 63.5257 203.501 63.1719 203.269 62.7474C203.041 62.3228 202.9 61.8882 202.849 61.4485C202.799 61.0037 202.834 60.5791 202.96 60.1698C203.087 59.7604 203.289 59.3813 203.567 59.0376C203.845 58.6889 204.199 58.4059 204.623 58.1734H204.618Z" fill="black"/>
<path d="M205.801 71.1624L209.596 69.6209L211.451 74.205L207.656 75.7414L208.318 77.3739L217.178 73.7855L216.516 72.153L212.856 73.6339L211.001 69.0548L214.656 67.5689L213.993 65.9263L205.134 69.5147L205.801 71.1624Z" fill="black"/>
<path d="M213.67 79.1684C213.064 79.2746 212.523 79.3302 212.048 79.3352C211.578 79.3352 211.188 79.2645 210.885 79.1229C210.582 78.9764 210.39 78.7388 210.304 78.4002L210.218 78.097L206.817 79.0572L207.272 80.6442L209.227 80.0832L211.244 87.1338L209.288 87.6948L209.738 89.2717L213.139 88.3013L212.76 86.9771L220.503 84.7634L218.578 78.0312L215.646 78.754C214.939 78.9258 214.282 79.0674 213.67 79.1785V79.1684ZM217.547 79.8912L218.578 83.4897L212.275 85.2941L210.941 80.6291C211.057 80.6948 211.188 80.7504 211.34 80.7858C211.689 80.8767 212.098 80.9071 212.573 80.8717C213.048 80.8414 213.564 80.7757 214.13 80.6746C214.691 80.5735 215.282 80.4471 215.899 80.2905L217.547 79.8912Z" fill="black"/>
<path d="M6.25781 102.023C7.76512 102.023 8.98705 100.801 8.98705 99.2937C8.98705 97.7864 7.76512 96.5645 6.25781 96.5645C4.75049 96.5645 3.52856 97.7864 3.52856 99.2937C3.52856 100.801 4.75049 102.023 6.25781 102.023Z" fill="black"/>
<path d="M216.905 102.023C218.412 102.023 219.634 100.801 219.634 99.2937C219.634 97.7864 218.412 96.5645 216.905 96.5645C215.397 96.5645 214.175 97.7864 214.175 99.2937C214.175 100.801 215.397 102.023 216.905 102.023Z" fill="black"/>
<path d="M7.08161 115.275C7.42024 115.27 7.68306 115.159 7.88017 114.942C7.97114 114.841 8.0419 114.724 8.08739 114.603L10.1899 115.119L10.1697 114.027L8.2188 113.35C8.00652 113.269 7.83468 113.208 7.69822 113.168C7.56176 113.122 7.44551 113.097 7.34948 113.077C7.25345 113.062 7.15237 113.051 7.04118 113.056C6.71266 113.056 6.44984 113.173 6.24768 113.385C6.04551 113.597 5.94948 113.87 5.95454 114.194C5.95454 114.502 6.06573 114.765 6.26789 114.972C6.47006 115.184 6.74298 115.285 7.07656 115.28L7.08161 115.275Z" fill="black"/>
<path d="M7.03596 112.379C7.37459 112.374 7.6374 112.263 7.83451 112.046C7.92549 111.945 7.99625 111.828 8.04173 111.707L10.1443 112.223L10.124 111.131L8.17314 110.454C7.96087 110.373 7.78903 110.312 7.65256 110.272C7.5161 110.231 7.39986 110.201 7.30383 110.181C7.2078 110.166 7.10671 110.155 6.99552 110.16C6.667 110.166 6.40419 110.277 6.20202 110.489C5.99986 110.701 5.90383 110.974 5.90888 111.298C5.90888 111.606 6.02007 111.869 6.22224 112.076C6.4244 112.288 6.69733 112.389 7.0309 112.384L7.03596 112.379Z" fill="black"/>
<path d="M10.3162 125.03L10.1747 123.286L4.35232 120.86L9.70467 117.57L9.54799 115.689L2.74004 120.051L2.51261 119.93C2.0173 119.677 1.71405 119.364 1.59781 118.99C1.48661 118.616 1.49167 118.171 1.62308 117.661L0.197806 117.327C0.0108024 117.908 -0.0447932 118.469 0.0360732 119.005C0.11694 119.541 0.344376 120.026 0.723438 120.456C1.1025 120.885 1.62308 121.244 2.28517 121.527L10.3162 125.03Z" fill="black"/>
<path d="M11.8881 134.001L11.5646 132.146L7.13717 130.119L6.82382 128.315L10.7812 127.627L10.483 125.919L1.06714 127.556L1.36533 129.265L5.33284 128.572L5.63609 130.336L2.14873 133.783L2.49241 135.759L6.77328 131.564L11.8881 134.001Z" fill="black"/>
<path d="M6.60652 140.541C6.82891 141.359 7.14732 142.022 7.57187 142.537C7.99641 143.048 8.49678 143.396 9.06789 143.583C9.63901 143.77 10.2657 143.77 10.943 143.583C11.6303 143.401 12.1762 143.083 12.5805 142.633C12.9899 142.183 13.2426 141.632 13.3437 140.98C13.4448 140.328 13.3892 139.591 13.1668 138.772L12.1459 134.976L2.91699 137.458L3.37692 139.171L6.04046 138.453L6.60147 140.536H6.60652V140.541ZM11.6809 140.93C11.4636 141.4 11.0643 141.708 10.4831 141.865C9.90183 142.022 9.40147 141.951 8.97692 141.653C8.55237 141.354 8.23901 140.829 8.03685 140.076L7.49605 138.069L11.1603 137.084L11.7011 139.09C11.9033 139.848 11.8982 140.46 11.6809 140.925V140.93Z" fill="black"/>
<path d="M15.5825 146.424L5.12549 145.701L5.7522 147.404L8.15798 147.531L9.81574 152.014L8.067 153.667L8.71394 155.42L16.184 148.061L15.5775 146.424H15.5825ZM9.67422 147.607L14.2179 147.844L10.9125 150.973L9.66917 147.607H9.67422Z" fill="black"/>
<path d="M20.475 155.178C20.6771 155.264 20.8945 155.259 21.1169 155.158C21.3342 155.062 21.4757 154.905 21.5515 154.693C21.6223 154.48 21.6172 154.273 21.5262 154.076C21.4302 153.859 21.2786 153.712 21.0714 153.631C20.8642 153.55 20.6519 153.555 20.4396 153.657C20.2172 153.758 20.0656 153.909 19.9948 154.116C19.9241 154.324 19.9342 154.536 20.0353 154.748C20.1262 154.945 20.2728 155.092 20.475 155.178Z" fill="black"/>
<path d="M18.2826 153.091L9.57397 157.029L10.3048 158.645L19.0134 154.708L18.2826 153.091Z" fill="black"/>
<path d="M20.4598 152.282C20.5306 152.069 20.5205 151.857 20.4295 151.65C20.3385 151.453 20.1919 151.311 19.9797 151.225C19.7724 151.139 19.5602 151.145 19.3428 151.246C19.1205 151.347 18.9739 151.503 18.9031 151.716C18.8324 151.928 18.8425 152.13 18.9334 152.332C19.0295 152.539 19.176 152.686 19.3782 152.777C19.5804 152.863 19.7977 152.858 20.0201 152.757C20.2374 152.661 20.3789 152.504 20.4547 152.292V152.282H20.4598Z" fill="black"/>
<path d="M23.1385 162.799L19.6714 164.684L17.3111 160.343L20.7782 158.458L19.9291 156.901L11.5342 161.465L12.3782 163.027L15.9768 161.065L18.3421 165.412L14.7436 167.368L15.5826 168.915L23.9775 164.351L23.1385 162.799Z" fill="black"/>
<path d="M22.0215 175.591C21.6273 175.344 21.2887 175.015 21.0158 174.606C20.7327 174.191 20.5457 173.767 20.4497 173.332C20.3537 172.897 20.3435 172.468 20.4194 172.048C20.4952 171.629 20.6569 171.23 20.8995 170.856C21.1421 170.482 21.4656 170.158 21.8699 169.88C22.2742 169.602 22.6988 169.42 23.1334 169.334C23.5681 169.248 23.9977 169.243 24.4172 169.329C24.8367 169.415 25.2309 169.582 25.5999 169.83C25.9688 170.082 26.2923 170.411 26.5753 170.825C26.8533 171.23 27.0302 171.664 27.1212 172.124C27.2071 172.584 27.197 173.064 27.0858 173.57L28.6222 173.913C28.8093 173.246 28.8295 172.574 28.688 171.887C28.5464 171.199 28.2583 170.537 27.8186 169.885C27.4042 169.274 26.9241 168.783 26.3732 168.404C25.8273 168.03 25.236 167.773 24.6093 167.641C23.9825 167.51 23.3457 167.5 22.7139 167.626C22.0822 167.747 21.4656 168.01 20.8742 168.414C20.2829 168.819 19.8078 169.294 19.4641 169.835C19.1154 170.375 18.888 170.967 18.7768 171.593C18.6656 172.22 18.6858 172.862 18.8324 173.509C18.9789 174.156 19.262 174.783 19.6764 175.394C20.1212 176.046 20.6367 176.567 21.228 176.946C21.8194 177.325 22.4562 177.552 23.1435 177.623L23.3912 176.066C22.8757 175.985 22.4208 175.824 22.0266 175.576V175.591H22.0215Z" fill="black"/>
<path d="M32.0592 182.116C32.0592 181.312 31.6953 180.474 30.9675 179.584L29.2844 177.542L31.7812 175.485L30.6592 174.125L23.2852 180.201L25.9083 183.385C26.6765 184.32 27.4902 184.876 28.3494 185.053C29.2086 185.229 30.0527 184.977 30.8815 184.294C31.67 183.648 32.0592 182.92 32.0592 182.121V182.116ZM29.7191 182.925C29.2491 183.314 28.7689 183.461 28.2837 183.375C27.7985 183.289 27.3386 182.975 26.9039 182.45L25.4534 180.691L28.2231 178.406L29.6736 180.165C30.1133 180.701 30.3458 181.196 30.3711 181.661C30.3963 182.121 30.179 182.546 29.714 182.925H29.7191Z" fill="black"/>
<path d="M42.5263 187.18L41.2021 185.841L36.4108 186.71L35.122 185.412L37.9725 182.586L36.7494 181.353L29.9617 188.08L31.1848 189.313L34.0454 186.478L35.3039 187.747L34.4144 192.573L35.8295 193.999L36.9364 188.11L42.5263 187.18Z" fill="black"/>
<path d="M48.5661 192.245L40.2823 194.18L44.6238 188.964L43.2693 187.837L37.1538 195.186L38.4325 196.248L46.7011 194.317L42.3697 199.523L43.7242 200.65L49.8397 193.301L48.5661 192.245Z" fill="black"/>
<path d="M49.3696 201.297L53.1349 195.651L51.6743 194.676L46.3674 202.621L47.7523 203.546L55.7682 200.756L52.0079 206.391L53.4736 207.367L58.7804 199.422L57.4057 198.502L49.3696 201.297Z" fill="black"/>
<path d="M54.6058 193.478C54.2621 194.004 54.1711 194.529 54.3227 195.045C54.4743 195.56 54.8938 196.051 55.5711 196.505C56.2534 196.96 56.865 197.162 57.4058 197.107C57.9465 197.051 58.3964 196.768 58.7502 196.248L57.7292 195.565C57.5372 195.838 57.2946 195.99 57.0065 196.02C56.7184 196.046 56.4151 195.955 56.0866 195.737C55.7632 195.52 55.5559 195.277 55.4751 195.004C55.3942 194.731 55.4447 194.453 55.6216 194.165L54.6007 193.483L54.6058 193.478Z" fill="black"/>
<path d="M69.1466 206.578L69.829 205.239L64.0167 202.338L59.751 210.89L61.3279 211.678L64.9062 204.461L69.1466 206.578Z" fill="black"/>
<path d="M76.9147 208.1L72.1486 212.234L71.5876 205.977L69.8389 205.279L70.7132 213.315L70.506 213.467C70.0613 213.801 69.6468 213.932 69.2577 213.866C68.8735 213.801 68.4793 213.593 68.08 213.25L67.145 214.377C67.5797 214.806 68.0598 215.105 68.5753 215.271C69.0909 215.438 69.6266 215.448 70.1826 215.302C70.7385 215.155 71.2844 214.847 71.8353 214.382L78.5472 208.751L76.9248 208.105H76.9147V208.1Z" fill="black"/>
<path d="M87.9934 211.466L82.6814 216.555L80.7356 209.434L79.3255 209.04L76.7529 218.243L78.3955 218.703L80.0735 212.709L81.6959 218.506L82.4742 218.723L86.8966 214.513L85.1934 220.603L86.836 221.063L89.3883 211.855L87.9934 211.466Z" fill="black"/>
<path d="M94.6903 212.77L88.9185 221.518L90.7127 221.806L92.0015 219.775L96.7221 220.538L97.3033 222.873L99.1481 223.171L96.4138 213.048L94.6903 212.77ZM92.8152 218.496L95.2564 214.655L96.3582 219.072L92.8203 218.501H92.8152V218.496Z" fill="black"/>
<path d="M108.25 218.137L103.313 217.849L103.545 213.912L101.771 213.811L101.215 223.348L102.989 223.454L103.227 219.366L108.159 219.649L107.922 223.742L109.681 223.844L110.237 214.301L108.478 214.2L108.25 218.137Z" fill="black"/>
<path d="M114.391 214.199L112.632 214.228L112.787 223.784L114.546 223.755L114.391 214.199Z" fill="black"/>
<path d="M123.747 213.649L115.69 214.245L115.796 215.741L118.945 215.509L119.536 223.545L121.28 223.414L120.689 215.382L123.858 215.145L123.747 213.649Z" fill="black"/>
<path d="M127.532 213.073L124.798 223.191L126.592 222.903L127.178 220.568L131.899 219.81L133.183 221.847L135.027 221.549L129.256 212.795L127.532 213.073ZM127.547 219.097L128.659 214.685L131.09 218.531L127.547 219.097Z" fill="black"/>
<path d="M142.245 211.43C141.8 211.021 141.249 210.763 140.597 210.657C139.945 210.551 139.207 210.601 138.388 210.819L134.583 211.814L136.998 221.064L138.717 220.614L138.019 217.945L140.107 217.399C140.925 217.187 141.593 216.869 142.108 216.444C142.624 216.025 142.977 215.524 143.164 214.953C143.357 214.382 143.362 213.755 143.185 213.078C143.003 212.391 142.694 211.845 142.245 211.43ZM141.234 215.034C140.936 215.453 140.405 215.767 139.647 215.964L137.64 216.49L136.68 212.815L138.686 212.29C139.445 212.092 140.056 212.103 140.521 212.325C140.986 212.547 141.299 212.947 141.451 213.528C141.603 214.109 141.532 214.609 141.229 215.034H141.234Z" fill="black"/>
<path d="M149.892 207.049L151.261 210.748L146.627 212.467L145.257 208.762L143.594 209.379L146.905 218.345L148.573 217.728L147.152 213.887L151.787 212.173L153.207 216.015L154.86 215.403L151.544 206.437L149.892 207.049Z" fill="black"/>
<path d="M159.838 202.464L158.251 210.829L155.239 204.749L153.657 205.527L157.902 214.094L159.399 213.351L160.975 205.012L163.983 211.077L165.56 210.298L161.319 201.731L159.838 202.464Z" fill="black"/>
<path d="M169.133 196.91L168.44 205.391L164.801 199.664L163.315 200.61L168.44 208.676L169.845 207.781L170.538 199.321L174.167 205.037L175.653 204.092L170.528 196.025L169.133 196.91Z" fill="black"/>
<path d="M166.07 196.996C165.742 197.208 165.433 197.294 165.15 197.253C164.867 197.218 164.635 197.061 164.443 196.778L163.406 197.435C163.75 197.961 164.19 198.259 164.726 198.33C165.261 198.401 165.873 198.214 166.565 197.774C167.258 197.334 167.687 196.859 167.854 196.339C168.021 195.823 167.94 195.297 167.612 194.762L166.575 195.419C166.747 195.707 166.788 195.99 166.702 196.263C166.611 196.536 166.399 196.778 166.07 196.986V196.996Z" fill="black"/>
<path d="M183.719 191.275C182.961 191.3 182.142 191.679 181.263 192.417L179.105 194.241L177.599 192.457L181.95 188.783L181 187.656L175.304 192.467L181.47 199.771L184.765 196.986C185.685 196.212 186.226 195.414 186.398 194.59C186.57 193.766 186.352 192.998 185.746 192.28C185.16 191.583 184.482 191.249 183.724 191.269H183.719V191.275ZM184.745 194.706C184.644 195.136 184.331 195.571 183.81 196.01L181.935 197.597L179.989 195.293L181.869 193.706C182.936 192.806 183.785 192.735 184.417 193.483C184.74 193.867 184.851 194.272 184.75 194.701L184.745 194.706Z" fill="black"/>
<path d="M184.78 183.946L188.617 193.7L189.885 192.401L188.965 190.177L192.306 186.756L194.55 187.625L195.854 186.286L185.999 182.697L184.775 183.951L184.78 183.946ZM188.389 188.767L186.65 184.562L190.896 186.2L188.389 188.767Z" fill="black"/>
<path d="M194.959 174.636L193.802 173.681L188.667 179.923L189.824 180.878L191.831 178.442L198.053 183.556L199.159 182.207L192.938 177.092L194.959 174.636Z" fill="black"/>
<path d="M195.99 170.547L201.419 179.513L202.45 178.017L201.166 175.981L203.88 172.043L206.24 172.518L207.302 170.977L196.981 169.107L195.99 170.547ZM200.362 174.697L197.936 170.846L202.394 171.745L200.357 174.697H200.362Z" fill="black"/>
<path d="M200.509 163.593L203.9 165.609C204.674 166.074 205.3 166.499 205.791 166.878C206.276 167.257 206.604 167.621 206.766 167.965C206.928 168.308 206.918 168.652 206.731 168.996C206.66 169.122 206.579 169.233 206.488 169.329L207.792 170.188C207.918 170.052 208.03 169.916 208.121 169.784C208.212 169.653 208.297 169.521 208.373 169.385C208.621 168.94 208.717 168.505 208.661 168.096C208.606 167.687 208.414 167.267 208.075 166.853C207.736 166.438 207.277 166.014 206.695 165.579C206.114 165.144 205.422 164.685 204.613 164.204L202.556 162.981L204.365 159.691L211.426 163.568L212.275 162.026L203.895 157.427L200.509 163.593Z" fill="black"/>
<path d="M213.827 150.457C212.892 150.058 212.063 150.038 211.35 150.406C210.638 150.775 210.056 151.488 209.606 152.539L208.565 154.975L205.588 153.702L204.896 155.319L213.68 159.079L215.302 155.289C215.778 154.177 215.899 153.196 215.661 152.352C215.424 151.508 214.812 150.877 213.827 150.452V150.457ZM214.019 154.839L213.119 156.936L209.819 155.521L210.718 153.424C210.991 152.787 211.325 152.352 211.724 152.115C212.123 151.877 212.599 151.882 213.149 152.115C213.71 152.352 214.064 152.711 214.206 153.186C214.352 153.661 214.287 154.207 214.019 154.839Z" fill="black"/>
<path d="M207.777 142.876C207.539 143.028 207.256 143.063 206.933 142.967L206.564 144.14C207.165 144.322 207.696 144.266 208.146 143.973C208.601 143.68 208.95 143.144 209.197 142.366C209.445 141.582 209.465 140.94 209.258 140.44C209.056 139.935 208.651 139.586 208.055 139.389L207.686 140.561C208.004 140.672 208.217 140.859 208.323 141.127C208.429 141.395 208.424 141.714 208.308 142.088C208.191 142.462 208.014 142.724 207.772 142.876H207.777Z" fill="black"/>
<path d="M210.602 140.046L215.535 146.975L209.061 144.938L208.535 146.621L217.653 149.487L218.153 147.9L213.225 140.981L219.689 143.017L220.215 141.334L211.097 138.469L210.602 140.046Z" fill="black"/>
<path d="M221.403 129.917C221.054 129.381 220.614 128.926 220.079 128.562C219.543 128.193 218.926 127.941 218.234 127.804C217.536 127.668 216.869 127.663 216.232 127.794C215.596 127.926 215.014 128.173 214.489 128.537C213.963 128.901 213.523 129.366 213.165 129.937C212.806 130.503 212.553 131.15 212.412 131.873C212.265 132.606 212.25 133.303 212.371 133.965C212.487 134.627 212.72 135.234 213.064 135.775C213.407 136.316 213.842 136.77 214.378 137.139C214.913 137.508 215.53 137.756 216.222 137.897C216.91 138.034 217.572 138.039 218.204 137.903C218.84 137.771 219.422 137.518 219.947 137.149C220.473 136.78 220.923 136.31 221.287 135.739C221.651 135.168 221.908 134.521 222.05 133.799C222.191 133.076 222.206 132.383 222.095 131.721C221.984 131.059 221.752 130.458 221.403 129.917ZM220.523 133.495C220.427 133.97 220.261 134.39 220.018 134.764C219.775 135.138 219.477 135.441 219.118 135.679C218.76 135.911 218.365 136.078 217.931 136.164C217.496 136.255 217.041 136.25 216.566 136.159C216.086 136.063 215.661 135.891 215.297 135.643C214.934 135.396 214.63 135.092 214.393 134.739C214.155 134.385 213.993 133.991 213.913 133.551C213.832 133.111 213.842 132.656 213.933 132.181C214.029 131.706 214.196 131.292 214.433 130.923C214.671 130.559 214.969 130.256 215.323 130.013C215.677 129.77 216.071 129.614 216.505 129.533C216.94 129.452 217.395 129.462 217.88 129.558C218.365 129.654 218.79 129.826 219.159 130.069C219.528 130.311 219.831 130.614 220.064 130.968C220.301 131.322 220.458 131.711 220.539 132.141C220.619 132.57 220.614 133.02 220.518 133.495H220.523Z" fill="black"/>
<path d="M223.844 119.47L224.001 117.716L214.479 116.857L214.322 118.611L218.254 118.965L217.809 123.887L213.877 123.533L213.72 125.302L223.237 126.162L223.399 124.393L219.32 124.024L219.76 119.101L223.844 119.47Z" fill="black"/>
<path d="M218.103 111.171L216.177 110.418C215.97 110.332 215.798 110.267 215.666 110.216C215.535 110.171 215.419 110.135 215.313 110.12C215.207 110.105 215.105 110.095 215.004 110.095C214.676 110.095 214.408 110.186 214.196 110.388C213.983 110.59 213.872 110.853 213.867 111.181C213.867 111.49 213.958 111.752 214.16 111.97C214.363 112.187 214.63 112.298 214.969 112.303C215.308 112.308 215.575 112.207 215.778 111.995C215.869 111.904 215.934 111.798 215.985 111.682L218.082 112.258L218.098 111.166H218.103V111.171Z" fill="black"/>
<path d="M215.267 113.016C215.161 113.001 215.06 112.991 214.959 112.991C214.63 112.991 214.362 113.082 214.15 113.284C213.938 113.486 213.827 113.749 213.822 114.077C213.822 114.386 213.913 114.648 214.115 114.866C214.317 115.083 214.585 115.194 214.923 115.199C215.262 115.204 215.53 115.103 215.732 114.891C215.823 114.8 215.889 114.694 215.939 114.578L218.037 115.154L218.057 114.062L216.131 113.309C215.924 113.223 215.752 113.158 215.621 113.112C215.489 113.067 215.373 113.031 215.267 113.016Z" fill="black"/>
<path d="M113.729 140.526C143.624 140.526 167.859 116.291 167.859 86.3956C167.859 56.5004 143.624 32.2656 113.729 32.2656C83.8339 32.2656 59.5991 56.5004 59.5991 86.3956C59.5991 116.291 83.8339 140.526 113.729 140.526Z" fill="#005BBB"/>
<path d="M113.729 141.162C83.5306 141.162 58.9624 116.594 58.9624 86.3957C58.9624 56.1971 83.5306 31.6289 113.729 31.6289C143.928 31.6289 168.496 56.1971 168.496 86.3957C168.496 116.594 143.928 141.162 113.729 141.162ZM113.729 32.9026C84.2332 32.9026 60.236 56.8997 60.236 86.3957C60.236 115.892 84.2332 139.889 113.729 139.889C143.225 139.889 167.222 115.892 167.222 86.3957C167.222 56.8997 143.225 32.9026 113.729 32.9026Z" fill="#231F20"/>
<path d="M175.021 78.6174C174.238 76.7272 172.6 75.7669 170.816 75.029C168.83 74.2102 166.823 73.4369 164.822 72.6434C163.609 72.1633 162.416 72.0116 161.152 72.5676C159.995 73.073 159.045 72.694 158.469 71.5366C158.14 70.8795 157.973 70.1467 157.726 69.4492C157.149 67.8167 156.194 67.3315 154.739 68.2261C152.661 69.5098 150.614 69.434 148.451 68.6153C147.264 68.1654 146.066 67.9431 144.757 68.2615C143.311 68.6102 142.386 67.9026 142.139 66.4319C142.022 65.7445 141.962 65.0116 142.068 64.3293C142.578 61.1654 141.664 58.7799 137.418 59.1387C134.537 59.3813 132.384 55.7423 134.027 53.3163C134.977 51.9062 134.593 51.1026 133.825 50.0311C133.37 49.4044 133.056 48.6766 132.627 48.0297C131.505 46.3517 129.923 45.6037 127.931 45.9777C126.587 46.2304 125.253 46.5792 123.964 47.034C121.609 47.868 119.253 48.5149 116.711 48.5654C115.225 48.5958 113.643 48.899 112.299 49.5106C109.726 50.6781 108.716 52.8766 108.933 55.712C108.978 56.2983 108.599 57.1727 108.134 57.4607C107.786 57.673 106.886 57.294 106.411 56.9402C105.481 56.2528 104.571 55.8737 103.419 56.2326C101.665 56.7835 100.103 56.5914 98.6931 55.2116C98.2939 54.8225 97.091 54.5748 96.8383 54.8376C95.5949 56.1062 94.4325 55.5452 93.1588 55.055C92.6484 54.8579 92.0166 54.7517 91.491 54.8629C89.8837 55.1965 88.3928 55.1207 86.8108 54.5445C83.5458 53.3517 80.2455 52.2095 76.8946 51.3149C73.5487 50.4203 70.1069 50.395 66.7812 51.507C65.9069 51.8001 64.9921 52.4875 64.4917 53.2506C63.4253 54.873 63.1978 55.0954 61.252 54.7062C61.0094 54.6557 60.7567 54.6355 60.4231 54.5849C60.0996 56.2023 60.696 57.5113 61.3733 58.8506C62.0202 60.1293 62.6975 61.4434 63.026 62.8232C63.8397 66.255 63.6982 67.2153 60.5545 68.7871C60.5191 68.8023 60.4888 68.8275 60.4585 68.8477C57.0166 71.2788 53.9386 74.1041 54.1105 78.6882C54.2065 81.2304 53.5848 83.0044 51.8462 84.8492C50.6079 86.1633 49.9509 88.2506 50.9769 90.1257C51.9119 91.8391 53.3776 92.9409 55.5509 92.5972C57.2238 92.3344 58.8058 92.5719 60.1906 93.6535C61.0953 94.356 62.1263 94.4167 63.1523 94.0225C65.1285 93.2593 66.8065 93.5625 68.3531 95.0687C69.3942 96.0846 69.8188 96.029 70.7487 94.9524C71.5877 93.982 72.5328 93.6131 73.8065 93.8708C75.257 94.1589 76.5155 93.6788 77.5516 92.6225C78.0217 92.1474 78.4866 91.6622 78.9718 91.2023C82.0751 88.2506 87.013 87.6644 90.5357 89.6506C92.4007 90.7019 94.3668 91.6167 96.3834 92.3344C98.4657 93.0774 99.522 94.3207 99.6736 96.5546C99.7545 97.7373 100.129 98.9755 100.669 100.037C101.817 102.281 103.171 104.414 104.419 106.602C104.97 107.563 105.744 108.624 104.996 109.695C104.172 110.873 102.802 110.641 101.609 110.342C100.649 110.1 99.7545 109.609 98.8144 109.271C98.5263 109.17 98.031 109.084 97.9047 109.23C97.7025 109.463 97.6722 109.893 97.6772 110.241C97.6772 110.484 97.8491 110.726 97.9603 110.959C98.4657 112.035 98.3848 112.93 97.5307 113.9C95.8729 115.776 94.3668 117.787 92.7646 119.783C94.3567 120.885 95.8628 121.482 97.6217 120.501C98.1372 120.213 98.7083 120.016 99.2744 119.839C100.326 119.511 101.326 119.541 102.18 120.37C102.347 120.532 102.585 120.622 102.949 120.84C102.843 120.456 102.792 120.248 102.731 120.046C101.993 117.58 102.534 116.291 105.011 115.659C107.417 115.043 108.589 113.602 108.923 111.272C108.958 111.02 109.064 110.772 109.12 110.519C109.504 108.7 110.666 107.623 112.375 107.042C114.396 106.355 116.464 106.193 118.521 106.713C119.39 106.931 120.259 107.391 120.947 107.957C121.26 108.215 121.326 109.084 121.139 109.519C121.022 109.791 120.209 109.903 119.734 109.852C119.077 109.776 118.445 109.478 117.803 109.276C118.238 109.872 118.839 110.211 119.193 110.721C120.517 112.607 122.24 113.385 124.555 113.142C126.168 112.97 127.82 112.991 129.438 113.132C130.019 113.183 130.918 113.754 131.004 114.214C131.126 114.835 130.656 115.614 130.322 116.261C130.175 116.549 129.756 116.736 129.422 116.882C127.997 117.509 126.557 118.1 125.126 118.707C124.57 118.939 124.019 119.182 123.464 119.42C123.469 119.536 123.474 119.652 123.479 119.773C124.51 120.122 125.561 120.415 126.567 120.83C129.751 122.144 130.721 124.11 129.832 127.344C129.801 127.451 129.766 127.557 129.746 127.668C129.478 129.169 130.261 130.139 131.773 129.892C132.677 129.745 133.643 129.326 134.345 128.744C135.796 127.547 137.251 126.48 139.147 126.086C140.349 125.838 141.264 125.121 141.835 123.948C142.396 122.786 143.038 122.543 144.307 122.892C145.019 123.084 145.692 123.417 146.399 123.645C147.491 124.004 148.527 123.923 149.422 123.124C150.185 122.437 150.382 120.89 149.78 120.157C148.942 119.132 148.199 119.91 147.451 120.329C146.414 120.9 145.434 121.613 144.337 122.022C141.931 122.927 140.521 122.058 140.173 119.546C140.046 118.616 139.637 117.959 138.843 117.489C138.459 117.261 137.974 117.069 137.772 116.721C137.423 116.119 136.978 115.346 137.115 114.765C137.231 114.259 138.035 113.708 138.626 113.567C139.692 113.314 140.365 112.789 140.708 111.793C141.128 110.59 141.982 109.852 143.099 109.296C143.71 108.993 144.357 108.568 144.736 108.028C145.975 106.254 147.597 105.768 149.684 106.021C150.66 106.142 151.843 106.011 152.682 105.546C155.335 104.065 158.044 102.847 161.077 102.412C161.865 102.301 162.204 101.765 162.173 100.982C162.158 100.537 162.113 100.093 162.123 99.6477C162.153 98.2023 162.81 97.3329 164.22 97.0449C165.034 96.8781 165.549 96.4838 165.878 95.7358C166.313 94.7402 167.131 94.3055 168.193 94.3055C169.047 94.3055 169.901 94.3611 170.755 94.3308C173.08 94.2499 174.364 92.3243 173.57 90.151C173.353 89.5597 173.09 88.9835 172.898 88.382C172.489 87.1134 172.64 85.9662 173.702 85.0311C173.853 84.8947 173.939 84.6824 174.051 84.5106C172.514 83.1207 172.443 82.312 173.929 81.8167C175.496 81.2961 175.769 80.4066 175.031 78.6326L175.021 78.6174Z" fill="#FFD500"/>
<path d="M175.865 78.7789C175.137 76.5956 173.459 75.3573 171.442 74.5132C169.289 73.6136 167.116 72.7443 164.938 71.9154C163.699 71.4454 162.436 71.2836 161.137 71.8143C160.04 72.2641 159.408 71.9912 158.943 70.8844C158.64 70.1717 158.494 69.3934 158.19 68.6757C157.594 67.2757 156.447 66.7905 155.006 67.301C154.556 67.4627 154.112 67.6699 153.702 67.9226C152.545 68.6403 151.327 68.6959 150.058 68.3421C149.128 68.0844 148.219 67.7356 147.278 67.5486C146.606 67.4122 145.873 67.3717 145.196 67.4779C143.493 67.7508 142.912 67.4021 142.801 65.6836C142.73 64.5768 142.886 63.4598 142.871 62.3479C142.841 60.023 141.229 58.4562 138.919 58.4461C138.545 58.4461 138.176 58.4461 137.802 58.4663C136.589 58.5421 135.457 58.4006 134.891 57.127C134.279 55.7522 133.946 54.3573 135.058 53.0533C135.614 52.4013 135.704 51.7291 135.275 51.0064C134.532 49.7681 133.799 48.5147 132.99 47.3219C131.889 45.6945 130.271 45.0374 128.361 45.2396C127.188 45.3609 125.98 45.5479 124.894 45.9724C121.679 47.241 118.369 47.8374 114.927 48.0143C111.657 48.1811 109.165 50.1826 108.422 53.0432C108.195 53.9176 108.331 54.8829 108.23 55.7977C108.19 56.1616 107.962 56.5104 107.816 56.8641C107.492 56.7176 107.108 56.6418 106.86 56.4143C105.809 55.4591 104.627 55.1255 103.257 55.54C101.68 56.0201 100.31 55.8584 99.0922 54.5696C98.3341 53.771 96.8532 53.6194 96.3377 54.2158C95.4178 55.2771 94.5435 54.7919 93.5377 54.4483C92.815 54.2057 91.9709 54.0793 91.228 54.2006C89.8027 54.428 88.4937 54.3826 87.0937 53.8822C83.7175 52.6692 80.316 51.4815 76.8489 50.5818C73.3514 49.6721 69.768 49.6974 66.3059 50.9053C65.4518 51.2035 64.4308 51.7948 64.0518 52.5378C63.324 53.9681 62.5052 54.4685 60.9789 53.9378C60.1247 53.6447 59.4828 54.1248 59.6193 54.9992C59.8366 56.3638 60.0539 57.8194 60.6857 59.0122C61.6207 60.7862 62.303 62.5804 62.581 64.5515C62.8085 66.1739 62.5507 66.7248 61.1659 67.584C60.2864 68.1298 59.402 68.6858 58.5832 69.3176C55.3132 71.8497 53.0337 75.0085 53.3168 79.3248C53.4431 81.2454 52.9276 82.5241 51.5882 83.8735C49.1319 86.345 49.329 89.9537 51.7651 92.2735C52.7911 93.249 54.0092 93.5472 55.3586 93.3652C57.0063 93.1378 58.5175 93.3501 59.8922 94.3811C61.0041 95.215 62.2626 95.1595 63.511 94.7096C65.0373 94.1587 66.3211 94.3002 67.5947 95.4829C69.2424 97.0194 69.9146 96.8627 71.537 95.301C71.9363 94.9118 72.659 94.5378 73.1543 94.6237C75.4438 95.0028 77.2229 94.2447 78.724 92.5566C79.2142 92.0057 79.755 91.4598 80.3666 91.0555C83.3131 89.1046 86.4113 88.5233 89.7319 90.1205C91.9002 91.1616 94.0482 92.2685 96.2872 93.1378C97.9702 93.7898 98.7132 94.8158 98.89 96.5948C99.0164 97.8887 99.3955 99.2331 99.9868 100.391C101.25 102.862 102.756 105.207 104.106 107.633C104.945 109.144 104.424 110.003 102.726 109.771C101.543 109.609 100.432 108.983 99.2539 108.7C98.6323 108.548 97.6265 108.416 97.3536 108.745C96.9796 109.19 97.0857 110.084 97.0958 110.782C97.1009 111.126 97.4648 111.464 97.4698 111.813C97.4749 112.253 97.4142 112.793 97.1615 113.122C95.6099 115.113 94.0178 117.074 92.3955 119.005C91.8446 119.657 91.9254 120.157 92.5724 120.572C94.1493 121.583 95.7817 122.331 97.672 121.32C98.0662 121.113 98.4857 120.961 98.8951 120.784C100.002 120.294 101.013 120.253 101.968 121.188C102.276 121.487 102.847 121.517 103.297 121.668C103.378 121.153 103.626 120.597 103.515 120.122C102.903 117.453 103.1 117.059 105.743 116.18C105.92 116.119 106.097 116.068 106.274 116.013C107.831 115.553 108.811 114.537 109.226 112.97C109.443 112.146 109.605 111.297 109.903 110.504C110.13 109.892 110.424 109.235 110.873 108.791C112.708 106.986 117.813 106.617 119.93 108.098C120.239 108.31 120.406 108.725 120.638 109.043C120.552 109.114 120.461 109.19 120.375 109.261C119.562 109.043 118.758 108.725 117.934 108.649C117.585 108.619 117.196 109.094 116.822 109.336C117.05 109.67 117.232 110.039 117.51 110.327C117.909 110.741 118.434 111.045 118.793 111.484C120.234 113.243 121.988 114.158 124.333 113.926C125.839 113.774 127.37 113.759 128.886 113.819C129.387 113.84 129.872 114.294 130.367 114.552C130.034 115.048 129.806 115.75 129.341 115.998C127.946 116.751 126.455 117.332 125 117.979C124.424 118.232 123.797 118.398 123.271 118.727C122.513 119.202 122.513 119.945 123.271 120.42C123.701 120.688 124.232 120.779 124.712 120.981C125.596 121.35 126.541 121.628 127.34 122.144C129.518 123.549 129.867 124.61 129.175 127.066C129.094 127.349 129.018 127.642 128.993 127.936C128.851 129.624 129.73 130.635 131.429 130.685C132.707 130.726 133.85 130.311 134.785 129.432C136.159 128.138 137.676 127.162 139.571 126.748C140.925 126.45 141.972 125.636 142.492 124.251C142.75 123.559 143.311 123.301 144.029 123.549C144.762 123.806 145.469 124.14 146.212 124.377C147.531 124.797 148.82 124.706 149.871 123.746C150.837 122.866 150.978 121.679 150.69 120.455C150.392 119.192 149.325 118.636 148.143 119.126C147.637 119.339 147.193 119.697 146.702 119.96C145.793 120.455 144.913 121.032 143.948 121.385C142.098 122.063 141.107 121.421 140.875 119.465C140.733 118.267 140.198 117.367 139.146 116.776C138.858 116.614 138.53 116.453 138.333 116.205C138.075 115.876 137.706 115.376 137.802 115.093C137.918 114.739 138.439 114.365 138.833 114.294C140.157 114.067 140.961 113.334 141.395 112.111C141.754 111.105 142.472 110.494 143.412 109.998C144.145 109.609 144.908 109.099 145.383 108.442C146.465 106.956 147.809 106.481 149.558 106.819C150.928 107.082 152.247 106.809 153.414 106.087C155.785 104.621 158.312 103.645 161.066 103.19C162.552 102.943 162.967 102.296 162.926 100.77C162.916 100.471 162.876 100.178 162.876 99.88C162.876 98.6064 163.28 98.0504 164.533 97.7724C165.479 97.5602 166.156 97.0851 166.52 96.1804C166.838 95.3919 167.45 95.0634 168.273 95.0735C169.163 95.0836 170.058 95.1443 170.947 95.0937C173.616 94.9472 175.193 92.5717 174.323 90.0497C174.071 89.3118 173.661 88.6042 173.565 87.8512C173.484 87.2497 173.58 86.4613 173.919 85.9912C175.107 84.3436 175.157 84.384 173.525 82.9739C173.848 82.7566 174.065 82.5645 174.318 82.4432C176.117 81.5638 176.497 80.7096 175.86 78.7992V78.7789H175.865ZM174.045 84.5002C173.934 84.6721 173.853 84.8844 173.697 85.0208C172.64 85.9558 172.489 87.1031 172.893 88.3717C173.085 88.9732 173.348 89.5493 173.565 90.1407C174.364 92.319 173.075 94.2396 170.75 94.3205C169.896 94.3508 169.042 94.2952 168.188 94.2952C167.126 94.2952 166.312 94.7298 165.873 95.7255C165.549 96.4685 165.029 96.8627 164.215 97.0345C162.81 97.3226 162.153 98.197 162.117 99.6374C162.107 100.082 162.148 100.527 162.168 100.972C162.198 101.75 161.86 102.286 161.071 102.402C158.039 102.832 155.33 104.055 152.676 105.536C151.837 106.006 150.655 106.132 149.679 106.011C147.592 105.758 145.975 106.243 144.731 108.017C144.352 108.563 143.705 108.983 143.094 109.286C141.972 109.842 141.123 110.585 140.703 111.783C140.354 112.778 139.682 113.304 138.621 113.557C138.029 113.698 137.226 114.254 137.11 114.754C136.978 115.336 137.423 116.109 137.767 116.71C137.969 117.059 138.454 117.251 138.838 117.479C139.632 117.944 140.036 118.606 140.167 119.536C140.516 122.048 141.926 122.917 144.332 122.012C145.429 121.598 146.409 120.89 147.445 120.319C148.198 119.905 148.936 119.121 149.775 120.147C150.372 120.88 150.18 122.427 149.416 123.114C148.522 123.913 147.486 123.993 146.394 123.635C145.691 123.402 145.014 123.074 144.302 122.881C143.033 122.533 142.391 122.78 141.83 123.938C141.264 125.115 140.349 125.828 139.141 126.076C137.241 126.47 135.79 127.536 134.34 128.734C133.637 129.315 132.672 129.735 131.767 129.881C130.256 130.124 129.473 129.159 129.741 127.658C129.761 127.546 129.796 127.44 129.827 127.334C130.711 124.105 129.746 122.133 126.562 120.819C125.561 120.405 124.504 120.112 123.473 119.763C123.468 119.647 123.463 119.531 123.458 119.409C124.014 119.172 124.565 118.929 125.121 118.697C126.556 118.09 127.992 117.499 129.417 116.872C129.751 116.726 130.17 116.539 130.317 116.25C130.65 115.603 131.115 114.825 130.999 114.203C130.913 113.744 130.008 113.167 129.432 113.122C127.815 112.985 126.162 112.965 124.55 113.132C122.235 113.375 120.512 112.596 119.188 110.711C118.829 110.201 118.232 109.862 117.798 109.266C118.44 109.468 119.071 109.766 119.728 109.842C120.203 109.897 121.017 109.781 121.133 109.508C121.32 109.074 121.25 108.204 120.941 107.946C120.254 107.38 119.385 106.92 118.515 106.703C116.458 106.183 114.391 106.344 112.369 107.032C110.661 107.613 109.499 108.689 109.115 110.509C109.059 110.762 108.953 111.009 108.917 111.262C108.589 113.597 107.411 115.032 105.006 115.649C102.524 116.286 101.988 117.575 102.726 120.036C102.787 120.238 102.837 120.445 102.943 120.829C102.58 120.612 102.342 120.521 102.175 120.359C101.321 119.531 100.32 119.5 99.2691 119.829C98.703 120.006 98.1319 120.203 97.6164 120.491C95.8576 121.471 94.3514 120.875 92.7594 119.773C94.3615 117.772 95.8677 115.765 97.5254 113.89C98.3796 112.92 98.4604 112.025 97.955 110.949C97.8438 110.711 97.672 110.468 97.672 110.231C97.672 109.887 97.6973 109.453 97.8994 109.22C98.0258 109.074 98.5211 109.159 98.8092 109.261C99.7493 109.594 100.644 110.089 101.604 110.332C102.797 110.63 104.172 110.863 104.99 109.685C105.738 108.614 104.965 107.557 104.414 106.592C103.166 104.403 101.811 102.266 100.664 100.027C100.123 98.9652 99.7492 97.727 99.6684 96.5443C99.5168 94.3104 98.4655 93.067 96.3781 92.3241C94.3666 91.6064 92.3955 90.6916 90.5305 89.6403C87.0077 87.654 82.0698 88.2403 78.9666 91.1919C78.4814 91.6519 78.0164 92.132 77.5464 92.6122C76.5103 93.6685 75.2518 94.1486 73.8012 93.8605C72.5276 93.6078 71.5825 93.9717 70.7435 94.9421C69.8135 96.0187 69.389 96.0743 68.3478 95.0584C66.8012 93.5522 65.1233 93.2439 63.1471 94.0122C62.1262 94.4064 61.09 94.3457 60.1854 93.6432C58.8005 92.5667 57.2186 92.3241 55.5456 92.5869C53.3774 92.9306 51.9117 91.8288 50.9716 90.1154C49.9456 88.2353 50.5976 86.153 51.841 84.8389C53.5846 82.9941 54.2012 81.2201 54.1052 78.6779C53.9283 74.0937 57.0113 71.2735 60.4532 68.8374C60.4836 68.8172 60.5139 68.797 60.5493 68.7768C63.6929 67.2049 63.8345 66.2396 63.0207 62.8129C62.6922 61.4331 62.015 60.119 61.368 58.8403C60.6908 57.501 60.0944 56.1869 60.4178 54.5746C60.7514 54.6201 60.9991 54.6454 61.2467 54.6959C63.1926 55.0851 63.42 54.8627 64.4864 53.2403C64.9919 52.4771 65.9067 51.7898 66.776 51.4966C70.1016 50.3847 73.5435 50.41 76.8893 51.3046C80.2453 52.2042 83.5406 53.3414 86.8056 54.5342C88.3875 55.1104 89.8785 55.1862 91.4857 54.8526C92.0113 54.7414 92.6431 54.8526 93.1536 55.0447C94.4272 55.5349 95.5897 56.0959 96.833 54.8273C97.0857 54.5696 98.2937 54.8122 98.6879 55.2013C100.093 56.5811 101.655 56.7681 103.414 56.2223C104.571 55.8634 105.476 56.2425 106.406 56.9298C106.886 57.2836 107.78 57.6678 108.129 57.4504C108.594 57.1674 108.973 56.288 108.928 55.7017C108.71 52.8663 109.721 50.6678 112.294 49.5002C113.638 48.8887 115.225 48.5854 116.706 48.5551C119.248 48.5046 121.603 47.8576 123.959 47.0237C125.247 46.5688 126.582 46.2201 127.926 45.9674C129.912 45.5934 131.499 46.3414 132.621 48.0194C133.051 48.6663 133.369 49.3941 133.819 50.0208C134.593 51.0923 134.972 51.8959 134.021 53.306C132.384 55.7371 134.532 59.3761 137.413 59.1284C141.658 58.7696 142.568 61.1602 142.063 64.319C141.951 65.0013 142.017 65.7342 142.133 66.4215C142.381 67.8974 143.306 68.5999 144.751 68.2511C146.065 67.9378 147.258 68.1551 148.446 68.6049C150.609 69.4237 152.656 69.4995 154.733 68.2158C156.189 67.3161 157.144 67.8064 157.72 69.4389C157.968 70.1363 158.135 70.8743 158.463 71.5262C159.04 72.6786 159.985 73.0627 161.147 72.5573C162.411 72.0064 163.603 72.153 164.816 72.6331C166.818 73.4215 168.824 74.1948 170.811 75.0187C172.595 75.7566 174.232 76.7169 175.016 78.6071C175.754 80.3811 175.481 81.2757 173.914 81.7912C172.423 82.2815 172.494 83.0952 174.035 84.4851L174.045 84.5002Z" fill="black"/>
<path d="M131.606 130.882H131.429C130.544 130.852 129.837 130.569 129.382 130.059C128.922 129.543 128.72 128.8 128.796 127.911C128.821 127.602 128.902 127.294 128.983 127.006C129.66 124.605 129.296 123.64 127.234 122.311C126.683 121.957 126.031 121.709 125.404 121.466C125.146 121.37 124.889 121.269 124.636 121.163C124.464 121.092 124.287 121.037 124.105 120.976C123.787 120.875 123.458 120.769 123.165 120.587C122.736 120.319 122.503 119.955 122.503 119.566C122.503 119.177 122.741 118.813 123.17 118.545C123.529 118.318 123.933 118.166 124.323 118.02C124.525 117.944 124.727 117.868 124.924 117.782C125.303 117.615 125.687 117.448 126.066 117.287C127.128 116.832 128.224 116.362 129.245 115.811C129.513 115.669 129.695 115.321 129.892 114.952C129.953 114.84 130.014 114.724 130.079 114.618C129.983 114.562 129.887 114.502 129.796 114.436C129.473 114.229 129.17 114.032 128.881 114.017C127.234 113.951 125.753 113.981 124.353 114.123C122.079 114.345 120.209 113.526 118.637 111.606C118.45 111.378 118.212 111.186 117.959 110.984C117.757 110.822 117.545 110.651 117.363 110.459C117.156 110.246 117.004 109.994 116.853 109.751C116.787 109.645 116.726 109.544 116.655 109.443L116.539 109.271L116.711 109.155C116.822 109.084 116.933 108.988 117.045 108.897C117.333 108.654 117.636 108.412 117.954 108.437C118.566 108.492 119.162 108.674 119.739 108.851C119.936 108.912 120.133 108.973 120.33 109.028L120.365 108.998C120.33 108.942 120.294 108.882 120.254 108.821C120.118 108.594 119.986 108.381 119.809 108.26C117.767 106.83 112.754 107.214 111.015 108.932C110.58 109.357 110.307 109.999 110.09 110.57C109.883 111.121 109.741 111.712 109.605 112.283C109.544 112.531 109.484 112.773 109.423 113.021C108.993 114.653 107.952 115.73 106.33 116.21C106.153 116.261 105.976 116.316 105.804 116.372C103.277 117.211 103.12 117.489 103.712 120.072C103.798 120.446 103.697 120.835 103.601 121.214C103.56 121.375 103.52 121.537 103.494 121.694L103.454 121.937L103.222 121.861C103.085 121.815 102.939 121.78 102.792 121.744C102.433 121.659 102.064 121.573 101.811 121.33C101.013 120.547 100.159 120.44 98.9659 120.966C98.8295 121.027 98.688 121.087 98.5464 121.143C98.2836 121.249 98.0057 121.365 97.758 121.497C95.7768 122.553 94.0331 121.755 92.4511 120.739C92.0771 120.496 91.8699 120.228 91.8244 119.92C91.7739 119.591 91.9053 119.248 92.2288 118.869C93.8865 116.903 95.4887 114.926 96.9898 112.996C97.1667 112.768 97.2627 112.339 97.2576 111.818C97.2576 111.697 97.1768 111.55 97.0959 111.399C96.9948 111.207 96.8887 111.009 96.8836 110.787C96.8836 110.676 96.8786 110.565 96.8735 110.448C96.8533 109.796 96.823 109.053 97.1869 108.619C97.5912 108.139 98.9002 108.412 99.2945 108.508C99.81 108.634 100.31 108.821 100.801 109.003C101.468 109.251 102.094 109.488 102.752 109.574C103.469 109.675 103.975 109.564 104.177 109.271C104.389 108.962 104.298 108.422 103.924 107.739C103.388 106.774 102.817 105.804 102.266 104.869C101.432 103.448 100.568 101.983 99.8049 100.492C99.2187 99.3444 98.8194 97.9697 98.688 96.6253C98.5212 94.9069 97.8035 93.9567 96.2165 93.3401C94.4425 92.6527 92.6988 91.8036 91.0158 90.9798C90.5609 90.7574 90.101 90.5351 89.6461 90.3127C86.6136 88.8571 83.6165 89.1603 80.4829 91.2325C79.841 91.6571 79.2901 92.2383 78.8808 92.6982C77.2735 94.5076 75.3883 95.2051 73.1241 94.8311C72.7046 94.7654 72.0475 95.099 71.6786 95.4578C70.0208 97.0549 69.2223 97.2874 67.4533 95.6398C66.3161 94.5784 65.1183 94.356 63.5818 94.9069C62.0656 95.4527 60.8172 95.3365 59.771 94.5481C58.558 93.6383 57.1631 93.325 55.389 93.5676C53.9031 93.7697 52.6345 93.3856 51.6237 92.4253C50.3652 91.2275 49.6576 89.6657 49.6374 88.0383C49.6172 86.4564 50.2591 84.9249 51.4468 83.7322C52.7659 82.4029 53.236 81.1748 53.1147 79.3401C52.862 75.4686 54.6107 72.1379 58.4569 69.156C59.2605 68.5293 60.1096 67.9935 61.0598 67.4073C62.3739 66.5935 62.5963 66.1134 62.3789 64.5769C62.1262 62.7878 61.5298 61.0491 60.5039 59.1033C59.8771 57.9156 59.6548 56.5105 59.4374 55.1509L59.4172 55.0246C59.3414 54.5546 59.4728 54.1401 59.771 53.8874C60.0894 53.6195 60.5493 53.569 61.0446 53.7408C62.4042 54.2109 63.1421 53.8722 63.8699 52.4419C64.2844 51.6282 65.3659 51.0116 66.2353 50.7083C69.6165 49.5307 73.2049 49.4195 76.8995 50.3798C80.4627 51.3047 83.9248 52.5228 87.1594 53.6852C88.428 54.1401 89.6714 54.2361 91.1927 53.9986C91.9154 53.8874 92.7696 53.9784 93.5984 54.2564C93.7096 54.2968 93.8208 54.3372 93.932 54.3726C94.7811 54.6809 95.4533 54.9185 96.1811 54.0795C96.4136 53.8116 96.8078 53.6549 97.288 53.6448C98.0259 53.6195 98.7739 53.9379 99.2389 54.4282C100.315 55.5654 101.533 55.8484 103.196 55.343C104.581 54.9235 105.86 55.2318 106.997 56.2578C107.139 56.3842 107.346 56.46 107.568 56.5408C107.614 56.556 107.659 56.5762 107.705 56.5914C107.73 56.5408 107.755 56.4852 107.78 56.4347C107.892 56.2022 107.998 55.9849 108.023 55.7675C108.063 55.4188 108.063 55.0499 108.063 54.691C108.063 54.125 108.074 53.5336 108.215 52.9827C108.988 50.0008 111.616 47.969 114.907 47.8022C118.591 47.6102 121.831 46.9481 124.813 45.7755C125.965 45.3206 127.239 45.1437 128.331 45.0275C130.383 44.8152 132.045 45.5632 133.152 47.2008C133.86 48.247 134.522 49.3538 135.159 50.4203L135.442 50.9004C135.912 51.6838 135.831 52.452 135.204 53.1849C134.133 54.4434 134.507 55.7827 135.068 57.0412C135.568 58.1582 136.513 58.3351 137.782 58.2592C138.151 58.234 138.525 58.239 138.889 58.239C141.36 58.2491 143.028 59.9018 143.063 62.343C143.068 62.8282 143.043 63.3235 143.018 63.7986C142.988 64.4152 142.952 65.052 142.993 65.6686C143.043 66.4571 143.19 66.912 143.478 67.1394C143.771 67.3769 144.271 67.4174 145.151 67.2759C145.803 67.1697 146.546 67.195 147.304 67.3466C147.915 67.4679 148.522 67.66 149.108 67.847C149.437 67.9531 149.765 68.0542 150.099 68.1502C151.423 68.5192 152.56 68.3878 153.581 67.756C153.99 67.5033 154.445 67.286 154.926 67.1141C156.477 66.5632 157.731 67.1091 158.367 68.6C158.524 68.969 158.64 69.3582 158.757 69.7322C158.868 70.091 158.979 70.46 159.12 70.8087C159.545 71.8195 160.05 72.0369 161.046 71.6275C162.244 71.1372 163.538 71.1726 164.998 71.7286C167.126 72.5372 169.315 73.4116 171.508 74.3315C173.944 75.3473 175.385 76.7423 176.047 78.7235C176.709 80.7098 176.294 81.6953 174.399 82.6203C174.248 82.6961 174.101 82.8022 173.934 82.9235C173.909 82.9437 173.879 82.9639 173.848 82.9842C175.309 84.2629 175.284 84.4347 174.177 85.9661L174.076 86.1076C173.762 86.5473 173.692 87.3004 173.762 87.821C173.823 88.2961 174.015 88.756 174.222 89.2412C174.323 89.4889 174.429 89.7314 174.515 89.9842C174.955 91.2527 174.809 92.5618 174.126 93.5827C173.444 94.5986 172.287 95.2253 170.957 95.2961C170.341 95.3315 169.714 95.3112 169.113 95.2961C168.829 95.286 168.551 95.2809 168.268 95.2758H168.233C167.47 95.2758 166.97 95.5943 166.702 96.2564C166.333 97.1762 165.635 97.7372 164.569 97.9748C163.437 98.2275 163.073 98.6925 163.073 99.8802C163.073 100.037 163.088 100.199 163.098 100.355C163.108 100.492 163.118 100.628 163.123 100.765C163.169 102.453 162.638 103.14 161.092 103.398C158.388 103.843 155.911 104.783 153.515 106.269C152.282 107.032 150.897 107.3 149.513 107.032C147.809 106.703 146.546 107.194 145.545 108.573C145.126 109.155 144.438 109.7 143.503 110.191C142.477 110.737 141.886 111.348 141.588 112.192C141.113 113.516 140.223 114.274 138.863 114.507C138.53 114.562 138.08 114.901 137.994 115.169C137.949 115.295 138.115 115.609 138.489 116.089C138.636 116.276 138.884 116.412 139.126 116.549L139.237 116.609C140.319 117.216 140.915 118.146 141.072 119.45C141.183 120.37 141.466 120.981 141.921 121.259C142.366 121.532 143.023 121.517 143.872 121.204C144.554 120.951 145.216 120.577 145.853 120.208C146.101 120.066 146.349 119.925 146.601 119.788C146.788 119.687 146.97 119.571 147.147 119.455C147.435 119.273 147.733 119.081 148.057 118.944C148.679 118.687 149.305 118.687 149.821 118.95C150.346 119.217 150.72 119.738 150.882 120.415C151.231 121.881 150.933 123.053 150.003 123.908C148.977 124.843 147.678 125.07 146.141 124.585C145.722 124.453 145.313 124.287 144.913 124.125C144.595 123.999 144.276 123.867 143.958 123.756C143.346 123.544 142.907 123.746 142.684 124.337C142.164 125.732 141.102 126.637 139.616 126.965C137.939 127.334 136.448 128.168 134.926 129.599C134.001 130.468 132.879 130.913 131.601 130.913V130.882H131.606ZM127.31 113.572C127.825 113.572 128.356 113.582 128.907 113.607C129.306 113.622 129.675 113.86 130.029 114.092C130.175 114.188 130.322 114.285 130.474 114.36L130.681 114.466L130.549 114.659C130.448 114.81 130.357 114.977 130.266 115.149C130.049 115.553 129.827 115.973 129.453 116.175C128.411 116.736 127.31 117.211 126.238 117.671C125.859 117.833 125.475 117.999 125.101 118.166C124.899 118.257 124.687 118.333 124.479 118.414C124.09 118.56 123.726 118.697 123.398 118.904C123.094 119.096 122.923 119.334 122.923 119.576C122.923 119.819 123.089 120.056 123.393 120.248C123.64 120.405 123.928 120.496 124.237 120.592C124.429 120.653 124.616 120.713 124.803 120.789C125.05 120.895 125.303 120.991 125.556 121.087C126.203 121.335 126.87 121.588 127.461 121.967C129.675 123.392 130.11 124.549 129.382 127.122C129.301 127.405 129.23 127.678 129.205 127.951C129.139 128.739 129.301 129.361 129.69 129.796C130.074 130.225 130.666 130.458 131.444 130.483C132.682 130.513 133.764 130.119 134.653 129.285C136.23 127.804 137.782 126.935 139.536 126.551C140.88 126.258 141.84 125.439 142.31 124.181C142.609 123.377 143.281 123.069 144.105 123.357C144.433 123.473 144.757 123.599 145.08 123.731C145.469 123.887 145.874 124.054 146.278 124.181C147.663 124.62 148.825 124.423 149.735 123.594C150.549 122.851 150.801 121.815 150.493 120.501C150.362 119.945 150.058 119.521 149.644 119.308C149.24 119.101 148.734 119.106 148.224 119.318C147.931 119.44 147.663 119.612 147.375 119.794C147.188 119.915 146.996 120.036 146.803 120.142C146.556 120.279 146.308 120.415 146.066 120.557C145.414 120.931 144.736 121.315 144.024 121.578C143.038 121.937 142.285 121.947 141.719 121.598C141.148 121.244 140.804 120.557 140.678 119.49C140.536 118.308 140.021 117.504 139.05 116.958L138.944 116.898C138.676 116.751 138.373 116.584 138.181 116.331C137.842 115.897 137.494 115.401 137.62 115.027C137.772 114.583 138.373 114.168 138.813 114.092C140.031 113.885 140.794 113.233 141.219 112.046C141.552 111.1 142.204 110.418 143.331 109.822C144.206 109.357 144.848 108.856 145.232 108.326C146.339 106.799 147.733 106.259 149.614 106.622C150.913 106.87 152.161 106.633 153.323 105.915C155.764 104.404 158.297 103.443 161.051 102.988C162.385 102.766 162.78 102.251 162.739 100.775C162.739 100.643 162.724 100.517 162.714 100.386C162.699 100.219 162.689 100.047 162.689 99.8802C162.689 98.4903 163.179 97.8686 164.503 97.5704C165.438 97.3632 166.024 96.8932 166.343 96.0997C166.676 95.2657 167.349 94.8513 168.294 94.8614C168.577 94.8614 168.86 94.8715 169.143 94.8816C169.739 94.8968 170.356 94.917 170.952 94.8816C172.155 94.8159 173.191 94.2549 173.803 93.3502C174.414 92.4354 174.541 91.2578 174.146 90.1156C174.066 89.873 173.965 89.6354 173.863 89.3979C173.661 88.9076 173.449 88.4022 173.378 87.8766C173.302 87.3055 173.358 86.4361 173.767 85.8701L173.868 85.7286C174.52 84.8239 174.369 83.9596 173.403 83.1257L173.201 82.9488L173.424 82.7972C173.53 82.7264 173.626 82.6556 173.717 82.5899C173.904 82.4585 174.061 82.3423 174.242 82.2513C175.956 81.4123 176.279 80.6542 175.678 78.8549C175.056 77 173.692 75.6809 171.372 74.7156C169.178 73.8008 166.99 72.9264 164.872 72.1177C163.497 71.5921 162.34 71.5618 161.223 72.0166C160.03 72.5018 159.272 72.1834 158.762 70.9755C158.61 70.6116 158.494 70.2275 158.383 69.8585C158.271 69.4946 158.155 69.1156 158.009 68.7668C157.463 67.478 156.422 67.0282 155.082 67.5033C154.627 67.665 154.203 67.8672 153.819 68.1047C152.697 68.8022 151.448 68.9488 150.008 68.5495C149.669 68.4535 149.336 68.3524 149.002 68.2462C148.426 68.0643 147.835 67.8773 147.243 67.7611C146.536 67.6195 145.838 67.5943 145.232 67.6903C144.216 67.852 143.64 67.7914 143.235 67.4679C142.846 67.1596 142.659 66.6289 142.598 65.704C142.558 65.0621 142.593 64.4152 142.624 63.7885C142.649 63.3185 142.674 62.8333 142.669 62.3582C142.639 60.1546 141.133 58.6686 138.924 58.6585C138.545 58.6585 138.181 58.6585 137.822 58.6787C136.64 58.7495 135.341 58.6383 134.709 57.2181C134.123 55.899 133.683 54.3625 134.906 52.9271C135.422 52.3257 135.482 51.7495 135.103 51.1177L134.815 50.6376C134.178 49.5762 133.526 48.4744 132.824 47.4383C131.808 45.9372 130.276 45.2499 128.386 45.4419C127.32 45.5531 126.087 45.7249 124.975 46.1647C121.952 47.3524 118.672 48.0246 114.942 48.2166C111.834 48.3784 109.357 50.2889 108.629 53.0939C108.498 53.5993 108.493 54.1351 108.493 54.7011C108.493 55.0701 108.493 55.4491 108.448 55.8181C108.417 56.1062 108.291 56.369 108.164 56.6217C108.114 56.7278 108.063 56.834 108.018 56.9401L107.937 57.1372L107.74 57.0463C107.644 57.0008 107.543 56.9654 107.437 56.93C107.189 56.839 106.931 56.743 106.729 56.5611C105.693 55.621 104.581 55.3531 103.323 55.7322C101.523 56.278 100.128 55.9546 98.9457 54.7062C98.5566 54.2968 97.9147 54.0239 97.3031 54.0542C96.9443 54.0643 96.6511 54.1704 96.4995 54.3473C95.5898 55.3986 94.68 55.0751 93.8006 54.7567C93.6945 54.7163 93.5833 54.6809 93.4771 54.6405C92.719 54.3827 91.9154 54.2968 91.2685 54.3979C89.6764 54.6506 88.3674 54.5495 87.0331 54.0694C83.8035 52.9069 80.3566 51.699 76.8085 50.774C73.1948 49.834 69.6872 49.9401 66.3869 51.0925C65.6288 51.3603 64.6129 51.9163 64.249 52.6239C63.4353 54.226 62.4699 54.6607 60.9233 54.1249C60.5696 53.9986 60.2511 54.0289 60.049 54.2008C59.862 54.3574 59.7862 54.6253 59.8367 54.9589L59.8569 55.0852C60.0692 56.4094 60.2815 57.7791 60.8779 58.9112C61.9241 60.8975 62.5356 62.6766 62.7934 64.5163C63.036 66.2145 62.7378 66.8513 61.2822 67.7509C60.3472 68.3322 59.5082 68.8629 58.7147 69.4744C54.9797 72.3704 53.2865 75.5849 53.5291 79.3098C53.6555 81.2506 53.14 82.6152 51.74 84.0152C50.6331 85.1322 50.0316 86.5524 50.0519 88.0282C50.0721 89.5444 50.7342 91 51.9118 92.1221C52.8418 93.0065 53.9638 93.3452 55.3385 93.1582C57.2237 92.9004 58.7197 93.234 60.0237 94.2145C60.9537 94.912 62.0706 95.008 63.4504 94.5127C65.1537 93.9011 66.4779 94.1538 67.7414 95.3314C69.2425 96.7314 69.7883 96.7062 71.4006 95.1546C71.8454 94.73 72.6187 94.3257 73.1948 94.4217C75.3378 94.7755 77.0461 94.1387 78.5775 92.4203C79.002 91.9401 79.5782 91.3336 80.2605 90.8838C83.5255 88.7206 86.654 88.4123 89.828 89.9336C90.288 90.156 90.7428 90.3784 91.1977 90.6008C92.8757 91.4195 94.6093 92.2636 96.3681 92.9459C98.1017 93.6181 98.9154 94.7047 99.1024 96.5748C99.2288 97.8737 99.6129 99.1928 100.174 100.295C100.932 101.775 101.791 103.236 102.625 104.651C103.176 105.591 103.752 106.562 104.288 107.532C104.874 108.583 104.738 109.18 104.526 109.493C104.318 109.796 103.833 110.13 102.701 109.973C101.998 109.877 101.321 109.625 100.664 109.377C100.189 109.2 99.6937 109.013 99.2085 108.897C98.41 108.705 97.667 108.69 97.5154 108.872C97.2526 109.185 97.2779 109.842 97.2981 110.423C97.2981 110.544 97.3082 110.661 97.3082 110.772C97.3082 110.893 97.3891 111.04 97.4699 111.191C97.571 111.383 97.6771 111.575 97.6822 111.798C97.6872 112.238 97.6317 112.844 97.3284 113.238C95.8172 115.174 94.215 117.155 92.5573 119.126C92.3197 119.409 92.2136 119.652 92.2439 119.854C92.2742 120.041 92.4158 120.218 92.6887 120.39C94.402 121.492 95.888 122.038 97.5811 121.133C97.849 120.991 98.132 120.875 98.41 120.759C98.5465 120.703 98.6829 120.648 98.8194 120.587C99.6584 120.218 100.917 119.859 102.12 121.032C102.292 121.199 102.59 121.269 102.903 121.34C102.984 121.36 103.065 121.381 103.146 121.401C103.156 121.345 103.171 121.29 103.186 121.234L102.827 121.017C102.701 120.941 102.59 120.88 102.494 120.83C102.302 120.724 102.15 120.643 102.024 120.516C101.316 119.834 100.457 119.677 99.3197 120.031C98.8143 120.188 98.223 120.39 97.7075 120.678C95.7465 121.77 94.1089 120.971 92.6331 119.945L92.4511 119.819L92.5876 119.647C93.0576 119.061 93.5226 118.469 93.9825 117.883C95.0641 116.508 96.1862 115.083 97.3587 113.754C98.132 112.874 98.2483 112.091 97.758 111.04C97.7327 110.984 97.7024 110.929 97.6721 110.868C97.571 110.676 97.4598 110.464 97.4548 110.236C97.4548 109.882 97.475 109.382 97.7327 109.089C98.0107 108.77 98.8295 109.059 98.8649 109.069C99.2338 109.2 99.6028 109.357 99.9566 109.513C100.502 109.751 101.068 109.994 101.64 110.135C102.837 110.433 104.066 110.635 104.809 109.574C105.405 108.72 104.889 107.84 104.394 106.996L104.222 106.703C103.803 105.965 103.368 105.233 102.933 104.5C102.094 103.085 101.23 101.619 100.467 100.128C99.8909 99.0008 99.527 97.7322 99.4461 96.5697C99.3046 94.4773 98.3594 93.2643 96.2923 92.5264C94.3111 91.8188 92.3349 90.9141 90.4143 89.8275C86.9371 87.8665 82.0699 88.5235 79.093 91.3488C78.6735 91.7481 78.2692 92.1625 77.8649 92.5769L77.6829 92.7639C76.5457 93.9213 75.2215 94.3661 73.7508 94.0679C72.5782 93.8354 71.6988 94.1488 70.8901 95.0838C70.415 95.6347 70.0309 95.9784 69.5761 95.9986C69.1363 96.0188 68.6966 95.7004 68.1963 95.2152C66.7306 93.7849 65.1436 93.4614 63.2129 94.2145C62.0555 94.6592 60.9638 94.5228 60.054 93.8152C58.8158 92.8549 57.3501 92.5213 55.571 92.8044C53.5392 93.1228 51.8815 92.2333 50.7847 90.2268C49.6172 88.0939 50.5421 85.9206 51.6844 84.7076C53.3724 82.9235 53.989 81.2354 53.893 78.6932C53.7161 74.013 56.88 71.117 60.327 68.6759C60.3623 68.6506 60.4028 68.6203 60.4483 68.6C63.4909 67.0787 63.6071 66.2145 62.8136 62.8686C62.5002 61.5495 61.8533 60.2759 61.2266 59.0376L61.1761 58.9416C60.4483 57.5112 59.8771 56.1921 60.2057 54.5394L60.2461 54.3473L60.7465 54.413C60.9385 54.4383 61.1103 54.4585 61.2771 54.4939C63.1067 54.8578 63.2584 54.7213 64.3096 53.1293C64.8353 52.3307 65.7753 51.613 66.7053 51.3047C69.94 50.2231 73.3818 50.1574 76.9349 51.1076C80.4981 52.0629 83.9551 53.2759 86.8714 54.3423C88.3724 54.8932 89.823 54.9892 91.4403 54.6556C91.9508 54.5495 92.6179 54.6253 93.2244 54.8578L93.4418 54.9437C94.6042 55.3986 95.61 55.7878 96.6865 54.691C97.0656 54.3018 98.4201 54.6607 98.8345 55.065C100.093 56.2982 101.528 56.6065 103.353 56.0354C104.702 55.6159 105.713 56.1719 106.532 56.7733C107.048 57.1524 107.816 57.4152 108.028 57.2838C108.417 57.0462 108.771 56.2578 108.731 55.7271C108.493 52.634 109.666 50.4809 112.218 49.3235C113.512 48.7372 115.109 48.3935 116.711 48.3632C119.42 48.3076 121.861 47.5647 123.898 46.8419C125.146 46.3972 126.496 46.0383 127.896 45.7755C129.918 45.3914 131.611 46.1343 132.798 47.9185C133.001 48.2217 133.177 48.5401 133.349 48.8484C133.552 49.2073 133.754 49.5813 133.996 49.9148C134.749 50.9661 135.245 51.891 134.203 53.4325C133.491 54.4889 133.496 55.904 134.214 57.1322C134.931 58.3502 136.149 59.0376 137.408 58.9365C139.283 58.7798 140.658 59.1488 141.481 60.0333C142.326 60.943 142.593 62.4037 142.28 64.3647C142.189 64.9257 142.209 65.5726 142.351 66.4015C142.467 67.104 142.75 67.6195 143.17 67.8975C143.569 68.1603 144.089 68.221 144.721 68.0694C145.934 67.7762 147.107 67.8925 148.537 68.4333C150.862 69.3177 152.803 69.1964 154.642 68.0643C155.37 67.6145 156.012 67.4831 156.558 67.6751C157.149 67.8823 157.599 68.4434 157.933 69.3935C158.014 69.626 158.089 69.8585 158.16 70.0961C158.302 70.556 158.453 71.0361 158.666 71.4607C159.201 72.5271 160.035 72.8506 161.081 72.3907C162.259 71.8751 163.477 71.9004 164.907 72.4665L166.479 73.0831C167.935 73.6542 169.436 74.2455 170.902 74.847C172.565 75.5343 174.374 76.5098 175.218 78.5466C175.658 79.608 175.739 80.3358 175.481 80.9019C175.258 81.3921 174.783 81.7459 173.995 82.0037C173.434 82.1907 173.126 82.413 173.07 82.6759C172.994 83.0448 173.368 83.6058 174.187 84.3437L174.318 84.46L174.222 84.6065C174.192 84.6571 174.162 84.7076 174.131 84.7632C174.055 84.8997 173.97 85.0513 173.838 85.1675C172.923 85.9762 172.681 87.0022 173.095 88.3011C173.206 88.6549 173.353 89.0087 173.489 89.3524C173.585 89.5849 173.676 89.8224 173.762 90.06C174.167 91.1618 174.071 92.2787 173.505 93.1228C172.939 93.9668 171.938 94.4773 170.765 94.5177C170.24 94.5379 169.709 94.5228 169.198 94.5127C168.865 94.5026 168.516 94.5127 168.198 94.4975C167.152 94.4975 166.459 94.9271 166.075 95.8065C165.731 96.595 165.155 97.0499 164.271 97.2318C162.982 97.4946 162.37 98.2629 162.34 99.6376C162.335 99.9257 162.35 100.224 162.365 100.517C162.375 100.664 162.38 100.815 162.385 100.962C162.421 101.897 161.971 102.478 161.112 102.604C157.832 103.069 154.941 104.51 152.788 105.713C151.832 106.248 150.549 106.319 149.664 106.213C147.486 105.945 146.025 106.542 144.908 108.134C144.564 108.629 143.983 109.079 143.19 109.473C141.972 110.079 141.264 110.812 140.9 111.853C140.541 112.879 139.834 113.481 138.666 113.759C138.136 113.885 137.403 114.391 137.312 114.805C137.196 115.311 137.63 116.064 137.949 116.609C138.075 116.827 138.378 116.994 138.671 117.15C138.762 117.201 138.858 117.251 138.944 117.302C139.778 117.792 140.233 118.495 140.375 119.505C140.541 120.698 140.951 121.497 141.593 121.881C142.24 122.265 143.134 122.24 144.261 121.815C144.994 121.542 145.692 121.118 146.369 120.708C146.692 120.511 147.016 120.319 147.344 120.137C147.466 120.072 147.587 119.991 147.708 119.915C148.335 119.516 149.118 119.02 149.932 120.016C150.599 120.83 150.402 122.498 149.548 123.266C148.668 124.054 147.587 124.241 146.323 123.827C146.02 123.726 145.727 123.609 145.429 123.493C145.04 123.342 144.64 123.185 144.241 123.074C143.038 122.745 142.518 122.968 142.007 124.024C141.416 125.252 140.461 126.01 139.177 126.273C137.271 126.667 135.806 127.779 134.461 128.886C133.744 129.477 132.748 129.922 131.788 130.079C131.024 130.205 130.398 130.043 129.978 129.619C129.533 129.169 129.377 128.456 129.523 127.617C129.539 127.531 129.564 127.451 129.589 127.37L129.614 127.279C130.474 124.15 129.528 122.275 126.466 121.012C125.788 120.734 125.066 120.501 124.373 120.279C124.045 120.173 123.716 120.066 123.393 119.96L123.261 119.915L123.231 119.283L123.837 119.02C124.232 118.848 124.626 118.682 125.025 118.51L126.289 117.979C127.3 117.555 128.315 117.13 129.321 116.69C129.594 116.569 130.003 116.392 130.12 116.165L130.236 115.937C130.534 115.371 130.873 114.729 130.782 114.249C130.716 113.905 129.913 113.375 129.397 113.329C127.658 113.183 126.031 113.183 124.55 113.339C122.175 113.587 120.355 112.768 118.996 110.833C118.834 110.605 118.611 110.403 118.379 110.191C118.116 109.953 117.843 109.711 117.611 109.387L117.414 109.119C117.378 109.149 117.343 109.18 117.307 109.205C117.237 109.261 117.171 109.321 117.1 109.372C117.131 109.422 117.166 109.478 117.196 109.529C117.343 109.766 117.479 109.988 117.656 110.17C117.823 110.342 118.015 110.499 118.217 110.661C118.475 110.868 118.738 111.08 118.955 111.343C120.451 113.173 122.154 113.926 124.313 113.713C125.263 113.617 126.248 113.572 127.3 113.572H127.31ZM123.676 119.612C123.954 119.703 124.237 119.794 124.52 119.885C125.222 120.107 125.95 120.339 126.642 120.627C129.897 121.972 130.944 124.054 130.029 127.385L129.998 127.486C129.978 127.552 129.958 127.622 129.948 127.688C129.822 128.396 129.943 128.982 130.287 129.331C130.605 129.659 131.105 129.775 131.737 129.674C132.627 129.533 133.551 129.118 134.214 128.573C135.593 127.43 137.11 126.283 139.106 125.874C140.258 125.636 141.113 124.954 141.648 123.847C142.24 122.619 142.977 122.3 144.357 122.679C144.777 122.796 145.191 122.957 145.585 123.114C145.874 123.225 146.162 123.342 146.455 123.438C147.582 123.807 148.502 123.65 149.275 122.957C149.957 122.346 150.139 120.916 149.614 120.279C149.053 119.596 148.628 119.819 147.926 120.264C147.799 120.344 147.668 120.425 147.541 120.496C147.218 120.673 146.9 120.87 146.581 121.062C145.889 121.482 145.171 121.916 144.403 122.204C143.149 122.674 142.133 122.685 141.38 122.235C140.622 121.785 140.147 120.885 139.965 119.561C139.844 118.672 139.465 118.08 138.737 117.656C138.656 117.605 138.565 117.56 138.479 117.514C138.136 117.327 137.777 117.135 137.595 116.817C137.226 116.175 136.761 115.376 136.913 114.714C137.054 114.087 137.979 113.506 138.575 113.36C139.606 113.117 140.203 112.612 140.511 111.717C140.905 110.58 141.699 109.751 143.008 109.099C143.741 108.735 144.266 108.331 144.57 107.896C145.762 106.188 147.395 105.521 149.71 105.804C150.756 105.93 151.853 105.758 152.58 105.354C154.764 104.136 157.7 102.675 161.046 102.195C161.683 102.104 161.996 101.695 161.966 100.977C161.961 100.83 161.951 100.684 161.946 100.537C161.931 100.239 161.91 99.9358 161.915 99.6275C161.951 98.0708 162.709 97.1257 164.175 96.8275C164.938 96.6708 165.388 96.317 165.686 95.6398C166.136 94.6087 166.98 94.0881 168.188 94.0881C168.546 94.0982 168.865 94.0982 169.198 94.1033C169.704 94.1134 170.229 94.1286 170.74 94.1083C171.796 94.073 172.65 93.6383 173.151 92.8953C173.651 92.1524 173.727 91.1921 173.368 90.2015C173.282 89.969 173.191 89.7365 173.095 89.504C172.954 89.1553 172.812 88.7914 172.691 88.4224C172.226 86.9719 172.514 85.769 173.55 84.8542C173.631 84.7834 173.692 84.6722 173.757 84.556L173.772 84.5257C172.888 83.7018 172.539 83.1004 172.65 82.5798C172.741 82.1603 173.131 81.8369 173.848 81.5993C174.52 81.3769 174.915 81.0939 175.092 80.7148C175.299 80.265 175.213 79.6181 174.824 78.6881C174.035 76.7878 172.312 75.8629 170.73 75.2109C169.264 74.6044 167.763 74.0181 166.313 73.447L164.736 72.8253C163.391 72.2946 162.31 72.2694 161.223 72.7444C159.98 73.2852 158.903 72.8759 158.271 71.6174C158.044 71.1625 157.892 70.6672 157.741 70.1921C157.67 69.9596 157.599 69.7322 157.518 69.5047C157.23 68.691 156.856 68.2008 156.396 68.039C155.977 67.8925 155.451 68.0087 154.835 68.3928C152.879 69.6008 150.822 69.7322 148.37 68.7971C147.021 68.2867 145.919 68.1805 144.792 68.4484C144.049 68.6253 143.417 68.5495 142.917 68.221C142.401 67.8773 142.058 67.2657 141.921 66.452C141.775 65.5827 141.754 64.8903 141.85 64.2838C142.144 62.4491 141.911 61.1098 141.158 60.2961C140.425 59.5076 139.172 59.1791 137.423 59.3307C136.013 59.452 134.633 58.6838 133.84 57.3242C133.041 55.9596 133.041 54.3777 133.84 53.1899C134.739 51.8556 134.365 51.1481 133.637 50.1423C133.385 49.7885 133.172 49.4044 132.965 49.0354C132.798 48.7322 132.627 48.4188 132.435 48.1307C131.333 46.478 129.822 45.8159 127.946 46.1647C126.567 46.4224 125.242 46.7762 124.009 47.2159C121.942 47.9488 119.461 48.7018 116.691 48.7625C115.139 48.7928 113.603 49.1213 112.359 49.6874C109.984 50.7639 108.892 52.7856 109.115 55.6867C109.165 56.369 108.731 57.3091 108.215 57.6224C107.71 57.9307 106.658 57.3849 106.259 57.0917C105.208 56.3185 104.394 56.1213 103.449 56.4145C101.493 57.026 99.8807 56.6773 98.5212 55.3481C98.1472 54.9791 97.0959 54.8426 96.9544 54.969C95.6909 56.2629 94.4576 55.7827 93.2699 55.3127L93.0576 55.2318C92.5219 55.0246 91.9457 54.9589 91.506 55.0499C89.8129 55.4037 88.2916 55.2975 86.7147 54.7213C83.8085 53.66 80.3616 52.447 76.8136 51.4968C73.3363 50.5668 69.9753 50.6325 66.8215 51.6888C65.9876 51.9668 65.1082 52.639 64.6381 53.3517C63.5161 55.0499 63.1876 55.2925 61.1862 54.8932C61.0295 54.8629 60.8678 54.8426 60.6807 54.8174L60.5645 54.8022C60.3421 56.2376 60.8728 57.4405 61.5349 58.7444L61.5854 58.8405C62.2223 60.0939 62.8793 61.3928 63.2028 62.7625C64.0317 66.26 63.8851 67.3264 60.6201 68.9589C60.5999 68.969 60.5746 68.9842 60.5544 68.9993C57.2035 71.3697 54.1205 74.1798 54.2923 78.6629C54.3934 81.2961 53.7212 83.1206 51.9724 84.9755C50.9212 86.0874 50.0721 88.0737 51.1335 90.0145C52.1544 91.8845 53.6252 92.678 55.4952 92.3849C57.3956 92.0867 58.9623 92.4455 60.2966 93.4816C61.0851 94.0982 62.0403 94.2145 63.0562 93.8203C65.1284 93.0217 66.8974 93.3755 68.4742 94.9119C68.9746 95.3971 69.2779 95.5842 69.5457 95.5791C69.8085 95.569 70.1017 95.3416 70.5667 94.8058C71.4714 93.7596 72.5024 93.3957 73.8215 93.6535C75.1508 93.9163 76.3486 93.517 77.3797 92.4607L77.5616 92.2737C77.971 91.8542 78.3804 91.4398 78.8049 91.0354C81.9082 88.0888 86.9826 87.4065 90.6114 89.4535C92.5118 90.525 94.4677 91.4246 96.4237 92.1221C98.6374 92.9105 99.6937 94.2701 99.8504 96.5242C99.9262 97.6361 100.275 98.8441 100.826 99.9257C101.584 101.407 102.443 102.862 103.282 104.272C103.717 105.005 104.152 105.743 104.576 106.481L104.743 106.769C105.279 107.684 105.89 108.72 105.142 109.791C104.172 111.176 102.458 110.747 101.533 110.519C100.932 110.368 100.351 110.12 99.7847 109.877C99.436 109.726 99.0771 109.574 98.7183 109.443C98.4201 109.337 98.0916 109.316 98.0208 109.357C97.9096 109.488 97.849 109.781 97.854 110.221C97.854 110.352 97.94 110.514 98.0208 110.666C98.0562 110.726 98.0865 110.792 98.1168 110.853C98.6779 112.046 98.5313 113.021 97.6569 114.017C96.4945 115.336 95.423 116.69 94.2959 118.131C93.8815 118.661 93.462 119.192 93.0374 119.723C94.5436 120.734 95.893 121.199 97.4952 120.309C98.0461 120.006 98.6576 119.794 99.1833 119.632C100.462 119.233 101.478 119.425 102.292 120.213C102.362 120.284 102.463 120.339 102.59 120.41C102.559 120.289 102.529 120.193 102.504 120.097C102.084 118.697 102.089 117.701 102.504 116.958C102.903 116.251 103.676 115.77 104.925 115.447C107.194 114.866 108.352 113.562 108.68 111.227C108.7 111.065 108.751 110.913 108.796 110.767C108.827 110.666 108.857 110.565 108.882 110.459C109.261 108.664 110.368 107.477 112.274 106.83C114.422 106.102 116.529 105.991 118.536 106.501C119.415 106.724 120.305 107.178 121.042 107.785C121.432 108.108 121.518 109.074 121.295 109.589C121.113 110.014 120.138 110.095 119.678 110.044C119.268 109.999 118.874 109.872 118.49 109.731C118.546 109.781 118.601 109.832 118.652 109.877C118.905 110.105 119.142 110.317 119.334 110.585C120.618 112.414 122.266 113.152 124.51 112.92C126.016 112.763 127.674 112.758 129.432 112.91C130.089 112.965 131.08 113.592 131.186 114.158C131.307 114.78 130.933 115.492 130.605 116.114L130.489 116.336C130.307 116.695 129.832 116.903 129.488 117.054C128.482 117.494 127.466 117.924 126.45 118.348L125.187 118.879C124.793 119.046 124.398 119.217 124.004 119.384L123.661 119.536V119.601L123.676 119.612ZM116.034 106.602C114.851 106.602 113.643 106.809 112.425 107.224C110.671 107.82 109.65 108.907 109.307 110.549C109.281 110.666 109.246 110.777 109.211 110.893C109.17 111.03 109.13 111.161 109.11 111.287C108.756 113.779 107.467 115.225 105.046 115.846C103.909 116.139 103.222 116.554 102.878 117.16C102.519 117.797 102.529 118.697 102.908 119.981C102.949 120.112 102.984 120.248 103.035 120.43L103.216 121.092C103.302 120.749 103.383 120.425 103.323 120.152C102.681 117.347 102.949 116.877 105.688 115.968C105.865 115.907 106.047 115.856 106.224 115.801C107.72 115.356 108.64 114.411 109.034 112.905C109.1 112.662 109.155 112.42 109.216 112.177C109.357 111.596 109.504 110.989 109.716 110.418C109.944 109.807 110.247 109.114 110.737 108.629C112.622 106.769 117.853 106.37 120.057 107.911C120.3 108.083 120.461 108.341 120.613 108.594C120.679 108.7 120.739 108.806 120.815 108.902L120.931 109.059L120.436 109.468L120.335 109.443C120.097 109.382 119.865 109.306 119.627 109.235C119.071 109.064 118.495 108.892 117.924 108.836C117.833 108.826 117.712 108.892 117.585 108.988L117.843 109.069C118.035 109.129 118.232 109.2 118.424 109.271C118.874 109.433 119.294 109.589 119.733 109.635C120.239 109.69 120.866 109.539 120.926 109.422C121.088 109.048 121.007 108.28 120.79 108.098C120.113 107.537 119.253 107.098 118.445 106.895C117.651 106.693 116.848 106.597 116.024 106.597H116.034V106.602Z" fill="black"/>
<path d="M108.731 73.9173L107.983 72.4163C107.983 72.4163 106.618 69.8285 104.167 69.965C101.715 70.1015 100.624 72.4163 100.624 72.4163L97.2173 73.508L100.897 74.3267C100.897 74.3267 102.666 75.009 102.6 76.9145C102.534 78.8199 100.351 81.6199 101.306 84.3087C102.261 86.9975 111.526 87.6798 117.11 90.6769C122.695 93.674 125.829 101.983 125.829 101.983C125.829 101.983 121.331 97.3484 115.473 96.6711C109.615 95.9888 106.072 90.8083 106.072 85.9715C106.072 81.1347 106.209 76.3686 111.521 72.2798C116.832 68.191 127.461 63.0155 127.871 58.6538C127.871 58.6538 133.046 74.0488 122.695 80.3159C122.695 80.3159 117.596 84.2784 109.342 83.313L107.093 82.9036" fill="white"/>
<path d="M125.829 102.706C125.637 102.706 125.45 102.63 125.308 102.488C125.263 102.443 120.911 98.0305 115.387 97.3887C109.752 96.7316 106.148 92.1222 105.466 87.5432C102.939 86.7547 101.104 85.9157 100.619 84.5511C99.9264 82.5952 100.659 80.6342 101.256 79.0573C101.564 78.2385 101.852 77.4703 101.872 76.889C101.918 75.6609 100.897 75.1201 100.669 75.019L97.0556 74.2154C96.7372 74.1446 96.5047 73.8666 96.4895 73.5432C96.4744 73.2197 96.6816 72.9215 96.9899 72.8204L100.123 71.8197C100.543 71.1121 101.807 69.3735 104.121 69.2471C106.997 69.0854 108.554 71.9612 108.614 72.0825L109.241 73.336C109.777 72.7851 110.383 72.2392 111.076 71.7085C112.633 70.5107 114.594 69.2522 116.666 67.9179C121.457 64.8349 126.885 61.3475 127.143 58.593C127.173 58.2544 127.441 57.9814 127.78 57.941C128.118 57.9056 128.442 58.1078 128.548 58.4313C128.604 58.5879 133.774 74.4175 123.095 80.9222C122.579 81.3114 117.434 85.006 109.251 84.0406L106.957 83.6262C106.906 83.6161 106.861 83.606 106.815 83.5858C106.785 84.3843 106.785 85.1829 106.785 85.9764C106.785 86.128 106.785 86.2847 106.795 86.4363C107.472 86.6334 108.175 86.8255 108.872 87.0226C111.713 87.806 114.932 88.6955 117.439 90.045C123.201 93.1331 126.365 101.386 126.496 101.735C126.617 102.054 126.496 102.418 126.208 102.599C126.087 102.675 125.955 102.711 125.819 102.711H125.829V102.706ZM107.022 87.993C107.846 91.7685 110.909 95.4024 115.559 95.9432C118.945 96.3374 121.861 97.9598 123.807 99.3497C122.422 96.7417 120.012 93.0472 116.772 91.3085C114.407 90.0399 111.268 89.1706 108.503 88.4074C107.998 88.2659 107.503 88.1295 107.027 87.9981H107.022V87.993ZM99.987 73.3713L101.053 73.6089C101.089 73.619 101.124 73.6291 101.155 73.6392C101.246 73.6746 103.409 74.5338 103.323 76.9295C103.292 77.7432 102.964 78.6226 102.615 79.5526C102.054 81.0486 101.473 82.5952 101.988 84.0558C102.241 84.7735 103.601 85.3952 105.349 85.9713V85.9612C105.349 82.2768 105.349 78.1981 108.261 74.458C108.19 74.3973 108.124 74.3215 108.079 74.2305L107.331 72.7295C107.331 72.7295 106.153 70.5865 104.202 70.6775C102.206 70.7887 101.286 72.6941 101.276 72.7143C101.19 72.8962 101.033 73.0327 100.841 73.0934L99.982 73.3663L99.987 73.3713ZM107.093 82.1807C107.134 82.1807 107.179 82.1807 107.225 82.1908L109.474 82.6002C117.262 83.51 122.205 79.78 122.251 79.7446C122.271 79.7295 122.296 79.7092 122.321 79.6991C129.857 75.1403 128.669 65.2493 127.729 60.9533C125.925 63.6876 121.639 66.4471 117.459 69.136C115.407 70.4551 113.471 71.6984 111.965 72.8558C108.235 75.7266 107.199 78.9461 106.911 82.2111C106.972 82.1959 107.033 82.1858 107.098 82.1858H107.093V82.1807Z" fill="black"/>
</svg>
