<svg width="100" height="100" viewBox="0 0 100 100" fill="none" xmlns="http://www.w3.org/2000/svg">
<circle cx="50" cy="50" r="50" fill="#36B98F"/>
<g clip-path="url(#clip0_152_2738)">
<path d="M35.5418 37.4263H25.8506C23.724 37.4263 22 39.1714 22 41.3242V71.252C22 73.4048 23.724 75.15 25.8506 75.15H35.5418C37.6685 75.15 39.3925 73.4048 39.3925 71.252V41.3242C39.3925 39.1714 37.6685 37.4263 35.5418 37.4263Z" fill="white"/>
<path d="M74.6943 41.0365H63.6333L67.2514 34.444C67.9803 33.118 68.2166 31.5719 67.9177 30.085C67.6187 28.598 66.8041 27.2684 65.6212 26.3364C64.4383 25.4043 62.9651 24.9314 61.4678 25.0029C59.9704 25.0745 58.5478 25.6859 57.4569 26.7266L45.3364 38.2635V72.4816H66.993C68.2328 72.4795 69.4447 72.109 70.4783 71.4161C71.512 70.7232 72.322 69.7383 72.8077 68.5837L80.5607 49.9049C80.9679 48.9299 81.129 47.8676 81.0298 46.8137C80.9306 45.7598 80.574 44.7475 79.9921 43.8678C79.4102 42.9882 78.6214 42.2689 77.6966 41.7746C76.7717 41.2803 75.74 41.0267 74.6943 41.0365Z" fill="white"/>
</g>
<defs>
<clipPath id="clip0_152_2738">
<rect width="59" height="50.15" fill="white" transform="translate(22 25)"/>
</clipPath>
</defs>
</svg>
