<svg width="24" height="24" viewBox="0 0 24 24" fill="none" xmlns="http://www.w3.org/2000/svg">
<g clip-path="url(#clip0_123_1314)">
<path d="M23.0713 11.7188C23.0713 5.44739 17.9901 0.366211 11.7188 0.366211C5.44739 0.366211 0.366211 5.44739 0.366211 11.7188C0.366211 17.3849 4.51767 22.0816 9.94492 22.934V15.0005H7.061V11.7188H9.94492V9.21753C9.94492 6.37253 11.6386 4.80103 14.2328 4.80103C15.4752 4.80103 16.7743 5.02258 16.7743 5.02258V7.81494H15.3424C13.9325 7.81494 13.4926 8.69019 13.4926 9.58786V11.7188H16.6411L16.1375 15.0005H13.4926V22.934C18.9198 22.0816 23.0713 17.3849 23.0713 11.7188Z" fill="url(#paint0_linear_123_1314)"/>
</g>
<defs>
<linearGradient id="paint0_linear_123_1314" x1="5" y1="4" x2="17" y2="21" gradientUnits="userSpaceOnUse">
<stop stop-color="#2A1EA1"/>
<stop offset="1" stop-color="#1872EC"/>
</linearGradient>
<clipPath id="clip0_123_1314">
<rect width="23.4375" height="23.4375" fill="white"/>
</clipPath>
</defs>
</svg>
