<svg width="16" height="22" viewBox="0 0 16 22" fill="none" xmlns="http://www.w3.org/2000/svg">
<g clip-path="url(#clip0_109_1159)">
<path d="M12.0399 0H3.52991C3.06287 0.00261453 2.60096 0.0973666 2.1706 0.27882C1.74024 0.460274 1.3499 0.724862 1.02198 1.05743C0.694054 1.39 0.434971 1.78401 0.259588 2.21688C0.0842047 2.64975 -0.00407116 3.11297 -0.000116942 3.58V18.36C-0.000131829 19.2981 0.371163 20.198 1.0326 20.8632C1.69403 21.5284 2.59186 21.9047 3.52991 21.91H12.0299C12.9714 21.91 13.8744 21.536 14.5402 20.8702C15.2059 20.2045 15.5799 19.3015 15.5799 18.36V3.58C15.5839 3.11213 15.4953 2.64809 15.3193 2.21457C15.1433 1.78105 14.8833 1.3866 14.5543 1.0539C14.2253 0.721202 13.8339 0.456818 13.4023 0.275951C12.9708 0.0950849 12.5078 0.00130127 12.0399 0ZM2.29993 3.58C2.29595 3.41501 2.32468 3.25087 2.38447 3.09704C2.44425 2.94321 2.53391 2.80274 2.64826 2.68374C2.76261 2.56474 2.8994 2.46956 3.05073 2.4037C3.20205 2.33784 3.3649 2.3026 3.52991 2.3H12.0299C12.1975 2.29861 12.3636 2.33092 12.5184 2.39501C12.6732 2.4591 12.8136 2.55365 12.9311 2.67306C13.0486 2.79247 13.1409 2.93429 13.2026 3.09009C13.2642 3.24589 13.2939 3.4125 13.2899 3.58V18.36C13.2821 18.6863 13.1469 18.9966 12.9133 19.2246C12.6798 19.4525 12.3663 19.5801 12.0399 19.58H3.52991C3.20013 19.5774 2.88473 19.4445 2.65247 19.2104C2.42021 18.9762 2.28991 18.6598 2.28992 18.33L2.29993 3.58Z" fill="white"/>
<path d="M8.83964 18.3801H6.74962C6.59823 18.3814 6.44809 18.3526 6.30797 18.2953C6.16784 18.2379 6.04057 18.1533 5.93352 18.0462C5.82646 17.9392 5.74181 17.8119 5.68449 17.6717C5.62717 17.5316 5.59832 17.3815 5.59965 17.2301C5.59965 16.9251 5.72078 16.6326 5.93645 16.4169C6.15211 16.2012 6.44462 16.0801 6.74962 16.0801H8.83964C9.14383 16.0827 9.43484 16.2047 9.64995 16.4198C9.86505 16.6349 9.98706 16.9259 9.98967 17.2301C9.98967 17.5351 9.86848 17.8276 9.65282 18.0433C9.43715 18.2589 9.14464 18.3801 8.83964 18.3801Z" fill="white"/>
</g>
<defs>
<clipPath id="clip0_109_1159">
<rect width="15.59" height="21.91" fill="white"/>
</clipPath>
</defs>
</svg>
