<svg width="23" height="23" viewBox="0 0 23 23" fill="none" xmlns="http://www.w3.org/2000/svg">
<g clip-path="url(#clip0_203_1870)">
<path d="M17.1797 4.01538C16.9198 4.01538 16.6658 4.09244 16.4497 4.23682C16.2336 4.38121 16.0652 4.58641 15.9657 4.82651C15.8663 5.06661 15.8403 5.33082 15.891 5.58571C15.9417 5.84059 16.0668 6.07472 16.2506 6.25848C16.4343 6.44224 16.6685 6.56738 16.9234 6.61808C17.1782 6.66878 17.4424 6.64276 17.6825 6.54331C17.9226 6.44386 18.1278 6.27543 18.2722 6.05935C18.4166 5.84327 18.4937 5.58922 18.4937 5.32934C18.4915 4.98152 18.3524 4.64856 18.1065 4.4026C17.8605 4.15665 17.5275 4.01752 17.1797 4.01538Z" fill="#025FA7"/>
<path d="M11.2953 5.69653C10.2006 5.69653 9.13045 6.02127 8.22031 6.62965C7.31018 7.23803 6.60096 8.1027 6.18239 9.11427C5.76383 10.1258 5.65471 11.2388 5.86888 12.3124C6.08305 13.386 6.61087 14.372 7.38555 15.1455C8.16022 15.919 9.14694 16.4454 10.2208 16.658C11.2948 16.8706 12.4076 16.7598 13.4185 16.3397C14.4295 15.9197 15.2931 15.2092 15.9002 14.2982C16.5072 13.3871 16.8303 12.3165 16.8287 11.2217C16.8266 9.75562 16.2426 8.35028 15.2052 7.31433C14.1677 6.27838 12.7615 5.69653 11.2953 5.69653ZM11.2953 14.7719C10.5928 14.7736 9.90565 14.5667 9.32075 14.1776C8.73586 13.7885 8.27955 13.2346 8.00959 12.586C7.73963 11.9375 7.66816 11.2234 7.80423 10.5342C7.94029 9.84495 8.27777 9.21161 8.77394 8.7143C9.27012 8.21698 9.90268 7.87805 10.5916 7.7404C11.2805 7.60276 11.9947 7.67259 12.6439 7.94105C13.2931 8.20951 13.848 8.66454 14.2385 9.24854C14.6289 9.83254 14.8374 10.5192 14.8374 11.2217C14.8384 11.688 14.7477 12.1498 14.5703 12.581C14.3928 13.0121 14.1322 13.4041 13.8033 13.7345C13.4744 14.0649 13.0836 14.3273 12.6533 14.5067C12.223 14.6861 11.7616 14.779 11.2953 14.7801V14.7719Z" fill="#025FA7"/>
<path d="M15.7105 22.4601H6.73307C4.94443 22.4601 3.22892 21.7501 1.96339 20.4861C0.697863 19.2221 -0.0141946 17.5075 -0.0163574 15.7188V6.74136C-0.0141976 4.95196 0.697599 3.23648 1.96289 1.97118C3.22819 0.705887 4.94368 -0.00589684 6.73307 -0.00805664H15.7105C17.4999 -0.00589684 19.2154 0.705887 20.4807 1.97118C21.746 3.23648 22.4578 4.95196 22.46 6.74136V15.7188C22.4578 17.5075 21.7458 19.2221 20.4802 20.4861C19.2147 21.7501 17.4992 22.4601 15.7105 22.4601ZM6.73307 2.11387C5.50429 2.11603 4.32645 2.60513 3.45757 3.47401C2.58868 4.34289 2.09958 5.52074 2.09743 6.74953V15.727C2.09958 16.9558 2.58868 18.1336 3.45757 19.0025C4.32645 19.8714 5.50429 20.3605 6.73307 20.3626H15.7105C16.9393 20.3605 18.1172 19.8714 18.986 19.0025C19.8549 18.1336 20.344 16.9558 20.3462 15.727V6.74953C20.344 5.52074 19.8549 4.34289 18.986 3.47401C18.1172 2.60513 16.9393 2.11603 15.7105 2.11387H6.73307Z" fill="#025FA7"/>
</g>
<defs>
<clipPath id="clip0_203_1870">
<rect width="22.46" height="22.46" fill="white"/>
</clipPath>
</defs>
</svg>
