<svg width="160" height="160" viewBox="0 0 160 160" fill="none" xmlns="http://www.w3.org/2000/svg">
<mask id="mask0_131_1407" style="mask-type:alpha" maskUnits="userSpaceOnUse" x="0" y="0" width="160" height="160">
<rect width="160" height="160" fill="#D9D9D9"/>
</mask>
<g mask="url(#mask0_131_1407)">
<path fill-rule="evenodd" clip-rule="evenodd" d="M-21 -21H181V181H-21V-21Z" fill="white"/>
<path fill-rule="evenodd" clip-rule="evenodd" d="M79.8051 159.689C123.946 159.689 159.884 124.142 159.884 79.9999C159.884 35.859 123.946 0.312256 79.8051 0.312256C36.054 0.312256 0.117432 35.859 0.117432 79.9999C0.117432 124.142 36.054 159.689 79.8051 159.689Z" fill="#C82E37"/>
<path fill-rule="evenodd" clip-rule="evenodd" d="M35.2737 68.6717C34.8838 67.5001 34.493 66.7193 33.7112 66.3284C32.5396 65.5467 31.7588 65.5467 30.5862 65.5467C27.852 65.5467 26.6804 66.3284 26.6804 67.5001C26.6804 72.9693 47.3839 69.4524 47.3839 82.7353C47.3839 91.3274 40.743 95.2353 30.5862 95.2353C21.2122 95.2353 14.9611 89.766 14.5713 83.124H25.8987C26.2895 84.2967 26.6815 85.4694 27.852 85.8582C29.0237 86.6399 30.1963 87.0308 31.3679 87.0308C34.1021 87.0308 36.0555 85.8582 36.0555 84.2967C36.0555 78.8274 15.352 82.7353 15.352 68.6706C15.352 60.8592 21.9929 57.3433 30.9781 57.3433C41.1339 57.3433 45.8214 62.4217 46.6031 68.6706H35.2737V68.6717ZM79.0227 84.2978L83.3215 67.8909H93.0863L84.8829 94.4535H74.3363L70.4305 78.8274L66.5248 94.4535H56.368L47.7727 67.8909H57.9305L61.8362 84.2978H62.2261L66.1339 67.8909H75.117L79.0227 84.2978ZM94.6478 67.8909H105.194V94.4535H94.6478V67.8909ZM94.6478 57.3443H105.194V64.767H94.6478V57.3443ZM125.508 67.8909V74.141H121.211V94.4535H110.665V74.141H107.54V67.8909H111.056C111.056 58.5159 114.572 57.3443 121.211 57.3443H125.508V63.5933C122.385 63.5933 121.211 63.5933 121.211 67.8909H125.508Z" fill="white"/>
<path fill-rule="evenodd" clip-rule="evenodd" d="M143.867 94.4534C130.196 95.2352 128.242 94.0625 128.242 85.0794V74.1409H124.727V67.8909H128.633V59.6864H138.788V67.8909H143.867V74.1409H138.788V83.5148C138.788 85.8581 139.179 87.0307 142.304 87.0307H143.866V94.4534H143.867Z" fill="white"/>
</g>
</svg>
