<svg width="187" height="160" viewBox="0 0 187 160" fill="none" xmlns="http://www.w3.org/2000/svg">
<mask id="mask0_131_1414" style="mask-type:alpha" maskUnits="userSpaceOnUse" x="0" y="0" width="187" height="160">
<rect width="187" height="160" fill="#D9D9D9"/>
</mask>
<g mask="url(#mask0_131_1414)">
<path d="M-0.336914 138.702H11.4284C13.9681 138.702 15.8858 139.271 17.1816 140.362C18.4773 141.5 19.0993 143.066 19.0993 145.105C19.0993 147.24 18.4255 148.9 17.0261 150.086C15.6267 151.272 13.5016 151.889 10.651 151.889H6.76377V159.668H-0.336914V138.702ZM6.76377 147.667H8.47415C9.82172 147.667 10.8065 147.43 11.3248 147.003C11.8949 146.576 12.1541 146.007 12.1541 145.343C12.1541 144.678 11.8949 144.109 11.4284 143.682C10.962 143.208 10.029 143.018 8.7333 143.018H6.71194V147.667H6.76377Z" fill="#5FBA46"/>
<path d="M22.4688 144.488H28.4292V146.955C28.9993 145.864 29.5694 145.152 30.1914 144.726C30.8133 144.299 31.539 144.109 32.4719 144.109C33.4048 144.109 34.4414 144.393 35.5299 144.915L33.5603 149.042C32.8347 148.758 32.2128 148.615 31.7981 148.615C30.9688 148.615 30.2951 148.947 29.8804 149.564C29.2066 150.465 28.8956 152.125 28.8956 154.545V159.62H22.5206V144.488H22.4688Z" fill="#5FBA46"/>
<path d="M36.8242 138.701H43.1993V142.686H36.8242V138.701ZM36.8242 144.489H43.1993V159.668H36.8242V144.489Z" fill="#5FBA46"/>
<path d="M45.377 144.489H52.0112L55.2246 154.118L58.5417 144.489H64.9686L57.9198 159.668H52.2703L45.377 144.489Z" fill="#5FBA46"/>
<path d="M72.5882 149.422L66.5241 148.853C66.7314 147.856 67.0942 147.097 67.5088 146.576C67.9235 146.006 68.5454 145.532 69.3747 145.105C69.9448 144.821 70.7741 144.583 71.7589 144.441C72.7955 144.299 73.8839 144.204 75.076 144.204C76.9937 144.204 78.4968 144.299 79.6888 144.488C80.8291 144.678 81.8139 145.105 82.5913 145.722C83.1096 146.149 83.5761 146.765 83.8871 147.524C84.198 148.331 84.3535 149.042 84.3535 149.754V156.442C84.3535 157.154 84.4054 157.723 84.509 158.102C84.6127 158.529 84.82 159.004 85.1828 159.668H79.2224C78.9632 159.288 78.8077 158.956 78.7559 158.767C78.7041 158.577 78.6004 158.245 78.5486 157.818C77.7193 158.529 76.89 159.099 76.0608 159.383C74.9205 159.81 73.6248 160 72.1217 160C70.1522 160 68.6491 159.573 67.6125 158.719C66.5759 157.865 66.0576 156.869 66.0576 155.636C66.0576 154.497 66.4204 153.549 67.146 152.79C67.8717 152.031 69.2711 151.509 71.2406 151.129C73.6248 150.703 75.1797 150.37 75.9053 150.228C76.6309 150.038 77.3565 149.801 78.134 149.517C78.134 148.805 77.9785 148.283 77.6675 147.999C77.3565 147.714 76.7864 147.572 75.9571 147.572C74.9205 147.572 74.1431 147.714 73.6248 148.046C73.2101 148.331 72.8473 148.758 72.5882 149.422ZM78.134 152.458C77.2528 152.742 76.3717 152.979 75.387 153.217C74.0912 153.549 73.262 153.833 72.951 154.165C72.5882 154.497 72.4327 154.829 72.4327 155.256C72.4327 155.731 72.5882 156.11 72.951 156.395C73.3138 156.679 73.8321 156.822 74.5059 156.822C75.2315 156.822 75.8534 156.679 76.4754 156.347C77.0974 156.015 77.512 155.636 77.7711 155.209C78.0303 154.735 78.134 154.165 78.134 153.454V152.458Z" fill="#5FBA46"/>
<path d="M95.2904 138.701V144.489H98.8148V148.758H95.2904V154.118C95.2904 154.782 95.3422 155.209 95.4977 155.399C95.705 155.731 96.0679 155.873 96.5862 155.873C97.0526 155.873 97.7264 155.731 98.5557 155.494L99.0222 159.526C97.4673 159.858 95.9642 160 94.6166 160C93.0099 160 91.8696 159.81 91.0922 159.431C90.3666 159.051 89.7965 158.482 89.4336 157.723C89.0708 156.964 88.9153 155.731 88.9153 154.023V148.663H86.583V144.394H88.9153V141.69L95.2904 138.701Z" fill="#5FBA46"/>
<path d="M102.234 138.701H115.503C117.732 138.701 119.39 139.223 120.582 140.219C121.774 141.215 122.344 142.449 122.344 143.919C122.344 145.153 121.93 146.244 121.1 147.097C120.53 147.667 119.701 148.141 118.613 148.521C120.271 148.9 121.463 149.517 122.241 150.371C123.018 151.272 123.381 152.363 123.381 153.691C123.381 154.782 123.122 155.778 122.552 156.632C121.982 157.486 121.256 158.197 120.271 158.672C119.701 159.004 118.768 159.194 117.576 159.336C115.969 159.526 114.933 159.62 114.414 159.62H102.183V138.701H102.234ZM109.387 146.955H112.445C113.533 146.955 114.311 146.765 114.725 146.433C115.14 146.101 115.399 145.58 115.399 144.915C115.399 144.299 115.192 143.824 114.725 143.492C114.311 143.16 113.533 142.971 112.445 142.971H109.335V146.955H109.387ZM109.387 155.162H113.015C114.259 155.162 115.088 154.972 115.607 154.545C116.125 154.165 116.332 153.596 116.332 152.932C116.332 152.315 116.073 151.794 115.607 151.462C115.088 151.082 114.259 150.892 113.015 150.892H109.439V155.162H109.387Z" fill="#5FBA46"/>
<path d="M132.503 149.422L126.439 148.853C126.646 147.856 127.009 147.097 127.424 146.576C127.839 146.006 128.46 145.532 129.29 145.105C129.86 144.821 130.689 144.583 131.674 144.441C132.711 144.299 133.799 144.204 134.991 144.204C136.909 144.204 138.412 144.299 139.604 144.488C140.744 144.678 141.729 145.105 142.506 145.722C143.025 146.149 143.491 146.765 143.802 147.524C144.113 148.331 144.269 149.042 144.269 149.754V156.442C144.269 157.154 144.32 157.723 144.424 158.102C144.528 158.529 144.735 159.004 145.098 159.668H139.137C138.878 159.288 138.723 158.956 138.671 158.767C138.619 158.577 138.515 158.245 138.464 157.818C137.634 158.529 136.805 159.099 135.976 159.383C134.836 159.81 133.54 160 132.037 160C130.067 160 128.564 159.573 127.528 158.719C126.491 157.865 125.973 156.869 125.973 155.636C125.973 154.497 126.335 153.549 127.061 152.79C127.787 152.031 129.186 151.509 131.156 151.129C133.54 150.703 135.095 150.37 135.82 150.228C136.546 150.038 137.272 149.801 138.049 149.517C138.049 148.805 137.894 148.283 137.583 147.999C137.272 147.714 136.701 147.572 135.872 147.572C134.836 147.572 134.058 147.714 133.54 148.046C133.073 148.331 132.762 148.758 132.503 149.422ZM138.049 152.458C137.168 152.742 136.287 152.979 135.302 153.217C134.006 153.549 133.177 153.833 132.866 154.165C132.503 154.497 132.348 154.829 132.348 155.256C132.348 155.731 132.503 156.11 132.866 156.395C133.229 156.679 133.747 156.822 134.421 156.822C135.147 156.822 135.768 156.679 136.39 156.347C137.012 156.015 137.427 155.636 137.686 155.209C137.945 154.735 138.049 154.165 138.049 153.454V152.458Z" fill="#5FBA46"/>
<path d="M148.051 144.488H153.959V146.955C154.84 145.959 155.722 145.2 156.655 144.773C157.536 144.346 158.676 144.109 159.972 144.109C161.734 144.109 163.133 144.583 164.118 145.532C165.103 146.481 165.621 147.951 165.621 149.991V159.668H159.246V151.319C159.246 150.37 159.039 149.706 158.676 149.279C158.313 148.9 157.743 148.663 157.069 148.663C156.292 148.663 155.67 148.947 155.203 149.469C154.737 149.991 154.478 150.94 154.478 152.363V159.668H148.103V144.488H148.051Z" fill="#5FBA46"/>
<path d="M169.406 138.701H175.937V149.564L180.653 144.489H188.48L182.519 149.801L188.842 159.668H181.69L178.321 153.596L175.937 155.731V159.668H169.406V138.701Z" fill="#5FBA46"/>
<path d="M77.3048 77.3201H23.0908V126.938H77.3048V77.3201Z" fill="#231F20"/>
<path d="M23.1423 0V61.7611H37.4992C75.2313 61.7611 94.3565 79.2648 94.3565 113.798V126.937H161.839V0H23.1423ZM133.177 26.2793C133.177 43.1189 133.177 83.866 133.177 100.706C127.994 100.706 127.113 100.706 122.137 100.706C117.369 63.8957 92.0759 40.7471 51.856 36.383C51.856 31.7818 51.856 30.9754 51.856 26.2318C70.2556 26.2793 114.777 26.2793 133.177 26.2793Z" fill="#5FBA46"/>
</g>
</svg>
