<svg width="187" height="187" viewBox="0 0 187 187" fill="none" xmlns="http://www.w3.org/2000/svg">
<g clip-path="url(#clip0_379_1991)">
<path d="M147.442 0H39.5577C17.7106 0 0 17.7106 0 39.5577V147.442C0 169.289 17.7106 187 39.5577 187H147.442C169.289 187 187 169.289 187 147.442V39.5577C187 17.7106 169.289 0 147.442 0Z" fill="#1E1F24"/>
<path fill-rule="evenodd" clip-rule="evenodd" d="M65.7683 106.482V87.7409C65.7683 82.4214 62.8536 79.8892 58.1716 79.8892C54.2457 79.8892 50.6979 82.2939 49.1812 84.5756C48.17 81.6609 45.7609 79.8892 41.9625 79.8892C38.1641 79.8892 34.4888 82.4214 33.4777 83.9425V80.5222H26.6415V106.482H33.4777V89.007C34.4888 87.6134 36.5155 85.9692 38.7972 85.9692C41.5844 85.9692 42.7231 87.7409 42.7231 90.1501V106.614H49.5593V89.0114C50.5704 87.6178 52.474 85.9736 54.8788 85.9736C57.666 85.9736 58.8046 87.7453 58.8046 90.1545V106.619H65.7683V106.491V106.482ZM84.5097 107.115C75.8974 107.115 70.8328 100.912 70.8328 93.4385C70.8328 85.9648 76.0249 79.8892 84.5097 79.8892C92.9945 79.8892 98.314 86.0923 98.314 93.4385C98.314 100.785 93.122 107.115 84.5097 107.115ZM84.5097 101.035C88.8136 101.035 91.2228 97.4875 91.2228 93.4385C91.2228 89.3895 88.818 85.9648 84.5097 85.9648C80.2013 85.9648 77.924 89.5126 77.924 93.4385C77.924 97.6193 80.3288 101.035 84.5097 101.035ZM127.694 106.482V88.119C127.694 83.0545 124.907 79.8892 119.209 79.8892C114.906 79.8892 111.736 81.9158 110.092 83.9425V80.5222H103.255V106.482H110.219V89.007C111.358 87.4859 113.384 85.9692 116.172 85.9692C118.959 85.9692 120.986 87.2353 120.986 90.7831V106.487H127.699L127.694 106.482ZM146.563 107.115C137.951 107.115 132.886 100.912 132.886 93.4385C132.886 85.9648 138.078 79.8892 146.563 79.8892C155.048 79.8892 160.367 86.0923 160.367 93.4385C160.367 100.785 155.175 107.115 146.563 107.115ZM146.563 101.035C150.867 101.035 153.276 97.4875 153.276 93.4385C153.276 89.3895 150.871 85.9648 146.563 85.9648C142.255 85.9648 139.977 89.5126 139.977 93.4385C139.977 97.6193 142.255 101.035 146.563 101.035Z" fill="white"/>
</g>
<defs>
<clipPath id="clip0_379_1991">
<rect width="187" height="187" fill="white"/>
</clipPath>
</defs>
</svg>
