<svg width="81" height="81" viewBox="0 0 81 81" fill="none" xmlns="http://www.w3.org/2000/svg">
<path d="M40.5 74.25L3.375 37.9688L16.875 8.4375H64.125L77.625 37.9688L40.5 74.25Z" fill="#4DB6AC"/>
<path d="M64.125 37.125C64.125 34.7017 56.1752 32.6784 45.5625 32.1823V27H59.0625V16.875H21.9375V27H35.4375V32.1823C24.8248 32.6784 16.875 34.7017 16.875 37.125C16.875 39.5483 24.8248 41.5716 35.4375 42.0677V60.75H45.5625V42.0677C56.1752 41.5716 64.125 39.5483 64.125 37.125ZM40.5 40.5C29.3169 40.5 20.25 38.8007 20.25 36.7031C20.25 34.9346 26.7081 33.453 35.4375 33.0311V38.6775C37.0575 38.7787 38.745 38.8125 40.5 38.8125C42.255 38.8125 43.9425 38.7787 45.5625 38.6775V33.0311C54.2919 33.453 60.75 34.9346 60.75 36.7031C60.75 38.8007 51.6831 40.5 40.5 40.5Z" fill="white"/>
</svg>
