<svg width="70" height="70" viewBox="0 0 70 70" fill="none" xmlns="http://www.w3.org/2000/svg">
<path d="M69.167 34.5835C69.167 53.6805 53.6805 69.167 34.5835 69.167C15.4865 69.167 0 53.6805 0 34.5835C0 15.4865 15.4865 0 34.5835 0C53.6805 0 69.167 15.4865 69.167 34.5835Z" fill="url(#paint0_linear_109_1163)"/>
<path opacity="0.05" d="M39.771 10.375H38.0419C36.1346 10.375 34.5835 11.9261 34.5835 13.8333C34.5835 11.9261 33.0325 10.375 31.1252 10.375H29.396C27.4887 10.375 25.9376 11.9261 25.9376 13.8333V15.5625H24.2085C22.3012 15.5625 20.7501 17.1136 20.7501 19.0209V50.146C20.7501 52.0533 22.3012 53.6044 24.2085 53.6044H25.9376V55.3335C25.9376 57.2408 27.4887 58.7919 29.396 58.7919H31.1252C33.0325 58.7919 34.5835 57.2408 34.5835 55.3335V53.6044V55.3335C34.5835 57.2408 36.1346 58.7919 38.0419 58.7919H39.771C41.6783 58.7919 43.2294 57.2408 43.2294 55.3335V52.9283C45.1592 52.4285 46.7846 51.6487 48.0745 50.6042C50.5957 48.5604 51.8753 45.5672 51.8753 41.7094C51.8753 39.3906 51.2424 37.3795 49.9974 35.7316C49.4527 35.0036 48.8146 34.3794 48.0884 33.8624C48.6227 33.3748 49.0965 32.8231 49.508 32.211C50.5594 30.6306 51.0902 28.8011 51.0902 26.7693C51.0902 23.1052 49.7709 20.2607 47.1667 18.3188C46.0843 17.5113 44.7874 16.8888 43.2294 16.434V13.8333C43.2294 11.9261 41.6783 10.375 39.771 10.375ZM31.1252 24.2084H36.6568C38.6938 24.2084 39.5584 24.6355 39.8921 24.8897C40.3399 25.2303 40.5682 25.9064 40.5682 26.8973C40.5682 27.8085 40.5682 29.3337 36.911 29.3959H31.1252V24.2084ZM31.1252 38.0418H38.0419C40.3278 38.0746 41.5002 39.4666 41.5002 42.1763C41.5002 44.9274 37.9243 44.9585 37.7721 44.9585H31.1252V38.0418Z" fill="black"/>
<path opacity="0.07" d="M39.7716 11.2397H38.0424C36.6124 11.2397 35.4486 12.4035 35.4486 13.8335V16.4273H33.7195V13.8335C33.7195 12.4035 32.5557 11.2397 31.1257 11.2397H29.3965C27.9665 11.2397 26.8028 12.4035 26.8028 13.8335V16.4273H24.209C22.779 16.4273 21.6152 17.591 21.6152 19.021V50.1462C21.6152 51.5762 22.779 52.7399 24.209 52.7399H26.8028V55.3337C26.8028 56.7637 27.9665 57.9275 29.3965 57.9275H31.1257C32.5557 57.9275 33.7195 56.7637 33.7195 55.3337V52.7399H35.4486V55.3337C35.4486 56.7637 36.6124 57.9275 38.0424 57.9275H39.7716C41.2016 57.9275 42.3653 56.7637 42.3653 55.3337V52.2454C44.4628 51.7889 46.1972 51.0125 47.5304 49.9318C49.8406 48.0591 51.0112 45.2924 51.0112 41.7095C51.0112 39.5826 50.4388 37.748 49.308 36.2523C48.5783 35.277 47.6618 34.5093 46.5759 33.9542C47.456 33.3576 48.1978 32.6141 48.7909 31.7287C49.7454 30.2953 50.2279 28.6266 50.2279 26.7695C50.2279 23.3924 49.0244 20.7831 46.652 19.0107C45.5159 18.1616 44.1083 17.5322 42.3671 17.093V13.8335C42.3653 12.4035 41.2016 11.2397 39.7716 11.2397ZM30.2611 23.344H36.6573C38.4038 23.344 39.6695 23.6327 40.4165 24.2016C41.0996 24.7221 41.4333 25.604 41.4333 26.8974C41.4333 28.4277 40.9215 30.1932 36.9271 30.2607H30.2611V23.344ZM30.2611 37.1774H38.0424C40.8264 37.2171 42.3653 38.993 42.3653 42.1764C42.3653 45.7817 37.9594 45.8232 37.7726 45.8232H30.2611V37.1774Z" fill="black"/>
<path d="M29.3962 12.1042H31.1254C32.0799 12.1042 32.8545 12.8789 32.8545 13.8334V19.0209C32.8545 19.9755 32.0799 20.7501 31.1254 20.7501H29.3962C28.4417 20.7501 27.667 19.9755 27.667 19.0209V13.8334C27.667 12.8789 28.4417 12.1042 29.3962 12.1042ZM38.0421 12.1042H39.7712C40.7257 12.1042 41.5004 12.8789 41.5004 13.8334V19.0209C41.5004 19.9755 40.7257 20.7501 39.7712 20.7501H38.0421C37.0876 20.7501 36.3129 19.9755 36.3129 19.0209V13.8334C36.3129 12.8789 37.0876 12.1042 38.0421 12.1042ZM29.3962 48.4169H31.1254C32.0799 48.4169 32.8545 49.1916 32.8545 50.1461V55.3336C32.8545 56.2881 32.0799 57.0628 31.1254 57.0628H29.3962C28.4417 57.0628 27.667 56.2881 27.667 55.3336V50.1461C27.667 49.1916 28.4417 48.4169 29.3962 48.4169ZM38.0421 48.4169H39.7712C40.7257 48.4169 41.5004 49.1916 41.5004 50.1461V55.3336C41.5004 56.2881 40.7257 57.0628 39.7712 57.0628H38.0421C37.0876 57.0628 36.3129 56.2881 36.3129 55.3336V50.1461C36.3129 49.1916 37.0876 48.4169 38.0421 48.4169ZM22.4795 50.1461V19.0209C22.4795 18.0664 23.2542 17.2918 24.2087 17.2918H36.657C40.8243 17.2918 43.9783 18.0958 46.1329 19.704C48.2874 21.3121 49.3612 23.669 49.3612 26.7694C49.3612 28.464 48.9289 29.958 48.0713 31.2479C47.2067 32.5379 46.0049 33.4838 44.4642 34.0855C46.2211 34.5316 47.6044 35.4222 48.6177 36.7744C49.6327 38.1162 50.1463 39.7572 50.1463 41.7095C50.1463 45.0329 49.0932 47.5523 46.9854 49.2608C44.8775 50.9692 41.8791 51.8407 37.9815 51.8753H24.2087C23.2542 51.8753 22.4795 51.1006 22.4795 50.1461ZM29.3962 31.1252H36.9406C40.5079 31.0646 42.2976 29.7003 42.2976 26.8973C42.2976 25.3307 41.8445 24.2016 40.9402 23.5133C40.0358 22.8251 38.6092 22.4793 36.657 22.4793H29.3962V31.1252ZM29.3962 36.3127V46.6877H37.7723C39.434 46.6877 43.2296 45.8768 43.2296 42.1763C43.2296 38.4759 41.2981 36.3594 38.0421 36.3127H29.3962Z" fill="white"/>
<defs>
<linearGradient id="paint0_linear_109_1163" x1="17.29" y1="4.629" x2="51.877" y2="64.538" gradientUnits="userSpaceOnUse">
<stop stop-color="#FFDA1C"/>
<stop offset="1" stop-color="#FEB705"/>
</linearGradient>
</defs>
</svg>
