<svg width="100" height="100" viewBox="0 0 100 100" fill="none" xmlns="http://www.w3.org/2000/svg">
<path d="M49.9995 0C22.3863 0 0.000976562 22.386 0.000976562 49.9992C0.000976562 77.6114 22.3863 100 49.9991 100C77.612 100 99.9996 77.6124 99.9996 49.9992C99.9986 22.386 77.6127 0 49.9995 0ZM71.0421 65.0999C71.0421 66.0812 69.9225 66.9092 68.5988 66.9092H25.1742C23.8499 66.9092 22.7309 66.0809 22.7309 65.0999V44.0019C22.7309 43.0216 23.8496 42.1926 25.1742 42.1926H68.5985C69.9221 42.1926 71.0418 43.0216 71.0418 44.0019V65.0999H71.0421ZM79.6873 56.4527C79.687 57.434 78.5673 58.263 77.2437 58.263H76.2287V44.0016C76.2287 40.144 72.8061 37.005 68.5985 37.005H31.3765V35.3554C31.3765 34.3751 32.4951 33.5461 33.8197 33.5461H77.244C78.5677 33.5461 79.6873 34.3751 79.6873 35.3554V56.4527V56.4527Z" fill="#025FA7"/>
<path d="M46.4474 52.7344C44.4245 52.4924 43.4622 52.2217 43.4622 51.3451C43.4622 49.9834 45.4558 49.8364 46.3134 49.8364C47.5808 49.8364 48.9814 50.4468 49.4354 51.1971L49.6351 51.5281L52.6177 50.1474L52.423 49.7508C51.396 47.6508 49.5814 47.0075 48.1704 46.7448V44.8809H44.6828V46.7345C41.6735 47.2125 39.8909 48.9158 39.8909 51.3451C39.8909 55.3547 43.6395 55.7733 46.1181 56.05C48.3081 56.3093 49.3721 56.8513 49.3721 57.7073C49.3721 59.3956 46.9678 59.5263 46.2304 59.5263C44.5715 59.5263 42.9755 58.7076 42.5182 57.6216L42.3495 57.2223L39.1152 58.5933L39.2856 58.992C40.1786 61.0843 42.0875 62.4052 44.6828 62.7416V64.7489H48.1704V62.6412C50.669 62.3232 53.0663 60.7169 53.0663 57.7066C53.0673 53.5487 49.0841 53.0587 46.4474 52.7344Z" fill="#025FA7"/>
</svg>
